<svg width="196" height="53" viewBox="0 0 196 53" fill="none" xmlns="http://www.w3.org/2000/svg">
<path fill-rule="evenodd" clip-rule="evenodd" d="M30 34.0678L44.5417 30.1822C45.2077 30.0353 45.6892 29.9238 46.1699 30.1084C46.5406 30.2568 46.8367 30.6644 47.0951 31.0343L51.5722 37.1751C51.8314 37.5457 52.1282 37.9512 52.4967 38.0996C52.9781 38.2849 53.4596 38.1734 54.1256 38.0257L68.6304 34.1402V7.12882L54.0887 11.0144C53.4234 11.1628 52.9419 11.2736 52.4605 11.0889C52.0905 10.9405 51.7952 10.5337 51.536 10.1637L47.0582 4.02154C46.7998 3.65159 46.5029 3.24472 46.1337 3.09703C45.6523 2.91169 45.1715 3.02318 44.5055 3.17087L30 7.0557V34.0678Z" fill="#BF3E36"/>
<path fill-rule="evenodd" clip-rule="evenodd" d="M85.0972 14.8623V8.20903L87.4342 7.07168V18.446H85.0972L80.5167 10.5308V18.446H78.1797V8.20903L80.5015 7.07168L85.0972 14.8623ZM102.714 18.446H100.377V8.89536H96.919L98.0411 6.96308H106.049L104.911 8.89536H102.714V18.446ZM108.969 18.446H106.632V8.20903L108.969 7.07168V18.446ZM128.94 14.8623V8.20903L131.278 7.07168V18.446H128.94L124.359 10.5308V18.446H122.021V8.20903L124.343 7.07168L128.94 14.8623ZM143.397 18.446V8.20903L145.736 7.07168V16.5137H151.173L150.035 18.446H143.397ZM83.2902 22.5936C85.035 22.5936 86.9209 23.5905 86.952 25.6473C86.952 26.6131 86.6089 27.3306 85.8922 27.9387C86.6241 28.452 87.2945 29.5264 87.2786 30.7274C87.2474 32.5504 85.6742 34.015 83.8513 33.9687H78.1804V23.7317L80.5174 22.5943L83.2902 22.5936ZM83.5081 27.159C83.8448 27.1438 84.1626 26.9991 84.3949 26.755C84.6273 26.5109 84.7563 26.1863 84.7548 25.8493C84.7548 25.1485 84.2096 24.557 83.5081 24.5259H80.5167V27.159H83.5081ZM83.8506 32.0342C84.6295 31.9879 85.2225 31.3341 85.2225 30.5551C85.2225 29.7913 84.6143 29.1521 83.8506 29.1057H80.5167V32.0342H83.8506ZM87.238 33.9672L90.603 24.1668L93.829 22.5777L97.724 33.9672H95.3407L94.5928 31.7077H90.4329L89.6228 33.9672H87.238ZM92.4883 25.5221L91.0707 29.8065H93.9217L92.4883 25.5221ZM105.539 30.3828V23.7303L107.876 22.5936V33.9672H105.539L100.957 26.052V33.9672H98.6196V23.7303L100.941 22.5936L105.539 30.3828ZM111.544 30.3995V33.9672H109.206V23.7303L111.544 22.5936V27.6252L115.471 23.1851L118.788 22.6088L114.286 27.563L119.287 33.9831H116.405L112.758 29.0435L111.544 30.3995ZM83.6674 49.9199C79.9903 49.9199 78.3078 47.0993 78.1833 43.9681C78.1218 42.2234 78.9152 40.5561 79.632 39.6837L83.06 38.0164H83.6674C87.3444 38.0164 89.1515 40.8362 89.1515 43.9681C89.1515 47.0993 87.3437 49.9199 83.6674 49.9199ZM86.939 43.9681C86.939 41.9888 85.9884 40.0413 83.6667 40.0413C81.3608 40.0413 80.4102 42.0055 80.4102 43.9681C80.4102 45.9308 81.3601 47.8935 83.6667 47.8935C85.9884 47.8935 86.939 45.9468 86.939 43.9681ZM89.9051 49.5456V39.3094L92.2421 38.1728H97.8507L96.7293 40.0884H92.2421V42.7381H97.1499L96.0277 44.6545H92.2421V49.5456H89.9051ZM111.316 45.6825H113.56V45.7448C113.56 48.7978 110.537 49.9206 108.62 49.9047C105.209 49.8895 103.573 46.9907 103.573 44C103.573 42.2552 103.853 41.039 104.896 39.6692L108.293 38.0019H108.838C113.061 38.0171 113.559 41.3828 113.559 41.9273V42.0359H111.346V42.0214C111.346 41.3199 110.614 39.9016 108.76 39.9175C106.782 39.9327 105.83 41.8817 105.861 44C105.877 45.8852 106.687 47.9268 108.744 47.9268C110.567 47.9268 111.315 46.6953 111.315 45.7136L111.316 45.6825ZM113.488 49.5456L116.853 39.7467L120.078 38.1576L123.972 49.5456H121.59L120.842 47.2876H116.682L115.872 49.5456H113.488ZM118.738 41.1012L117.32 45.3871H120.171L118.738 41.1012ZM131.569 45.962V39.3094L133.906 38.1728V49.5456H131.569L126.989 41.6312V49.5456H124.651V39.3094L126.973 38.1728L131.569 45.962ZM134.661 49.5456L138.026 39.7467L141.251 38.1576L145.146 49.5456H142.762L142.015 47.2876H137.855L137.045 49.5456H134.661ZM139.911 41.1012L138.493 45.3871H141.345L139.911 41.1012ZM145.777 49.5456V39.3094L148.13 38.1728H151.309C152.492 38.1728 155.267 39.3579 155.267 43.672C155.267 48.1447 152.415 49.5456 151.325 49.5456H145.777ZM150.03 47.6293C151.355 47.6293 152.898 47.0211 152.882 43.6713C152.867 41.023 151.806 40.0884 150.03 40.0884H148.115V47.6293H150.03ZM154.96 49.5456L158.325 39.7467L161.55 38.1576L165.446 49.5456H163.062L162.314 47.2876H158.154L157.344 49.5456H154.96ZM160.211 41.1012L158.792 45.3871H161.643L160.211 41.1012ZM115.518 18.8196C111.842 18.8196 110.16 15.9997 110.035 12.8678C109.973 11.123 110.768 9.45571 111.485 8.58333L114.912 6.91675H115.518C119.196 6.91675 121.003 9.73661 121.003 12.8678C121.003 15.9997 119.196 18.8196 115.518 18.8196ZM118.791 12.8678C118.791 10.8899 117.841 8.94169 115.518 8.94169C113.213 8.94169 112.264 10.9051 112.264 12.8678C112.264 14.8312 113.213 16.7946 115.518 16.7946C117.84 16.7946 118.791 14.8464 118.791 12.8678ZM88.408 18.446L91.773 8.64559L94.9983 7.05648L98.894 18.4453H96.5099L95.762 16.1857H91.6021L90.792 18.4453L88.408 18.446ZM93.6582 10.0016L92.2407 14.2861H95.0917L93.6582 10.0016ZM132.033 18.446L135.398 8.64559L138.622 7.05648L142.518 18.4453H140.134L139.386 16.1857H135.226L134.416 18.4453L132.033 18.446ZM137.283 10.0016L135.864 14.2861H138.715L137.283 10.0016Z" fill="#A5A5A5"/>
</svg>
