<svg width="196" height="53" viewBox="0 0 196 53" fill="none" xmlns="http://www.w3.org/2000/svg">
<path fill-rule="evenodd" clip-rule="evenodd" d="M30 34.0699L44.5427 30.1841C45.2088 30.0371 45.6902 29.9256 46.171 30.1102C46.5417 30.2587 46.8378 30.6663 47.0963 31.0363L51.5736 37.1774C51.8328 37.5481 52.1297 37.9535 52.4982 38.102C52.9797 38.2873 53.4612 38.1758 54.1273 38.0281L68.633 34.1423V7.1291L54.0903 11.0149C53.425 11.1633 52.9435 11.2741 52.462 11.0895C52.092 10.9411 51.7966 10.5342 51.5374 10.1642L47.0594 4.02161C46.8009 3.65163 46.504 3.24473 46.1348 3.09703C45.6533 2.91168 45.1726 3.02318 44.5065 3.17088L30 7.05597V34.0699Z" fill="#646565"/>
<path fill-rule="evenodd" clip-rule="evenodd" d="M85.1016 14.8629V8.20912L87.4387 7.07169V18.4468H85.1016L80.5207 10.5311V18.4468H78.1836V8.20912L80.5055 7.07169L85.1016 14.8629ZM102.72 18.4468H100.383V8.89549H96.9241L98.0464 6.96308H106.055L104.917 8.89549H102.72V18.4468ZM108.975 18.4468H106.638V8.20912L108.975 7.07169V18.4468ZM128.948 14.8629V8.20912L131.285 7.07169V18.4468H128.948L124.366 10.5311V18.4468H122.028V8.20912L124.35 7.07169L128.948 14.8629ZM143.406 18.4468V8.20912L145.744 7.07169V16.5144H151.181L150.043 18.4468H143.406ZM83.2945 22.5947C85.0393 22.5947 86.9254 23.5917 86.9565 25.6486C86.9565 26.6144 86.6134 27.3319 85.8966 27.9401C86.6286 28.4535 87.299 29.5279 87.2831 30.7291C87.2519 32.5521 85.6787 34.0168 83.8556 33.9705H78.1843V23.7328L80.5215 22.5954L83.2945 22.5947ZM83.5124 27.1604C83.8491 27.1452 84.1669 27.0004 84.3993 26.7563C84.6317 26.5122 84.7606 26.1876 84.7591 25.8506C84.7591 25.1498 84.214 24.5582 83.5124 24.5271H80.5207V27.1604H83.5124ZM83.8548 32.0359C84.6339 31.9896 85.2269 31.3358 85.2269 30.5567C85.2269 29.7929 84.6187 29.1536 83.8548 29.1072H80.5207V32.0359H83.8548ZM87.2425 33.969L90.6078 24.168L93.834 22.5788L97.7292 33.969H95.3458L94.5979 31.7094H90.4376L89.6275 33.969H87.2425ZM92.4931 25.5233L91.0755 29.8081H93.9267L92.4931 25.5233ZM105.544 30.3844V23.7314L107.881 22.5947V33.969H105.544L100.963 26.0533V33.969H98.6249V23.7314L100.947 22.5947L105.544 30.3844ZM111.55 30.4011V33.969H109.212V23.7314L111.55 22.5947V27.6266L115.477 23.1862L118.795 22.6099L114.292 27.5644L119.293 33.985H116.412L112.764 29.045L111.55 30.4011ZM83.6717 49.9228C79.9944 49.9228 78.3117 47.102 78.1872 43.9707C78.1257 42.2258 78.9192 40.5584 79.636 39.6859L83.0642 38.0185H83.6717C87.349 38.0185 89.1561 40.8385 89.1561 43.9707C89.1561 47.102 87.3482 49.9228 83.6717 49.9228ZM86.9435 43.9707C86.9435 41.9912 85.9929 40.0436 83.6709 40.0436C81.3649 40.0436 80.4143 42.0078 80.4143 43.9707C80.4143 45.9335 81.3642 47.8963 83.6709 47.8963C85.9929 47.8963 86.9435 45.9494 86.9435 43.9707ZM89.9098 49.5485V39.3116L92.247 38.1749H97.8559L96.7344 40.0906H92.247V42.7406H97.1551L96.0329 44.657H92.247V49.5485H89.9098ZM111.322 45.6851H113.566V45.7474C113.566 48.8006 110.543 49.9236 108.626 49.9076C105.215 49.8924 103.579 46.9935 103.579 44.0025C103.579 42.2576 103.859 41.0413 104.902 39.6714L108.298 38.004H108.844C113.067 38.0192 113.566 41.3852 113.566 41.9296V42.0383H111.352V42.0238C111.352 41.3222 110.62 39.9038 108.766 39.9198C106.788 39.935 105.836 41.884 105.867 44.0025C105.882 45.8879 106.693 47.9296 108.75 47.9296C110.573 47.9296 111.321 46.698 111.321 45.7163L111.322 45.6851ZM113.494 49.5485L116.859 39.7489L120.085 38.1597L123.979 49.5485H121.597L120.849 47.2903H116.688L115.878 49.5485H113.494ZM118.745 41.1035L117.326 45.3897H120.178L118.745 41.1035ZM131.576 45.9646V39.3116L133.914 38.1749V49.5485H131.576L126.996 41.6335V49.5485H124.658V39.3116L126.98 38.1749L131.576 45.9646ZM134.669 49.5485L138.034 39.7489L141.26 38.1597L145.154 49.5485H142.77L142.023 47.2903H137.863L137.053 49.5485H134.669ZM139.919 41.1035L138.501 45.3897H141.353L139.919 41.1035ZM145.785 49.5485V39.3116L148.138 38.1749H151.318C152.501 38.1749 155.276 39.3601 155.276 43.6745C155.276 48.1475 152.424 49.5485 151.334 49.5485H145.785ZM150.039 47.632C151.364 47.632 152.907 47.0239 152.891 43.6738C152.876 41.0253 151.815 40.0906 150.039 40.0906H148.123V47.632H150.039ZM154.969 49.5485L158.334 39.7489L161.56 38.1597L165.456 49.5485H163.071L162.323 47.2903H158.163L157.353 49.5485H154.969ZM160.22 41.1035L158.802 45.3897H161.653L160.22 41.1035ZM115.525 18.8204C111.848 18.8204 110.166 16.0003 110.041 12.8682C109.979 11.1233 110.774 9.45588 111.491 8.58344L114.918 6.91675H115.525C119.203 6.91675 121.01 9.7368 121.01 12.8682C121.01 16.0003 119.203 18.8204 115.525 18.8204ZM118.798 12.8682C118.798 10.8902 117.848 8.94183 115.525 8.94183C113.22 8.94183 112.27 10.9054 112.27 12.8682C112.27 14.8317 113.22 16.7953 115.525 16.7953C117.847 16.7953 118.798 14.8469 118.798 12.8682ZM88.4126 18.4468L91.7778 8.64571L95.0033 7.05648L98.8993 18.446H96.5151L95.7671 16.1864H91.6069L90.7968 18.446L88.4126 18.4468ZM93.6631 10.0018L92.2455 14.2866H95.0967L93.6631 10.0018ZM132.041 18.4468L135.406 8.64571L138.63 7.05648L142.526 18.446H140.142L139.394 16.1864H135.233L134.423 18.446L132.041 18.4468ZM137.29 10.0018L135.872 14.2866H138.723L137.29 10.0018Z" fill="#646565"/>
</svg>
