<svg width="196" height="53" viewBox="0 0 196 53" fill="none" xmlns="http://www.w3.org/2000/svg">
<path d="M164.997 21.5897C164.272 20.2761 162.709 19.2799 161.012 19.2799C159.52 19.2799 158.207 19.8912 158.207 21.4761C158.207 22.8108 159.86 23.716 161.58 24.8258C163.457 26.0025 165.405 27.4499 165.405 29.9634C165.405 33.2454 162.214 35.259 158.524 35.259C157.008 35.259 155.424 34.965 153.636 34.286L153.93 29.9176C154.79 31.6612 156.398 33.0409 158.772 33.0409C160.606 33.0409 161.964 32.1589 161.964 30.6191C161.964 29.3063 160.854 28.492 159.497 27.6777C156.645 25.9581 154.836 24.5762 154.836 22.0874C154.836 18.3521 157.958 17.1077 161.194 17.1077C163.072 17.1077 164.25 17.4475 165.449 17.4475L164.997 21.5897ZM149.178 25.504C148.769 26.1837 148.25 27.1101 147.932 27.7905C147.661 29.08 147.525 30.8011 147.525 32.7011C147.525 33.4936 147.661 34.5567 148.023 34.9191H143.293C144.129 34.1274 144.47 29.2626 144.426 27.7228C143.792 25.528 142.93 23.4228 141.618 20.8649C140.783 19.2588 139.808 17.7408 139.197 17.4475C140.26 17.358 141.618 17.2896 142.275 17.2896C143.451 17.2896 143.769 17.4475 144.494 19.0324C145.623 21.5904 146.461 23.5123 146.96 24.9393C148.159 23.0604 148.996 21.7708 150.083 20.0054C150.354 19.5753 150.581 19.0324 150.581 18.5114C150.581 18.1032 150.512 17.6513 150.332 17.4475H155.017C154.111 17.6513 150.037 24.0566 149.178 25.504ZM132.724 21.5452L129.919 27.6318H134.489L132.724 21.5452ZM138.224 35.0771C136.729 35.0771 136.617 35.0327 135.417 30.9138L134.988 29.3973C134.265 29.7364 132.973 29.895 130.914 29.895H128.832L128.47 30.6642C127.949 31.8198 127.248 33.1756 127.248 34.1281C127.248 34.3545 127.271 34.6026 127.361 34.9199H115.004C115.706 34.1281 115.933 31.5709 116.272 26.9303L116.34 25.822C116.521 23.1739 116.658 21.137 116.634 19.7121C116.612 18.5354 116.498 17.7881 116.182 17.449H120.958C120.278 17.97 120.028 20.7754 119.712 25.416L119.622 26.5243C119.508 28.2446 119.282 30.0093 119.282 31.7296C119.282 32.5206 119.599 32.7018 120.415 32.7018C123.31 32.7018 124.036 32.6341 125.347 31.7514C126.161 30.2574 127.091 28.3785 127.995 26.4326L129.219 23.8302C130.372 21.3859 131.503 18.8957 131.503 18.4212C131.503 18.0806 131.413 17.7648 131.278 17.4475H135.08C135.08 17.4475 136.618 23.1513 136.958 24.3724L137.704 27.1341C138.993 31.774 139.809 34.0364 140.895 34.9191C139.989 35.0327 138.699 35.0771 138.224 35.0771ZM107.424 35.259C102.92 35.259 100.317 31.5476 100.317 27.3837C100.317 21.5904 103.462 17.1077 109.46 17.1077C111.338 17.1077 112.221 17.4475 113.737 17.4475L113.285 21.9062C112.424 20.3445 111.021 19.2806 109.143 19.2806C105.409 19.2806 103.893 23.3099 103.893 26.7724C103.893 30.5289 105.998 32.5876 108.803 32.5876C110.32 32.5876 111.655 32.18 113.896 30.6191C112.991 33.5169 110.885 35.259 107.424 35.259ZM91.8084 19.5753C91.3783 19.5753 90.8565 19.5753 90.4504 19.6205C90.3144 20.3671 90.2008 21.6573 90.0422 23.7386L89.9512 24.9619C90.179 25.0077 90.4723 25.031 90.7444 25.031C92.9159 25.031 94.4107 23.7168 94.4107 21.7264C94.4107 20.3671 93.4602 19.5753 91.8084 19.5753ZM98.1213 35.6665C96.8317 35.6665 96.5145 35.462 96.0851 34.8733L91.1964 28.0837C90.8114 27.5634 90.5174 27.1334 89.9068 27.1334H89.7933L89.7038 28.4461C89.5896 30.2341 89.5219 31.6612 89.5219 32.7244C89.5444 33.9011 89.6805 34.6244 89.9978 34.9191H85.2677C85.9459 34.3079 86.194 32.271 86.5797 26.9296L86.6481 25.8213C86.8293 23.1964 86.9654 21.1588 86.9421 19.734C86.9188 18.4889 86.7842 17.7189 86.4437 17.4475H92.8934C94.9979 17.4475 97.8949 17.8106 97.8949 21.2272C97.8949 24.0326 96.016 25.5724 93.6859 26.2958C93.9122 26.5002 94.3189 27.0206 94.5686 27.3379L98.1213 32.0454C100.339 34.965 100.52 35.1003 101.313 35.5079C100.317 35.6207 98.9822 35.6665 98.1213 35.6665ZM76.0803 21.5452L73.2495 27.6318H77.8435L76.0803 21.5452ZM81.5782 35.0771C80.0856 35.0771 79.9721 35.0327 78.7728 30.9138L78.3428 29.3973C77.6172 29.7364 76.3277 29.895 74.2683 29.895H72.1863L71.8246 30.6642C71.4622 31.48 70.5795 33.1552 70.6021 34.1281C70.6021 34.3545 70.6246 34.5808 70.7156 34.9199H66.5291C67.7283 33.7206 69.2449 30.9371 71.3494 26.4333L72.572 23.831C73.6803 21.4776 74.8577 18.8069 74.8577 18.4219C74.8577 18.0814 74.7682 17.7655 74.6314 17.4482H78.4345C78.4345 17.4482 79.4285 21.228 80.3119 24.3731L81.0586 27.1348C82.3488 31.7747 83.1631 34.0372 84.2496 34.9199C83.2766 35.0327 82.0541 35.0771 81.5782 35.0771ZM60.0328 19.5528C59.6929 19.5528 59.241 19.5528 58.811 19.5986C58.6298 20.8204 58.5162 21.9971 58.4267 23.2867C58.4267 23.2867 58.3583 24.395 58.3583 24.3498H58.811C61.029 24.3498 63.0666 23.5807 63.0666 21.5452C63.0666 20.3671 62.0929 19.5528 60.0328 19.5528ZM59.4681 26.4777H58.2237L58.0425 29.0574C57.9522 30.1898 57.9064 31.1394 57.8838 32.271C57.8838 32.4304 58.3816 32.7695 59.5576 32.7695C62.002 32.7695 63.6095 31.5476 63.6095 29.5326C63.6095 27.292 61.7756 26.4777 59.4681 26.4777ZM59.7395 34.9191H53.6289C54.3988 34.2395 54.6026 31.5921 54.9417 26.9296L55.0094 25.8438C55.1913 23.1957 55.3267 21.1588 55.3041 19.734C55.2816 18.5114 55.1455 17.7189 54.8056 17.4475H61.6403C63.2696 17.4475 66.5291 17.5385 66.5291 20.9325C66.5291 23.1957 64.4238 24.5987 62.5004 25.0979C65.2163 25.3694 67.2532 26.6814 67.2532 29.4875C67.2524 32.5199 64.4012 34.9191 59.7395 34.9191Z" fill="#117B9E"/>
<path d="M39.8755 15.0015C39.2701 15.0015 39.1449 15.107 38.9484 15.326C38.8678 15.3212 38.7869 15.319 38.7061 15.3195C38.2404 15.3195 37.6422 15.3879 37.1321 15.7292C36.6394 16.0545 36.4051 16.6301 36.6678 17.0514C36.6678 17.0514 36.8439 16.7931 37.4232 16.7931C37.5047 16.7931 37.5949 16.8018 37.691 16.8098C38.4914 16.9044 39.0838 17.3258 39.0118 18.4384C38.9477 19.5504 38.5307 20.7904 36.825 20.805C36.825 20.805 36.6052 20.805 36.3709 20.7831C35.5769 20.6966 35.3273 20.1981 35.3273 20.1981C35.3273 20.1981 36.0136 20.0118 36.0194 19.1407C36.0136 18.5483 35.4976 18.0062 34.7532 17.7872C34.4961 17.7146 34.23 17.6788 33.9629 17.6809C33.0853 17.6809 32.0999 18.0484 31.4355 18.9158C29.9292 20.9047 29.8069 23.8039 30.1744 26.5C30.5441 29.202 32.2579 31.7047 32.3081 31.7731C32.3445 31.8211 32.3772 31.8473 32.4143 31.8473C32.4363 31.8459 32.4572 31.8369 32.4733 31.8218C33.2133 31.1036 33.9192 30.1219 34.2212 29.4655C34.5443 29.7231 34.3755 30.2711 34.1979 30.8561C34.0291 31.4543 33.6187 32.2482 33.4702 32.5044C33.3269 32.7547 33.1347 33.0458 33.3931 33.1979C33.4234 33.2152 33.4579 33.2237 33.4928 33.2226C33.8246 33.2226 34.6055 32.6441 35.4765 31.4827C36.4517 30.1757 36.9465 29.0158 36.9465 29.0158C37.0178 29.0318 37.1372 29.1526 37.1175 29.4815C37.1044 29.8155 36.7609 31.0584 36.0922 32.2155C35.4161 33.3718 34.7917 34.0952 34.6659 34.2597C34.588 34.355 34.6542 34.4147 34.7044 34.4532C34.7539 34.4867 35.9495 35.603 37.6866 36.5461C39.7446 37.6428 40.6571 37.84 40.6571 37.84C40.6571 37.84 41.5675 37.6479 43.6255 36.5519C45.3618 35.6074 46.5625 34.486 46.6069 34.4481C46.6571 34.4139 46.7211 34.3601 46.6455 34.2553C46.5268 34.0981 45.9003 33.3711 45.2257 32.2148C44.5591 31.0657 44.2025 29.8148 44.1974 29.4851C44.1836 29.1526 44.2957 29.0427 44.3641 29.015C44.3641 29.015 44.864 30.1823 45.8392 31.482C46.7146 32.6449 47.4881 33.2219 47.8214 33.2219C47.8575 33.2231 47.8932 33.2146 47.9248 33.1972C48.1751 33.0451 47.9888 32.7496 47.8418 32.5022C47.705 32.2475 47.2888 31.4587 47.1119 30.8554C46.9424 30.2638 46.7663 29.7165 47.0952 29.4648C47.3979 30.1212 48.0987 31.1079 48.841 31.816C48.849 31.8251 48.8588 31.8326 48.8699 31.8378C48.8809 31.8431 48.8928 31.846 48.905 31.8465C48.9378 31.8465 48.9727 31.8211 49.0032 31.7767C49.0578 31.7039 50.7745 29.2057 51.1413 26.4993C51.5095 23.7973 51.388 20.9047 49.8801 18.9151C49.2201 18.0455 48.2275 17.6758 47.3441 17.6758C47.0683 17.6758 46.8048 17.7115 46.564 17.7806C45.8137 18.0062 45.2999 18.5534 45.3043 19.14C45.3043 20.011 45.9942 20.1973 45.9942 20.1973C45.9942 20.1973 45.7635 20.6834 44.9412 20.7824C44.7934 20.8007 44.6447 20.8099 44.4958 20.8101C43.8772 20.8101 43.3562 20.6136 42.8759 19.9354C42.4102 19.2826 42.4255 17.9385 42.3985 17.4903C42.3774 17.0354 42.2799 16.0152 41.8018 15.5989C41.3252 15.1718 40.7444 15.0284 40.0204 15C39.9672 15.0015 39.9199 15.0015 39.8755 15.0015Z" fill="#117B9E"/>
</svg>
