<svg width="196" height="53" viewBox="0 0 196 53" fill="none" xmlns="http://www.w3.org/2000/svg">
<path d="M165.004 21.5896C164.279 20.276 162.717 19.2797 161.02 19.2797C159.527 19.2797 158.214 19.8911 158.214 21.4761C158.214 22.8108 159.867 23.7161 161.587 24.8259C163.465 26.0027 165.412 27.4502 165.412 29.9638C165.412 33.246 162.221 35.2597 158.532 35.2597C157.015 35.2597 155.431 34.9657 153.643 34.2867L153.937 29.918C154.798 31.6617 156.405 33.0415 158.78 33.0415C160.614 33.0415 161.971 32.1595 161.971 30.6195C161.971 29.3067 160.861 28.4923 159.505 27.678C156.652 25.9583 154.843 24.5763 154.843 22.0874C154.843 18.3519 157.965 17.1074 161.202 17.1074C163.079 17.1074 164.258 17.4473 165.456 17.4473L165.004 21.5896ZM149.184 25.5042C148.775 26.1839 148.257 27.1103 147.938 27.7908C147.668 29.0804 147.532 30.8015 147.532 32.7017C147.532 33.4942 147.668 34.5574 148.029 34.9198H143.3C144.136 34.128 144.477 29.263 144.432 27.7231C143.798 25.5282 142.937 23.4228 141.625 20.8648C140.789 19.2587 139.815 17.7406 139.203 17.4473C140.267 17.3577 141.625 17.2894 142.282 17.2894C143.458 17.2894 143.776 17.4473 144.501 19.0323C145.63 21.5903 146.468 23.5123 146.966 24.9394C148.166 23.0604 149.003 21.7708 150.09 20.0053C150.361 19.5752 150.588 19.0323 150.588 18.5112C150.588 18.103 150.519 17.651 150.339 17.4473H155.024C154.119 17.651 150.044 24.0567 149.184 25.5042ZM132.73 21.5452L129.924 27.6321H134.495L132.73 21.5452ZM138.23 35.0777C136.735 35.0777 136.623 35.0333 135.423 30.9143L134.994 29.3976C134.271 29.7368 132.979 29.8954 130.92 29.8954H128.838L128.476 30.6647C127.955 31.8203 127.254 33.1761 127.254 34.1287C127.254 34.3551 127.276 34.6032 127.367 34.9205H115.009C115.712 34.1288 115.938 31.5714 116.277 26.9306L116.345 25.8222C116.526 23.1739 116.663 21.137 116.639 19.712C116.617 18.5353 116.503 17.7879 116.187 17.4487H120.963C120.283 17.9698 120.034 20.7753 119.718 25.4161L119.627 26.5245C119.513 28.2449 119.288 30.0097 119.288 31.7301C119.288 32.5212 119.604 32.7024 120.42 32.7024C123.316 32.7024 124.041 32.6347 125.353 31.7519C126.167 30.2579 127.096 28.3788 128 26.4328L129.224 23.8303C130.378 21.3859 131.509 18.8955 131.509 18.421C131.509 18.0804 131.419 17.7646 131.284 17.4473H135.086C135.086 17.4473 136.624 23.1514 136.964 24.3725L137.71 27.1343C139 31.7745 139.815 34.0371 140.902 34.9198C139.995 35.0333 138.706 35.0777 138.23 35.0777ZM107.428 35.2597C102.924 35.2597 100.321 31.5481 100.321 27.384C100.321 21.5903 103.466 17.1074 109.465 17.1074C111.343 17.1074 112.226 17.4473 113.742 17.4473L113.29 21.9062C112.429 20.3444 111.026 19.2805 109.148 19.2805C105.414 19.2805 103.897 23.31 103.897 26.7727C103.897 30.5293 106.003 32.5881 108.808 32.5881C110.325 32.5881 111.659 32.1806 113.901 30.6195C112.996 33.5175 110.89 35.2597 107.428 35.2597ZM91.8123 19.5752C91.3821 19.5752 90.8603 19.5752 90.4543 19.6203C90.3182 20.367 90.2046 21.6573 90.046 23.7387L89.955 24.962C90.1828 25.0079 90.4761 25.0312 90.7483 25.0312C92.9199 25.0312 94.4147 23.7168 94.4147 21.7264C94.4147 20.367 93.4642 19.5752 91.8123 19.5752ZM98.1255 35.6672C96.8359 35.6672 96.5186 35.4627 96.0892 34.874L91.2002 28.0841C90.8152 27.5637 90.5212 27.1336 89.9106 27.1336H89.7971L89.7076 28.4465C89.5933 30.2346 89.5257 31.6617 89.5257 32.7249C89.5482 33.9017 89.6843 34.6251 90.0016 34.9198H85.2712C85.9495 34.3085 86.1976 32.2715 86.5834 26.9299L86.6518 25.8215C86.833 23.1965 86.9691 21.1588 86.9458 19.7339C86.9225 18.4887 86.7879 17.7187 86.4473 17.4473H92.8973C95.002 17.4473 97.8991 17.8104 97.8991 21.2272C97.8991 24.0327 96.0201 25.5726 93.6898 26.296C93.9162 26.5005 94.323 27.0208 94.5726 27.3381L98.1255 32.0459C100.344 34.9657 100.524 35.101 101.317 35.5086C100.321 35.6214 98.9864 35.6672 98.1255 35.6672ZM76.0834 21.5452L73.2524 27.6321H77.8467L76.0834 21.5452ZM81.5815 35.0777C80.0889 35.0777 79.9754 35.0333 78.7761 30.9143L78.346 29.3976C77.6204 29.7368 76.3308 29.8954 74.2713 29.8954H72.1892L71.8275 30.6647C71.4651 31.4805 70.5823 33.1557 70.6049 34.1287C70.6049 34.3551 70.6274 34.5814 70.7184 34.9205H66.5317C67.731 33.7212 69.2477 30.9376 71.3523 26.4335L72.5749 23.8311C73.6833 21.4775 74.8608 18.8067 74.8608 18.4217C74.8608 18.0812 74.7713 17.7653 74.6344 17.448H78.4377C78.4377 17.448 79.4318 21.2279 80.3153 24.3733L81.0619 27.1351C82.3522 31.7752 83.1666 34.0378 84.2531 34.9205C83.2801 35.0333 82.0575 35.0777 81.5815 35.0777ZM60.035 19.5527C59.6952 19.5527 59.2433 19.5527 58.8132 19.5985C58.632 20.8204 58.5184 21.9971 58.4289 23.2867C58.4289 23.2867 58.3605 24.3951 58.3605 24.35H58.8132C61.0313 24.35 63.069 23.5808 63.069 21.5452C63.069 20.367 62.0953 19.5527 60.035 19.5527ZM59.4703 26.4779H58.2259L58.0447 29.0578C57.9544 30.1902 57.9086 31.1399 57.886 32.2716C57.886 32.4309 58.3838 32.77 59.5598 32.77C62.0043 32.77 63.612 31.5481 63.612 29.533C63.612 27.2923 61.778 26.4779 59.4703 26.4779ZM59.7418 34.9198H53.6309C54.4008 34.2401 54.6046 31.5925 54.9437 26.9299L55.0114 25.844C55.1933 23.1958 55.3287 21.1588 55.3061 19.7339C55.2836 18.5112 55.1475 17.7187 54.8076 17.4473H61.6427C63.2721 17.4473 66.5317 17.5383 66.5317 20.9325C66.5317 23.1957 64.4263 24.5989 62.5028 25.0981C65.2188 25.3695 67.2558 26.6817 67.2558 29.4879C67.2551 32.5204 64.4037 34.9198 59.7418 34.9198Z" fill="#646565"/>
<path d="M39.876 15.0015C39.2706 15.0015 39.1454 15.107 38.9489 15.3261C38.8682 15.3212 38.7874 15.319 38.7066 15.3195C38.2408 15.3195 37.6426 15.3879 37.1324 15.7292C36.6397 16.0545 36.4054 16.6302 36.6681 17.0515C36.6681 17.0515 36.8442 16.7932 37.4235 16.7932C37.505 16.7932 37.5953 16.8019 37.6913 16.8099C38.4919 16.9045 39.0843 17.3259 39.0122 18.4386C38.9482 19.5506 38.5312 20.7907 36.8253 20.8053C36.8253 20.8053 36.6055 20.8053 36.3712 20.7834C35.5772 20.6968 35.3276 20.1983 35.3276 20.1983C35.3276 20.1983 36.0139 20.012 36.0197 19.1409C36.0139 18.5485 35.4979 18.0063 34.7534 17.7873C34.4963 17.7147 34.2302 17.6789 33.9631 17.681C33.0854 17.681 32.1 18.0486 31.4356 18.916C29.9292 20.905 29.8069 23.8043 30.1744 26.5006C30.5441 29.2028 32.258 31.7055 32.3082 31.7739C32.3446 31.822 32.3773 31.8482 32.4144 31.8482C32.4365 31.8468 32.4573 31.8378 32.4734 31.8227C33.2135 31.1044 33.9194 30.1227 34.2214 29.4662C34.5446 29.7238 34.3757 30.2718 34.1981 30.8569C34.0293 31.4551 33.6189 32.2491 33.4704 32.5053C33.327 32.7556 33.1349 33.0467 33.3933 33.1988C33.4236 33.2161 33.4581 33.2247 33.493 33.2236C33.8248 33.2236 34.6057 32.645 35.4768 31.4835C36.452 30.1765 36.9469 29.0165 36.9469 29.0165C37.0182 29.0325 37.1375 29.1533 37.1179 29.4822C37.1048 29.8163 36.7613 31.0593 36.0925 32.2164C35.4164 33.3728 34.792 34.0962 34.6661 34.2606C34.5882 34.356 34.6544 34.4156 34.7047 34.4542C34.7541 34.4877 35.9498 35.604 37.687 36.5472C39.7451 37.6439 40.6577 37.8412 40.6577 37.8412C40.6577 37.8412 41.5681 37.649 43.6261 36.553C45.3626 35.6084 46.5633 34.487 46.6077 34.4491C46.6579 34.4149 46.722 34.361 46.6463 34.2562C46.5277 34.0991 45.9011 33.3721 45.2265 32.2157C44.5598 31.0666 44.2033 29.8155 44.1982 29.4859C44.1843 29.1533 44.2964 29.0434 44.3648 29.0157C44.3648 29.0157 44.8648 30.1831 45.84 31.4828C46.7154 32.6458 47.489 33.2229 47.8223 33.2229C47.8584 33.224 47.8941 33.2155 47.9257 33.1981C48.176 33.046 47.9897 32.7505 47.8427 32.5031C47.7059 32.2484 47.2896 31.4595 47.1128 30.8562C46.9432 30.2646 46.7671 29.7173 47.0961 29.4655C47.3988 30.1219 48.0996 31.1087 48.8419 31.8168C48.85 31.826 48.8598 31.8334 48.8708 31.8387C48.8818 31.8439 48.8938 31.8469 48.906 31.8474C48.9387 31.8474 48.9736 31.8219 49.0042 31.7775C49.0588 31.7048 50.7756 29.2064 51.1423 26.4999C51.5106 23.7978 51.389 20.905 49.8812 18.9153C49.2211 18.0456 48.2284 17.6759 47.3449 17.6759C47.0691 17.6759 46.8057 17.7116 46.5648 17.7807C45.8145 18.0063 45.3007 18.5536 45.3051 19.1402C45.3051 20.0113 45.995 20.1976 45.995 20.1976C45.995 20.1976 45.7643 20.6837 44.9419 20.7827C44.7942 20.801 44.6454 20.8102 44.4965 20.8104C43.8779 20.8104 43.3569 20.6139 42.8766 19.9356C42.4108 19.2828 42.4261 17.9387 42.3992 17.4904C42.3781 17.0355 42.2805 16.0152 41.8024 15.599C41.3257 15.1718 40.745 15.0284 40.0209 15C39.9677 15.0015 39.9204 15.0015 39.876 15.0015Z" fill="#646565"/>
</svg>
