<svg width="45" height="53" viewBox="0 0 45 53" fill="none" xmlns="http://www.w3.org/2000/svg">
<path fill-rule="evenodd" clip-rule="evenodd" d="M16.7625 36.9333C18.5376 37.4857 20.4249 37.1518 22.3818 37.1518C27.6666 37.1518 32.4448 35.6129 35.8734 32.1155C39.2136 28.7078 41.2732 24.0404 41.2732 18.8916C41.2732 8.4584 32.815 0 22.3818 0C11.9486 0 3.49023 8.45812 3.49023 18.8916C3.49052 27.3681 9.07327 34.541 16.7625 36.9333Z" fill="#29528E"/>
<path fill-rule="evenodd" clip-rule="evenodd" d="M33.2074 27.9311C32.9538 27.1404 33.4286 26.3183 33.5555 26.0968C33.6816 25.8755 34.0926 25.8121 34.1564 25.907C34.2986 26.1245 34.1011 26.4959 34.5989 26.1917C34.8164 26.0571 37.0578 23.6934 38.172 21.369C39.0026 19.6293 39.0972 17.7794 39.0264 17.1786C38.8326 15.6327 38.2671 15.5973 37.5711 15.1545C36.8756 14.712 37.0179 14.1069 36.9388 13.7947C36.8756 13.5415 37.0972 13.1939 36.0221 12.0236C34.251 10.0944 31.8714 9.5845 31.3096 9.43039C30.3929 9.17741 28.9697 9.08223 28.717 9.08223C28.5747 9.08223 27.8626 8.98761 27.9895 9.20886C28.1161 9.43039 28.3691 9.30376 28.8116 9.74654C29.2541 10.1893 28.5903 10.1893 28.2422 10.1576C27.8946 10.1261 26.4716 9.99951 26.092 9.99951C25.7124 9.99951 25.5226 10.0944 25.649 10.221C25.7756 10.3474 26.1237 10.4106 26.4082 10.5689C26.6932 10.7273 26.2821 10.9485 26.1237 10.98C25.9654 11.0117 25.1433 11.1066 24.3212 11.3913C22.637 11.9763 21.8543 12.846 22.0758 13.0041C22.2974 13.1621 22.7081 13.0355 22.7399 13.2253C22.7716 13.4151 22.5815 13.6995 22.2657 14.2372C21.9495 14.7749 21.8546 15.4389 21.8546 16.3879C21.8546 17.3367 21.554 17.4038 21.1906 17.7477C20.7478 18.1588 19.7042 18.5701 19.2931 18.9811C18.8818 19.3922 19.4195 19.7718 19.6093 20.0562C19.7991 20.3406 19.6407 20.8152 19.4509 20.9418C19.2614 21.0681 19.2928 21.3846 19.4195 21.5426C19.5458 21.7007 19.7673 21.7642 19.8622 22.0486C19.9254 22.2384 19.6724 22.2069 19.5775 22.2384C19.4829 22.2701 19.1427 22.1911 19.6724 22.871C20.1152 23.4401 19.6724 23.9781 19.5458 24.7687C19.356 25.9625 20.305 26.0968 21.5064 26.2234C22.7081 26.35 23.2138 26.9191 23.4036 27.1724C23.5934 27.4254 24.0359 28.469 24.258 29.5126C24.4518 30.4336 23.847 30.9676 23.847 30.9676C23.847 30.9676 22.9849 31.4855 20.4631 32.5804C17.6169 33.8138 16.8489 36.9679 16.8489 36.9679C16.8489 36.9679 21.9883 38.839 27.7861 37.0206C33.1 35.354 35.7983 32.1713 35.7983 32.1713C35.8006 32.1688 35.6688 31.9455 35.6711 31.943C35.6003 31.8401 33.4561 28.7087 33.2074 27.9311ZM12.841 9.71481V6.48901L11.1333 9.39838L9.04604 8.7658L10.0582 10.9165L8.28711 12.814L10.8172 12.561L11.5761 15.344L12.3985 12.561L14.6121 13.0038L13.4735 11.2327L15.4973 9.46155L12.841 9.71481Z" fill="#979797"/>
<path fill-rule="evenodd" clip-rule="evenodd" d="M0.2 41.2549C0.533996 40.8685 1.20255 40.8558 1.20255 40.8558L22.3908 38.7685L43.1365 40.3498C43.1365 40.3498 43.864 40.3968 44.1252 40.6577C44.441 40.9739 44.4648 41.4252 44.4648 41.4252V49.7745C44.4648 49.7745 44.5467 50.4354 44.1776 50.7252C43.8878 50.9533 43.3892 50.9759 43.3892 50.9759L22.433 53.0003L1.1391 51.2924C1.1391 51.2924 0.507367 51.279 0.270256 51.0026C0.00679814 50.6949 0.000849035 50.2805 0.000849035 50.2805V41.9946C0.000849035 41.994 -0.0243638 41.515 0.2 41.2549ZM23.8222 16.4197C23.6086 15.874 23.1894 15.8704 23.1894 15.8704L23.0633 16.5027L23.4429 17.0086L22.8537 16.9256L22.8973 17.8112C22.8973 17.8112 24.0355 17.9375 24.3282 17.8112C24.6208 17.6845 24.2888 16.9653 24.2888 16.9653C24.2888 16.9653 24.0353 16.9653 23.8222 16.4197Z" fill="#29528E"/>
<path fill-rule="evenodd" clip-rule="evenodd" d="M5.82537 42.6402H4.10156V49.1657H5.82537C6.93925 49.1657 7.8234 48.8464 8.45258 48.2167C9.03417 47.6351 9.3676 46.792 9.3676 45.9028C9.3676 45.0087 9.0472 44.196 8.46561 43.6144C7.82849 42.977 6.91546 42.6402 5.82537 42.6402ZM8.33331 45.9028C8.33331 46.615 8.08289 48.2708 5.76418 48.2708H5.101V43.5345H5.76418C6.5724 43.5345 7.24152 43.7764 7.6996 44.2345C8.11405 44.6492 8.33331 45.226 8.33331 45.9028ZM12.8682 42.6336H12.2886L9.56561 48.8824L9.4421 49.1657H10.4973L10.5498 49.0425L11.2874 47.4563H13.7124L14.4444 49.0425L14.4968 49.1657H15.552L15.4283 48.8824L12.8682 42.6336ZM12.4965 44.4841L13.3288 46.562H11.6702L12.4965 44.4841ZM20.7498 42.6402H20.5475V47.1886L16.6107 42.5546L15.9045 42.5977V49.1657H16.9039V44.6169L20.8801 49.2546H21.5467V42.6402H20.7498ZM35.0867 42.6402H34.8842V47.1886L30.9476 42.5546L30.2416 42.5977V49.1657H31.2408V44.6169L35.2173 49.2546H35.8842V42.6402H35.0867ZM25.9048 42.4651C23.9903 42.4651 22.5467 43.943 22.5467 45.9028C22.5467 46.8422 22.8764 47.7042 23.475 48.3297C24.0991 48.9816 24.9617 49.3402 25.9045 49.3402C26.8473 49.3402 27.7099 48.9813 28.334 48.3297C28.9326 47.7042 29.2629 46.8422 29.2629 45.9028C29.2629 44.9634 28.9326 44.1014 28.334 43.4759C27.7102 42.8243 26.8476 42.4651 25.9048 42.4651ZM25.9048 48.4459C25.2597 48.4459 24.6648 48.196 24.23 47.7422C23.783 47.2753 23.5368 46.6221 23.5368 45.9031C23.5368 45.1841 23.783 44.5308 24.23 44.0642C24.6648 43.6101 25.2597 43.3603 25.9048 43.3603C26.5498 43.3603 27.1447 43.6104 27.5796 44.0642C28.0266 44.5308 28.2722 45.1841 28.2722 45.9031C28.2725 47.3524 27.2549 48.4459 25.9048 48.4459ZM40.5261 42.6402H37.0448V49.1657H40.7287V48.2708H38.0442V46.1852H40.6323V45.2909H38.0442V43.5348H40.7287V42.6402H40.5261Z" fill="#979797"/>
</svg>
