<svg width="196" height="53" viewBox="0 0 196 53" fill="none" xmlns="http://www.w3.org/2000/svg">
<path fill-rule="evenodd" clip-rule="evenodd" d="M92.851 36.9599C92.8218 36.9513 92.7927 36.9425 92.7635 36.9334C85.0743 34.541 79.4915 27.3682 79.4912 18.8916C79.4912 8.45814 87.9496 0 98.3829 0C108.816 0 117.274 8.45842 117.274 18.8916C117.274 24.0404 115.215 28.7079 111.874 32.1155C111.781 32.2108 111.687 32.3047 111.591 32.3971C111.729 32.2532 111.798 32.1716 111.798 32.1716C111.799 32.1703 111.767 32.1139 111.735 32.0574C111.702 32.001 111.67 31.9445 111.671 31.9433C111.6 31.8404 109.456 28.709 109.207 27.9313C108.955 27.1448 109.424 26.3272 109.554 26.1006L109.556 26.097C109.682 25.8758 110.093 25.8123 110.156 25.9072C110.201 25.9757 110.212 26.0593 110.222 26.1323C110.243 26.2916 110.258 26.4005 110.599 26.192C110.816 26.0574 113.058 23.6936 114.172 21.3693C115.003 19.6296 115.097 17.7797 115.026 17.1789C114.864 15.8849 114.442 15.6492 113.9 15.3471C113.795 15.2883 113.685 15.2269 113.571 15.1548C113.031 14.811 112.996 14.3691 112.971 14.0426C112.963 13.9489 112.957 13.8646 112.939 13.795C112.927 13.748 112.925 13.6977 112.923 13.6396C112.913 13.3844 112.898 12.9769 112.022 12.0239C110.373 10.2277 108.197 9.66181 107.451 9.46794C107.396 9.45358 107.348 9.44127 107.31 9.43064C106.393 9.17766 104.97 9.08248 104.717 9.08248C104.692 9.08248 104.649 9.07952 104.596 9.07588C104.349 9.0589 103.885 9.02695 103.99 9.20911C104.045 9.30699 104.126 9.3369 104.237 9.37799C104.377 9.4299 104.565 9.49964 104.812 9.74679C105.254 10.1896 104.59 10.1896 104.242 10.1578C103.895 10.1264 102.472 9.99977 102.092 9.99977C101.712 9.99977 101.523 10.0947 101.649 10.2213C101.719 10.2907 101.855 10.3411 102.011 10.3987C102.139 10.4459 102.28 10.4979 102.408 10.5692C102.693 10.7275 102.282 10.9488 102.124 10.9802C102.096 10.9858 102.048 10.9933 101.983 11.0034C101.678 11.051 100.999 11.1567 100.321 11.3916C98.6371 11.9765 97.8543 12.8462 98.0759 13.0043C98.1785 13.0775 98.3217 13.0897 98.449 13.1005C98.5966 13.113 98.7229 13.1237 98.7399 13.2256C98.7675 13.3909 98.6268 13.6281 98.3812 14.0421C98.3449 14.1032 98.3063 14.1682 98.2657 14.2375C97.9495 14.7752 97.8546 15.4392 97.8546 16.3882C97.8546 17.1808 97.6448 17.3581 97.3638 17.5955C97.3085 17.6423 97.2504 17.6914 97.1906 17.748C96.9749 17.9482 96.6166 18.1485 96.2584 18.3488C95.8812 18.5597 95.504 18.7706 95.2931 18.9814C94.9697 19.3046 95.233 19.6084 95.4526 19.8617C95.5123 19.9306 95.5687 19.9957 95.6093 20.0565C95.7991 20.3409 95.6407 20.8154 95.4509 20.9421C95.2614 21.0684 95.2929 21.3848 95.4195 21.5429C95.4632 21.5976 95.5183 21.6409 95.5756 21.686C95.6839 21.7713 95.8002 21.8628 95.8623 22.0489C95.9103 22.193 95.7758 22.2096 95.6668 22.2229C95.6323 22.2272 95.6004 22.2311 95.5776 22.2387C95.5643 22.2431 95.5462 22.2454 95.5263 22.2479C95.4046 22.2632 95.217 22.2867 95.6725 22.8712C95.9796 23.2661 95.8606 23.6459 95.7166 24.1054C95.6531 24.3084 95.5846 24.5268 95.5458 24.769C95.356 25.9628 96.305 26.097 97.5065 26.2237C98.7082 26.3503 99.2138 26.9194 99.4037 27.1727C99.5935 27.4257 100.036 28.4693 100.258 29.5129C100.452 30.4339 99.847 30.9679 99.847 30.9679C99.847 30.9679 98.985 31.4858 96.4631 32.5807C93.7021 33.7772 92.8968 36.7812 92.851 36.9599ZM88.841 6.48926V9.71506L91.4974 9.4618L89.4735 11.2329L90.6121 13.004L88.3985 12.5613L87.5761 15.3443L86.8172 12.5613L84.2871 12.8142L86.0582 10.9168L85.046 8.76604L87.1333 9.39863L88.841 6.48926Z" fill="#646565"/>
<path fill-rule="evenodd" clip-rule="evenodd" d="M77.2026 40.8546C77.2026 40.8546 76.534 40.8673 76.2 41.2538C75.978 41.5111 76.0003 41.9828 76.0008 41.9932L76.0008 41.9934V50.2793C76.0008 50.2793 76.0068 50.6938 76.2703 51.0014C76.5074 51.2779 77.1391 51.2912 77.1391 51.2912L98.433 52.9992L119.389 50.9748C119.389 50.9748 119.888 50.9521 120.178 50.7241C120.547 50.4343 120.465 49.7734 120.465 49.7734V41.424C120.465 41.424 120.441 40.9727 120.125 40.6566C119.864 40.3957 119.137 40.3486 119.137 40.3486L98.3908 38.7673L77.2026 40.8546ZM99.1894 15.8691C99.1894 15.8691 99.6087 15.8728 99.8223 16.4184C100.035 16.964 100.289 16.9641 100.289 16.9641C100.289 16.9641 100.621 17.6833 100.328 17.8099C100.036 17.9363 98.8973 17.8099 98.8973 17.8099L98.8537 16.9244L99.443 17.0074L99.0633 16.5014L99.1894 15.8691ZM80.1016 42.6399H81.8254C82.9155 42.6399 83.8285 42.9767 84.4656 43.6141C85.0472 44.1957 85.3676 45.0085 85.3676 45.9025C85.3676 46.7918 85.0342 47.6349 84.4526 48.2164C83.8234 48.8462 82.9393 49.1655 81.8254 49.1655H80.1016V42.6399ZM81.7642 48.2706C84.0829 48.2706 84.3333 46.6147 84.3333 45.9025C84.3333 45.2258 84.1141 44.649 83.6996 44.2343C83.2415 43.7762 82.5724 43.5343 81.7642 43.5343H81.101V48.2706H81.7642ZM88.2886 42.6334H88.8682L91.4283 48.8822L91.5521 49.1655H90.4968L90.4444 49.0422L89.7124 47.4561H87.2875L86.5498 49.0422L86.4974 49.1655H85.4421L85.5656 48.8822L88.2886 42.6334ZM89.3288 46.5618L88.4965 44.4838L87.6702 46.5618H89.3288ZM96.5476 42.6399H96.7498H97.5467V49.2544H96.8802L92.9039 44.6167V49.1655H91.9045V42.5974L92.6107 42.5544L96.5476 47.1884V42.6399ZM110.884 42.6399H111.087H111.884V49.2544H111.217L107.241 44.6167V49.1655H106.242V42.5974L106.948 42.5544L110.884 47.1884V42.6399ZM98.5467 45.9025C98.5467 43.9428 99.9904 42.4648 101.905 42.4648C102.848 42.4648 103.71 42.8241 104.334 43.4756C104.933 44.1011 105.263 44.9632 105.263 45.9025C105.263 46.8419 104.933 47.704 104.334 48.3295C103.71 48.981 102.847 49.34 101.905 49.34C100.962 49.34 100.099 48.9813 99.4751 48.3295C98.8765 47.704 98.5467 46.8419 98.5467 45.9025ZM100.23 47.7419C100.665 48.1958 101.26 48.4456 101.905 48.4456C103.255 48.4456 104.273 47.3521 104.272 45.9028C104.272 45.1838 104.027 44.5306 103.58 44.064C103.145 43.6102 102.55 43.36 101.905 43.36C101.26 43.36 100.665 43.6099 100.23 44.064C99.783 44.5306 99.5368 45.1838 99.5368 45.9028C99.5368 46.6218 99.783 47.2751 100.23 47.7419ZM113.045 42.6399H116.526H116.729V43.5345H114.044V45.2906H116.632V46.185H114.044V48.2706H116.729V49.1655H113.045V42.6399Z" fill="#646565"/>
</svg>
