<svg width="196" height="53" viewBox="0 0 196 53" fill="none" xmlns="http://www.w3.org/2000/svg">
<path fill-rule="evenodd" clip-rule="evenodd" d="M42 10.8489H55.4988L56.9786 10.9106L58.3962 11.034L59.7526 11.342L61.0473 11.6505L62.2179 12.1436L63.3275 12.6367L64.3754 13.2532L65.3615 13.9314L66.2249 14.6713L67.0876 15.4723L67.8275 16.3356L68.5051 17.2601L69.0599 18.2462L69.6147 19.233L70.0461 20.2808L70.4163 21.3287L89.5846 9L96.5494 13.6845L81.6331 23.2998L84.0368 24.9025L99.0765 15.3489L105.548 19.6632L90.6936 29.4636L93.2207 31.0045L108.321 21.3892V10.8489H119.416V31.8673H129.278V41.7288H108.321V31.6204L89.6457 43.64L70.5997 30.7577L70.2294 31.8673L69.8597 32.9151L69.305 33.963L68.7502 35.0114L68.072 35.9359L67.3321 36.8609L66.531 37.7237L65.6066 38.463L64.6821 39.2029L63.5726 39.8194L62.463 40.3742L61.23 40.8673L59.9353 41.2369L58.5795 41.4832L57.162 41.6683L55.621 41.73H42V10.8489ZM52.602 20.5259H55.4988L56.7935 20.6493L57.8414 21.019L58.7658 21.5738L59.5668 22.3137L60.1222 23.1764L60.5536 24.1014L60.7998 25.1493L60.8615 26.1972L60.7998 27.245L60.5536 28.2935L60.1222 29.2179L59.5057 30.0813L58.7658 30.8206L57.8414 31.376L56.7318 31.7456L55.4988 31.869H52.602V20.5259ZM132.052 10.8489H143.209V31.8673H153.01V41.7288H132.053L132.052 10.8489Z" fill="#0B71A8"/>
</svg>
