<svg width="196" height="53" viewBox="0 0 196 53" fill="none" xmlns="http://www.w3.org/2000/svg">
<path fill-rule="evenodd" clip-rule="evenodd" d="M43 10.849H56.4976L57.9773 10.9107L59.3947 11.0341L60.751 11.342L62.0455 11.6505L63.2161 12.1435L64.3256 12.6366L65.3734 13.253L66.3594 13.9312L67.2227 14.671L68.0853 15.472L68.8252 16.3352L69.5027 17.2596L70.0575 18.2456L70.6122 19.2323L71.0435 20.2801L71.4138 21.3278L90.5803 9.00024L97.5445 13.6843L82.6295 23.2988L85.033 24.9013L100.071 15.3486L106.542 19.6624L91.6892 29.462L94.2161 31.0028L109.315 21.3884V10.849H120.409V31.8654H130.27V41.7261H109.315V31.6186L90.6414 43.6371L71.5971 30.756L71.2269 31.8654L70.8572 32.9132L70.3025 33.961L69.7478 35.0093L69.0696 35.9337L68.3298 36.8587L67.5288 37.7213L66.6045 38.4606L65.6801 39.2004L64.5706 39.8169L63.4612 40.3716L62.2283 40.8646L60.9337 41.2343L59.578 41.4805L58.1606 41.6656L56.6198 41.7273H43V10.849ZM53.6011 20.5251H56.4976L57.7922 20.6485L58.8399 21.0181L59.7643 21.5729L60.5653 22.3127L61.1206 23.1754L61.5519 24.1003L61.7981 25.1481L61.8598 26.1959L61.7981 27.2436L61.5519 28.292L61.1206 29.2164L60.5041 30.0796L59.7643 30.8189L58.8399 31.3742L57.7305 31.7438L56.4976 31.8672H53.6011V20.5251ZM133.044 10.849H144.2V31.8654H154V41.7261H133.045L133.044 10.849Z" fill="#646565"/>
</svg>
