<svg width="196" height="53" viewBox="0 0 196 53" fill="none" xmlns="http://www.w3.org/2000/svg">
<path d="M43.4662 27.1197L43.8352 27.1619C45.3474 27.2417 45.8357 27.5233 46 27.6452C46.1238 27.765 46.4096 28.1663 46.4096 29.7361V35.0554C46.4302 35.257 46.3714 35.4586 46.2453 35.6186C46.1643 35.6984 45.919 35.8603 44.8951 36.1818C44.4065 36.3505 43.8986 36.4593 43.3829 36.5055C42.9231 36.58 42.4582 36.62 41.9923 36.6253C40.9048 36.6397 39.8264 36.4285 38.8273 36.0052C37.8282 35.5819 36.9307 34.9561 36.1933 34.1685C34.6383 32.5166 33.8305 30.1774 33.8305 27.2417C33.8305 23.6585 34.6068 21.0333 36.2023 19.4812C37.7865 17.9823 39.6249 17.1752 41.6682 17.1752C43.7115 17.1752 45.3047 17.8182 46.5716 19.1486C47.2662 19.9143 47.9608 21.082 48.6554 22.6519L48.7791 22.8936H50.2576L49.965 15.0798H48.5338L48.4123 15.3215C48.3313 15.5652 48.1924 15.7864 48.0073 15.9667C47.9263 16.0466 47.762 16.1286 47.2332 16.1286C47.1904 16.1286 46.8236 16.0865 45.1472 15.6053C43.8446 15.2366 42.4968 15.0464 41.1416 15.0399C37.4309 15.0399 34.3548 16.3304 32.1067 18.8692C30.0637 21.1416 28.9561 24.0842 29.0013 27.1197C29.0013 30.745 30.3087 33.7251 32.9303 35.898C35.2616 37.8714 38.1623 38.8381 41.594 38.8381C43.5587 38.8236 45.5069 38.4833 47.3569 37.8315C50.0123 36.9446 50.5434 36.4213 50.5434 35.898V29.3348C50.5434 28.408 50.7481 27.765 51.0744 27.4834C51.1959 27.4013 51.5245 27.2395 52.5034 27.1596L52.8724 27.1197V25.7428H43.4662V27.1197ZM77.099 16.8514L77.4681 16.8936C78.5707 17.0133 79.3471 17.255 79.7184 17.6585C79.9231 17.8581 80.2494 18.5831 80.2494 20.7982V29.4967C80.2494 31.5499 80.0041 33.0798 79.5136 34.0466C78.6135 35.7384 76.9393 36.5831 74.2839 36.5831C71.9144 36.5831 70.3189 35.7783 69.502 34.1264C69.052 33.1996 68.8067 31.8714 68.8067 30.2217V19.4701C68.8067 18.02 69.0925 17.5765 69.2568 17.4169C69.421 17.2572 69.9521 16.9734 71.5453 16.8936L71.9121 16.8537V15.4435H61.5293V16.8514L61.8961 16.8936C63.451 17.0133 63.9821 17.2949 64.1464 17.4568C64.3106 17.6186 64.5964 18.0599 64.5964 19.51V29.9313C64.5964 32.0643 64.9632 33.796 65.7418 35.1242C67.1302 37.5809 69.7923 38.8714 73.5863 38.8714C77.4276 38.8714 80.0852 37.5809 81.5141 35.0865C82.2499 33.7561 82.6595 31.8647 82.6595 29.49V20.7583C82.6595 18.5854 82.9858 17.9002 83.1906 17.6541C83.4358 17.3725 84.0074 17.0089 85.4791 16.8492L85.8459 16.8093V15.4435H77.1823V16.8537L77.099 16.8514ZM113.306 32.153C112.489 33.9645 111.549 35.0931 110.57 35.5366C109.548 36.02 107.869 36.2616 105.664 36.2616C103.09 36.2616 102.233 36.1818 101.947 36.0998C101.866 36.0599 101.62 36.02 101.62 35.2949V27.4435H106.443C108.16 27.4435 108.731 27.765 108.893 27.9268C109.139 28.1685 109.467 28.7716 109.753 30.3016L109.834 30.6231H111.387V22.1264H109.834L109.753 22.4501C109.467 23.9401 109.139 24.5831 108.893 24.8248C108.731 25.0266 108.16 25.3481 106.443 25.3481H101.62V18.2528C101.62 17.7295 101.701 17.6075 101.701 17.6075C101.897 17.5331 102.107 17.5058 102.316 17.5277H106.933C109.303 17.5277 110.203 17.8492 110.534 18.0909C110.865 18.3326 111.351 19.0177 111.677 20.7095L111.758 21.031H113.394L113.189 15.4346H94.3452V16.8514L94.7143 16.8936C96.2242 17.0133 96.7148 17.2949 96.8791 17.4568C97.0433 17.6186 97.2864 18.0998 97.2864 19.51V34.3659C97.2864 35.8958 97.0006 36.2993 96.8791 36.4191C96.7148 36.5809 96.1837 36.8226 94.6715 36.9845L94.3047 37.0244V38.3925H113.347L115.104 31.9623H113.347L113.306 32.153ZM135.62 25.388L132.636 23.5765C131.758 23.0782 130.959 22.4542 130.267 21.7251C129.804 21.1853 129.557 20.4979 129.571 19.7916C129.551 19.4215 129.622 19.0522 129.779 18.7154C129.936 18.3786 130.174 18.0844 130.471 17.8581C131.087 17.3763 131.853 17.12 132.638 17.133C133.741 17.133 134.889 17.5366 136.03 18.3415C137.171 19.1463 137.992 20.5588 138.523 22.6098L138.604 22.9313H140.197L139.369 15H137.978L137.897 15.2816C137.842 15.5242 137.745 15.7558 137.612 15.9667C137.46 16.0791 137.273 16.1356 137.083 16.1264C137.04 16.1264 136.754 16.0865 135.323 15.6031C134.387 15.2428 133.397 15.039 132.393 15C130.431 15 128.793 15.6031 127.571 16.8115C126.967 17.399 126.492 18.1025 126.176 18.8783C125.86 19.6541 125.709 20.4858 125.732 21.3215C125.732 22.6896 126.261 23.9379 127.283 25.1064C127.929 25.7703 128.657 26.3521 129.45 26.8381L132.35 28.612C133.986 29.6186 135.051 30.3858 135.539 30.867C135.887 31.2007 136.161 31.602 136.344 32.0455C136.527 32.489 136.615 32.965 136.601 33.4435C136.601 34.5322 136.275 35.3769 135.58 35.98C134.879 36.5843 133.977 36.9141 133.046 36.9069C131.167 36.9069 129.614 36.1818 128.347 34.7317C127.611 33.8869 126.956 32.7184 126.385 31.2705L126.304 31.0288H124.792L125.935 38.9601H127.366L127.406 38.6386C127.446 38.4102 127.53 38.1913 127.652 37.9933C127.695 37.8736 127.857 37.8315 128.102 37.8315C128.142 37.8315 128.471 37.8736 129.94 38.3969C131.043 38.7841 132.204 38.9879 133.374 39C135.539 39 137.38 38.357 138.775 37.1486C139.463 36.5754 140.014 35.8593 140.389 35.0516C140.763 34.2439 140.951 33.3646 140.94 32.4767C140.967 31.154 140.535 29.8619 139.716 28.8137C138.887 27.6452 137.54 26.5565 135.62 25.388ZM165.412 28.6098C164.635 27.6452 163.245 26.5565 161.361 25.388L158.377 23.5765C157.504 23.0765 156.71 22.4527 156.021 21.7251C155.558 21.1853 155.311 20.4979 155.326 19.7916C155.306 19.4215 155.377 19.0522 155.534 18.7154C155.691 18.3786 155.928 18.0844 156.226 17.8581C156.841 17.3763 157.607 17.12 158.393 17.133C159.496 17.133 160.643 17.5366 161.784 18.3415C162.925 19.1463 163.746 20.5588 164.277 22.6098L164.359 22.9313H165.952L165.124 15H163.733L163.652 15.2816C163.596 15.5242 163.5 15.7558 163.366 15.9667C163.213 16.0794 163.026 16.1359 162.835 16.1264C162.795 16.1264 162.509 16.0865 161.078 15.6031C160.138 15.2416 159.143 15.0377 158.134 15C156.174 15 154.534 15.6031 153.312 16.8115C152.708 17.3993 152.234 18.1028 151.918 18.8786C151.602 19.6544 151.45 20.4858 151.473 21.3215C151.473 22.6896 152.004 23.9379 153.026 25.1064C153.672 25.7704 154.399 26.3521 155.191 26.8381L158.094 28.612C159.727 29.6186 160.794 30.3858 161.282 30.867C161.63 31.201 161.904 31.6023 162.087 32.0457C162.27 32.4891 162.357 32.965 162.344 33.4435C162.344 34.5322 162.016 35.3769 161.282 35.98C160.58 36.583 159.678 36.9125 158.746 36.9069C156.867 36.9069 155.315 36.1818 154.048 34.7317C153.312 33.8869 152.657 32.7184 152.085 31.2705L152.004 31.0288H150.492L151.635 38.9601H153.067L153.107 38.6386C153.15 38.4164 153.219 38.1999 153.312 37.9933C153.352 37.8736 153.514 37.8315 153.762 37.8315C153.805 37.8315 154.131 37.8736 155.603 38.3969C156.705 38.7843 157.864 38.9882 159.034 39C161.201 39 163.04 38.357 164.435 37.1486C165.123 36.5749 165.674 35.8583 166.048 35.0502C166.422 34.2421 166.609 33.3625 166.598 32.4745C166.636 30.8647 166.228 29.6563 165.412 28.6098Z" fill="#A5A5A5"/>
</svg>
