<svg width="196" height="53" viewBox="0 0 196 53" fill="none" xmlns="http://www.w3.org/2000/svg">
<path d="M45.1928 27.1197L45.5549 27.1619C47.0385 27.2417 47.5176 27.5233 47.6788 27.6452C47.8002 27.765 48.0806 28.1663 48.0806 29.7361V35.0554C48.1008 35.257 48.0431 35.4586 47.9194 35.6186C47.84 35.6984 47.5993 35.8603 46.5948 36.1818C46.1154 36.3505 45.6171 36.4593 45.1112 36.5055C44.66 36.58 44.2039 36.62 43.7468 36.6253C42.6799 36.6397 41.6219 36.4285 40.6416 36.0052C39.6614 35.5819 38.7809 34.9561 38.0573 34.1685C36.5318 32.5166 35.7392 30.1774 35.7392 27.2417C35.7392 23.6585 36.5009 21.0333 38.0662 19.4812C39.6204 17.9823 41.4242 17.1752 43.4288 17.1752C45.4335 17.1752 46.9966 17.8182 48.2396 19.1486C48.921 19.9143 49.6025 21.082 50.284 22.6519L50.4054 22.8936H51.8559L51.5689 15.0798H50.1647L50.0455 15.3215C49.966 15.5652 49.8298 15.7864 49.6481 15.9667C49.5686 16.0466 49.4075 16.1286 48.8887 16.1286C48.8467 16.1286 48.4868 16.0865 46.8421 15.6053C45.5641 15.2366 44.2418 15.0464 42.9122 15.0399C39.2716 15.0399 36.2536 16.3304 34.048 18.8692C32.0436 21.1416 30.957 24.0842 31.0013 27.1197C31.0013 30.745 32.284 33.7251 34.8561 35.898C37.1433 37.8714 39.9891 38.8381 43.356 38.8381C45.2836 38.8236 47.195 38.4833 49.0101 37.8315C51.6153 36.9446 52.1363 36.4213 52.1363 35.898V29.3348C52.1363 28.408 52.3372 27.765 52.6573 27.4834C52.7765 27.4013 53.0989 27.2395 54.0593 27.1596L54.4213 27.1197V25.7428H45.1928V27.1197ZM78.1902 16.8514L78.5522 16.8936C79.6341 17.0133 80.3957 17.255 80.76 17.6585C80.9609 17.8581 81.2811 18.5831 81.2811 20.7982V29.4967C81.2811 31.5499 81.0404 33.0798 80.5591 34.0466C79.676 35.7384 78.0334 36.5831 75.4283 36.5831C73.1035 36.5831 71.5382 35.7783 70.7367 34.1264C70.2952 33.1996 70.0545 31.8714 70.0545 30.2217V19.4701C70.0545 18.02 70.3349 17.5765 70.4961 17.4169C70.6573 17.2572 71.1783 16.9734 72.7414 16.8936L73.1013 16.8537V15.4435H62.9146V16.8514L63.2745 16.8936C64.8001 17.0133 65.3211 17.2949 65.4823 17.4568C65.6434 17.6186 65.9238 18.0599 65.9238 19.51V29.9313C65.9238 32.0643 66.2837 33.796 67.0476 35.1242C68.4098 37.5809 71.0215 38.8714 74.7438 38.8714C78.5125 38.8714 81.1199 37.5809 82.5218 35.0865C83.2438 33.7561 83.6456 31.8647 83.6456 29.49V20.7583C83.6456 18.5854 83.9657 17.9002 84.1666 17.6541C84.4073 17.3725 84.968 17.0089 86.4119 16.8492L86.7718 16.8093V15.4435H78.2719V16.8537L78.1902 16.8514ZM113.713 32.153C112.912 33.9645 111.989 35.0931 111.029 35.5366C110.026 36.02 108.379 36.2616 106.216 36.2616C103.69 36.2616 102.849 36.1818 102.568 36.0998C102.489 36.0599 102.248 36.02 102.248 35.2949V27.4435H106.979C108.664 27.4435 109.225 27.765 109.384 27.9268C109.624 28.1685 109.947 28.7716 110.227 30.3016L110.307 30.6231H111.83V22.1264H110.307L110.227 22.4501C109.947 23.9401 109.624 24.5831 109.384 24.8248C109.225 25.0266 108.664 25.3481 106.979 25.3481H102.248V18.2528C102.248 17.7295 102.328 17.6075 102.328 17.6075C102.519 17.5331 102.726 17.5058 102.93 17.5277H107.461C109.786 17.5277 110.669 17.8492 110.993 18.0909C111.318 18.3326 111.795 19.0177 112.115 20.7095L112.194 21.031H113.799L113.598 15.4346H95.1105V16.8514L95.4726 16.8936C96.954 17.0133 97.4353 17.2949 97.5965 17.4568C97.7576 17.6186 97.9961 18.0998 97.9961 19.51V34.3659C97.9961 35.8958 97.7157 36.2993 97.5965 36.4191C97.4353 36.5809 96.9143 36.8226 95.4306 36.9845L95.0708 37.0244V38.3925H113.753L115.477 31.9623H113.753L113.713 32.153ZM135.605 25.388L132.678 23.5765C131.816 23.0782 131.033 22.4542 130.353 21.7251C129.899 21.1853 129.657 20.4979 129.671 19.7916C129.651 19.4215 129.721 19.0522 129.875 18.7154C130.029 18.3786 130.262 18.0844 130.554 17.8581C131.158 17.3763 131.909 17.12 132.68 17.133C133.762 17.133 134.888 17.5366 136.007 18.3415C137.127 19.1463 137.932 20.5588 138.453 22.6098L138.533 22.9313H140.096L139.284 15H137.919L137.84 15.2816C137.785 15.5242 137.69 15.7558 137.559 15.9667C137.41 16.0791 137.227 16.1356 137.04 16.1264C136.999 16.1264 136.718 16.0865 135.314 15.6031C134.396 15.2428 133.424 15.039 132.439 15C130.514 15 128.907 15.6031 127.708 16.8115C127.116 17.399 126.65 18.1025 126.34 18.8783C126.03 19.6541 125.881 20.4858 125.904 21.3215C125.904 22.6896 126.423 23.9379 127.426 25.1064C128.06 25.7703 128.774 26.3521 129.552 26.8381L132.398 28.612C134.003 29.6186 135.047 30.3858 135.526 30.867C135.868 31.2007 136.137 31.602 136.316 32.0455C136.495 32.489 136.581 32.965 136.568 33.4435C136.568 34.5322 136.248 35.3769 135.566 35.98C134.878 36.5843 133.993 36.9141 133.08 36.9069C131.236 36.9069 129.713 36.1818 128.47 34.7317C127.748 33.8869 127.106 32.7184 126.545 31.2705L126.465 31.0288H124.982L126.103 38.9601H127.507L127.547 38.6386C127.586 38.4102 127.668 38.1913 127.788 37.9933C127.83 37.8736 127.989 37.8315 128.229 37.8315C128.269 37.8315 128.591 37.8736 130.033 38.3969C131.115 38.7841 132.254 38.9879 133.402 39C135.526 39 137.332 38.357 138.701 37.1486C139.376 36.5754 139.917 35.8593 140.284 35.0516C140.651 34.2439 140.836 33.3646 140.825 32.4767C140.851 31.154 140.427 29.8619 139.624 28.8137C138.811 27.6452 137.489 26.5565 135.605 25.388ZM164.834 28.6098C164.072 27.6452 162.708 26.5565 160.86 25.388L157.933 23.5765C157.076 23.0765 156.297 22.4527 155.621 21.7251C155.167 21.1853 154.925 20.4979 154.939 19.7916C154.919 19.4215 154.989 19.0522 155.143 18.7154C155.297 18.3786 155.53 18.0844 155.822 17.8581C156.426 17.3763 157.177 17.12 157.948 17.133C159.03 17.133 160.156 17.5366 161.275 18.3415C162.395 19.1463 163.2 20.5588 163.721 22.6098L163.801 22.9313H165.364L164.551 15H163.187L163.108 15.2816C163.053 15.5242 162.958 15.7558 162.827 15.9667C162.677 16.0794 162.493 16.1359 162.306 16.1264C162.266 16.1264 161.986 16.0865 160.582 15.6031C159.66 15.2416 158.684 15.0377 157.694 15C155.771 15 154.162 15.6031 152.963 16.8115C152.371 17.3993 151.905 18.1028 151.595 18.8786C151.285 19.6544 151.137 20.4858 151.159 21.3215C151.159 22.6896 151.68 23.9379 152.683 25.1064C153.316 25.7704 154.029 26.3521 154.806 26.8381L157.654 28.612C159.257 29.6186 160.304 30.3858 160.783 30.867C161.124 31.201 161.393 31.6023 161.572 32.0457C161.752 32.4891 161.838 32.965 161.825 33.4435C161.825 34.5322 161.503 35.3769 160.783 35.98C160.094 36.583 159.209 36.9125 158.295 36.9069C156.451 36.9069 154.928 36.1818 153.685 34.7317C152.963 33.8869 152.32 32.7184 151.76 31.2705L151.68 31.0288H150.197L151.318 38.9601H152.722L152.762 38.6386C152.804 38.4164 152.871 38.1999 152.963 37.9933C153.003 37.8736 153.162 37.8315 153.404 37.8315C153.446 37.8315 153.767 37.8736 155.21 38.3969C156.292 38.7843 157.429 38.9882 158.577 39C160.703 39 162.507 38.357 163.876 37.1486C164.551 36.5749 165.091 35.8583 165.458 35.0502C165.825 34.2421 166.009 33.3625 165.998 32.4745C166.035 30.8647 165.636 29.6563 164.834 28.6098Z" fill="#646565"/>
</svg>
