<svg width="196" height="53" viewBox="0 0 196 53" fill="none" xmlns="http://www.w3.org/2000/svg">
<path fill-rule="evenodd" clip-rule="evenodd" d="M71.8709 35C63.2446 35 59.3839 31.5494 59.3839 26.438C59.3839 21.4848 63.2438 18 71.8709 18C80.4635 18 84.3242 21.4673 84.3242 26.438C84.3242 31.5502 80.4804 35 71.8709 35ZM128.357 34.3724L113.051 34.3597L113.057 32.2796C113.057 32.2796 114.608 32.0919 115.24 32.006C115.87 31.9193 116.118 31.3641 116.115 30.7492C116.113 30.1343 116.123 23.0391 116.123 22.3192C116.121 21.5993 115.804 21.1833 115.123 21.0815C114.442 20.9805 113.035 20.8341 113.035 20.8341V18.6109H128.357C135.309 18.6109 138.316 22.1132 138.316 26.2884C138.316 30.9234 135.309 34.3724 128.357 34.3724ZM85.0048 34.4289V32.2677C85.0048 32.2677 86.8353 32.0577 87.1218 32.0068C87.8123 31.8811 88.0612 31.4054 88.0605 30.6601V22.4043C88.0605 21.5993 87.7186 21.1531 86.9774 21.068C86.7377 21.0409 85.0048 20.8325 85.0048 20.8325V18.6085C85.0048 18.6085 95.6298 18.5998 95.7927 18.6005C96.3703 18.6037 96.7659 18.8901 97.0701 19.2934C97.1315 19.3745 105.126 30.3157 105.126 30.3157C105.126 30.3157 105.13 23.2403 105.126 22.4942C105.125 21.7481 104.873 21.1937 104.141 21.1006C103.913 21.0712 102.071 20.8477 102.071 20.8477V18.6085H111.849V20.8286C111.849 20.8286 110.135 21.0203 109.778 21.0783C108.937 21.2135 108.798 21.8022 108.794 22.4298C108.791 23.0582 108.794 34.4297 108.794 34.4297L101.126 34.4281C100.617 34.4281 100.112 34.1887 99.837 33.8236C99.6557 33.5825 91.7284 22.7217 91.7284 22.7217C91.7284 22.7217 91.7245 30.0452 91.7284 30.7707C91.7322 31.4961 92.0733 31.9439 92.6947 32.0211C93.3154 32.0991 94.7841 32.2685 94.7841 32.2685V34.4297L85.0048 34.4289ZM31.0061 34.4257L31 32.3146C31 32.3146 32.2505 32.1627 33.0241 32.0648C33.7976 31.9654 34.0611 31.45 34.0618 30.5472V22.5181C34.0634 21.7115 33.869 21.1491 33.0471 21.0203C32.7606 20.9749 31.0069 20.7737 31.0069 20.7737L31.0061 18.6045H43.2289L43.2174 20.7609C43.2174 20.7609 41.3946 20.9733 41.1534 21.0099C40.5289 21.0998 40.1779 21.5182 40.1732 22.4242V24.933H49.5946V22.4799C49.5946 21.6948 49.3703 21.1046 48.6613 21.0067C47.9523 20.9089 46.5335 20.7419 46.5335 20.7419L46.5381 18.6037H58.7609L58.7502 20.7617C58.7502 20.7617 57.2907 20.9391 56.6462 21.0218C56.0017 21.1046 55.7029 21.62 55.7045 22.4672C55.7052 22.6159 55.6999 29.7955 55.7045 30.7031C55.7091 31.6122 56.1984 31.9503 56.6001 32.0052C57.0026 32.0577 58.7655 32.2629 58.7655 32.2629L58.7602 34.4257H46.5389L46.5497 32.255C46.5497 32.255 48.4109 32.0418 48.6482 31.9941C49.4824 31.8199 49.5977 31.2328 49.5946 30.5138C49.5915 29.7947 49.5946 28.0964 49.5946 28.0964H40.1732C40.1732 28.0964 40.1663 29.5648 40.1732 30.6307C40.1802 31.6966 40.6641 31.998 41.1319 32.0664C41.7234 32.146 43.2274 32.3178 43.2274 32.3178L43.2289 34.4257H31.0061ZM131.294 26.5008C131.294 22.5212 129.74 21.6351 126.016 21.6351H122.105V31.3148H126.016C129.74 31.3156 131.294 30.5169 131.294 26.5008ZM77.3041 26.4912C77.3041 22.3876 75.3222 21.0386 71.8548 21.0386C68.3866 21.0386 66.4056 22.3876 66.4056 26.4912C66.4056 30.649 68.3874 31.9726 71.8548 31.9726C75.3222 31.9726 77.3041 30.649 77.3041 26.4912ZM146.89 34.4321H137.112V32.2725C137.112 32.2725 138.461 32.0847 139.19 31.9869C139.919 31.8891 140.21 31.2877 140.293 31.1509C140.377 31.0173 145.063 23.1568 145.47 22.4528C145.878 21.7489 145.448 21.2112 144.914 21.1125C144.54 21.0433 142.207 20.7952 142.207 20.7952L142.206 18.6077H154.137C154.885 18.6292 155.345 19.4986 155.345 19.4986L162.2 30.3571C162.755 31.232 163.176 31.8747 163.855 31.9789C164.534 32.0816 165.991 32.2573 165.991 32.2573L166 34.4289H152.789L152.801 32.2836C152.801 32.2836 153.671 32.1643 154.466 32.0569C155.263 31.9495 155.932 31.5924 155.272 30.5885C154.612 29.5863 154.628 29.5958 154.628 29.5958L145.264 29.6173C145.264 29.6173 144.973 30.0707 144.518 30.7993C144.065 31.5263 144.543 31.9861 145.215 32.072L146.892 32.2876L146.89 34.4321ZM146.97 26.7585L152.868 26.7895L149.885 21.9056L146.97 26.7585Z" fill="#646565"/>
</svg>
