<svg width="196" height="53" viewBox="0 0 196 53" fill="none" xmlns="http://www.w3.org/2000/svg">
<path fill-rule="evenodd" clip-rule="evenodd" d="M69.2617 35C59.9197 35 55.7387 31.5494 55.7387 26.438C55.7387 21.4848 59.9189 18 69.2617 18C78.5671 18 82.7481 21.4673 82.7481 26.438C82.7481 31.5502 78.5854 35 69.2617 35ZM130.434 34.3724L113.858 34.3597L113.864 32.2796C113.864 32.2796 115.545 32.0919 116.229 32.006C116.911 31.9193 117.18 31.3641 117.176 30.7492C117.175 30.1343 117.185 23.0391 117.185 22.3192C117.183 21.5993 116.84 21.1833 116.102 21.0815C115.364 20.9805 113.84 20.8341 113.84 20.8341V18.6109H130.434C137.963 18.6109 141.219 22.1132 141.219 26.2884C141.219 30.9234 137.963 34.3724 130.434 34.3724ZM83.4852 34.4289V32.2677C83.4852 32.2677 85.4675 32.0577 85.7778 32.0068C86.5257 31.8811 86.7952 31.4054 86.7944 30.6601V22.4043C86.7944 21.5993 86.4242 21.1531 85.6214 21.068C85.3619 21.0409 83.4852 20.8325 83.4852 20.8325V18.6085C83.4852 18.6085 94.9917 18.5998 95.168 18.6005C95.7936 18.6037 96.222 18.8901 96.5515 19.2934C96.618 19.3745 105.276 30.3157 105.276 30.3157C105.276 30.3157 105.28 23.2403 105.276 22.4942C105.275 21.7481 105.002 21.1937 104.209 21.1006C103.962 21.0712 101.967 20.8477 101.967 20.8477V18.6085H112.557V20.8286C112.557 20.8286 110.7 21.0203 110.313 21.0783C109.403 21.2135 109.253 21.8022 109.248 22.4298C109.244 23.0582 109.248 34.4297 109.248 34.4297L100.944 34.4281C100.393 34.4281 99.8457 34.1887 99.5479 33.8236C99.3516 33.5825 90.7666 22.7217 90.7666 22.7217C90.7666 22.7217 90.7624 30.0452 90.7666 30.7707C90.7707 31.4961 91.1401 31.9439 91.8131 32.0211C92.4852 32.0991 94.0758 32.2685 94.0758 32.2685V34.4297L83.4852 34.4289ZM25.0067 34.4257L25 32.3146C25 32.3146 26.3543 32.1627 27.192 32.0648C28.0297 31.9654 28.315 31.45 28.3159 30.5472V22.5181C28.3175 21.7115 28.1071 21.1491 27.217 21.0203C26.9067 20.9749 25.0075 20.7737 25.0075 20.7737L25.0067 18.6045H38.2435L38.231 20.7609C38.231 20.7609 36.257 20.9733 35.9958 21.0099C35.3194 21.0998 34.9393 21.5182 34.9343 22.4242V24.933H45.1373V22.4799C45.1373 21.6948 44.8944 21.1046 44.1265 21.0067C43.3587 20.9089 41.8222 20.7419 41.8222 20.7419L41.8272 18.6037H55.0641L55.0524 20.7617C55.0524 20.7617 53.4718 20.9391 52.7739 21.0218C52.076 21.1046 51.7524 21.62 51.754 22.4672C51.7548 22.6159 51.749 29.7955 51.754 30.7031C51.759 31.6122 52.2889 31.9503 52.724 32.0052C53.1599 32.0577 55.0691 32.2629 55.0691 32.2629L55.0632 34.4257H41.8281L41.8397 32.255C41.8397 32.255 43.8553 32.0418 44.1124 31.9941C45.0158 31.8199 45.1406 31.2328 45.1373 30.5138C45.1339 29.7947 45.1373 28.0964 45.1373 28.0964H34.9343C34.9343 28.0964 34.9268 29.5648 34.9343 30.6307C34.9418 31.6966 35.4659 31.998 35.9725 32.0664C36.613 32.146 38.2418 32.3178 38.2418 32.3178L38.2435 34.4257H25.0067ZM133.615 26.5008C133.615 22.5212 131.932 21.6351 127.899 21.6351H123.663V31.3148H127.899C131.932 31.3156 133.615 30.5169 133.615 26.5008ZM75.1456 26.4912C75.1456 22.3876 72.9993 21.0386 69.2442 21.0386C65.4883 21.0386 63.3429 22.3876 63.3429 26.4912C63.3429 30.649 65.4891 31.9726 69.2442 31.9726C72.9993 31.9726 75.1456 30.649 75.1456 26.4912ZM150.505 34.4321H139.916V32.2725C139.916 32.2725 141.376 32.0847 142.166 31.9869C142.955 31.8891 143.271 31.2877 143.36 31.1509C143.451 31.0173 148.525 23.1568 148.967 22.4528C149.409 21.7489 148.943 21.2112 148.364 21.1125C147.96 21.0433 145.433 20.7952 145.433 20.7952L145.432 18.6077H158.353C159.163 18.6292 159.661 19.4986 159.661 19.4986L167.085 30.3571C167.686 31.232 168.142 31.8747 168.877 31.9789C169.613 32.0816 171.19 32.2573 171.19 32.2573L171.2 34.4289H156.893L156.906 32.2836C156.906 32.2836 157.848 32.1643 158.709 32.0569C159.572 31.9495 160.297 31.5924 159.582 30.5885C158.867 29.5863 158.885 29.5958 158.885 29.5958L148.743 29.6173C148.743 29.6173 148.428 30.0707 147.936 30.7993C147.445 31.5263 147.963 31.9861 148.691 32.072L150.506 32.2876L150.505 34.4321ZM150.591 26.7585L156.978 26.7895L153.748 21.9056L150.591 26.7585Z" fill="#A5A5A5"/>
</svg>
