<svg width="196" height="53" viewBox="0 0 196 53" fill="none" xmlns="http://www.w3.org/2000/svg">
<path fill-rule="evenodd" clip-rule="evenodd" d="M92.8266 15.9802L97.024 16.0031C97.0285 16.0054 97.0331 16.0077 97.04 16.01L97.1131 16.026C97.2549 16.0374 97.344 16.01 97.4835 16.0534L97.8813 16.1403C97.8881 16.1426 97.8927 16.1448 97.8973 16.1471C97.9041 16.1494 97.9087 16.1494 97.9156 16.1517C98.1259 16.1997 98.1487 16.234 98.3111 16.2866L98.4551 16.3415C98.4597 16.3437 98.4642 16.346 98.4688 16.3483L98.7614 16.5198C98.766 16.5221 98.7729 16.5243 98.7774 16.5266C98.8986 16.5838 98.9192 16.6318 99.0289 16.6958L99.1043 16.753C99.1043 16.753 99.1272 16.7758 99.1363 16.7873L99.6233 17.3611C99.6324 17.3725 99.653 17.3954 99.653 17.3977L99.8702 17.8206C99.8885 17.8618 99.8725 17.8206 99.8885 17.8686L100.007 18.2778C100.067 18.4653 100.065 18.5385 100.071 18.7442C100.076 18.8768 100.135 18.8631 100.119 19.2312C100.11 19.4232 100.081 19.2586 100.071 19.4483C100.067 19.5581 100.078 19.6518 100.044 19.7524L100.028 19.933C100.019 19.997 100.021 19.965 100.014 19.9856L99.9068 20.3422C99.8953 20.388 99.8976 20.4085 99.8862 20.4543C99.8839 20.4611 99.8839 20.4657 99.8816 20.4703C99.8793 20.4771 99.8725 20.4954 99.8702 20.5023L99.6484 21.1195C99.6393 21.147 99.6256 21.1927 99.6164 21.2201L99.0426 22.8113C99.0403 22.8159 99.038 22.8204 99.0358 22.8273L98.5168 24.2973C98.5145 24.3019 98.5122 24.3087 98.5099 24.3133L98.4162 24.5945C98.4139 24.5991 98.4116 24.6059 98.4094 24.6105L97.7532 26.4508C97.751 26.4554 97.7487 26.4623 97.7464 26.4668L97.6275 26.7892C97.6252 26.7961 97.6184 26.8143 97.6161 26.8212L97.2183 27.9254C97.2046 27.9597 97.1977 27.9917 97.1863 28.026C97.184 28.0306 97.1817 28.0374 97.1794 28.042L97.0468 28.4398C97.0445 28.4444 97.0423 28.4489 97.04 28.4558L96.505 29.9304C96.4982 29.951 96.4959 29.9601 96.489 29.9807C96.4867 29.9875 96.4867 29.9921 96.4844 29.9967C96.4822 30.0013 96.4799 30.0081 96.4799 30.0127L96.3336 30.3968C96.3221 30.431 96.3267 30.4173 96.3176 30.4471L96.2627 30.6139C96.2604 30.6185 96.2581 30.6254 96.2558 30.6299L96.2444 30.662C96.2421 30.6665 96.2398 30.6734 96.2398 30.678L96.1644 30.9111C96.1621 30.9157 96.1598 30.9226 96.1575 30.9271L96.0821 31.1169C96.0798 31.1215 96.0775 31.1283 96.0752 31.1329L95.9495 31.5147C95.9472 31.5193 95.9449 31.5261 95.9426 31.5307L95.906 31.6038C95.9038 31.6084 95.9015 31.613 95.8992 31.6199C95.8969 31.6244 95.8946 31.6313 95.8923 31.6359L95.8489 31.7685C95.842 31.7845 95.8397 31.7959 95.8329 31.8187L95.7666 32.0176C95.7643 32.0222 95.762 32.0291 95.7597 32.0336L95.5494 32.6189C95.5426 32.6372 95.5448 32.6326 95.538 32.6509C95.5311 32.6692 95.5288 32.6761 95.522 32.7012L95.4991 32.7675C95.4968 32.7721 95.4945 32.7789 95.4923 32.7835C95.49 32.7881 95.4877 32.7927 95.4854 32.7972L95.4168 32.971C95.4145 32.9755 95.4122 32.9824 95.41 32.987L95.2774 33.3848C95.2751 33.3893 95.2728 33.3962 95.2705 33.4008L95.1379 33.7551C95.1288 33.7826 95.115 33.8283 95.1059 33.8557L95.0876 33.9037C95.0808 33.9243 95.0785 33.9334 95.0716 33.954L94.5115 35.4926C94.5092 35.4972 94.5092 35.504 94.5069 35.5086L94.4361 35.7258C94.4338 35.7304 94.4315 35.7372 94.4292 35.7418L94.2257 36.311C94.2235 36.3156 94.2212 36.3225 94.2189 36.3271C94.1915 36.4116 94.2166 36.4482 94.1457 36.4757L88.4921 36.5191C88.4921 36.4002 88.5104 36.3751 88.5516 36.2699L88.6727 35.9498C88.675 35.9453 88.6773 35.9384 88.6773 35.9338L88.7322 35.7692C88.7345 35.7647 88.7367 35.7578 88.739 35.7532L88.8716 35.4012C88.8739 35.3966 88.8762 35.3897 88.8785 35.3852L89.0568 34.9005C89.0591 34.8959 89.0591 34.8891 89.0614 34.8845L89.4409 33.7848C89.4432 33.7803 89.4454 33.7734 89.4477 33.7688L89.5346 33.5471C89.5369 33.5425 89.5392 33.5357 89.5415 33.5311L89.8501 32.6463C89.8524 32.6418 89.8547 32.6349 89.8547 32.6303L89.9713 32.3263C89.9735 32.3217 89.9758 32.3148 89.9781 32.3103L90.5131 30.7923C90.5222 30.7671 90.5245 30.7511 90.5336 30.7237L90.8926 29.7361C90.8994 29.7178 90.8971 29.7223 90.904 29.7041L91.0297 29.3223C91.032 29.3177 91.0343 29.3131 91.0366 29.3063L91.112 29.1165C91.1189 29.0982 91.1166 29.1028 91.1235 29.0845C91.1303 29.0639 91.1349 29.0456 91.144 29.0182C91.1463 29.0136 91.1486 29.0068 91.1486 29.0022L91.2492 28.705C91.2515 28.7004 91.2538 28.6959 91.2561 28.689L91.6081 27.7174C91.615 27.6945 91.6196 27.6785 91.6287 27.6511L91.6721 27.5185C91.6744 27.5139 91.6744 27.5071 91.6767 27.5025C91.679 27.4979 91.6813 27.491 91.6813 27.4865L91.903 26.8692C91.9099 26.8509 91.9076 26.8555 91.9145 26.8372L91.9831 26.6635C91.9853 26.6589 91.9876 26.6543 91.9899 26.6497L92.5706 24.9991C92.5729 24.9946 92.5752 24.9877 92.5774 24.9831L92.6735 24.7477C92.6757 24.7431 92.6757 24.7362 92.678 24.7317L92.9135 24.0618C92.9158 24.0572 92.9181 24.0504 92.9204 24.0458L92.9638 23.9132C92.9707 23.8926 92.9684 23.9018 92.9752 23.8812C92.9775 23.8766 92.9798 23.8698 92.9821 23.8652L93.0575 23.632C93.0598 23.6274 93.0621 23.6206 93.0644 23.616L93.4233 22.6261C93.4256 22.6215 93.4279 22.6147 93.4279 22.6101L93.8965 21.291C93.8988 21.2864 93.9011 21.2796 93.9034 21.275L94.0794 20.788C94.0886 20.7629 94.0954 20.7355 94.1069 20.7034C94.1092 20.6989 94.1114 20.692 94.1137 20.6874C94.116 20.6829 94.1183 20.676 94.1206 20.6714L94.3972 19.8873C94.4063 19.8599 94.4086 19.8461 94.4178 19.8187L94.6121 19.2837C94.6144 19.2792 94.6167 19.2723 94.6167 19.2677C94.6441 19.1877 94.6715 19.1191 94.6715 19.0346H91.7567C91.7247 19.1237 91.7636 19.0254 91.727 19.094C91.7224 19.1008 91.6996 19.1489 91.6973 19.1511C91.695 19.158 91.6859 19.1763 91.6836 19.1832L90.9772 21.1721C90.9749 21.1767 90.9726 21.1835 90.9703 21.1881L90.7485 21.8054C90.7394 21.8305 90.7371 21.8488 90.728 21.874L90.5336 22.4089C90.5314 22.4135 90.5291 22.4203 90.5268 22.4249C90.5176 22.4501 90.5154 22.4684 90.5062 22.4935L90.1359 23.5131C90.129 23.536 90.1244 23.552 90.1153 23.5794C90.113 23.584 90.1107 23.5909 90.1107 23.5954L90.017 23.8766C90.0147 23.8812 90.0124 23.8881 90.0101 23.8926C90.0078 23.8972 90.0055 23.9041 90.0033 23.9086C90.001 23.9132 89.9987 23.9178 89.9964 23.9224L89.9735 23.9658C89.9713 23.9704 89.969 23.9749 89.9667 23.9818L89.873 24.263C89.8661 24.2859 89.8615 24.3019 89.8524 24.3293L89.5438 25.214C89.5415 25.2209 89.5415 25.2255 89.5392 25.23L89.466 25.3992C89.4637 25.4038 89.4637 25.4106 89.4615 25.4175L89.3677 25.6987C89.3654 25.7033 89.3631 25.7101 89.3631 25.7147L89.2557 25.9845C89.2534 25.989 89.2511 25.9959 89.2488 26.0005C89.2466 26.005 89.2466 26.0119 89.2443 26.0165L89.2054 26.1331C89.2031 26.1376 89.2008 26.1445 89.2008 26.1491L88.803 27.2533C88.8008 27.2579 88.8008 27.2647 88.7985 27.2716L88.7825 27.3219C88.7802 27.3264 88.7779 27.3333 88.7756 27.3379L88.7642 27.3699C88.7619 27.3745 88.7596 27.3813 88.7596 27.3859L88.7276 27.4865C88.7207 27.5093 88.7162 27.5253 88.707 27.5528C88.7047 27.5573 88.7047 27.5642 88.7025 27.5688L88.5904 27.8545C88.5881 27.8591 88.5881 27.866 88.5859 27.8706C88.5836 27.8751 88.5836 27.882 88.5813 27.8888L88.3664 28.4901C88.3641 28.497 88.3595 28.5175 88.3573 28.5244L88.1469 29.1074C88.1378 29.1348 88.1355 29.1508 88.1264 29.1759L88.0486 29.4091C88.0463 29.4137 88.0463 29.4206 88.0441 29.4251L88.0052 29.5417C88.0029 29.5463 88.0029 29.5532 88.0006 29.5577C87.9983 29.5623 87.996 29.5692 87.9938 29.5737C87.9915 29.5783 87.9892 29.5852 87.9869 29.5897L87.7217 30.3396C87.7194 30.3442 87.7171 30.351 87.7148 30.3556L87.5228 30.8929C87.5205 30.8974 87.5205 30.9043 87.5182 30.9111C87.516 30.9157 87.516 30.9226 87.5137 30.9271L87.3582 31.3455C87.3559 31.3501 87.3536 31.3569 87.3536 31.3615C87.3445 31.3889 87.3399 31.4072 87.3331 31.4278C87.3262 31.4461 87.3285 31.4415 87.3216 31.4598L87.3011 31.5284C87.2988 31.533 87.2988 31.5398 87.2965 31.5444L87.2005 31.7799C87.1982 31.7845 87.1959 31.7913 87.1936 31.7959L87.061 32.1937C87.0587 32.1982 87.0564 32.2051 87.0542 32.2097L86.6701 33.2819C86.6632 33.3002 86.6655 33.2956 86.6587 33.3139L86.5444 33.618C86.5421 33.6225 86.5398 33.6294 86.5375 33.634L86.4803 33.7986C86.4781 33.8031 86.4758 33.81 86.4735 33.8146L86.4415 33.9152C86.4392 33.9197 86.4369 33.9266 86.4346 33.9312C86.4323 33.9357 86.43 33.9426 86.4278 33.9472L86.3135 34.2512C86.3112 34.2558 86.3089 34.2626 86.3066 34.2672L86.2517 34.4318C86.2426 34.457 86.2403 34.4753 86.2312 34.5004L86.2129 34.5484C86.2106 34.553 86.2083 34.5598 86.206 34.5644C86.1969 34.5919 86.1946 34.6056 86.1854 34.633L86.0574 34.9691C86.0551 34.9736 86.0528 34.9805 86.0528 34.9851C86.0505 34.9896 86.0483 34.9965 86.046 35.0011C86.0391 35.0217 86.0414 35.0125 86.0345 35.0331L85.9842 35.1817C85.9751 35.2091 85.9728 35.2228 85.9637 35.2503L85.8311 35.6023C85.8288 35.6069 85.8265 35.6138 85.8242 35.6183L85.7739 35.7669C85.7716 35.7715 85.7694 35.7784 85.7671 35.7829L85.7351 35.8835C85.7328 35.8881 85.7305 35.895 85.7282 35.8995L85.5956 36.2516C85.5933 36.2562 85.591 36.263 85.5887 36.2676C85.5865 36.2722 85.5842 36.279 85.5819 36.2836L85.527 36.5168H79.7843C79.7866 36.4482 79.8003 36.4482 79.8186 36.3956L79.846 36.3133C79.8483 36.3065 79.8551 36.2859 79.8574 36.2813L79.8963 36.1647C79.8986 36.1602 79.9009 36.1533 79.9031 36.1487L80.0952 35.6138C80.0975 35.6069 80.0975 35.6023 80.0998 35.5978C80.102 35.5909 80.102 35.5863 80.1043 35.5818L80.1386 35.4835C80.1409 35.4789 80.1409 35.472 80.1432 35.4675L80.3375 34.9325C80.3398 34.9279 80.3421 34.9211 80.3444 34.9165L80.509 34.4638C80.5113 34.457 80.5181 34.4387 80.5204 34.4318L80.5593 34.3152C80.5616 34.3107 80.5638 34.3038 80.5661 34.2992L80.6553 34.0798C80.6576 34.0752 80.6599 34.0683 80.6621 34.0638L80.7262 33.8626C80.7284 33.858 80.7307 33.8511 80.733 33.8466L81.268 32.3286C81.2703 32.324 81.2725 32.3171 81.2748 32.3126L81.7046 31.1078C81.7115 31.0895 81.7092 31.094 81.716 31.0757C81.7229 31.0529 81.7275 31.0369 81.7366 31.0072L81.8692 30.6551C81.8715 30.6505 81.8715 30.6437 81.8738 30.6391C81.8761 30.6345 81.8784 30.6277 81.8806 30.6231L82.0955 30.0218C82.0978 30.0173 82.1001 30.0104 82.1024 30.0058L82.1527 29.8572C82.155 29.8527 82.1573 29.8458 82.1596 29.8412L82.4956 28.9176C82.4979 28.913 82.5002 28.9062 82.5025 28.9016C82.5048 28.897 82.507 28.8902 82.5093 28.8856L82.5985 28.6204C82.6008 28.6158 82.6031 28.609 82.6054 28.6044L82.8202 28.0031C82.8225 27.9986 82.8248 27.9917 82.8271 27.9871L82.8431 27.9368C82.8454 27.93 82.8454 27.9254 82.8477 27.9186C82.85 27.914 82.85 27.9071 82.8523 27.9026C82.8683 27.8545 82.8523 27.8957 82.8705 27.8545L82.9803 27.5665C82.9826 27.5619 82.9826 27.5551 82.9848 27.5505L83.2455 26.8166C83.2478 26.8121 83.25 26.8052 83.25 26.8006L83.2683 26.7526C83.2706 26.748 83.2729 26.7412 83.2752 26.7366C83.2843 26.7092 83.2866 26.6955 83.2958 26.668L83.4032 26.4006C83.4101 26.3777 83.4146 26.3617 83.4238 26.3343C83.4261 26.3297 83.4284 26.3228 83.4284 26.3183L83.9976 24.6997C83.9999 24.6928 83.9999 24.6882 84.0022 24.6836L84.2719 23.9612C84.2742 23.9566 84.2765 23.9498 84.2788 23.9452L84.4548 23.4148C84.4571 23.4103 84.4594 23.4057 84.4617 23.3988L84.752 22.6078C84.7543 22.6032 84.7566 22.5964 84.7566 22.5918L84.8183 22.4112C84.8275 22.3861 84.8298 22.3701 84.8389 22.3426L84.9006 22.162C84.9006 22.1597 84.9189 22.13 84.9235 22.1186L85.0767 21.6751C85.0789 21.6705 85.0812 21.6636 85.0812 21.6591L85.1018 21.5905C85.1041 21.5859 85.1064 21.579 85.1064 21.5745L85.1635 21.4556C85.1658 21.451 85.1681 21.4442 85.1704 21.4396C85.1727 21.435 85.1727 21.4282 85.175 21.4236C85.1841 21.3962 85.1887 21.3801 85.1955 21.355L85.2733 21.1218C85.2755 21.1172 85.2778 21.1104 85.2778 21.1058L85.3647 20.8818C85.367 20.8772 85.3693 20.8726 85.3716 20.868L85.3853 20.8383C85.3876 20.8338 85.3899 20.8269 85.3921 20.8223L85.543 20.356C85.5453 20.3514 85.5476 20.3445 85.5499 20.3399L85.607 20.2211C85.6093 20.2165 85.6116 20.2096 85.6139 20.2051C85.6162 20.2005 85.6162 20.1936 85.6185 20.1891L85.7282 19.8553C85.7305 19.8507 85.7328 19.8439 85.7351 19.8393L85.7854 19.6907C85.7876 19.6861 85.7899 19.6792 85.7899 19.6747L85.8997 19.3866C85.9019 19.382 85.9042 19.3752 85.9042 19.3706L85.9614 19.206C85.9637 19.2014 85.966 19.1946 85.9682 19.19L86.0757 18.8997C86.078 18.8951 86.0803 18.8905 86.0826 18.886L86.0963 18.8562C86.0986 18.8517 86.1008 18.8448 86.1031 18.8402C86.1146 18.8105 86.1191 18.7831 86.1283 18.7556L86.222 18.4744C86.2243 18.4699 86.2266 18.463 86.2289 18.4584L86.2449 18.4081C86.2472 18.4013 86.2472 18.3967 86.2494 18.3899L86.3249 18.2207C86.3272 18.2161 86.3272 18.2092 86.3295 18.2047L86.3889 18.0195C86.3912 18.0149 86.3935 18.0081 86.3958 18.0035C86.398 17.9989 86.4003 17.9921 86.4026 17.9875L86.43 17.9052C86.4323 17.9006 86.4346 17.8938 86.4346 17.8892L86.8118 16.8536C86.8141 16.849 86.8164 16.8421 86.8164 16.8376L86.8941 16.6044C86.9033 16.5769 86.9101 16.5495 86.9193 16.5198C86.9216 16.5152 86.9238 16.5083 86.9238 16.5038L87.0702 16.1197C87.0724 16.1151 87.0747 16.1083 87.077 16.1037L87.1205 15.9711C87.1296 15.9437 87.1319 15.9299 87.141 15.9025C87.1433 15.8979 87.1456 15.8911 87.1479 15.8865C87.1502 15.8819 87.1525 15.8751 87.1547 15.8705L87.3582 15.3013C87.3605 15.2967 87.3605 15.2898 87.3628 15.2853L87.3742 15.2532C87.3765 15.2487 87.3788 15.2418 87.3811 15.2372L87.4245 15.1481C87.4268 15.1435 87.4291 15.1367 87.4314 15.1321L87.5823 14.6657C87.5845 14.6611 87.5868 14.6543 87.5891 14.6497L87.6028 14.6177C87.6051 14.6131 87.6074 14.6085 87.6097 14.604L87.6531 14.5125C87.6646 14.4828 87.6691 14.4554 87.6783 14.4279L87.7354 14.2633C87.7377 14.2588 87.74 14.2519 87.7423 14.2473L87.9526 13.6621C87.9549 13.6575 87.9572 13.6506 87.9595 13.6461C87.9618 13.6415 87.964 13.6346 87.9663 13.6301L87.9938 13.5455L88.0052 13.5135L88.2635 12.7796C88.2658 12.775 88.2681 12.7682 88.2704 12.7636L88.3092 12.647C88.3115 12.6425 88.3138 12.6379 88.3161 12.631L88.9288 10.9233C88.9311 10.9187 88.9334 10.9118 88.9356 10.9073L89.9278 8.14558C89.9301 8.14101 89.9301 8.13415 89.9324 8.12958C89.9347 8.125 89.937 8.11815 89.9393 8.11357C89.9461 8.09528 89.9438 8.09986 89.9507 8.08157L90.0216 7.86438C90.0238 7.85981 90.0261 7.85295 90.0284 7.84838L90.2159 7.32942C90.2182 7.32485 90.2204 7.31799 90.2227 7.31342L90.3005 7.08023C90.3027 7.07566 90.305 7.0688 90.3073 7.06423L90.4788 6.59557C90.4811 6.59099 90.4833 6.58413 90.4856 6.57956C90.4879 6.57499 90.4902 6.56813 90.4925 6.56356L90.6525 6.1269C90.6548 6.12233 90.6571 6.11547 90.6594 6.1109L90.8217 5.65595C90.824 5.65138 90.8263 5.64681 90.8286 5.64224C90.8308 5.63767 90.8331 5.63309 90.8354 5.62623L90.936 5.32903C90.9451 5.30389 90.9474 5.2856 90.9566 5.26045L91.0937 4.89009C91.096 4.88552 91.0983 4.87866 91.1006 4.87409L91.4687 3.82703C91.4732 3.8156 91.4915 3.78588 91.4915 3.78359L91.5487 3.61899C91.551 3.61442 91.5533 3.60756 91.5555 3.60298C91.5578 3.59841 91.5601 3.59155 91.5601 3.58698L91.5761 3.53669C91.5784 3.53211 91.5807 3.52526 91.583 3.52068L91.5944 3.48868C91.5967 3.4841 91.599 3.47725 91.6013 3.47267C91.6036 3.4681 91.6058 3.46124 91.6058 3.45667L91.6538 3.30578C91.6561 3.29893 91.6561 3.29435 91.6584 3.2875L91.9533 2.50106C91.9556 2.49648 91.9556 2.48963 91.9579 2.48505C91.9602 2.48048 91.9602 2.47362 91.9625 2.46676L91.9716 2.43247C91.9739 2.4279 91.9762 2.42104 91.9762 2.41647L92.2139 1.74891C92.2231 1.72376 92.2254 1.70547 92.2345 1.68033L92.5432 0.797869C92.5454 0.793297 92.5477 0.786438 92.55 0.781866L92.5774 0.676703C92.4288 0.676703 92.3465 0.736143 92.2185 0.759004C92.1819 0.765863 92.1682 0.761291 92.1362 0.765863L91.9968 0.802441C91.9648 0.8093 91.951 0.807014 91.9213 0.813872L91.5121 0.935039C91.4732 0.944183 91.4595 0.939611 91.4184 0.951042L90.9291 1.10193C90.9246 1.10421 90.9177 1.1065 90.9131 1.10879L89.857 1.44485C89.8067 1.46314 89.8752 1.44028 89.8249 1.45628C89.8204 1.45857 89.8135 1.46085 89.8089 1.46314L89.6763 1.50658C89.6718 1.50886 89.6649 1.51115 89.6603 1.51115L88.9882 1.76491C88.9837 1.7672 88.9768 1.76949 88.9722 1.77177L88.3252 2.03011C88.3207 2.03239 88.3138 2.03468 88.3092 2.03697L88.0463 2.15127C88.0395 2.15356 88.0212 2.16271 88.0143 2.16499C88.0098 2.16728 88.0029 2.16956 87.9983 2.17185L87.516 2.37303C87.5091 2.37532 87.4908 2.38218 87.4839 2.38675L87.3971 2.43247C87.3925 2.43476 87.3879 2.43704 87.3811 2.43933L87.029 2.61536C87.0199 2.61994 87.0084 2.62451 86.9993 2.62908C86.9947 2.63137 86.9901 2.63365 86.9856 2.63594L86.9421 2.6588C86.9353 2.66109 86.9193 2.67023 86.9124 2.6748C86.9078 2.67709 86.9033 2.67938 86.8987 2.68166C86.8941 2.68395 86.8896 2.68624 86.8827 2.68852C86.8781 2.69081 86.8713 2.69309 86.8667 2.69538L86.4986 2.88056L86.4689 2.89656C86.4643 2.89885 86.4598 2.90113 86.4552 2.90342L86.3523 2.95372C86.3477 2.956 86.3432 2.95829 86.3386 2.96057C86.334 2.96286 86.3295 2.96515 86.3249 2.96743L86.046 3.10689C86.0414 3.10917 86.0368 3.11146 86.03 3.11375L85.9865 3.13661C85.9705 3.14575 85.9454 3.15718 85.9271 3.16633L85.4996 3.4018C85.4927 3.40409 85.4767 3.41323 85.4699 3.41552L83.5289 4.63404C83.5244 4.63633 83.5198 4.6409 83.5175 4.64319L83.1449 4.89009C83.09 4.92438 83.0969 4.9381 83.0511 4.97468C82.9894 5.02269 83.0946 4.94953 83.026 4.99297L82.6739 5.23759C82.6054 5.27874 82.5619 5.34961 82.4956 5.39076L82.2624 5.55308C82.2579 5.55536 82.2533 5.55994 82.2487 5.56222L82.1801 5.62623C82.1756 5.63081 82.1618 5.64224 82.155 5.64681L82.0978 5.67882C82.0132 5.72911 81.9515 5.80913 81.8624 5.86399C81.8624 5.86399 81.8144 5.90286 81.8121 5.90286L81.5697 6.10176C81.4943 6.1612 81.4211 6.24807 81.332 6.30522C81.2908 6.33037 81.2725 6.35323 81.2382 6.38981C81.0896 6.5407 81.0919 6.50641 80.9845 6.60014C80.9571 6.623 80.9662 6.61843 80.941 6.64357L80.6827 6.89277C80.6781 6.89505 80.6736 6.89734 80.669 6.89962L80.6256 6.92249C80.621 6.92477 80.6164 6.92934 80.6118 6.93163L79.6608 7.88039C79.5419 7.99927 79.4253 8.11586 79.3088 8.23474L79.0001 8.54337C78.9956 8.54794 78.9818 8.56166 78.9773 8.56623L78.9041 8.64853C78.8835 8.68054 78.895 8.67368 78.8744 8.70569C78.8195 8.79256 78.6824 8.90687 78.6366 8.95259C78.6252 8.96403 78.6023 8.9846 78.6023 8.9846L78.2709 9.38239C78.2686 9.38696 78.2663 9.39154 78.264 9.39611C78.2366 9.44412 78.104 9.56528 78.0354 9.67502C77.9577 9.79619 77.8891 9.81448 77.8228 9.9265C77.8205 9.93107 77.8182 9.93564 77.8159 9.94021L77.4136 10.4432C77.4113 10.4477 77.4067 10.4523 77.4044 10.4569L77.1484 10.7975C77.1461 10.8021 77.1415 10.8067 77.1392 10.8112L77.1004 10.8821C77.0661 10.9301 77.0409 10.9324 77.0066 10.9873L75.7653 12.8825C75.7493 12.9054 75.7332 12.9214 75.7264 12.9328C75.715 12.9488 75.7035 12.9739 75.6967 12.9899C75.6875 13.0082 75.6921 13.0014 75.683 13.0197C75.6807 13.0265 75.6715 13.0425 75.6692 13.0494C75.6509 13.0837 75.6555 13.0745 75.6349 13.102C75.6189 13.1248 75.6029 13.1408 75.5961 13.1523C75.5846 13.1683 75.5732 13.1934 75.5641 13.2094L75.3446 13.6072C75.3423 13.6118 75.34 13.6186 75.3377 13.6232C75.3355 13.6278 75.3332 13.6346 75.3309 13.6392L75.2509 13.7581C75.2486 13.7627 75.244 13.7672 75.2417 13.7718L75.1023 14.0507C75.0931 14.069 75.0977 14.0622 75.0886 14.0804L74.4187 15.4201C74.3867 15.4864 74.437 15.3836 74.4027 15.4499L74.3387 15.6076C74.3364 15.6122 74.3364 15.619 74.3341 15.6236C74.3319 15.6282 74.3296 15.635 74.3273 15.6396C74.325 15.6442 74.3227 15.651 74.3204 15.6556C74.3181 15.6602 74.3158 15.6648 74.3136 15.6716C74.3113 15.6762 74.309 15.6808 74.3067 15.6876L73.9158 16.5998C73.9135 16.6044 73.9112 16.6089 73.9089 16.6135L73.6254 17.3474C73.6232 17.3519 73.6209 17.3588 73.6186 17.3634L73.4243 17.8983C73.422 17.9029 73.422 17.9098 73.4197 17.9143L73.2985 18.2778C73.2962 18.2824 73.2939 18.2893 73.2917 18.2938L73.2528 18.4104C73.2505 18.415 73.2482 18.4219 73.2459 18.4264L72.9419 19.4255C72.9396 19.4301 72.9373 19.4369 72.9373 19.4415L72.8093 19.9101C72.7933 19.965 72.7956 19.9993 72.7773 20.0565L72.759 20.1045C72.7567 20.1113 72.7567 20.1159 72.7544 20.1228L72.6058 20.7903C72.6035 20.7972 72.6013 20.8018 72.6013 20.8063C72.599 20.8132 72.5898 20.8315 72.5898 20.8383L72.4527 21.5173C72.4367 21.579 72.4504 21.6111 72.4344 21.6751L72.2835 22.5164C72.2675 22.5621 72.272 22.5232 72.2675 22.5895C72.2629 22.6444 72.2743 22.7084 72.2629 22.7633C72.2446 22.8524 72.2309 22.8021 72.2218 22.9004C72.2149 22.9782 72.2309 23.0833 72.208 23.1519C72.1875 23.2114 72.2058 23.1108 72.1829 23.2159C72.1715 23.2731 72.1829 23.3531 72.1806 23.4125C72.1783 23.4537 72.1806 23.4537 72.1692 23.4903L72.1349 23.7212C72.1395 23.9749 72.1097 23.9109 72.0914 24.0321C72.0777 24.1304 72.1029 24.2836 72.0892 24.3842C72.0709 24.5145 72.0457 24.4207 72.0457 24.7157C72.0457 24.8185 72.0549 24.974 72.0457 25.07C72.0366 25.1866 72 25.1592 72 25.3992C72 25.4266 72 25.4632 72 25.5044V27.6739C72.0046 27.7882 72.0114 27.866 72.0229 27.8957C72.0457 27.962 72.0457 28.1335 72.0457 28.2272C72.0457 28.3392 72.0274 28.4855 72.0617 28.5884L72.0914 28.7119C72.096 28.8262 72.0709 28.9679 72.1052 29.0731C72.144 29.1919 72.1097 29.3474 72.1395 29.4823C72.1623 29.5852 72.144 29.4869 72.1646 29.5463C72.2012 29.6515 72.16 29.7635 72.1966 29.8687C72.2332 29.9761 72.2058 30.1201 72.24 30.2207C72.2423 30.2253 72.2446 30.2322 72.2469 30.2367C72.2812 30.3327 72.2515 30.4333 72.2835 30.5294L72.3909 31.1078C72.4069 31.1695 72.3932 31.2015 72.4092 31.2655L72.4344 31.3295C72.4481 31.3775 72.4412 31.3798 72.4435 31.4301C72.4435 31.4644 72.4412 31.4804 72.4481 31.5147C72.4687 31.6199 72.4527 31.5193 72.4709 31.5787L72.8619 33.2842C72.8642 33.2887 72.8664 33.2956 72.8687 33.3002L73.1819 34.4204C73.1842 34.425 73.1842 34.4318 73.1865 34.4364L73.3237 34.8502C73.326 34.8571 73.326 34.8616 73.3282 34.8685L73.3717 35.0011C73.374 35.0057 73.374 35.0125 73.3762 35.0171C73.3785 35.0217 73.3808 35.0285 73.3831 35.0331L73.5523 35.5475C73.5546 35.552 73.5569 35.5589 73.5591 35.5635L73.7855 36.1533C73.7878 36.1579 73.79 36.1624 73.7923 36.1693C73.7946 36.1739 73.7969 36.1784 73.7992 36.183C73.8015 36.1899 73.8129 36.2059 73.8152 36.2105L73.8518 36.3065C73.8541 36.3133 73.8541 36.3179 73.8563 36.3248L73.9112 36.4459C73.9135 36.4505 73.9158 36.4551 73.9181 36.4619L74.0507 36.8163C74.0529 36.8209 74.0552 36.8277 74.0575 36.8323C74.0598 36.8369 74.0621 36.8414 74.0644 36.846C74.0667 36.8529 74.0758 36.8689 74.0804 36.8757L74.2358 37.2278C74.2381 37.2324 74.2404 37.2369 74.2427 37.2415L74.4119 37.6233C74.421 37.6416 74.4324 37.6645 74.4416 37.6827L74.581 37.9617C74.5833 37.9662 74.5856 37.9708 74.5879 37.9754C74.5902 37.9799 74.5925 37.9845 74.5948 37.9891L74.6245 38.0485C74.6268 38.0531 74.629 38.0577 74.6313 38.0622C74.6336 38.0668 74.6359 38.0714 74.6382 38.076L74.6679 38.1354C74.6702 38.14 74.6725 38.1445 74.6748 38.1491C74.6771 38.1537 74.6793 38.1583 74.6816 38.1651L74.7113 38.2246C74.7136 38.2291 74.7159 38.2337 74.7182 38.2383C74.7205 38.2429 74.7228 38.2474 74.7251 38.2543L74.7548 38.3137C74.7571 38.3183 74.7594 38.3229 74.7616 38.3297L74.7982 38.4029C74.8005 38.4075 74.8028 38.412 74.8051 38.4189C74.8074 38.4235 74.8097 38.428 74.8119 38.4326L75.3355 39.4339C75.3377 39.4385 75.34 39.4431 75.3423 39.4499L75.5549 39.834C75.5572 39.8386 75.5595 39.8454 75.5618 39.85L75.6509 39.9803C75.6532 39.9872 75.6624 40.0032 75.6669 40.0101L76.1287 40.7622C76.1493 40.7942 76.1402 40.7873 76.1608 40.8194L76.602 41.4823C76.6043 41.4869 76.6088 41.4915 76.6111 41.4961C76.6134 41.5006 76.618 41.5052 76.6203 41.5075L76.778 41.7475C76.7803 41.7521 76.7849 41.7567 76.7872 41.7612L77.3975 42.5866C77.441 42.6551 77.3678 42.5523 77.4158 42.6117L77.5804 42.822C77.6079 42.8495 77.6422 42.8769 77.6673 42.9112L77.6833 42.9386C77.6856 42.9455 77.6947 42.9615 77.6993 42.9683C77.7428 43.0415 77.8182 43.0872 77.8616 43.1604L77.9919 43.3181C78.0537 43.3844 78.0788 43.4553 78.1451 43.517L78.2823 43.6885C78.3257 43.7593 78.2526 43.6519 78.3006 43.7136L78.9818 44.4681C79.0276 44.5458 80.4655 46.0021 80.6233 46.0958L80.6507 46.1118C80.7719 46.1964 80.8496 46.3473 80.9776 46.425C81.0096 46.4456 81.0028 46.4342 81.0348 46.457C81.1445 46.5256 81.252 46.6696 81.3 46.6993C81.3045 46.7016 81.3091 46.7039 81.3137 46.7062C81.3183 46.7085 81.3228 46.7108 81.3274 46.7131L81.4669 46.8388C81.4806 46.8525 81.4966 46.8685 81.5103 46.8822L81.995 47.28C81.9995 47.2846 82.0132 47.296 82.0201 47.3006C82.0247 47.3029 82.0292 47.3075 82.0338 47.3098C82.1664 47.3943 82.2807 47.5018 82.4065 47.6001C82.4682 47.6481 82.363 47.5749 82.4316 47.6184L82.475 47.6412C82.4796 47.6435 82.4842 47.6458 82.4888 47.6481L83.7256 48.5328C83.7393 48.542 83.7507 48.5534 83.7758 48.5717L84.6972 49.1501C84.7017 49.1524 84.7063 49.157 84.7109 49.1593L84.7589 49.1981C84.7635 49.2004 84.768 49.205 84.7726 49.2073L85.5659 49.6736C85.5705 49.6759 85.575 49.6782 85.5819 49.6805C85.7053 49.7422 85.4882 49.6348 85.6116 49.6965C85.6276 49.7056 85.6528 49.7171 85.671 49.7262C85.6779 49.7285 85.6939 49.7377 85.7008 49.7399L85.7579 49.7697C85.7625 49.7719 85.7671 49.7765 85.7716 49.7788L86.0094 49.916C86.014 49.9183 86.0185 49.9205 86.0231 49.9228L86.1694 49.996C86.174 49.9983 86.1786 50.0006 86.1831 50.0028L86.2563 50.0394C86.2609 50.0417 86.2654 50.044 86.2723 50.0463L86.3455 50.0829C86.35 50.0851 86.3546 50.0874 86.3615 50.0897L86.4346 50.1263C86.4392 50.1286 86.446 50.1309 86.4506 50.1332L86.5238 50.1697C86.5283 50.172 86.5329 50.1743 86.5375 50.1766L86.6106 50.2132C86.6152 50.2155 86.6198 50.2177 86.6244 50.22C86.6289 50.2223 86.6335 50.2246 86.6381 50.2269C86.6564 50.236 86.6701 50.2429 86.6815 50.2498L86.741 50.2795C86.7455 50.2818 86.7501 50.284 86.7547 50.2863L86.917 50.3663C86.9216 50.3686 86.9261 50.3709 86.933 50.3732L87.0359 50.4258C87.0564 50.4349 87.045 50.4304 87.0656 50.4395L87.2713 50.5424C87.2759 50.5447 87.2805 50.547 87.2851 50.5492C87.2896 50.5515 87.2942 50.5538 87.3011 50.5561L87.772 50.7687C87.7766 50.771 87.7811 50.7733 87.7857 50.7756L87.9206 50.8396C87.9275 50.8419 87.932 50.8419 87.9389 50.8442C87.9435 50.8464 87.9503 50.8464 87.9572 50.8487L88.0395 50.8784C88.0441 50.8807 88.0486 50.883 88.0532 50.8853C88.0601 50.8876 88.0761 50.8967 88.0806 50.9013C88.0852 50.9036 88.0898 50.9059 88.0943 50.9082L88.451 51.0591C88.4807 51.0682 88.4898 51.0682 88.5196 51.0773C88.5241 51.0796 88.531 51.0819 88.5356 51.0842L88.6247 51.1276C88.6316 51.1299 88.6499 51.1391 88.6544 51.1414L88.8762 51.2305C88.8808 51.2328 88.8876 51.2351 88.8922 51.2351L89.0248 51.2785C89.0294 51.2808 89.0362 51.2808 89.0408 51.2831C89.0797 51.2945 89.0728 51.29 89.1094 51.3037L89.8158 51.5689C89.8204 51.5712 89.8272 51.5734 89.8318 51.5757L89.8821 51.5917C89.8867 51.594 89.8935 51.594 89.8981 51.5963L90.113 51.6695C90.1176 51.6717 90.1244 51.674 90.129 51.6763C90.1336 51.6786 90.1404 51.6786 90.145 51.6809L90.3599 51.7518C90.3645 51.754 90.3713 51.7563 90.3759 51.7586C90.3805 51.7609 90.3873 51.7632 90.3919 51.7655C90.3965 51.7678 90.4033 51.77 90.4079 51.77L90.8491 51.9026C90.8766 51.9118 90.8971 51.9186 90.9154 51.9255C90.9863 51.9507 90.8811 51.9255 90.9817 51.9484C91.0137 51.9552 91.0274 51.9529 91.0595 51.9598L91.1921 52.0032C91.1966 52.0055 91.2035 52.0055 91.2081 52.0078L91.5327 52.1015C91.5373 52.1038 91.5441 52.1061 91.5487 52.1084C91.5533 52.1107 91.5601 52.113 91.5647 52.1153L91.6927 52.1427C91.6973 52.145 91.7041 52.1473 91.7087 52.1473L91.8345 52.177C91.903 52.1953 91.8756 52.1587 91.903 52.2204H92.0356C92.0379 52.1541 92.0379 52.1861 92.0516 52.1473L92.1316 51.9415C92.1339 51.9369 92.1362 51.9324 92.1385 51.9278C92.1408 51.9232 92.1431 51.9186 92.1454 51.9118C92.1477 51.9072 92.1499 51.9004 92.1522 51.8958L92.1888 51.7792C92.1911 51.7746 92.1934 51.7678 92.1957 51.7632L92.246 51.6146C92.2482 51.61 92.2505 51.6032 92.2505 51.5986L92.3603 51.3105C92.3625 51.306 92.3648 51.3014 92.3671 51.2945L92.4677 50.9973C92.47 50.9928 92.47 50.9859 92.4723 50.9813L92.4997 50.899C92.502 50.8944 92.5043 50.8876 92.5066 50.883L92.582 50.6933C92.5843 50.6887 92.5866 50.6841 92.5889 50.6773L92.6712 50.4281C92.6735 50.4212 92.6803 50.4029 92.6826 50.3961C92.6895 50.3732 92.694 50.3572 92.7032 50.3298L92.8541 49.9274C92.8564 49.9228 92.8586 49.916 92.8609 49.9114L92.8975 49.7948C92.8998 49.7902 92.9021 49.7834 92.9044 49.7788L93.0187 49.429C93.021 49.4244 93.0232 49.4176 93.0255 49.413C93.0278 49.4084 93.0301 49.4016 93.0324 49.397C93.0347 49.3924 93.037 49.3856 93.0392 49.381L93.1215 49.1753C93.1238 49.1707 93.1261 49.1638 93.1284 49.1593C93.1307 49.1547 93.133 49.1478 93.1353 49.1433L93.3456 48.558C93.3479 48.5534 93.3502 48.5466 93.3524 48.542C93.3547 48.5374 93.357 48.5306 93.3593 48.526L93.517 48.0893C93.5193 48.0848 93.5216 48.0802 93.5239 48.0733L93.7434 47.4103C93.7457 47.4058 93.7479 47.4012 93.7502 47.3943L93.8874 47.024C93.8897 47.0194 93.892 47.0126 93.892 47.008L93.9514 46.8228C93.9537 46.8182 93.956 46.8114 93.9583 46.8068C93.9606 46.8022 93.9628 46.7954 93.9651 46.7908C93.9674 46.7862 93.9697 46.7817 93.972 46.7748L94.0474 46.585C94.0497 46.5805 94.052 46.5736 94.0543 46.569C94.0566 46.5645 94.0589 46.5576 94.0611 46.553L94.2006 46.1415C94.2417 46.0592 94.1754 46.1941 94.2166 46.1141L94.2303 46.0844C94.2326 46.0798 94.2349 46.0729 94.2372 46.0684L94.6853 44.8156C94.6875 44.811 94.6875 44.8041 94.6898 44.7996L94.843 44.3332C94.8453 44.3286 94.8476 44.3217 94.8499 44.3172C94.8521 44.3126 94.8544 44.3057 94.8567 44.3012C94.859 44.2966 94.8613 44.2897 94.8636 44.2852L95.6409 42.1247C95.6431 42.1202 95.6454 42.1133 95.6477 42.1087L95.6751 42.0242C95.6774 42.0196 95.6774 42.0127 95.6797 42.0082C95.682 42.0036 95.6843 41.9967 95.6866 41.9922C95.6934 41.9716 95.6912 41.9807 95.698 41.9601L95.8169 41.6378C95.8192 41.6309 95.8283 41.6126 95.8306 41.6058L95.9175 41.3406C95.9198 41.336 95.922 41.3292 95.9243 41.3246C95.9335 41.2994 95.9358 41.2834 95.9449 41.2583C95.9472 41.2537 95.9495 41.2469 95.9518 41.2423L96.0455 40.9611C96.0478 40.9565 96.0501 40.9497 96.0524 40.9451L96.1072 40.8239C96.1164 40.7965 96.1209 40.7805 96.1278 40.7553L96.1598 40.6547C96.1621 40.6502 96.1644 40.6433 96.1644 40.6387L96.2147 40.4901C96.217 40.4856 96.2192 40.4787 96.2215 40.4741C96.2238 40.4696 96.2261 40.4627 96.2284 40.4581L96.3816 40.0375C96.3838 40.0329 96.3838 40.0261 96.3861 40.0215C96.3884 40.0169 96.3907 40.0101 96.393 40.0055C96.3953 40.0009 96.3976 39.994 96.3999 39.9895C96.4021 39.9849 96.4044 39.978 96.4067 39.9735L96.7611 39.0019C96.7748 38.9653 96.7748 38.9561 96.7862 38.9173L96.9302 38.4875C96.9325 38.4829 96.9348 38.4783 96.9371 38.4715L96.96 38.428C96.9622 38.4235 96.9645 38.4189 96.9668 38.4143L97.2571 37.6004C97.2594 37.5936 97.2594 37.589 97.2617 37.5821L97.3646 37.2667C97.3669 37.2621 97.3692 37.2552 97.3715 37.2507C97.3737 37.2461 97.376 37.2392 97.3783 37.2347L97.6206 36.5488C97.6229 36.5442 97.6229 36.5374 97.6252 36.5328L97.6366 36.5008C97.6389 36.4962 97.6412 36.4894 97.6435 36.4848C97.6458 36.4802 97.6481 36.4757 97.6504 36.4711L97.6869 36.3979C97.6892 36.3933 97.6915 36.3865 97.6938 36.3819C97.6961 36.3773 97.6961 36.3705 97.6984 36.3659L97.7967 36.0664C97.799 36.0619 97.8012 36.055 97.8012 36.0504L97.8447 35.9178C97.847 35.9133 97.8493 35.9064 97.8515 35.9018L97.9407 35.6824C97.943 35.6778 97.9453 35.6709 97.9476 35.6664C97.9498 35.6618 97.9521 35.6549 97.9544 35.6503L97.975 35.584C97.9773 35.5795 97.9773 35.5726 97.9796 35.568L98.3225 34.585C98.3248 34.5781 98.3248 34.5736 98.3271 34.5667C98.3293 34.5621 98.3293 34.5553 98.3316 34.5507L98.3431 34.5187C98.3453 34.5141 98.3476 34.5073 98.3499 34.5027C98.3522 34.4981 98.3545 34.4936 98.3568 34.489L98.7226 33.4648C98.7248 33.4602 98.7248 33.4534 98.7271 33.4488L98.878 33.0464C98.8872 33.0213 98.894 32.9915 98.9054 32.9618L99.0883 32.4589C99.0906 32.4543 99.0929 32.4474 99.0952 32.4429L99.2049 32.1114C99.2072 32.1045 99.2072 32.0999 99.2095 32.0931L99.2209 32.0588C99.2232 32.0542 99.2255 32.0474 99.2278 32.0428C99.2301 32.0382 99.2324 32.0314 99.2347 32.0268L99.4427 31.4392C99.4495 31.421 99.4473 31.4255 99.4541 31.4072C99.4633 31.3844 99.4655 31.3684 99.4747 31.3387L99.4861 31.3044C99.4884 31.2998 99.4907 31.2929 99.493 31.2884L99.5318 31.2152C99.5341 31.2106 99.5364 31.2038 99.5387 31.1992L99.5501 31.1672C99.5524 31.1626 99.5524 31.1558 99.5547 31.1512C99.557 31.1466 99.557 31.1398 99.5593 31.1329L99.5753 31.0826C99.5776 31.078 99.5799 31.0712 99.5821 31.0666L99.6713 30.8014C99.6736 30.7968 99.6759 30.79 99.6782 30.7854L99.7993 30.4653C99.8016 30.4608 99.8039 30.4539 99.8062 30.4493L99.8565 30.3007C99.8588 30.2962 99.861 30.2893 99.8633 30.2847L99.9022 30.1681C99.9091 30.1499 99.9113 30.143 99.9182 30.1178L99.9411 30.0515C99.9433 30.047 99.9456 30.0424 99.9479 30.0355L99.9845 29.9624C99.9868 29.9578 99.9891 29.951 99.9914 29.9464L100.101 29.6126C100.103 29.6057 100.106 29.6012 100.106 29.5966L100.343 28.929C100.35 28.9062 100.355 28.8902 100.364 28.8605L100.426 28.7233C100.428 28.7187 100.43 28.7119 100.433 28.7073L100.547 28.3575C100.549 28.3529 100.551 28.3461 100.554 28.3415L100.753 27.7905C100.762 27.7631 100.766 27.7448 100.773 27.7242C100.78 27.7037 100.778 27.7128 100.785 27.6922C100.787 27.6877 100.789 27.6808 100.792 27.6762L100.952 27.2396C100.954 27.235 100.956 27.2281 100.958 27.2236L101.363 26.1034C101.365 26.0988 101.368 26.0919 101.37 26.0873C101.379 26.0599 101.381 26.0462 101.39 26.0188C101.393 26.0142 101.395 26.0073 101.397 26.0028C101.4 25.9982 101.402 25.9913 101.404 25.9868L101.802 24.8368C101.804 24.8322 101.807 24.8254 101.809 24.8208L102.106 24.0138C102.108 24.0092 102.111 24.0024 102.113 23.9978L102.175 23.8172C102.184 23.7898 102.188 23.7715 102.195 23.7509L102.36 23.2982C102.362 23.2937 102.362 23.2868 102.364 23.2822L102.419 23.1176C102.422 23.1131 102.424 23.1062 102.426 23.1016L102.7 22.3358C102.703 22.3289 102.714 22.3129 102.716 22.3083L102.769 22.162C102.776 22.1437 102.774 22.1483 102.78 22.13C102.787 22.1071 102.792 22.0911 102.801 22.0637C102.803 22.0591 102.803 22.0523 102.806 22.0477C102.808 22.0431 102.81 22.0363 102.812 22.0317C102.815 22.0248 102.822 22.0066 102.824 21.9997L103.002 21.515C103.004 21.5105 103.007 21.5036 103.009 21.499L103.052 21.3664C103.055 21.3619 103.057 21.355 103.057 21.3504L103.267 20.7652C103.27 20.7606 103.272 20.7537 103.274 20.7492L103.409 20.3537C103.411 20.3468 103.421 20.3308 103.425 20.3262L103.603 19.7981C103.606 19.7936 103.608 19.7867 103.61 19.7821C103.613 19.7776 103.615 19.7707 103.617 19.7661L103.631 19.7364C103.633 19.7295 103.642 19.7135 103.647 19.709L103.889 19.046C103.891 19.0414 103.894 19.0346 103.896 19.03L103.956 18.8448C103.958 18.8402 103.96 18.8334 103.96 18.8288L103.999 18.7122C104.001 18.7076 104.001 18.7008 104.004 18.6962C104.006 18.6916 104.008 18.6848 104.01 18.6802L104.049 18.5636C104.052 18.559 104.054 18.5522 104.056 18.5476L104.106 18.399C104.109 18.3944 104.111 18.3876 104.113 18.383L104.157 18.2938C104.159 18.2893 104.161 18.2824 104.164 18.2778L104.429 17.5257C104.438 17.5005 104.44 17.4822 104.449 17.4571L104.55 17.1599C104.552 17.1553 104.554 17.1485 104.557 17.1439C104.559 17.1393 104.561 17.1348 104.564 17.1302L104.769 16.5404C104.772 16.5358 104.774 16.5289 104.776 16.5243C104.779 16.5198 104.781 16.5152 104.783 16.5106C104.785 16.5038 104.795 16.4878 104.799 16.4832C104.801 16.4786 104.804 16.4741 104.806 16.4695L104.907 16.1723C104.934 16.09 104.966 16.0123 104.966 15.9231H114.639C114.666 15.994 114.611 15.9688 114.883 15.9665C114.954 15.9665 114.963 15.9642 115.02 15.9825L115.334 16.0443C115.375 16.0557 115.372 16.0511 115.409 16.058C115.45 16.0671 115.432 16.0625 115.462 16.0717L115.494 16.0831L116.303 16.378C116.307 16.3803 116.312 16.3826 116.317 16.3849L116.346 16.3986C116.351 16.4009 116.355 16.4032 116.36 16.4055L116.463 16.4558C116.467 16.458 116.472 16.4626 116.477 16.4649C116.481 16.4672 116.486 16.4718 116.49 16.4741L117.352 17.2011C117.355 17.2056 117.359 17.2102 117.361 17.2148L117.494 17.3908C117.496 17.3954 117.501 17.3999 117.503 17.4045L117.569 17.5371C117.572 17.5417 117.574 17.5463 117.576 17.5531C117.67 17.7383 117.725 17.8252 117.787 18.0058L117.825 18.1658C117.828 18.1727 117.828 18.1772 117.83 18.1841L117.892 18.4973C117.931 18.6162 117.924 19.0711 117.878 19.2037C117.876 19.2083 117.873 19.2129 117.871 19.2197C117.851 19.2883 117.871 19.3569 117.86 19.4301C117.846 19.5261 117.828 19.5169 117.816 19.629C117.812 19.6655 117.816 19.6495 117.807 19.6861C117.805 19.693 117.803 19.6975 117.803 19.7021C117.8 19.7067 117.798 19.7135 117.796 19.7181L117.675 20.1273C117.672 20.1319 117.67 20.1388 117.668 20.1433C117.665 20.1479 117.663 20.1548 117.661 20.1593C117.659 20.1639 117.656 20.1708 117.654 20.1753L117.572 20.4245C117.569 20.4291 117.567 20.436 117.565 20.4405L117.174 21.5287C117.172 21.5333 117.169 21.5402 117.167 21.5448C117.165 21.5493 117.162 21.5562 117.16 21.5608L116.938 22.178C116.936 22.1826 116.934 22.1894 116.934 22.194L116.717 22.7953C116.714 22.7999 116.714 22.8067 116.712 22.8113L116.415 23.6617C116.413 23.6663 116.41 23.6732 116.408 23.6777L116.237 24.1464C116.234 24.151 116.232 24.1578 116.23 24.1624L116.065 24.6608C116.063 24.6654 116.061 24.6722 116.058 24.6768L116.026 24.7774C116.024 24.782 116.022 24.7888 116.019 24.7934C116.017 24.798 116.015 24.8025 116.013 24.8094L115.981 24.8665C115.978 24.8711 115.976 24.878 115.974 24.8825C115.971 24.8871 115.969 24.894 115.967 24.8985C115.965 24.9031 115.962 24.91 115.96 24.9145L115.839 25.2803C115.837 25.2849 115.834 25.2918 115.832 25.2963L115.756 25.4861C115.754 25.4907 115.752 25.4975 115.75 25.5021L115.656 25.7833C115.654 25.7879 115.651 25.7947 115.649 25.7993L115.402 26.5011C115.4 26.508 115.393 26.5263 115.391 26.5331L115.148 27.219C115.146 27.2236 115.146 27.2304 115.144 27.235L115.071 27.4499C115.059 27.4888 115.064 27.4819 115.05 27.5185C115.048 27.5231 115.046 27.5299 115.043 27.5345L115.007 27.6076C115.004 27.6122 115.002 27.6168 115 27.6236C114.998 27.6282 114.995 27.6351 114.993 27.6396C114.991 27.6442 114.988 27.6511 114.986 27.6557L114.696 28.4901C114.693 28.4947 114.691 28.5015 114.689 28.5061L114.657 28.6067C114.655 28.6113 114.652 28.6181 114.65 28.6227L114.556 28.9039C114.554 28.9085 114.552 28.9153 114.549 28.9199C114.547 28.9245 114.545 28.9313 114.543 28.9359L114.405 29.3063C114.403 29.3108 114.403 29.3177 114.401 29.3223L114.335 29.5212C114.332 29.5257 114.33 29.5326 114.328 29.5372L114.307 29.6057C114.305 29.6103 114.305 29.6172 114.303 29.6217L114.062 30.2893C114.056 30.3122 114.051 30.3282 114.042 30.3579C114.04 30.3625 114.04 30.3693 114.037 30.3739L113.944 30.6094C113.941 30.6139 113.939 30.6208 113.937 30.6254L113.678 31.3592C113.676 31.3638 113.674 31.3707 113.672 31.3752L113.457 31.9765C113.454 31.9811 113.452 31.9879 113.45 31.9925L113.281 32.5069C113.278 32.5115 113.276 32.5183 113.274 32.5229L113.191 32.7264C113.189 32.7309 113.187 32.7378 113.185 32.7424L112.956 33.3756C112.954 33.3802 112.951 33.3871 112.949 33.3916C112.947 33.3962 112.947 33.4031 112.945 33.4076L112.924 33.4762C112.922 33.4808 112.919 33.4876 112.917 33.4922L112.659 34.2261C112.657 34.2329 112.65 34.2512 112.647 34.2581C112.641 34.2809 112.636 34.2969 112.627 34.3244L112.528 34.6239C112.526 34.6284 112.524 34.6353 112.522 34.6399L112.382 35.0079C112.375 35.0262 112.375 35.0331 112.366 35.0582L112.35 35.1085C112.348 35.1131 112.346 35.12 112.343 35.1245L112.012 35.7875C112.01 35.7921 112.007 35.7967 112.005 35.8012L111.648 36.2608C111.564 36.3453 111.479 36.4574 111.379 36.5214C111.251 36.6037 111.15 36.7066 111.01 36.7729C110.878 36.8369 110.823 36.894 110.674 36.9443C110.67 36.9466 110.663 36.9489 110.658 36.9512L110.54 37.0083C110.505 37.0198 110.519 37.0152 110.489 37.0243L110.439 37.0403C110.434 37.0426 110.428 37.0449 110.423 37.0472C110.418 37.0495 110.412 37.0518 110.407 37.054L110.258 37.1043C110.233 37.1135 110.217 37.1181 110.192 37.1249L109.81 37.2072C109.742 37.2209 109.783 37.2164 109.76 37.2232C109.726 37.2347 109.801 37.2301 109.691 37.2438C109.625 37.2529 109.545 37.2369 109.481 37.2552L109.449 37.2667C109.296 37.3215 108.265 37.2895 108.036 37.2895C106.388 37.2895 104.737 37.2895 103.089 37.2895V37.333C103.004 37.3673 103.073 37.3124 103.034 37.4313C103.032 37.4358 103.03 37.4427 103.03 37.4473L102.879 37.8496C102.87 37.8771 102.867 37.8908 102.858 37.9182L102.796 38.0988C102.79 38.1217 102.785 38.1377 102.776 38.1651L102.732 38.2977C102.73 38.3023 102.73 38.3092 102.728 38.3137L102.71 38.3617C102.707 38.3663 102.705 38.3709 102.703 38.3754L102.54 38.8304C102.538 38.835 102.536 38.8418 102.534 38.8464L102.495 38.963C102.492 38.9676 102.49 38.9744 102.488 38.979L102.351 39.3494C102.348 39.3539 102.346 39.3608 102.346 39.3654L101.971 40.4056C101.969 40.4101 101.967 40.417 101.964 40.4216C101.962 40.4261 101.96 40.433 101.957 40.4376L101.832 40.8194C101.829 40.8239 101.827 40.8308 101.825 40.8354L101.61 41.4366C101.608 41.4412 101.605 41.448 101.603 41.4526L101.578 41.5372C101.576 41.5418 101.573 41.5486 101.571 41.5532L101.299 42.2756C101.297 42.2802 101.294 42.2871 101.292 42.2916L101.249 42.4242C101.246 42.4288 101.244 42.4357 101.242 42.4402L101.16 42.6894C101.153 42.7077 101.15 42.7146 101.144 42.7397C101.141 42.7443 101.141 42.7512 101.139 42.7557L101.091 42.8632C101.089 42.8677 101.086 42.8723 101.084 42.8769C101.082 42.8815 101.08 42.8883 101.077 42.8929L100.933 43.3227C100.931 43.3273 100.931 43.3341 100.929 43.3387L100.901 43.4233C100.899 43.4279 100.897 43.4347 100.894 43.4393L100.629 44.1891C100.627 44.1937 100.625 44.1983 100.622 44.2029L100.599 44.2463C100.597 44.2509 100.595 44.2554 100.593 44.2623L100.467 44.6441C100.465 44.6487 100.462 44.6555 100.46 44.6601C100.458 44.6647 100.455 44.6715 100.453 44.6761L100.378 44.8658C100.375 44.8704 100.373 44.875 100.371 44.8819L100.222 45.3299C100.211 45.3688 100.215 45.3619 100.202 45.3985L100.051 45.7986C100.049 45.8032 100.046 45.81 100.046 45.8146L100.019 45.8969C100.017 45.9015 100.014 45.9083 100.012 45.9129C100.01 45.9175 100.007 45.9243 100.005 45.9289L99.6507 46.9005C99.6416 46.928 99.6393 46.9417 99.6301 46.9691C99.6279 46.9737 99.6256 46.9805 99.6256 46.9851C99.6233 46.9897 99.621 46.9966 99.6187 47.0011L99.4495 47.4721C99.4473 47.4766 99.445 47.4812 99.4427 47.4881L99.3101 47.8859C99.3078 47.8904 99.3055 47.8973 99.3032 47.9019L99.1386 48.3545C99.1363 48.3591 99.1341 48.366 99.1318 48.3705L99.1203 48.4025C99.1181 48.4071 99.1181 48.414 99.1158 48.4185L99.0883 48.5008C99.0861 48.5054 99.0838 48.5123 99.0815 48.5168L98.91 48.9855C98.9077 48.9901 98.9054 48.9969 98.9032 49.0015C98.9009 49.0061 98.8986 49.0129 98.8963 49.0175C98.894 49.0221 98.8917 49.0289 98.8917 49.0335L98.782 49.3216C98.7797 49.3261 98.7774 49.3307 98.7751 49.3376L98.6928 49.5868C98.6906 49.5936 98.6837 49.6119 98.6814 49.6188L98.6311 49.7674C98.6288 49.7719 98.6265 49.7788 98.6265 49.7834C98.6197 49.804 98.6174 49.8131 98.6105 49.8337L98.5991 49.8657C98.5968 49.8703 98.5945 49.8771 98.5922 49.8817L98.4322 50.3183C98.4299 50.3229 98.4276 50.3298 98.4254 50.3343C98.4231 50.3389 98.4208 50.3458 98.4185 50.3503L98.3751 50.4829C98.3728 50.4875 98.3705 50.4944 98.3682 50.4989L98.2082 50.9356C98.2059 50.9402 98.2036 50.947 98.2013 50.9516C98.199 50.9562 98.1967 50.963 98.1945 50.9676C98.1922 50.9722 98.1899 50.979 98.1876 50.9836L97.9224 51.7335C97.9156 51.7518 97.9133 51.7586 97.9064 51.7838L97.847 51.9232C97.8447 51.9278 97.8424 51.9324 97.8401 51.9392L97.7258 52.289C97.7235 52.2936 97.7235 52.3004 97.7212 52.305L97.7098 52.337C97.7075 52.3416 97.7052 52.3484 97.7029 52.353L97.6138 52.5725C97.6001 52.6091 97.6046 52.6022 97.5932 52.6411L97.5246 52.8377C97.5041 52.904 97.5109 52.9223 97.5109 53H99.5936C99.9045 52.9977 99.797 52.9749 99.9182 52.9566C100.197 52.9154 100.247 53.0046 100.545 52.92C100.686 52.8788 100.851 52.9383 100.995 52.9063L101.457 52.8377C101.569 52.7988 101.711 52.8445 101.823 52.8057L102.369 52.7325C102.554 52.7188 102.367 52.7119 102.524 52.6891C102.607 52.6777 102.687 52.6937 102.767 52.6662C102.851 52.6365 102.931 52.6571 103.016 52.6296C103.02 52.6274 103.025 52.6251 103.032 52.6228C103.036 52.6205 103.043 52.6182 103.048 52.6159C103.052 52.6136 103.059 52.6114 103.064 52.6091C103.178 52.5793 103.178 52.6022 103.254 52.5771C103.29 52.5656 103.21 52.5702 103.322 52.5565C103.357 52.5519 103.398 52.5588 103.432 52.5542C103.61 52.5405 103.427 52.5291 103.61 52.5108L103.775 52.4765C103.846 52.4582 103.875 52.4742 103.949 52.4513L104.294 52.3759C104.383 52.3644 104.344 52.3622 104.362 52.3576L105.101 52.1678C105.14 52.1587 105.142 52.161 105.176 52.1541C105.183 52.1541 105.188 52.1518 105.195 52.1518L106.381 51.8135C106.386 51.8112 106.393 51.8112 106.397 51.8089C106.425 51.7998 106.443 51.7952 106.463 51.7883L106.546 51.7609C106.55 51.7586 106.557 51.7586 106.562 51.7563L107.307 51.5071C107.312 51.5049 107.318 51.5026 107.323 51.5026L107.405 51.4751C107.41 51.4728 107.417 51.4706 107.421 51.4683L107.506 51.4431C107.51 51.4408 107.517 51.4386 107.522 51.4363L107.675 51.3677C107.68 51.3654 107.686 51.3654 107.693 51.3631C107.698 51.3608 107.705 51.3608 107.712 51.3585C107.716 51.3563 107.723 51.354 107.728 51.354L107.892 51.2991C107.897 51.2968 107.904 51.2945 107.908 51.2922L108.969 50.851C108.974 50.8487 108.98 50.8464 108.985 50.8464C108.99 50.8442 108.996 50.8442 109.001 50.8419L109.172 50.771C109.177 50.7687 109.182 50.7664 109.186 50.7641L109.863 50.4486C109.872 50.4441 109.883 50.4372 109.893 50.4349C109.897 50.4326 109.902 50.4304 109.906 50.4281L110.128 50.3183C110.137 50.3138 110.149 50.3069 110.158 50.3046C110.162 50.3023 110.167 50.3 110.174 50.2978L110.482 50.1423C110.492 50.1377 110.503 50.1309 110.512 50.1263C110.517 50.124 110.521 50.1217 110.526 50.1194L110.658 50.0531C110.668 50.0486 110.679 50.0417 110.688 50.0394L110.834 49.9663C110.844 49.9617 110.855 49.9548 110.864 49.9526L111.657 49.509C111.662 49.5068 111.669 49.5045 111.673 49.5022L111.9 49.3742C112.012 49.2896 111.799 49.4359 111.925 49.3559L112.16 49.2141C112.165 49.2118 112.17 49.2096 112.174 49.2073L112.631 48.9352C112.663 48.9169 112.641 48.9306 112.67 48.9078L112.707 48.8781C112.711 48.8758 112.716 48.8712 112.721 48.8689C112.725 48.8666 112.73 48.8621 112.734 48.8598C112.737 48.8575 112.759 48.8461 112.762 48.8438C112.766 48.8415 112.771 48.8369 112.775 48.8346L113.66 48.2402C113.665 48.2379 113.669 48.2356 113.674 48.2334L113.85 48.1008C113.854 48.0985 113.859 48.0962 113.864 48.0939L113.891 48.0779C113.898 48.0733 113.946 48.0368 113.953 48.0299L114.497 47.623C114.652 47.5315 114.753 47.4172 114.853 47.3395L115.283 46.9965C115.334 46.9531 115.297 46.9828 115.35 46.9531C115.416 46.9165 115.507 46.7954 115.628 46.7245L115.747 46.6216C115.768 46.601 115.777 46.5919 115.802 46.5668L116.122 46.2901C116.193 46.2193 116.262 46.1301 116.351 46.0775C116.355 46.0752 116.362 46.0729 116.365 46.0707C116.483 46.0044 116.582 45.8763 116.673 45.7826C116.82 45.6363 117.951 44.5504 118.043 44.3903C118.1 44.2875 118.21 44.1983 118.296 44.1137C118.37 44.0405 118.399 43.9628 118.472 43.8919C118.543 43.8234 118.626 43.7616 118.68 43.6816C118.683 43.677 118.687 43.6725 118.69 43.6679L119.302 42.8906C119.353 42.8175 119.419 42.774 119.462 42.6986L119.885 42.127C119.931 42.0699 119.901 42.1156 119.94 42.0722C119.945 42.0676 119.956 42.0539 119.961 42.047L120.066 41.887C120.068 41.8824 120.07 41.8778 120.073 41.8733L120.107 41.8184C120.15 41.7658 120.118 41.8093 120.15 41.775L120.205 41.6972C120.208 41.6927 120.21 41.6881 120.212 41.6835L120.573 41.1394C120.587 41.1166 120.583 41.128 120.601 41.1006L121.017 40.4581C121.019 40.4536 121.024 40.449 121.026 40.4444C121.044 40.417 121.035 40.4261 121.049 40.401C121.051 40.3964 121.053 40.3918 121.058 40.3873L121.291 40.0032C121.376 39.8272 121.344 39.9483 121.424 39.7837C121.426 39.7791 121.428 39.7746 121.431 39.7677L121.636 39.3996C121.639 39.3951 121.641 39.3905 121.643 39.3859L121.842 39.0316C121.844 39.027 121.847 39.0224 121.849 39.0179L122.048 38.6201C122.057 38.5995 122.052 38.6109 122.064 38.5903C122.066 38.5858 122.068 38.5812 122.071 38.5766C122.08 38.5561 122.075 38.5675 122.087 38.5469L122.137 38.444C122.146 38.4235 122.142 38.4349 122.153 38.4143L122.226 38.268C122.238 38.2474 122.231 38.2589 122.242 38.2383C122.245 38.2337 122.247 38.2291 122.249 38.2223C122.258 38.2017 122.254 38.2131 122.263 38.1926C122.272 38.1766 122.283 38.1514 122.293 38.1331L122.359 38.0005C122.368 37.9799 122.363 37.9914 122.373 37.9708C122.375 37.9662 122.377 37.9617 122.379 37.9571C122.389 37.9365 122.384 37.9479 122.393 37.9274C122.402 37.9114 122.414 37.8862 122.423 37.8679L122.601 37.5159C122.603 37.509 122.613 37.4907 122.615 37.4838C122.617 37.4793 122.619 37.4724 122.619 37.4678L122.711 37.2484C122.713 37.2438 122.715 37.2392 122.718 37.2324L122.731 37.2027C122.734 37.1981 122.736 37.1935 122.738 37.1889L123.04 36.4528C123.042 36.4482 123.045 36.4414 123.047 36.4368L123.202 36.0619C123.205 36.0573 123.205 36.0504 123.207 36.0436L123.282 35.8744C123.285 35.8698 123.285 35.863 123.287 35.8584L123.296 35.8241C123.298 35.8195 123.301 35.8127 123.301 35.8081L123.349 35.6572C123.351 35.6526 123.353 35.6458 123.356 35.6412L123.854 34.1506C123.856 34.1461 123.859 34.1392 123.861 34.1346C123.886 34.0592 123.845 34.1758 123.87 34.1003C123.872 34.0958 123.872 34.0889 123.875 34.0843C123.877 34.0798 123.879 34.0729 123.881 34.0683L124.025 33.5951C124.028 33.5905 124.03 33.5837 124.03 33.5791L124.051 33.4671C124.053 33.4602 124.055 33.4556 124.055 33.4511L124.231 32.7446C124.233 32.7378 124.24 32.7195 124.243 32.7126L124.252 32.6783C124.261 32.6372 124.256 32.6258 124.268 32.5846L124.435 31.8462C124.446 31.741 124.423 31.8896 124.439 31.8073L124.508 31.5215C124.533 31.4438 124.512 31.3661 124.538 31.2884L124.551 31.2564C124.588 31.142 124.565 31.1215 124.588 31.0506L124.611 30.8746C124.624 30.6894 124.64 30.8837 124.656 30.6985L124.7 30.255C124.704 30.2093 124.698 30.2573 124.704 30.2162C124.718 30.1476 124.714 30.1887 124.723 30.1681C124.755 30.079 124.73 29.9784 124.755 29.8892C124.757 29.8847 124.759 29.8778 124.762 29.8732C124.764 29.8687 124.766 29.8641 124.768 29.8572C124.8 29.7681 124.773 29.6103 124.796 29.5074C124.798 29.5006 124.798 29.496 124.8 29.4914C124.803 29.4869 124.805 29.48 124.807 29.4754L124.826 29.4297C124.844 29.3657 124.835 29.2857 124.835 29.2171C124.835 29.1965 124.835 29.1485 124.837 29.1302C124.855 29.0045 124.844 29.1096 124.864 29.0479C124.901 28.9359 124.869 28.785 124.878 28.6638C124.894 28.481 124.908 28.6707 124.924 28.4878C124.933 28.3735 124.924 28.1883 124.922 28.0672C124.919 27.9208 124.96 27.8728 124.967 27.7357V27.6122C124.963 27.0933 124.967 26.5743 124.967 26.0576V26.0142V25.214C124.958 25.1089 124.922 25.1134 124.924 24.8643C124.924 24.7317 124.942 24.5373 124.901 24.423C124.899 24.4185 124.896 24.4139 124.894 24.407L124.878 24.2904C124.878 24.2241 124.88 24.1555 124.88 24.0892L124.851 23.9201C124.814 23.8126 124.851 23.6434 124.814 23.5383C124.782 23.4491 124.807 23.2479 124.771 23.1405L124.748 22.8982C124.73 22.7701 124.704 22.7793 124.707 22.6307C124.707 22.6101 124.707 22.5621 124.704 22.5438C124.686 22.4181 124.698 22.5209 124.677 22.4615L124.634 22.1963C124.611 22.1277 124.627 22.0363 124.604 21.9631C124.602 21.9585 124.599 21.954 124.597 21.9471L124.586 21.9151C124.567 21.8442 124.583 21.8168 124.56 21.7414L124.46 21.2247C124.437 21.1515 124.453 21.1241 124.435 21.0509L124.355 20.7103C124.348 20.6417 124.357 20.6897 124.341 20.6371C124.339 20.6303 124.329 20.612 124.329 20.6051C124.32 20.5731 124.325 20.596 124.316 20.5526L124.291 20.4451C124.288 20.4405 124.286 20.4337 124.284 20.4291L124.217 20.1411C124.215 20.1342 124.215 20.1296 124.213 20.1228L124.195 20.0748C124.192 20.0702 124.19 20.0633 124.188 20.0587L124.089 19.6495C124.087 19.6427 124.087 19.6381 124.087 19.6312L124.055 19.5306C124.053 19.5238 124.053 19.5192 124.051 19.5124L123.923 19.0437C123.916 19.0231 123.913 19.014 123.907 18.9934C123.904 18.9888 123.904 18.982 123.902 18.9774L123.859 18.8448C123.856 18.8402 123.854 18.8334 123.852 18.8288L123.79 18.6025C123.781 18.5773 123.779 18.5613 123.769 18.5362L123.726 18.4036C123.724 18.399 123.721 18.3921 123.719 18.3876C123.717 18.383 123.715 18.3761 123.712 18.3716C123.71 18.367 123.708 18.3601 123.705 18.3556L123.673 18.255C123.648 18.1795 123.687 18.2984 123.662 18.223L123.497 17.7246C123.495 17.72 123.493 17.7132 123.49 17.7086L123.394 17.4274C123.392 17.4228 123.39 17.4182 123.388 17.4137L123.33 17.2719C123.328 17.2651 123.326 17.2605 123.326 17.2559C123.324 17.2513 123.321 17.2445 123.319 17.2399L123.182 16.8696C123.18 16.865 123.177 16.8581 123.175 16.8536C123.173 16.849 123.17 16.8444 123.168 16.8398L123.106 16.6798C123.104 16.6752 123.102 16.6684 123.1 16.6638C123.097 16.6592 123.095 16.6524 123.093 16.6478C123.09 16.6432 123.088 16.6364 123.086 16.6318C123.084 16.6272 123.081 16.6227 123.079 16.6181C123.07 16.5975 123.072 16.6112 123.063 16.5906C123.061 16.5861 123.058 16.5815 123.056 16.5769L123.017 16.4603C123.015 16.4558 123.013 16.4489 123.01 16.4443L122.997 16.4123C122.994 16.4078 122.992 16.4032 122.99 16.3986L122.702 15.7356C122.699 15.7311 122.697 15.7265 122.695 15.7219L122.569 15.427C122.535 15.363 122.587 15.4636 122.553 15.3973C122.551 15.3927 122.549 15.3881 122.546 15.3813C122.544 15.3767 122.542 15.3721 122.539 15.3676L122.37 15.0292C122.366 15.0201 122.361 15.0109 122.357 14.9995L122.341 14.9698C122.338 14.9652 122.336 14.9606 122.334 14.956L122.153 14.5857C122.151 14.5811 122.151 14.5743 122.149 14.5674L122.08 14.4371C122.078 14.4325 122.073 14.4279 122.071 14.4234L121.929 14.1445C121.927 14.1399 121.924 14.1353 121.922 14.1307L121.906 14.101C121.904 14.0964 121.902 14.0919 121.899 14.0873L121.186 12.8345C121.184 12.8299 121.179 12.8253 121.177 12.8208C121.175 12.8185 121.156 12.7773 121.154 12.7773L121.053 12.6127C121.051 12.6082 121.049 12.6036 121.044 12.599L120.932 12.423C120.93 12.4184 120.928 12.4116 120.925 12.407C120.923 12.4024 120.921 12.3955 120.919 12.391L120.535 11.8034C120.486 11.7051 120.418 11.6434 120.365 11.5542L119.984 11.0078C119.981 11.001 119.972 10.985 119.968 10.9781L119.92 10.9141C119.885 10.8798 119.917 10.9233 119.876 10.8707L119.327 10.1368C119.325 10.1323 119.323 10.1277 119.318 10.1231L119.097 9.85791C119.044 9.76647 118.957 9.69788 118.904 9.60872L118.706 9.38696C118.687 9.35953 118.699 9.36867 118.683 9.34353L118.637 9.27951C118.632 9.27494 118.603 9.24751 118.591 9.23608L118.338 8.93659C118.205 8.80628 118.107 8.72855 118.013 8.57766C117.997 8.55252 117.981 8.53423 117.963 8.51822L116.417 6.97278C116.339 6.89277 116.266 6.86762 116.184 6.78532L115.907 6.53155C115.8 6.46983 115.667 6.30751 115.626 6.28236C115.622 6.28008 115.617 6.27779 115.612 6.2755C115.608 6.27322 115.603 6.27093 115.599 6.26864C115.546 6.23892 115.58 6.26864 115.532 6.22521C115.473 6.17263 115.42 6.09718 115.35 6.05603C115.235 5.98973 115.153 5.88228 115.041 5.81141C115.016 5.79541 114.998 5.77941 114.982 5.76112L114.904 5.68339C114.872 5.65824 114.897 5.67653 114.863 5.65824L114.819 5.63538C114.815 5.63309 114.81 5.62852 114.805 5.62623C114.778 5.60795 114.769 5.59194 114.748 5.57365L114.156 5.12785C114.149 5.12328 114.133 5.11642 114.126 5.11185C114.122 5.10956 114.117 5.10728 114.113 5.10499L113.802 4.86266C113.797 4.86037 113.793 4.85809 113.788 4.8558L113.418 4.60661C113.413 4.60432 113.409 4.60204 113.404 4.59746L113.313 4.53574C113.278 4.50373 113.319 4.53345 113.269 4.4923C113.221 4.45344 113.297 4.5083 113.244 4.47401C113.219 4.45801 113.23 4.46715 113.201 4.45115L113.141 4.42372C113.134 4.42143 113.118 4.41228 113.111 4.40771L113.047 4.3597C113.043 4.35742 113.038 4.35284 113.036 4.35056L112.876 4.2454C112.871 4.24311 112.867 4.24082 112.862 4.23854C112.858 4.23625 112.853 4.23396 112.849 4.23168L112.746 4.15852C112.741 4.15623 112.737 4.15395 112.732 4.15166C112.727 4.14938 112.723 4.14709 112.718 4.1448L111.392 3.35151C111.388 3.34922 111.381 3.34694 111.376 3.34465L111.264 3.28064C111.241 3.26463 111.225 3.24863 111.214 3.24177C111.209 3.23949 111.205 3.23491 111.2 3.23263C111.196 3.23034 111.191 3.22805 111.187 3.22577L111.054 3.15947C111.049 3.15718 111.043 3.1549 111.038 3.15261L110.978 3.12289C110.974 3.12061 110.969 3.11832 110.962 3.11603L110.727 2.99715C110.722 2.99487 110.718 2.99258 110.713 2.99029L110.252 2.74568C110.174 2.72053 110.158 2.68852 110.091 2.66109L109.945 2.60851C109.941 2.60622 109.936 2.60393 109.931 2.60165C109.927 2.59936 109.922 2.59708 109.918 2.59479C109.913 2.5925 109.909 2.59022 109.904 2.58793L109.874 2.57193C109.858 2.56278 109.842 2.55592 109.831 2.54907L109.742 2.50563C109.737 2.50334 109.733 2.50106 109.726 2.49877L109.444 2.35931C109.44 2.35703 109.433 2.35474 109.428 2.35246L109.312 2.31359C109.312 2.31359 109.271 2.29302 109.268 2.29073L109.239 2.27473C109.234 2.27244 109.23 2.27015 109.225 2.26787C109.22 2.26558 109.216 2.2633 109.211 2.26101C109.207 2.25872 109.202 2.25644 109.195 2.25415L109.092 2.20157C109.088 2.19928 109.083 2.197 109.079 2.19471L108.754 2.05526C108.75 2.05297 108.743 2.05068 108.738 2.0484C108.734 2.04611 108.727 2.04383 108.722 2.04154C108.718 2.03925 108.711 2.03925 108.706 2.03697L108.025 1.7672C108.02 1.76491 108.013 1.76491 108.007 1.76263L107.972 1.7512C107.968 1.74891 107.961 1.74662 107.956 1.74434L107.588 1.60488C107.581 1.6026 107.565 1.59345 107.561 1.58888C107.556 1.58659 107.552 1.58202 107.547 1.58202L107.401 1.52944C107.382 1.52258 107.387 1.52487 107.369 1.51801L106.242 1.14308C106.237 1.14079 106.23 1.13851 106.226 1.13851L105.933 1.0562C105.928 1.05392 105.922 1.05392 105.917 1.05163C105.912 1.04935 105.906 1.04706 105.901 1.04477L105.222 0.864168C105.217 0.861882 105.211 0.859595 105.206 0.857309C105.201 0.855023 105.195 0.852737 105.19 0.850451L105.124 0.829875C105.119 0.827589 105.112 0.825303 105.108 0.823017L104.324 0.635552C104.271 0.619549 104.285 0.628693 104.232 0.617263L103.958 0.560109C103.953 0.557823 103.949 0.555536 103.942 0.55325L103.295 0.427512C103.192 0.395505 103.105 0.409222 103.03 0.384075C102.968 0.363499 103.075 0.372644 102.947 0.356641C102.913 0.352068 102.872 0.358927 102.838 0.354354C102.652 0.340638 102.84 0.331493 102.682 0.310917C102.6 0.299487 102.584 0.322348 102.502 0.294914C102.442 0.274339 102.543 0.292628 102.438 0.269767C102.362 0.253764 102.282 0.276625 102.209 0.25605L102.147 0.230902C102.079 0.212613 102.026 0.228616 101.957 0.221757C101.772 0.20804 101.967 0.192037 101.781 0.176034C101.722 0.171462 101.642 0.180606 101.58 0.17832C101.425 0.171462 101.528 0.137169 101.205 0.134883C101.178 0.134883 101.15 0.134883 101.123 0.128025L101.043 0.0983048C100.922 0.0640124 100.762 0.100591 100.631 0.0891602C100.449 0.0731571 100.631 0.0685847 100.476 0.0457232C100.307 0.0205754 100.115 0.0800155 99.9456 0.0457232C99.8793 0.0320062 99.9045 0.0594401 99.8793 0H98.5099C98.5077 0.0800155 98.4642 0.162317 98.4368 0.23776L98.4094 0.322348C98.4071 0.326921 98.4048 0.333779 98.4025 0.338351L98.3453 0.502955C98.3385 0.521244 98.3362 0.528102 98.3293 0.55325L97.7212 2.24272C97.7144 2.2633 97.7121 2.27244 97.7052 2.29302C97.7029 2.29759 97.7029 2.30445 97.7007 2.30902L97.6069 2.54678C97.6046 2.55135 97.6024 2.55821 97.6001 2.56278C97.5978 2.56736 97.5955 2.57421 97.5932 2.57879L97.5498 2.71138C97.5475 2.71596 97.5452 2.72281 97.5429 2.72739L97.5041 2.84398C97.5018 2.84855 97.4995 2.85541 97.4972 2.85998L97.2046 3.69443C97.2023 3.699 97.2 3.70586 97.1977 3.71043L97.0491 4.1128C97.04 4.14023 97.0354 4.15852 97.0285 4.1791L97.0057 4.2454C96.9988 4.26597 96.9965 4.27512 96.9897 4.29569L96.8777 4.58146C96.8182 4.75521 96.7816 4.94725 96.6993 5.10956C96.697 5.11642 96.6856 5.13242 96.6833 5.137L96.361 6.04917C96.3587 6.05375 96.3564 6.0606 96.3541 6.06518L96.3267 6.14976C96.3244 6.15434 96.3221 6.1612 96.3198 6.16577L96.297 6.23207C96.2947 6.23892 96.2947 6.2435 96.2924 6.25036L96.1827 6.53613C96.1804 6.5407 96.1781 6.54756 96.1758 6.55213C96.1735 6.5567 96.1712 6.56356 96.169 6.56813L95.9723 7.12138C95.9701 7.12595 95.9678 7.13281 95.9678 7.13738C95.9609 7.15567 95.9632 7.1511 95.9563 7.16939L95.7917 7.62434C95.7895 7.62891 95.7872 7.63348 95.7849 7.64034L95.746 7.75693C95.7437 7.76151 95.7414 7.76836 95.7392 7.77294C95.7369 7.77751 95.7346 7.78437 95.7323 7.78894L95.682 7.93754C95.6729 7.96269 95.6706 7.98098 95.6614 8.00613C95.6591 8.0107 95.6569 8.01756 95.6546 8.02213L95.5174 8.39249C95.5151 8.39706 95.5128 8.40392 95.5105 8.40849L95.4351 8.64168C95.4282 8.65997 95.4305 8.65539 95.4237 8.67368L95.3025 8.99375C95.3002 8.99832 95.2979 9.00518 95.2957 9.00975L95.2019 9.29095C95.1928 9.31381 95.1905 9.32981 95.1813 9.35953L95.0373 9.74589C95.035 9.75046 95.0327 9.75732 95.0305 9.76189L94.8156 10.3632C94.8133 10.3677 94.811 10.3746 94.8087 10.3792C94.8064 10.3837 94.8041 10.3906 94.8018 10.3952L94.4041 11.4994C94.4018 11.5039 94.3995 11.5108 94.3972 11.5154C94.3949 11.5199 94.3949 11.5268 94.3926 11.5314L94.3606 11.632C94.3583 11.6365 94.3561 11.6434 94.3538 11.648L93.8622 13.0334C93.8531 13.0608 93.8485 13.0791 93.8417 13.0997L93.373 14.4188C93.3707 14.4257 93.3707 14.4302 93.3684 14.4371L93.2358 14.7892C93.2336 14.7937 93.2313 14.8006 93.2313 14.8052L93.1535 15.0361C93.1513 15.0429 93.1513 15.0475 93.149 15.0543L92.9226 15.6899C92.9204 15.6945 92.9181 15.7013 92.9158 15.7059L92.7992 15.9871L92.8266 15.9802Z" fill="#094A80"/>
<path fill-rule="evenodd" clip-rule="evenodd" d="M104.133 34.267L107.048 34.2235C107.133 34.1892 107.064 34.2441 107.103 34.1252L107.233 33.7709C107.236 33.7663 107.238 33.7594 107.24 33.7549L107.56 32.8381C107.563 32.8335 107.565 32.8267 107.567 32.8221C107.574 32.8015 107.576 32.7901 107.583 32.7718L108.079 31.4138C108.082 31.4093 108.084 31.4047 108.086 31.3978C108.088 31.3933 108.091 31.3864 108.093 31.3818L108.251 30.8994C108.253 30.8949 108.255 30.888 108.258 30.8834L108.271 30.8514C108.274 30.8469 108.276 30.8423 108.278 30.8377L108.386 30.5474C108.388 30.5428 108.39 30.5359 108.393 30.5314L108.53 30.1176C108.532 30.113 108.534 30.1062 108.537 30.1016L108.69 29.6809C108.692 29.6764 108.694 29.6695 108.694 29.6649L109.243 28.1583C109.245 28.1538 109.248 28.1469 109.25 28.1423L109.275 28.0578C109.277 28.0532 109.28 28.0463 109.282 28.0418L109.332 27.8932C109.339 27.8703 109.344 27.8543 109.353 27.8269L109.401 27.676C109.403 27.6714 109.405 27.6645 109.408 27.66L109.421 27.628C109.424 27.6234 109.426 27.6188 109.428 27.6142L109.664 26.9673C109.666 26.9627 109.668 26.9581 109.67 26.9535C109.673 26.949 109.675 26.9421 109.677 26.9375L109.728 26.7889C109.73 26.7844 109.732 26.7775 109.734 26.7729C109.737 26.7684 109.737 26.7615 109.739 26.7569C109.748 26.7295 109.753 26.7112 109.76 26.6906L109.837 26.4597C109.84 26.4552 109.842 26.4483 109.842 26.4437L109.936 26.206C109.938 26.2014 109.94 26.1968 109.943 26.19L110.322 25.0903C110.324 25.0858 110.324 25.0789 110.327 25.0743L110.498 24.6057C110.5 24.6011 110.503 24.5942 110.503 24.5897L110.537 24.4913C110.546 24.4593 110.539 24.4731 110.553 24.4411L110.786 23.7918C110.788 23.7872 110.791 23.7826 110.793 23.7781L110.83 23.7049C110.832 23.7003 110.834 23.6935 110.836 23.6889L110.919 23.4397C110.926 23.4169 110.93 23.4009 110.939 23.3734C110.942 23.3688 110.944 23.362 110.944 23.3574L110.962 23.3094C110.969 23.2911 110.971 23.2843 110.978 23.2591L111.122 22.8727C111.124 22.8682 111.127 22.8613 111.129 22.8567C111.131 22.8499 111.138 22.8316 111.14 22.8247L111.305 22.3698C111.307 22.3652 111.31 22.3607 111.312 22.3538L111.367 22.1892C111.376 22.164 111.378 22.1458 111.387 22.1206C111.39 22.116 111.392 22.1092 111.394 22.1046L111.449 21.94C111.458 21.9171 111.461 21.9011 111.47 21.8714L111.746 21.1307C111.749 21.1261 111.751 21.1216 111.753 21.1147L111.815 20.9318C111.817 20.9272 111.817 20.9204 111.819 20.9158C111.826 20.8929 111.829 20.8838 111.835 20.8655L112.05 20.2642C112.053 20.2597 112.055 20.2528 112.057 20.2482C112.059 20.2414 112.066 20.2231 112.069 20.2162L112.133 20.0173C112.135 20.0128 112.135 20.0059 112.137 20.0013C112.139 19.9968 112.142 19.9899 112.144 19.9853L112.366 19.3681C112.368 19.3635 112.37 19.3566 112.373 19.3521C112.432 19.2149 112.482 19.1395 112.482 19H109.568C109.568 19.0412 109.565 19.0274 109.558 19.0572L108.973 20.7238C108.971 20.7283 108.969 20.7352 108.966 20.7398L108.941 20.8244C108.939 20.8289 108.937 20.8358 108.934 20.8404L108.694 21.5056C108.687 21.5285 108.685 21.5376 108.678 21.5559C108.676 21.5605 108.676 21.5674 108.674 21.5719L108.623 21.6771C108.621 21.6817 108.619 21.6862 108.617 21.6931L108.015 23.4123C108.013 23.4169 108.013 23.4237 108.011 23.4283C108.008 23.4329 108.006 23.4397 108.004 23.4443C108.002 23.4489 107.999 23.4557 107.997 23.4603C107.995 23.4649 107.992 23.4717 107.99 23.4763L107.789 24.0478C107.787 24.0524 107.784 24.0593 107.782 24.0638C107.78 24.0684 107.778 24.0753 107.775 24.0798L107.675 24.3336C107.672 24.3382 107.67 24.345 107.67 24.3496C107.661 24.377 107.656 24.3953 107.65 24.4159C107.647 24.4228 107.64 24.4411 107.638 24.4479C107.636 24.4525 107.634 24.4593 107.634 24.4639C107.631 24.4685 107.629 24.4753 107.629 24.4799L107.57 24.6651C107.567 24.6697 107.565 24.6765 107.563 24.6811C107.56 24.6857 107.558 24.6925 107.556 24.6971L107.439 25.0012C107.437 25.0057 107.435 25.0126 107.435 25.0172C107.432 25.0217 107.43 25.0286 107.428 25.0332C107.426 25.04 107.419 25.0583 107.416 25.0652L107.334 25.3144C107.332 25.3189 107.329 25.3258 107.327 25.3304L107.311 25.3807C107.309 25.3852 107.309 25.3921 107.307 25.399C107.304 25.4035 107.304 25.4104 107.302 25.415C107.3 25.4195 107.297 25.4264 107.295 25.431L107.151 25.815C107.149 25.8196 107.147 25.8265 107.144 25.831L107.117 25.9156C107.115 25.9202 107.112 25.9271 107.11 25.9316L107.067 26.0642C107.064 26.0688 107.062 26.0734 107.06 26.0802L107.028 26.1374C107.025 26.142 107.023 26.1465 107.021 26.1534L107.003 26.2014C106.993 26.2288 106.989 26.2448 106.982 26.27C106.975 26.2883 106.977 26.2837 106.971 26.302C106.968 26.3066 106.966 26.3134 106.964 26.318L106.667 27.1684C106.664 27.173 106.662 27.1799 106.66 27.1844L106.559 27.4382C106.557 27.4451 106.557 27.4496 106.554 27.4565C106.552 27.4634 106.552 27.4679 106.55 27.4748L106.23 28.3915L106.218 28.4235L106.02 28.9768C106.017 28.9814 106.017 28.9882 106.015 28.9928L105.379 30.7646C105.377 30.7691 105.375 30.776 105.373 30.7806C105.37 30.7851 105.368 30.792 105.368 30.7966L105.094 31.5807C105.091 31.5853 105.089 31.5922 105.089 31.5967L104.554 33.1147C104.552 33.1193 104.55 33.1262 104.547 33.1307C104.545 33.1353 104.543 33.1399 104.54 33.1467L104.465 33.3365C104.458 33.3548 104.46 33.3502 104.454 33.3685L104.129 34.2807L104.133 34.267Z" fill="#094A80"/>
</svg>
