<svg width="196" height="53" viewBox="0 0 196 53" fill="none" xmlns="http://www.w3.org/2000/svg">
<path fill-rule="evenodd" clip-rule="evenodd" d="M131.549 39.9187H139.961L146.037 31.345L152.157 39.9187H160.839L150.116 25.9079L159.55 13.1647H151.189L146.002 20.4817L140.671 13.1639L132.184 13.1647L142.058 25.9079L131.549 39.9187ZM98.0392 16.8575C95.413 13.89 91.5956 12 87.3465 12C79.4234 12 73 18.492 73 26.4992C73 34.508 79.4234 41 87.3465 41C92.077 41 96.2715 38.687 98.8861 35.118L93.8525 31.2001C92.3988 33.3036 89.9915 34.681 87.2671 34.681C82.8295 34.681 79.2318 31.0311 79.2318 26.5319C79.2318 22.0328 82.8295 18.3845 87.2671 18.3845C89.4835 18.3845 91.4935 19.2952 92.9472 20.77L98.0392 16.8575Z" fill="#A5A5A5"/>
<path fill-rule="evenodd" clip-rule="evenodd" d="M81.598 27.0933C81.4401 27.0931 81.2887 27.0302 81.1771 26.9185C81.0655 26.8067 81.0028 26.6552 81.0028 26.4973C81.0028 26.2246 81.1867 25.9948 81.436 25.9255L99.6989 19.4C101.576 23.2564 101.227 27.0933 101.227 27.0933H81.598ZM62.0738 24.767L62.0723 39.9183H68.2285L68.2277 13.1644H62.3722L52.1485 27.225L41.7635 13.1636L36 13.1644V39.9183H42.0627L42.0635 24.767L52.1057 38.4646L62.0738 24.767Z" fill="#A5A5A5"/>
<path fill-rule="evenodd" clip-rule="evenodd" d="M100.727 39.9183H109.14L115.213 31.3447L121.338 39.9183H130.016L119.293 25.9076L128.725 13.1644H120.366L115.177 20.4814L109.849 13.1636L101.361 13.1644L111.235 25.9076L100.727 39.9183Z" fill="#A5A5A5"/>
</svg>
