<svg width="196" height="53" viewBox="0 0 196 53" fill="none" xmlns="http://www.w3.org/2000/svg">
<path fill-rule="evenodd" clip-rule="evenodd" d="M131.549 39.9189H139.961L146.037 31.3453L152.157 39.9189H160.839L150.116 25.9082L159.55 13.165H151.189L146.002 20.482L140.671 13.1642L132.184 13.165L142.058 25.9082L131.549 39.9189ZM98.0392 16.8577C95.413 13.8903 91.5956 12.0002 87.3465 12.0002C79.4234 12.0002 73 18.4922 73 26.4995C73 34.5083 79.4234 41.0002 87.3465 41.0002C92.077 41.0002 96.2715 38.6872 98.8861 35.1183L93.8525 31.2004C92.3988 33.3038 89.9915 34.6812 87.2671 34.6812C82.8295 34.6812 79.2318 31.0313 79.2318 26.5322C79.2318 22.0331 82.8295 18.3847 87.2671 18.3847C89.4835 18.3847 91.4935 19.2954 92.9472 20.7702L98.0392 16.8577Z" fill="#646565"/>
<path fill-rule="evenodd" clip-rule="evenodd" d="M81.598 27.0931C81.4401 27.0928 81.2887 27.03 81.1771 26.9182C81.0655 26.8065 81.0028 26.655 81.0028 26.4971C81.0028 26.2244 81.1867 25.9946 81.436 25.9252L99.6989 19.3998C101.576 23.2561 101.227 27.0931 101.227 27.0931H81.598ZM62.0738 24.7668L62.0723 39.9181H68.2285L68.2277 13.1641H62.3722L52.1485 27.2247L41.7635 13.1633L36 13.1641V39.9181H42.0627L42.0635 24.7668L52.1057 38.4643L62.0738 24.7668Z" fill="#646565"/>
<path fill-rule="evenodd" clip-rule="evenodd" d="M100.725 39.9181H109.138L115.211 31.3444L121.336 39.9181H130.014L119.291 25.9073L128.724 13.1641H120.364L115.176 20.4811L109.847 13.1633L101.359 13.1641L111.233 25.9073L100.725 39.9181Z" fill="#646565"/>
</svg>
