<svg width="196" height="53" viewBox="0 0 196 53" fill="none" xmlns="http://www.w3.org/2000/svg">
<path d="M97.6356 0C93.169 0.000720415 88.7746 1.12291 84.858 3.26298C80.9414 5.40304 77.6289 8.49202 75.2261 12.2448H37L40.8052 16.0373H73.2405C72.6244 17.4649 72.1355 18.9437 71.7793 20.4567H45.2392L48.9977 24.2026H71.1652C71.0924 24.9665 71.0529 25.7332 71.0469 26.5005C71.0539 27.2088 71.0894 27.9165 71.1532 28.622H53.4317L57.1911 32.3688H71.7317C72.0688 33.8796 72.5381 35.3581 73.1342 36.7873H61.6251L65.4294 40.5807H75.1482C77.5371 44.3768 80.8528 47.5072 84.7854 49.6791C88.7179 51.851 93.1387 52.9936 97.6347 53C102.131 52.9939 106.552 51.8515 110.485 49.6795C114.418 47.5076 117.734 44.3771 120.123 40.5807H129.84L133.646 36.7873H122.137C122.733 35.3581 123.202 33.8796 123.54 32.3688H138.08L141.839 28.6229H124.117C124.181 27.9171 124.216 27.2091 124.223 26.5005C124.218 25.7332 124.178 24.9665 124.106 24.2026H146.273L150.031 20.4567H123.49C123.134 18.9437 122.646 17.4649 122.031 16.0373H154.465L158.271 12.2448H120.045C117.642 8.49202 114.33 5.40304 110.413 3.26298C106.497 1.12291 102.102 0.000720415 97.6356 0ZM97.6356 3.59248C103.731 3.59248 109.578 6.00599 113.888 10.3021C118.198 14.5981 120.62 20.4249 120.62 26.5005C120.62 32.576 118.198 38.4028 113.888 42.6988C109.578 46.9949 103.731 49.4084 97.6356 49.4084C94.6172 49.4086 91.6283 48.8161 88.8396 47.6649C86.0509 46.5138 83.5171 44.8264 81.3827 42.6992C79.2483 40.572 77.5552 38.0466 76.4001 35.2672C75.245 32.4878 74.6504 29.5089 74.6504 26.5005C74.6504 23.4921 75.245 20.5131 76.4001 17.7337C77.5552 14.9544 79.2483 12.429 81.3827 10.3017C83.5171 8.17453 86.0509 6.48716 88.8396 5.33598C91.6283 4.1848 94.6172 3.59236 97.6356 3.59248ZM79.3512 20.5626V32.4374H81.8355V23.0907L84.4572 32.4374H87.0313L89.6613 23.0907V32.4374H92.1455V20.5626H88.1341L85.758 28.6631L83.3544 20.5626H79.3512ZM94.7398 20.5626V32.4374H97.4137V20.5626H94.7398ZM99.9805 20.5626V32.4374H102.465V24.6942L107.805 32.4374H110.489V20.5626H108.005V28.4931L102.583 20.5626H99.9805ZM113.245 20.5626V32.4374H115.92V20.5626H113.245Z" fill="#646565"/>
</svg>
