<svg width="196" height="53" viewBox="0 0 196 53" fill="none" xmlns="http://www.w3.org/2000/svg">
<path d="M97.9737 0C93.5559 0.000720415 89.2094 1.12291 85.3356 3.26298C81.4618 5.40304 78.1853 8.49202 75.8088 12.2448H38L41.7637 16.0373H73.8449C73.2355 17.4649 72.7519 18.9437 72.3997 20.4567H46.1493L49.8667 24.2026H71.7922C71.7202 24.9665 71.6812 25.7332 71.6752 26.5005C71.6821 27.2088 71.7172 27.9165 71.7804 28.622H54.2524L57.9707 32.3688H72.3525C72.686 33.8796 73.1502 35.3581 73.7398 36.7873H62.3563L66.1191 40.5807H75.7318C78.0946 44.3768 81.3741 47.5072 85.2637 49.6791C89.1533 51.851 93.5259 52.9936 97.9728 53C102.42 52.9939 106.793 51.8515 110.683 49.6795C114.573 47.5076 117.853 44.3771 120.216 40.5807H129.826L133.591 36.7873H122.208C122.797 35.3581 123.261 33.8796 123.595 32.3688H137.977L141.694 28.6229H124.166C124.229 27.9171 124.264 27.2091 124.271 26.5005C124.266 25.7332 124.227 24.9665 124.155 24.2026H146.08L149.797 20.4567H123.546C123.194 18.9437 122.711 17.4649 122.102 16.0373H154.183L157.947 12.2448H120.139C117.762 8.49202 114.486 5.40304 110.612 3.26298C106.738 1.12291 102.391 0.000720415 97.9737 0ZM97.9737 3.59248C104.003 3.59248 109.785 6.00599 114.049 10.3021C118.312 14.5981 120.707 20.4249 120.707 26.5005C120.707 32.576 118.312 38.4028 114.049 42.6988C109.785 46.9949 104.003 49.4084 97.9737 49.4084C94.9882 49.4086 92.032 48.8161 89.2737 47.6649C86.5155 46.5138 84.0093 44.8264 81.8982 42.6992C79.7871 40.572 78.1125 38.0466 76.97 35.2672C75.8275 32.4878 75.2394 29.5089 75.2394 26.5005C75.2394 23.4921 75.8275 20.5131 76.97 17.7337C78.1125 14.9544 79.7871 12.429 81.8982 10.3017C84.0093 8.17453 86.5155 6.48716 89.2737 5.33598C92.032 4.1848 94.9882 3.59236 97.9737 3.59248ZM79.8889 20.5626V32.4374H82.346V23.0907L84.9392 32.4374H87.4851L90.0864 23.0907V32.4374H92.5435V20.5626H88.5759L86.2257 28.6631L83.8484 20.5626H79.8889ZM95.1095 20.5626V32.4374H97.7543V20.5626H95.1095ZM100.293 20.5626V32.4374H102.75V24.6942L108.032 32.4374H110.687V20.5626H108.23V28.4931L102.867 20.5626H100.293ZM113.413 20.5626V32.4374H116.058V20.5626H113.413Z" fill="#A5A5A5"/>
</svg>
