<svg width="196" height="53" viewBox="0 0 196 53" fill="none" xmlns="http://www.w3.org/2000/svg">
<path d="M102.481 0.180147C102.132 0.233943 101.797 1.51818 101.123 2.1872C100.63 2.67005 100.014 2.63984 99.6869 3.23676C99.5628 3.45978 99.603 3.84043 99.4622 4.20594C99.187 4.93694 98.2176 5.00228 98.2176 5.79876C98.2141 6.65888 99.026 6.82317 99.7288 7.43345C100.277 7.92472 100.331 8.26338 100.995 8.50143C101.562 8.69435 102.406 8.06384 103.166 8.29022C103.79 8.47639 104.387 8.61046 104.528 9.25096C104.652 9.84114 104.519 10.7565 103.763 10.651C103.508 10.6225 102.402 10.2502 101.044 10.3944C99.405 10.5806 97.5348 11.1153 97.352 12.9413C97.2513 13.9624 98.5143 15.1663 99.7339 14.9214C100.577 14.7553 100.178 13.7613 100.638 13.2783C101.24 12.6597 104.652 15.4378 107.824 15.4378C109.159 15.4378 110.152 15.1008 111.138 14.068C111.23 13.9892 111.343 13.8199 111.485 13.8097C111.62 13.8199 111.854 13.9523 111.932 14.0093C114.486 16.0615 116.417 20.1778 125.805 20.2265C127.125 20.233 128.63 20.8635 129.857 21.9836C130.953 22.9963 131.594 24.5705 132.216 26.1684C133.155 28.5661 134.839 30.8983 137.392 33.4938C137.531 33.633 139.633 35.266 139.801 35.3885C139.828 35.4052 139.982 35.774 139.928 35.9802C139.866 37.5362 139.64 42.0614 143.015 42.2661C143.84 42.308 143.623 41.7279 143.623 41.3288C143.622 40.5407 143.478 39.7577 143.894 38.9512C144.462 37.8414 142.688 37.3299 142.74 34.9306C142.777 33.1417 141.274 33.4467 140.51 32.0836C140.071 31.2939 139.68 30.8749 139.709 29.909C139.88 24.4734 138.551 20.9021 137.889 20.0253C137.372 19.3629 136.944 19.0997 137.417 18.7928C140.234 16.9334 140.873 15.2031 140.873 15.2031C142.37 11.6838 143.718 8.46954 145.574 7.0546C145.948 6.76275 146.908 6.04691 147.497 5.76518C149.229 4.94861 150.142 4.45409 150.645 3.96439C151.442 3.18815 152.071 1.57018 151.308 0.589333C150.358 -0.621257 148.716 0.339489 147.991 0.768653C142.814 3.84043 142.05 9.25926 140.257 12.3712C138.826 14.8576 136.5 16.6836 134.42 16.8328C132.86 16.9485 131.179 16.6333 129.505 15.8989C125.434 14.115 123.207 11.8113 122.682 11.4039C121.588 10.5605 113.097 2.22909 106.218 1.88874C106.218 1.88874 105.365 0.180267 105.15 0.151745C104.647 0.0879599 104.132 1.17278 103.763 1.29867C103.416 1.4142 102.832 0.123102 102.481 0.180147ZM72.1984 49.9049C71.5509 49.8897 71.0008 49.3583 71.0008 48.701L71.0024 27.2533H63.9306V50.8957C63.9306 52.0543 64.8699 53 66.0223 53H78.3828C79.5434 53 80.4711 52.0543 80.4711 50.8957V27.2533H73.4061L73.3993 48.701C73.3993 49.3583 72.8491 49.8897 72.1984 49.9049ZM95.8759 27.2533H85.1727C83.9063 27.2533 82.8748 28.2827 82.8748 29.562V52.9999H89.953V31.5003C89.9581 30.8414 90.4914 30.32 91.1491 30.32C91.81 30.32 92.34 30.8297 92.355 31.4819V53H99.4049V31.4817C99.4133 30.8295 99.9433 30.3198 100.602 30.3198C101.257 30.3198 101.797 30.8413 101.802 31.5002V53H108.88V29.562C108.88 28.2827 107.847 27.2533 106.581 27.2533H95.8759ZM54.467 31.5454C54.472 30.8295 53.8883 30.3198 53.2694 30.3198H52.0684V43.3424H53.2694C53.8934 43.3424 54.4721 42.846 54.467 42.1336V31.5454ZM59.2123 46.5297H52.0684V53H45V27.2533H59.2577C60.534 27.2533 61.5302 28.2894 61.5302 29.5721V44.211C61.5302 45.4953 60.4954 46.5297 59.2123 46.5297Z" fill="#646565"/>
<path d="M120.748 43.3471V31.4916C120.731 30.8359 120.203 30.333 119.544 30.333C118.891 30.333 118.351 30.856 118.346 31.51V43.3471H120.748ZM120.748 52.9997V46.5361H118.346V52.9997H111.281V29.5616C111.281 28.2824 112.313 27.2529 113.579 27.2529H125.515C126.785 27.2529 127.817 28.2824 127.817 29.5616V52.9995L120.748 52.9997Z" fill="#646565"/>
</svg>
