<svg width="196" height="53" viewBox="0 0 196 53" fill="none" xmlns="http://www.w3.org/2000/svg">
<path fill-rule="evenodd" clip-rule="evenodd" d="M100.289 20.3622C96.0501 20.3622 96.0501 24.9571 96.0501 24.9571C96.0501 24.9571 95.7111 27.5175 96.0501 29.7385C96.2198 31.9427 96.7281 34.6728 100.628 34.6728C104.714 34.6728 105.054 30.7555 105.054 29.9082V29.5692H102.323C102.323 31.2642 101.984 32.2812 100.289 32.2812C98.424 32.2812 98.5761 29.213 98.5761 29.213C98.5761 29.213 98.4236 27.3473 98.5761 25.1264C98.7458 22.4134 100.459 22.5831 100.459 22.5831C102.493 22.5831 102.493 25.6518 102.493 25.6518H105.053V24.9566C104.883 23.2616 104.545 20.3622 100.289 20.3622ZM112.378 20.1925C110.665 20.1925 109.648 21.3792 109.648 21.3792V15.2585H107.105V34.5031H109.818V24.4484C109.818 24.4484 109.818 22.5831 111.531 22.5831C113.226 22.5831 113.396 23.9396 113.396 24.4484V34.5031H115.787V24.2791C115.786 24.2791 115.786 20.1925 112.378 20.1925ZM120.721 30.9257C120.551 28.874 120.721 28.1955 120.721 28.1955H127.537C127.537 27.178 127.537 26.8395 127.367 24.9576C127.197 23.2621 126.503 20.3627 122.772 20.3627C118.499 20.3627 118.16 25.1273 118.16 25.1273C118.16 25.1273 117.99 27.5184 118.16 29.7389C118.499 31.9432 118.839 34.8426 122.925 34.8426C127.027 34.8426 127.367 30.7564 127.367 29.9091H124.467C124.467 33.4856 121.06 33.1471 120.721 30.9257ZM122.772 22.5836C124.807 22.5836 124.467 25.9918 124.467 25.9918H120.89C120.889 22.2441 122.772 22.5836 122.772 22.5836ZM88.8948 20.3622C84.6389 20.3622 84.4691 25.1268 84.4691 25.1268C84.4691 25.1268 84.2994 27.3478 84.4691 29.7385C84.6389 31.9427 84.9779 34.6728 89.2338 34.6728C93.4897 34.6728 93.4897 30.7555 93.6594 29.9082V25.1268C93.6589 23.4313 93.1502 20.3622 88.8948 20.3622ZM90.7595 29.2135C90.7595 31.2642 90.5898 32.2817 89.064 32.2817C87.0123 32.2817 87.1821 29.3999 87.1821 29.3999V25.1273C87.1821 22.5841 89.064 22.5841 89.064 22.5841C90.9292 22.5841 90.9292 25.3138 90.9292 25.3138C90.9292 25.3138 90.7595 28.3653 90.7595 29.2135ZM80.3825 24.4484C80.3825 24.4484 82.417 23.7703 82.417 20.0227C82.417 15.7668 77.8221 15.4278 76.8046 15.4278H72.8877V34.5031H75.6174V25.6523H76.9739C79.3478 25.6523 79.5343 27.6868 79.5343 27.6868L79.8733 34.5031H82.5862C82.5862 34.5031 82.4165 30.9257 82.2472 27.8565C81.9087 24.7878 80.3825 24.4484 80.3825 24.4484ZM75.6179 23.4313V17.9882C76.2963 17.9882 79.7045 17.6492 79.7045 20.3617C79.7045 23.9401 75.6179 23.4313 75.6179 23.4313Z" fill="#646565"/>
<path fill-rule="evenodd" clip-rule="evenodd" d="M122.773 3H74.5845L55 26.3312L74.584 50.0009H122.772L142 26.3312L122.773 3ZM121.738 47.7805H75.6182L57.7306 26.3312L75.6187 5.37395H121.738L139.288 26.3312L121.738 47.7805Z" fill="#646565"/>
</svg>
