<svg width="196" height="53" viewBox="0 0 196 53" fill="none" xmlns="http://www.w3.org/2000/svg">
<path fill-rule="evenodd" clip-rule="evenodd" d="M100.289 20.3628C96.0506 20.3628 96.0506 24.9576 96.0506 24.9576C96.0506 24.9576 95.7116 27.518 96.0506 29.7389C96.2203 31.9431 96.7286 34.6732 100.628 34.6732C104.714 34.6732 105.054 30.7559 105.054 29.9086V29.5696H102.324C102.324 31.2646 101.985 32.2816 100.289 32.2816C98.4245 32.2816 98.5766 29.2134 98.5766 29.2134C98.5766 29.2134 98.424 27.3478 98.5766 25.1269C98.7463 22.414 100.459 22.5837 100.459 22.5837C102.493 22.5837 102.493 25.6524 102.493 25.6524H105.054V24.9572C104.884 23.2622 104.545 20.3628 100.289 20.3628ZM112.379 20.1931C110.666 20.1931 109.649 21.3798 109.649 21.3798V15.2593H107.105V34.5035H109.818V24.4489C109.818 24.4489 109.818 22.5837 111.531 22.5837C113.226 22.5837 113.396 23.9402 113.396 24.4489V34.5035H115.787V24.2796C115.786 24.2796 115.786 20.1931 112.379 20.1931ZM120.721 30.9261C120.551 28.8745 120.721 28.196 120.721 28.196H127.537C127.537 27.1785 127.537 26.84 127.367 24.9581C127.197 23.2626 126.503 20.3633 122.772 20.3633C118.499 20.3633 118.16 25.1278 118.16 25.1278C118.16 25.1278 117.99 27.5189 118.16 29.7394C118.499 31.9436 118.839 34.8429 122.925 34.8429C127.027 34.8429 127.367 30.7568 127.367 29.9096H124.467C124.467 33.486 121.06 33.1475 120.721 30.9261ZM122.772 22.5842C124.807 22.5842 124.467 25.9923 124.467 25.9923H120.89C120.889 22.2447 122.772 22.5842 122.772 22.5842ZM88.8954 20.3628C84.6396 20.3628 84.4699 25.1274 84.4699 25.1274C84.4699 25.1274 84.3001 27.3483 84.4699 29.7389C84.6396 31.9431 84.9786 34.6732 89.2344 34.6732C93.4902 34.6732 93.4902 30.7559 93.66 29.9086V25.1274C93.6595 23.4319 93.1508 20.3628 88.8954 20.3628ZM90.7601 29.2139C90.7601 31.2646 90.5904 32.2821 89.0647 32.2821C87.013 32.2821 87.1828 29.4004 87.1828 29.4004V25.1278C87.1828 22.5847 89.0647 22.5847 89.0647 22.5847C90.9299 22.5847 90.9299 25.3143 90.9299 25.3143C90.9299 25.3143 90.7601 28.3657 90.7601 29.2139ZM80.3833 24.4489C80.3833 24.4489 82.4178 23.7709 82.4178 20.0234C82.4178 15.7675 77.8229 15.4285 76.8055 15.4285H72.8887V34.5035H75.6183V25.6528H76.9748C79.3487 25.6528 79.5351 27.6873 79.5351 27.6873L79.8741 34.5035H82.587C82.587 34.5035 82.4173 30.9261 82.248 27.857C81.9095 24.7884 80.3833 24.4489 80.3833 24.4489ZM75.6188 23.4319V17.9889C76.2972 17.9889 79.7053 17.6499 79.7053 20.3624C79.7053 23.9406 75.6188 23.4319 75.6188 23.4319Z" fill="#1179A0"/>
<path fill-rule="evenodd" clip-rule="evenodd" d="M122.771 3H74.5841L55 26.3307L74.5836 50H122.771L141.998 26.3307L122.771 3ZM121.737 47.7796H75.6178L57.7306 26.3307L75.6183 5.3739H121.737L139.286 26.3307L121.737 47.7796Z" fill="#1179A0"/>
</svg>
