<svg width="196" height="53" viewBox="0 0 196 53" fill="none" xmlns="http://www.w3.org/2000/svg">
<path d="M27.2525 12.5684L30.1301 15.8432C30.2929 16.0327 30.4422 16.1003 30.7001 16.1003H36.7402C36.9981 16.1003 37.1474 16.0327 37.3103 15.8432L40.1878 12.5684C40.4321 12.2842 40.3507 12 39.9299 12H35.858C35.6001 12 35.4372 12.0947 35.2879 12.2842L34.0527 14.0569H33.3876L32.1525 12.2842C31.9896 12.0947 31.8403 12 31.5552 12H27.5104C27.0896 12 26.9946 12.2842 27.2525 12.5684ZM80.5546 29.0238V29.335C80.5546 40.3369 82.3599 41 95.6073 41C108.855 41 110.66 40.3369 110.66 29.2944V29.0103C110.66 18.0084 108.855 17.3453 95.6073 17.3453C82.3599 17.3588 80.5546 18.0219 80.5546 29.0238ZM79.2109 39.958L66.6149 27.6976L78.4508 18.4008C78.8037 18.1437 78.6679 17.8325 78.2336 17.8325H70.524C70.3068 17.8325 70.1439 17.9001 69.9539 18.049L57.8737 27.6706V18.3061C57.8737 17.9949 57.7109 17.8325 57.3987 17.8325H51.5215C51.2093 17.8325 51.0464 17.9949 51.0464 18.3061V40.0663C51.0464 40.3775 51.2093 40.5399 51.5215 40.5399H57.3987C57.7109 40.5399 57.8737 40.3775 57.8737 40.0663V34.5856L61.4435 31.7844L70.1032 40.2963C70.2932 40.4858 70.4561 40.5534 70.7004 40.5534H78.9937C79.4009 40.5264 79.523 40.2422 79.2109 39.958ZM128.061 17.8325H115.451C115.139 17.8325 114.976 17.9949 114.976 18.3061V40.0663C114.976 40.3775 115.139 40.5399 115.451 40.5399H128.074C141.58 40.5399 143.344 39.8768 143.344 29.2809V29.0915C143.331 18.4956 141.566 17.8325 128.061 17.8325ZM176.938 39.958L166.025 18.1708C165.93 17.9272 165.74 17.8189 165.482 17.8189H155.818C155.56 17.8189 155.37 17.9137 155.275 18.1708L144.362 39.958C144.199 40.3098 144.335 40.5264 144.702 40.5264H151C151.244 40.5264 151.448 40.4316 151.529 40.1745L153.171 36.9538H168.102L169.744 40.1745C169.839 40.4316 170.029 40.5264 170.287 40.5264H176.585C176.965 40.5264 177.087 40.3098 176.938 39.958ZM103.317 29.0238V29.335C103.317 35.7088 103.059 35.8035 95.5937 35.8035C88.1285 35.8035 87.8706 35.7088 87.8706 29.335V29.0238C87.8706 22.65 88.1285 22.5688 95.5937 22.5688C103.073 22.5553 103.317 22.65 103.317 29.0238ZM136.151 29.0238V29.335C136.151 35.1675 135.676 35.357 128.088 35.357H121.831V23.0019H128.088C135.676 23.0019 136.151 23.1913 136.151 29.0238ZM165.713 32.2039H155.587L160.243 23.0289H161.071L165.713 32.2039ZM19.7601 40.567C23.1127 40.7158 28.5827 40.8782 31.7453 40.8782C45.5357 40.8782 47.178 40.8511 47.178 33.3812C47.178 27.4811 45.4407 27.0075 38.1383 26.7909L29.6686 26.5338C25.7866 26.412 25.7187 25.9925 25.7187 24.2604C25.7187 22.4606 26.1938 22.4606 35.5186 22.4606C37.2831 22.4606 42.916 22.5553 45.8886 22.623C46.2008 22.623 46.3636 22.4606 46.3636 22.1493V18.3061C46.3636 17.9949 46.2008 17.8325 45.9157 17.8054C42.9703 17.643 38.1654 17.4806 34.7178 17.4806C21.1853 17.4806 19 17.7378 19 24.707C19 30.6612 20.3302 31.4596 28.9899 31.7438L36.7674 32.0009C40.405 32.1227 40.4729 32.5693 40.4729 33.9225C40.4729 35.79 40.31 35.8847 31.7045 35.8847C27.6869 35.8847 23.547 35.7224 19.7872 35.6006C19.4751 35.5735 19.3122 35.7224 19.3122 36.0471V40.0798C19.3122 40.3775 19.4751 40.5264 19.7601 40.567Z" fill="#646565"/>
</svg>
