<svg width="196" height="53" viewBox="0 0 196 53" fill="none" xmlns="http://www.w3.org/2000/svg">
<path d="M23.6843 12.5684L26.7124 15.8432C26.8838 16.0327 27.0409 16.1003 27.3123 16.1003H33.6684C33.9398 16.1003 34.0969 16.0327 34.2683 15.8432L37.2964 12.5684C37.5535 12.2842 37.4678 12 37.025 12H32.74C32.4686 12 32.2972 12.0947 32.1401 12.2842L30.8403 14.0569H30.1404L28.8406 12.2842C28.6692 12.0947 28.5121 12 28.2121 12H23.9557C23.5129 12 23.4129 12.2842 23.6843 12.5684ZM79.7752 29.0238V29.335C79.7752 40.3369 81.6749 41 95.6155 41C109.556 41 111.456 40.3369 111.456 29.2944V29.0103C111.456 18.0084 109.556 17.3453 95.6155 17.3453C81.6749 17.3588 79.7752 18.0219 79.7752 29.0238ZM78.3611 39.958L65.1061 27.6976L77.5613 18.4008C77.9326 18.1437 77.7898 17.8325 77.3327 17.8325H69.2198C68.9912 17.8325 68.8198 17.9001 68.6199 18.049L55.9076 27.6706V18.3061C55.9076 17.9949 55.7362 17.8325 55.4077 17.8325H49.223C48.8945 17.8325 48.7231 17.9949 48.7231 18.3061V40.0663C48.7231 40.3775 48.8945 40.5399 49.223 40.5399H55.4077C55.7362 40.5399 55.9076 40.3775 55.9076 40.0663V34.5856L59.6642 31.7844L68.777 40.2963C68.9769 40.4858 69.1483 40.5534 69.4054 40.5534H78.1326C78.5611 40.5264 78.6897 40.2422 78.3611 39.958ZM129.767 17.8325H116.498C116.169 17.8325 115.998 17.9949 115.998 18.3061V40.0663C115.998 40.3775 116.169 40.5399 116.498 40.5399H129.781C143.993 40.5399 145.85 39.8768 145.85 29.2809V29.0915C145.836 18.4956 143.979 17.8325 129.767 17.8325ZM181.202 39.958L169.718 18.1708C169.618 17.9272 169.418 17.8189 169.146 17.8189H158.977C158.705 17.8189 158.505 17.9137 158.405 18.1708L146.921 39.958C146.75 40.3098 146.893 40.5264 147.279 40.5264H153.906C154.163 40.5264 154.377 40.4316 154.463 40.1745L156.191 36.9538H171.903L173.631 40.1745C173.731 40.4316 173.931 40.5264 174.203 40.5264H180.83C181.23 40.5264 181.359 40.3098 181.202 39.958ZM103.728 29.0238V29.335C103.728 35.7088 103.457 35.8035 95.6012 35.8035C87.7453 35.8035 87.4739 35.7088 87.4739 29.335V29.0238C87.4739 22.65 87.7453 22.5688 95.6012 22.5688C103.471 22.5553 103.728 22.65 103.728 29.0238ZM138.28 29.0238V29.335C138.28 35.1675 137.78 35.357 129.796 35.357H123.211V23.0019H129.796C137.78 23.0019 138.28 23.1913 138.28 29.0238ZM169.389 32.2039H158.734L163.633 23.0289H164.504L169.389 32.2039ZM15.7999 40.567C19.3279 40.7158 25.0841 40.8782 28.4121 40.8782C42.924 40.8782 44.6523 40.8511 44.6523 33.3812C44.6523 27.4811 42.8241 27.0075 35.1396 26.7909L26.2267 26.5338C22.1417 26.412 22.0703 25.9925 22.0703 24.2604C22.0703 22.4606 22.5702 22.4606 32.3829 22.4606C34.2397 22.4606 40.1673 22.5553 43.2954 22.623C43.6239 22.623 43.7953 22.4606 43.7953 22.1493V18.3061C43.7953 17.9949 43.6239 17.8325 43.324 17.8054C40.2245 17.643 35.1682 17.4806 31.5402 17.4806C17.2996 17.4806 15 17.7378 15 24.707C15 30.6612 16.3998 31.4596 25.5126 31.7438L33.697 32.0009C37.5249 32.1227 37.5963 32.5693 37.5963 33.9225C37.5963 35.79 37.4249 35.8847 28.3693 35.8847C24.1414 35.8847 19.7849 35.7224 15.8284 35.6006C15.4999 35.5735 15.3285 35.7224 15.3285 36.0471V40.0798C15.3285 40.3775 15.4999 40.5264 15.7999 40.567Z" fill="#095341"/>
</svg>
