<svg width="196" height="53" viewBox="0 0 196 53" fill="none" xmlns="http://www.w3.org/2000/svg">
<path d="M112.421 10.8368C112.61 12.2223 114.701 14.0894 115.267 14.0457C115.646 14.0457 115.79 12.2369 115.79 10.8368C115.79 10.0345 115.835 9.40703 115.413 9.26117C114.745 10.6182 112.987 10.8954 112.421 10.8368ZM112.537 10.224C114.047 10.224 115.428 9.01378 115.428 7.94878C115.428 7.45266 115.195 7.04486 114.599 6.97209C114.701 7.1034 114.745 7.2056 114.745 7.43811C114.745 8.24083 113.526 9.13086 112.203 9.13086C111.723 9.13086 111.578 9.46557 111.578 9.64054C111.579 10.049 111.97 10.224 112.537 10.224ZM112.217 8.5762C112.015 8.5762 111.723 8.5762 111.565 8.25538C111.433 7.99277 111.477 7.56975 111.23 7.3799C111.477 7.45266 111.738 7.45266 111.941 7.45266C112.595 7.45266 113.22 7.0012 113.699 7.0012C114.019 7.0012 114.119 7.2056 114.119 7.40901C114.119 8.05065 112.828 8.5762 112.217 8.5762ZM79.7278 20.0104C80.2208 20.0104 80.1184 16.9768 80.9178 16.9768C81.1071 16.9768 81.1651 17.1666 81.1651 17.3995C81.1651 18.0851 80.8308 19.0916 80.8308 19.6459C80.8308 19.9227 80.9036 20.0104 81.034 20.0104C81.3831 20.0104 81.9928 16.6705 82.5886 16.6705C82.7773 16.6705 82.8643 16.86 82.8643 17.0499C82.8643 17.7494 81.9783 19.7623 81.9783 20.3305C81.9783 20.4182 82.0076 20.4909 82.0797 20.4909C82.4434 20.4909 83.1699 18.9159 83.4021 18.1288C83.5326 17.7203 83.7068 17.5017 83.8662 17.5017C84.0115 17.5017 84.1422 17.6624 84.1422 17.9975C84.1422 18.785 83.4166 20.6375 82.777 21.8771C82.283 22.8392 81.5136 24.2254 81.5136 24.9987C81.5136 25.3922 81.5867 25.8004 82.1522 26.2965C81.2227 26.2383 80.8456 26.151 80.4965 25.4217C78.9422 28.5274 83.358 28.2224 81.8475 30.9785C81.5722 30.4827 79.3931 29.9721 79.3931 27.0847C79.3931 24.5899 81.5722 23.1316 81.5722 22.096C81.5722 21.892 81.4991 21.717 81.3107 21.5569C80.8308 21.1485 80.8166 20.8128 80.4389 20.8128C80.1632 20.8128 79.8292 21.4547 80.1773 22.0229C80.2936 22.2125 80.3957 22.3295 80.3957 22.5048C80.3957 22.9133 79.7571 24.0068 79.3065 24.0068C78.8563 24.0068 78.5075 22.8842 78.5075 21.0757C78.5075 19.4709 78.8704 17.8526 79.321 17.8526C79.4514 17.8526 79.4952 17.9399 79.4952 18.0567C79.4952 18.2462 79.4369 18.6245 79.4369 19.2669C79.4366 19.9518 79.5967 20.0104 79.7278 20.0104ZM101.977 5.67293C102.21 5.67293 102.254 6.24247 102.297 6.57785C102.326 6.75281 102.355 6.76769 102.428 6.76769C102.603 6.76769 102.879 6.09628 103.067 6.09628C103.344 6.09628 104.084 6.86989 105.318 6.86989C107.076 6.86989 108.732 5.6296 108.732 3.44206C108.732 1.32695 107.25 0.0869859 105.202 0.0869859C104.229 0.0869859 103.518 0.568219 103.14 0.568219C102.908 0.582772 102.559 0 102.384 0C102.311 0 102.239 0.145197 102.239 0.393255C102.239 0.553667 102.239 1.06467 102.064 1.06467C101.716 1.06467 100.366 0.0575495 100.366 0.422691C100.366 0.758397 101.266 1.77974 101.266 2.04169C101.266 2.30463 100.38 2.55235 100.38 2.72732C100.38 3.04847 101.325 3.10668 101.325 3.51515C101.325 3.92296 100.336 4.24411 100.336 4.55071C100.336 4.79877 101.325 4.62348 101.325 4.93008C101.325 5.23635 100.598 6.25669 100.598 6.54874C100.598 6.62216 100.613 6.62216 100.671 6.62216C100.946 6.62183 101.775 5.67293 101.977 5.67293ZM83.3438 27.2302C83.329 26.9385 83.5326 26.661 83.8372 26.6319C84.1422 26.5879 84.4185 26.8214 84.4472 27.1277C84.4768 27.4343 84.2585 27.6972 83.9532 27.7405C83.6488 27.7557 83.3731 27.5365 83.3438 27.2302ZM81.7319 27.6823C81.7902 28.1784 82.2543 28.5565 82.7773 28.4986C82.9661 28.4837 83.1409 28.4255 83.2566 28.3521C83.3731 28.8194 83.7354 29.1111 84.273 29.0526C84.8105 29.0093 85.1886 28.5565 85.1303 28.018C85.1303 27.8725 85.0868 27.7848 85.0433 27.6823L85.1451 27.6678C85.653 27.6096 86.0449 27.1425 86.0011 26.6319C85.9435 26.1063 85.4646 25.7273 84.9706 25.7709C84.7815 25.8149 84.6218 25.8728 84.5058 25.975C84.3747 25.5381 83.997 25.1878 83.4601 25.2464C82.9516 25.2755 82.559 25.7709 82.6173 26.3104C82.6173 26.3838 82.6459 26.5006 82.6901 26.6024L82.5883 26.6167C82.0797 26.6898 81.6881 27.1134 81.7319 27.6823ZM114.091 0.933361C114.091 0.9814 114.1 1.02907 114.118 1.07357C114.136 1.11807 114.162 1.1585 114.196 1.19249C114.23 1.22647 114.27 1.25333 114.314 1.27148C114.359 1.28963 114.406 1.2987 114.454 1.29817C114.657 1.29817 114.818 1.13809 114.818 0.933361C114.818 0.728961 114.658 0.568219 114.454 0.568219C114.25 0.568219 114.091 0.728961 114.091 0.933361ZM105.987 14.7598C105.987 15.0955 106.263 15.3727 106.596 15.3727C106.758 15.3717 106.913 15.3068 107.027 15.1921C107.141 15.0774 107.206 14.922 107.206 14.7598C107.205 14.5977 107.141 14.4425 107.027 14.3279C106.912 14.2133 106.758 14.1484 106.596 14.1473C106.263 14.1473 105.987 14.4251 105.987 14.7598ZM106.03 16.5971C106.03 16.6871 106.048 16.7762 106.082 16.8594C106.116 16.9426 106.166 17.0182 106.23 17.0819C106.293 17.1456 106.368 17.1961 106.451 17.2306C106.534 17.2652 106.622 17.283 106.712 17.283C106.802 17.2831 106.89 17.2655 106.973 17.2311C107.056 17.1968 107.131 17.1464 107.195 17.0828C107.258 17.0192 107.309 16.9437 107.343 16.8606C107.377 16.7775 107.395 16.6884 107.395 16.5984C107.395 16.4167 107.324 16.2423 107.196 16.1136C107.068 15.985 106.894 15.9126 106.713 15.9124C106.532 15.9123 106.359 15.9843 106.231 16.1127C106.103 16.2411 106.03 16.4153 106.03 16.5971ZM103.939 17.837C103.939 18.1038 104.045 18.3596 104.233 18.5482C104.421 18.7369 104.675 18.8431 104.941 18.8435C105.207 18.8427 105.461 18.7364 105.649 18.5478C105.836 18.3592 105.942 18.1037 105.943 17.837C105.942 17.5705 105.836 17.315 105.649 17.1265C105.461 16.938 105.207 16.8319 104.941 16.8313C104.675 16.8315 104.421 16.9375 104.233 17.1261C104.045 17.3146 103.939 17.5703 103.939 17.837ZM104.476 15.7811C104.476 16.1026 104.737 16.3649 105.057 16.3649C105.377 16.3649 105.639 16.1026 105.639 15.7811C105.639 15.4603 105.377 15.1977 105.057 15.1977C104.737 15.1977 104.476 15.4603 104.476 15.7811ZM102.573 16.9477C102.573 17.1025 102.634 17.251 102.743 17.3605C102.852 17.4699 103 17.5314 103.154 17.5314C103.308 17.5314 103.456 17.4699 103.565 17.3605C103.674 17.251 103.735 17.1025 103.735 16.9477C103.73 16.7963 103.667 16.6527 103.558 16.5474C103.45 16.4421 103.305 16.3832 103.154 16.3832C103.003 16.3832 102.858 16.4421 102.75 16.5474C102.641 16.6527 102.578 16.7963 102.573 16.9477ZM104.07 13.5351C104.071 13.7821 104.17 14.0187 104.344 14.1934C104.517 14.3682 104.753 14.4671 104.999 14.4687C105.245 14.467 105.481 14.3681 105.654 14.1933C105.828 14.0186 105.927 13.7821 105.929 13.5351C105.927 13.288 105.829 13.0515 105.655 12.8768C105.481 12.7021 105.245 12.6033 104.999 12.6017C104.753 12.6033 104.518 12.7021 104.344 12.8768C104.17 13.0515 104.071 13.288 104.07 13.5351ZM105.159 11.7408C105.157 11.8147 105.17 11.8882 105.197 11.9571C105.224 12.0259 105.264 12.0886 105.316 12.1416C105.367 12.1946 105.428 12.2367 105.496 12.2654C105.564 12.2942 105.637 12.3091 105.71 12.3091C105.784 12.3092 105.857 12.2945 105.925 12.2658C105.993 12.2372 106.054 12.1952 106.106 12.1423C106.157 12.0894 106.198 12.0268 106.225 11.958C106.252 11.8892 106.265 11.8157 106.263 11.7418C106.259 11.5971 106.2 11.4596 106.097 11.3584C105.994 11.2573 105.856 11.2006 105.711 11.2005C105.567 11.2003 105.429 11.2568 105.326 11.3577C105.223 11.4587 105.163 11.5961 105.159 11.7408ZM102.529 13.1408C102.529 13.2879 102.588 13.429 102.691 13.533C102.795 13.637 102.935 13.6955 103.082 13.6955C103.228 13.6955 103.369 13.637 103.472 13.533C103.576 13.429 103.634 13.2879 103.634 13.1408C103.634 12.8342 103.387 12.5871 103.082 12.5871C102.777 12.5871 102.529 12.8342 102.529 13.1408ZM102.457 15.037C102.457 15.5331 102.849 15.9273 103.344 15.9273C103.46 15.9279 103.576 15.9053 103.684 15.8608C103.791 15.8162 103.889 15.7507 103.972 15.6678C104.054 15.585 104.119 15.4866 104.163 15.3783C104.207 15.27 104.23 15.154 104.229 15.037C104.23 14.92 104.207 14.804 104.163 14.6958C104.119 14.5875 104.054 14.4892 103.971 14.4064C103.889 14.3237 103.791 14.2581 103.683 14.2137C103.576 14.1692 103.46 14.1466 103.344 14.1473C103.227 14.1465 103.111 14.1689 103.004 14.2134C102.896 14.2578 102.798 14.3233 102.715 14.406C102.633 14.4888 102.567 14.5872 102.523 14.6955C102.479 14.8038 102.456 14.9199 102.457 15.037ZM100.627 15.971C100.627 16.4234 101.005 16.8021 101.455 16.8021C101.905 16.8021 102.283 16.4234 102.283 15.971C102.283 15.5189 101.905 15.1395 101.455 15.1395C101.005 15.1395 100.627 15.5189 100.627 15.971ZM101.121 13.9144C101.121 14.2352 101.383 14.4982 101.702 14.4982C101.856 14.4975 102.004 14.4357 102.112 14.3264C102.221 14.217 102.282 14.0689 102.283 13.9144C102.283 13.5933 102.022 13.3307 101.702 13.3307C101.548 13.331 101.401 13.3926 101.292 13.502C101.183 13.6114 101.121 13.7597 101.121 13.9144ZM99.1894 35.4135C99.1894 35.733 99.4506 35.9952 99.7704 35.9952C100.089 35.9952 100.351 35.733 100.351 35.4135C100.351 35.2588 100.289 35.1106 100.181 35.0011C100.072 34.8916 99.9244 34.8297 99.7704 34.829C99.4506 34.829 99.1894 35.0913 99.1894 35.4135ZM83.5622 11.2446C83.5622 11.5658 83.8231 11.8284 84.1422 11.8284C84.2963 11.8281 84.444 11.7665 84.553 11.6571C84.662 11.5477 84.7234 11.3994 84.7239 11.2446C84.7232 11.0901 84.6616 10.942 84.5526 10.8329C84.4437 10.7237 84.2961 10.6622 84.1422 10.6619C83.8231 10.6619 83.5622 10.9245 83.5622 11.2446ZM82.8063 9.93225C82.8067 10.087 82.8682 10.2353 82.9772 10.3447C83.0862 10.4541 83.2339 10.5157 83.388 10.516C83.7068 10.516 83.9676 10.2534 83.9676 9.93225C83.9676 9.61143 83.7068 9.34849 83.388 9.34849C83.2339 9.34884 83.0862 9.41045 82.9772 9.51984C82.8682 9.62923 82.8067 9.77751 82.8063 9.93225ZM83.4311 24.2836C84.0408 24.2836 84.5496 23.8311 84.5496 22.8253V21.338C84.5496 20.7688 84.5924 20.1265 84.9706 19.675C84.9271 19.8648 84.9271 20.0689 84.9271 20.2578C84.9271 21.5126 85.624 22.3732 85.624 23.5844C85.624 24.0359 85.4936 24.2839 85.1451 24.2839C84.8105 24.2839 84.8398 23.9776 84.7673 23.9776C84.7094 23.9776 84.6221 24.1672 84.6221 24.3709C84.6221 24.6778 84.8401 25.1591 85.4504 25.1591C85.9728 25.1591 86.3941 24.6778 86.3941 24.1377C86.3941 22.8257 85.3783 21.3674 85.3783 19.967C85.3783 19.3542 85.5367 18.946 85.6678 18.6245C85.6678 21.5278 88.1225 23.6429 88.1225 24.8531C88.1225 25.1303 87.9193 25.3492 87.614 25.3492C87.2807 25.3492 87.1206 25.0866 87.1206 24.8822C87.1206 24.7797 87.1061 24.7509 87.0627 24.7509C86.9754 24.7509 86.7135 25.0426 86.7135 25.422C86.7135 25.9026 87.1058 26.4863 87.832 26.4863C88.6601 26.4863 89.111 25.7862 89.111 25.1591C89.111 23.628 86.1329 21.3082 86.1329 18.8289C86.1329 18.4056 86.2053 17.7206 86.5106 17.1957C84.5928 18.4347 83.9976 20.0838 83.9976 21.5275C83.9976 22.7813 83.9538 23.4088 83.3152 23.4088C82.9812 23.4088 82.8943 23.1025 82.778 23.1025C82.6907 23.1025 82.6469 23.3654 82.6469 23.4382C82.6459 23.9773 83.0385 24.2836 83.4311 24.2836ZM108.601 9.71363C109.24 9.71363 109.72 9.42159 109.72 9.24662C109.72 9.18808 109.632 9.14541 109.443 9.14541C109.255 9.14541 108.876 9.13086 108.165 9.01378C107.554 8.91191 107.089 8.67873 106.915 8.67873C106.856 8.67873 106.828 8.70751 106.828 8.75117C106.829 9.13053 107.526 9.71363 108.601 9.71363ZM105.435 7.86113C105.624 7.74438 106.436 7.9339 107.498 7.40868C107.613 7.34356 107.742 7.30864 107.874 7.30714C108.384 7.30714 108.252 7.89024 108.718 7.89024C109.081 7.89024 109.546 7.58397 109.822 7.58397C110.256 7.58397 110.881 8.95524 110.881 9.59688C110.881 10.3404 109.764 10.7929 108.442 10.7929C106.509 10.7929 105.348 9.10076 105.348 8.00666C105.348 7.91934 105.391 7.89024 105.435 7.86113ZM83.7351 29.7822C83.2562 29.8993 82.4865 30.6577 82.4865 31.8547C82.4865 33.2825 84.0115 35.4859 86.5245 35.4859C88.6452 35.4859 89.1673 34.0121 89.1673 33.0199C89.1673 30.8184 87.8166 29.2715 86.0594 29.2715C85.1007 29.2715 84.2437 29.9721 84.2437 31.0076C84.2437 31.9707 84.9699 33.4141 86.6984 33.4141C87.5112 33.4141 87.9908 32.83 87.9908 32.1589C87.9908 31.5041 87.3947 30.5992 86.5238 30.5992C86.262 30.5992 86.0733 30.7741 86.0733 31.0516C86.0733 31.4015 86.5531 31.7518 87.1486 31.7518C87.2939 31.7518 87.4091 31.7227 87.4678 31.6933C87.4968 31.7372 87.5112 31.8103 87.5112 31.8685C87.5112 32.2029 87.1924 32.407 86.6984 32.407C85.9573 32.407 85.2459 31.854 85.2459 30.9782C85.2459 30.453 85.6955 30.0733 86.3499 30.0733C87.6417 30.0733 88.4121 31.2266 88.4121 32.3776C88.4121 33.4141 87.8452 34.0118 86.6839 34.0118C84.3602 34.0121 83.2276 31.9122 83.7351 29.7822ZM82.2833 13.929C81.949 14.0166 81.2524 14.4251 81.2524 15.1537C81.2524 15.6793 81.6588 16.015 82.167 16.015C82.4285 16.015 82.6176 15.9561 82.7335 15.8688C82.3268 15.4752 82.1815 15.0373 82.1815 14.6004C82.1815 14.2938 82.225 14.1039 82.2833 13.929ZM78.7249 14.133C78.7104 14.2058 78.7104 14.2789 78.7104 14.3517C78.7104 15.037 79.0737 15.4163 79.5535 15.4163C79.9162 15.4163 80.3374 15.1974 80.7149 14.7158C80.5422 14.7454 80.3673 14.76 80.1922 14.7595C79.6543 14.7598 79.0737 14.6146 78.7249 14.133ZM78.217 15.4312C78.217 16.5395 78.55 17.0644 79.1464 17.0644C79.6112 17.0644 80.2356 16.7291 80.9767 16.0877C80.4099 16.219 79.9748 16.3064 79.5825 16.3064C79.0592 16.3064 78.6521 16.1023 78.217 15.4312ZM100.322 38.3296C101.019 38.3296 100.975 38.2711 101.194 38.2711C101.412 38.2711 101.425 38.4024 101.425 38.4897C101.425 38.8112 100.713 39.2045 99.4506 39.2045C98.7089 39.2045 98.2593 38.8112 98.1292 38.3733C97.402 38.84 96.299 39.263 95.2104 39.263C92.2327 39.263 91.4768 37.9645 90.5476 37.5411C89.8359 37.2203 88.7467 37.8474 87.2221 36.1408C87.4246 36.1844 87.7006 36.199 87.919 36.199C89.2552 36.199 89.967 35.5438 89.967 34.4937C89.967 34.3624 89.9525 34.2158 89.938 34.0852C90.3451 34.2453 91.2742 34.9461 91.4916 36.1848C91.5209 36.3306 92.1164 36.4619 92.4945 36.4619C93.0169 36.4619 93.6851 36.243 93.7869 35.3834C95.5299 35.2382 96.7054 34.2016 96.9524 32.8886C97.5772 33.093 98.288 33.6618 98.4629 33.9539C98.7092 33.8659 99.0001 33.8226 99.3344 33.8226C99.7994 33.8226 100.322 33.9102 100.947 34.1001C100.976 33.9102 101.005 33.6767 101.296 33.6767C101.731 33.6767 101.615 34.1583 101.76 34.4355C101.833 34.5813 102.196 34.6686 102.196 34.961C102.196 35.2385 101.963 35.34 101.819 35.34C101.76 35.34 101.688 35.3258 101.644 35.3113C101.354 35.4138 101.339 37.5127 100.119 37.5127C99.2181 37.5127 98.3901 36.7689 98.0281 35.8352C97.926 35.5587 97.708 35.3837 97.5044 35.3837C97.2716 35.3837 97.1415 35.4284 96.8655 35.7333C96.0819 36.5939 94.775 37.3377 93.1628 37.3377C92.6691 37.3377 92.2771 37.2944 92.1747 37.2944C92.1167 37.2944 92.1167 37.309 92.1167 37.3235C92.1167 37.4257 92.6108 37.8193 93.6855 37.8193C96.2413 37.8193 96.8655 36.3749 97.2719 36.3749C97.3308 36.3749 97.5047 36.3749 97.6065 36.6084C98.202 38.0091 99.4948 38.3303 100.308 38.3303H100.322V38.3296ZM92.0726 9.01378C93.0304 9.01378 93.4668 9.84494 93.4668 10.7786C93.4668 11.1868 93.3508 11.7848 93.1621 11.7848C92.9731 11.7848 93.002 11.449 92.9731 11.1424C92.9441 10.7495 92.8713 10.6619 92.7415 10.6619C92.4945 10.6619 92.3348 11.2446 92.3348 11.7848C92.3348 12.1205 92.3921 12.4995 92.6539 12.4995C92.7985 12.4995 92.9296 12.4264 93.0169 12.3394C92.9586 13.0098 92.4652 13.5933 91.7679 13.5933C90.4893 13.5933 90.0101 12.091 89.8649 11.2159C89.0961 12.0328 88.3837 12.6308 87.1055 12.6308C85.9145 12.6308 85.3776 11.7556 85.3776 10.9245C85.3776 10.6761 85.4646 10.0345 85.7686 10.0345C86.1322 10.0345 85.8121 11.2304 86.5245 11.2304C86.6987 11.2304 87.0182 11.0846 87.1928 10.6037C87.2945 10.3119 87.3518 10.0053 87.3518 9.74241C87.3518 9.34849 87.2652 9.10109 86.9744 9.10109C86.727 9.10109 86.422 9.29061 86.3206 9.39215C86.6694 8.34237 87.5112 7.80259 88.441 7.80259C89.5885 7.80259 90.1988 8.82393 90.1988 9.96136C90.1987 10.1276 90.184 10.2935 90.155 10.4571C90.6501 9.64021 91.3322 9.01378 92.0726 9.01378ZM88.4272 0.320491C88.4272 0.232844 87.9918 0.145197 87.3956 0.145197C86.452 0.145197 86.5831 0.933361 85.8569 0.933361C85.1016 0.933361 85.2904 0.116422 84.3319 0.116422C83.7503 0.116422 83.2137 0.218622 83.2137 0.349928C83.2137 0.524892 83.8958 0.452128 83.8958 0.933691C83.8958 1.44436 82.4292 1.59055 82.4292 1.89583C82.4292 1.99803 82.5455 2.04169 82.6907 2.04169C83.0102 2.04169 83.5191 1.89583 83.881 1.89583C84.0849 1.89583 84.2736 1.94015 84.2736 2.12966C84.2736 2.49447 83.4901 3.15067 83.4901 3.44272C83.4901 3.5307 83.5629 3.5598 83.6353 3.5598C83.9252 3.5598 84.4195 2.8153 84.8843 2.8153C85.654 2.8153 85.1461 4.46373 85.5664 4.46373C86.0021 4.46373 85.8134 2.84473 86.4382 2.84473C86.9467 2.84473 87.3248 3.96761 87.673 3.96761C87.7596 3.96761 87.8324 3.89485 87.8324 3.79232C87.8324 3.48671 87.3963 2.85929 87.3963 2.45049C87.3963 2.20243 87.5709 2.08567 87.8034 2.08567C88.1377 2.08567 88.5883 2.29007 88.835 2.29007C88.9222 2.29007 89.0092 2.26097 89.0092 2.15877C89.0092 1.80851 87.7161 1.42981 87.7161 0.97735C87.7155 0.524561 88.4272 0.524561 88.4272 0.320491ZM109.124 29.0384C108.819 29.0384 107.133 31.2997 106.045 31.2997C105.784 31.2997 105.566 30.8036 105.566 30.4245C105.566 30.2201 105.696 30.0736 106.162 29.9724C108.659 29.4032 108.107 27.5222 110.241 27.5222C111.418 27.5222 112.726 28.3253 112.726 30.1331C112.726 32.0574 109.996 34.4507 109.589 34.4507C109.255 34.4507 108.892 33.9688 108.892 33.648C108.892 33.5458 108.936 33.4148 109.226 33.2977C110.62 32.7427 111.419 31.4604 111.419 30.8039C111.419 30.6584 111.347 30.5122 111.157 30.5122C110.91 30.5122 109.851 32.9326 108.674 32.9326C107.86 32.9326 107.032 32.1887 107.032 31.8398C107.032 31.256 109.385 30.1761 109.385 29.3589C109.385 29.0526 109.24 29.0384 109.124 29.0384ZM110.692 28.1344C110.488 28.1344 110.27 28.2955 110.27 28.6878C110.27 29.1257 110.605 29.4028 110.794 29.4902C110.923 29.5633 111.067 29.6034 111.215 29.6069C111.636 29.6069 111.97 29.4902 111.97 29.1399C111.97 28.6878 111.317 28.1344 110.692 28.1344ZM91.8401 1.80818C91.8401 2.07079 92.7557 2.64 93.1763 2.64C93.4233 2.64 93.4961 2.3043 93.4961 1.95371C93.4961 1.51713 93.3067 1.50191 92.9293 1.50191C92.451 1.50191 91.8401 1.63355 91.8401 1.80818ZM93.3512 4.69624C93.3512 3.82076 90.9699 2.20177 90.9699 1.54623C90.9699 1.51713 90.9699 1.50224 90.9837 1.47314C91.1583 0.991572 93.1331 0.655866 93.1331 0.26195C93.1331 0.0721022 92.785 0.0721024 92.6108 0.0721024C91.2594 0.0721024 89.2845 0.568219 89.2845 1.05011C89.2845 1.54623 91.0565 2.75676 91.0565 3.35507C91.0565 3.51515 90.9554 3.57402 90.7956 3.57402C90.3019 3.57402 89.2262 2.97571 88.7184 2.97571C88.4858 2.97571 88.3992 3.13579 88.3992 3.36929C88.3992 4.06882 89.2262 5.39676 89.2262 5.79001C89.2262 5.83367 89.2117 5.89221 89.1544 5.89221C88.8929 5.89221 87.6581 4.43396 87.2227 4.43396C87.063 4.43396 87.0482 4.65291 87.0482 4.9734V5.46952C87.0482 5.80456 87.0337 6.00863 86.8739 6.00863C86.4962 6.00863 86.3216 4.9443 85.9586 4.9443C85.5805 4.9443 85.5091 6.84079 85.1458 6.84079C84.7245 6.84079 85.0871 4.75445 84.6801 4.75445C84.2301 4.75445 83.7213 6.14027 83.4028 6.14027C83.2862 6.14027 83.2572 6.02352 83.2572 5.92099C83.2572 5.49896 83.5046 4.81299 83.5046 4.40452C83.5046 4.20012 83.4463 4.0837 83.2717 4.0837C82.8215 4.0837 81.8344 4.81332 81.4563 4.81332C81.3983 4.81332 81.3258 4.78422 81.3258 4.72535C81.3258 4.37509 82.9091 3.26709 82.9091 2.77098C82.9091 2.28941 80.73 2.61024 80.73 2.05591C80.73 1.58989 82.2839 1.10799 82.2839 0.62643C82.2839 0.203739 80.4392 0.014553 79.7284 0.014553C78.8708 0.014553 78.406 0.116091 78.406 0.36415C78.406 0.743183 80.3522 0.860266 80.3522 1.19564C80.3522 1.51712 78.3333 2.37706 78.3333 2.87318C78.3333 3.31042 81.1803 2.90162 81.1803 3.35474C81.1803 3.84986 78.6962 5.99375 78.6962 6.70915C78.6962 6.86989 78.8128 6.94266 78.9719 6.94266C79.7281 6.94266 81.6885 5.49896 82.2253 5.49896C82.414 5.49896 82.4289 5.73147 82.4289 5.93554C82.4289 6.31523 82.2984 6.89834 82.2984 7.32169C82.2984 7.65673 82.3851 7.88991 82.6762 7.88991C83.2134 7.88991 83.7071 6.97143 84.0701 6.97143C84.5355 6.97143 84.2588 9.66898 84.9567 9.66898C85.5512 9.66898 85.7982 6.75248 86.1763 6.75248C86.5545 6.75248 86.8594 7.59786 87.2079 7.59786C87.643 7.59786 87.4398 6.12473 87.9048 6.12473C88.413 6.12473 89.8652 7.87502 90.519 7.87502C90.7225 7.87502 90.7953 7.71428 90.7953 7.51021C90.7953 6.73793 89.7206 4.98763 89.7206 4.43297C89.7206 4.28678 89.7638 4.24312 89.9238 4.24312C90.49 4.24312 92.146 5.03128 92.9299 5.03128C93.1908 5.03195 93.3512 4.88609 93.3512 4.69624ZM113.177 21.4835C113.409 20.7539 113.699 20.2426 114.177 19.4557C113.699 19.208 112.436 18.6828 112.436 17.8225C112.436 16.8164 113.686 16.0295 113.945 16.0295C114.062 16.0295 114.091 16.1317 114.091 16.3212C114.091 16.8458 113.843 17.6915 113.843 18.1433C113.843 18.5511 114.105 18.9454 114.337 18.9454C114.584 18.9454 115.267 18.0702 115.267 17.2103C115.267 15.6644 113.916 15.1977 113.497 15.1977C113.104 15.1977 112.392 15.8394 110.72 15.8394C107.598 15.8394 106.887 12.7323 106.887 11.376C106.887 11.3177 106.9 11.3032 106.915 11.3032C106.988 11.3032 107.293 11.6822 108.28 11.6822C108.789 11.6822 109.254 11.5512 109.995 11.5512C111.737 11.5512 112.508 12.7624 113.583 14.3083C114.235 14.7161 115.79 15.3727 115.79 17.2248C115.79 18.8577 114.061 19.7623 113.641 21.5123C114.308 21.4398 114.701 20.2429 115.384 20.2429C115.733 20.2429 115.892 20.5207 115.892 20.958C115.892 21.6006 115.529 22.5624 114.831 23.1607C114.846 23.1022 114.846 23.0291 114.846 22.9421C114.846 22.5333 114.686 21.9499 114.221 21.9499C113.497 21.9499 113.264 22.7374 112.856 23.3939C112.436 21.9062 111.868 20.564 110.852 19.7478C109.821 18.9159 108.048 19.3684 108.048 17.8519C108.048 17.4431 108.309 16.86 108.309 16.394C108.309 16.2339 108.28 16.0877 108.194 15.971C109.588 16.4952 109.094 17.4286 109.952 18.3907C110.488 19.0036 111.97 19.587 112.828 22.1099C112.841 22.0375 112.856 21.848 112.856 21.717C112.856 19.5586 110.01 17.4435 109.763 16.569C111.417 16.7585 111.708 17.167 112.493 19.3538C112.653 19.8063 113.177 20.9288 113.177 21.4835ZM81.9783 9.59688C82.0637 9.32301 82.1077 9.03782 82.1087 8.75084C82.1087 8.05032 81.7899 6.98631 80.8015 6.98631C80.235 6.98631 79.8289 7.43778 79.8289 7.97755C79.8292 9.13053 80.9764 9.59688 81.9783 9.59688ZM80.7435 13.2724C80.2643 13.2724 79.7419 12.6748 79.7419 12.1353C79.7419 11.8433 79.9603 11.4782 80.1184 11.4782C80.177 11.4782 80.206 11.5218 80.2208 11.624C80.3078 12.3394 80.7728 12.7476 81.2089 12.951C81.2524 12.9804 81.2817 12.9953 81.2817 13.0241C81.2817 13.1263 81.005 13.2724 80.7435 13.2724ZM82.4579 11.9015C82.4579 12.1056 82.3413 12.3685 82.1087 12.3685C81.6012 12.3685 81.1941 11.5949 81.1941 11.1573C81.1941 10.8808 81.3538 10.8514 81.5719 10.8514C81.6733 10.8514 81.7165 10.8659 81.7899 10.9096C81.92 10.9827 81.92 11.2741 82.0794 11.4927C82.167 11.6386 82.4579 11.7993 82.4579 11.9015ZM81.949 10.3698C81.8627 10.3553 81.7461 10.3553 81.6298 10.3553C81.1506 10.3553 80.511 10.4429 79.9455 10.8223C78.6666 11.6538 78.8698 12.9655 78.6666 13.3015C78.6369 13.3499 78.6218 13.4058 78.6231 13.4626C78.6231 13.5936 78.7683 13.7391 78.8988 13.7391C79.0157 13.7391 79.0881 13.7107 79.1461 13.7107C79.4949 13.7107 79.8869 13.9587 80.4534 13.9587C80.7873 13.9587 81.1796 13.8562 81.6736 13.6081C82.7194 13.0833 83.1265 11.7851 83.1265 11.5661C83.1265 11.289 82.9084 11.3326 82.7197 11.07C82.5161 10.7644 82.6176 10.648 82.4872 10.4724C82.3992 10.3993 82.2108 10.3993 81.949 10.3698ZM83.4894 12.7184C83.1699 13.0968 82.8353 13.7388 82.8353 14.396C82.8353 15.1828 83.3145 15.8394 84.0553 15.8394C84.7673 15.8394 85.1013 15.2265 85.1013 14.6001C85.1013 13.6224 84.2147 12.9367 83.4894 12.7184ZM80.3806 9.9177C80.3806 9.9177 79.9603 10.2385 79.4366 10.2385C78.8121 10.2385 78.3181 9.77151 78.3181 9.11565C78.3181 8.66352 78.55 8.19684 79.0881 7.96333C79.0737 8.05098 79.0737 8.12374 79.0737 8.21139C79.0737 9.04288 79.5387 9.66931 80.3806 9.9177ZM106.219 18.4053C106.219 18.1142 106.48 17.8658 106.771 17.8658C107.09 17.8658 107.338 18.1142 107.338 18.4053C107.338 18.7406 107.09 18.9741 106.771 18.9741C106.48 18.9741 106.219 18.7406 106.219 18.4053ZM106.596 35.1796C106.669 35.1796 106.756 35.2233 106.756 35.4859C106.756 35.8057 106.611 36.2284 106.09 36.5645C105.726 36.8125 105.232 37.0163 104.505 37.0311C104.621 36.6809 104.708 36.3167 104.708 35.9661C104.708 35.8494 104.693 35.7614 104.679 35.6321H104.868C106.016 35.6321 106.509 35.1796 106.596 35.1796ZM106.712 33.7349C106.829 33.6327 106.857 33.4727 106.857 33.3119V32.9762C106.857 32.5532 106.219 32.3048 105.348 32.3048C104.287 32.3048 103.72 32.7864 103.72 32.9908V33.6618C103.72 33.9393 104.359 34.2162 105.144 34.2162C105.769 34.2162 106.336 34.0561 106.712 33.7349ZM107.468 33.8957C107.09 34.1871 106.205 34.8439 104.737 34.8439C103.953 34.8439 103.605 34.5959 103.489 34.5959C103.344 34.5959 103.184 34.7414 103.024 34.9312C102.675 35.3397 102.225 36.0971 102.225 36.9283C102.225 37.5127 102.675 38.0961 103.518 38.0961C106.234 38.0961 108.267 36.3888 108.267 35.0043C108.267 34.2162 107.802 33.8957 107.468 33.8957ZM107.975 21.6294C107.975 21.9935 108.092 22.4162 108.456 22.4162C108.761 22.4162 109.023 21.9495 109.023 21.4395C109.023 20.8558 108.92 20.4036 108.92 20.1698C108.92 20.0686 108.964 20.0246 109.023 20.0246C109.24 20.0391 109.443 20.6375 109.676 20.6375C109.938 20.6375 110.329 20.1559 110.488 20.1559C110.532 20.1559 110.547 20.2141 110.547 20.2287C110.547 20.4476 110.212 20.9288 110.212 21.1187C110.212 21.2791 111.056 21.3082 111.056 21.4544C111.056 21.6734 110.169 21.6734 109.749 21.8625C109.343 22.0372 109.095 22.2558 109.095 22.5475C109.095 22.8392 109.385 22.8978 109.792 22.8978C110.765 22.8978 111.448 22.3725 111.666 22.3725C111.709 22.3725 111.738 22.4013 111.738 22.4453C111.738 22.5915 111.244 23.0731 111.244 23.292C111.244 23.5401 112.146 23.8308 112.131 23.977C112.117 24.0203 112.059 24.0349 111.956 24.0349C111.797 24.0349 111.55 23.9915 111.361 23.9915C111.244 23.9915 111.143 24.0054 111.099 24.064C110.997 24.1811 111.128 24.954 110.925 24.954C110.736 24.954 110.242 23.2328 109.125 23.2328C108.965 23.2328 108.848 23.3641 108.848 23.5831C108.848 24.1662 109.415 24.8369 109.953 25.1581C110.198 25.3191 110.605 25.4792 110.605 25.5669C110.605 25.7408 109.677 25.5811 109.677 25.8722C109.677 26.1351 109.793 26.529 109.793 26.7625C109.793 26.8353 109.779 26.9226 109.691 26.9226C109.517 26.9226 109.095 26.1205 108.892 26.1205C108.718 26.1205 108.34 26.6018 108.18 26.6018C108.137 26.6018 108.107 26.5581 108.107 26.5141C108.107 26.1784 108.645 25.4207 108.645 24.6765C108.645 24.3262 108.602 23.5682 108.18 23.5682C107.831 23.5682 107.439 24.1215 107.264 24.6765C107.163 24.9977 107.236 26.237 107.003 26.237C106.786 26.237 106.843 25.4058 106.553 25.4058C106.336 25.4058 105.872 25.7991 105.711 25.7991C105.682 25.7991 105.653 25.7845 105.653 25.7554C105.653 25.5808 106.074 25.0119 106.074 24.8955C106.074 24.6765 105.115 24.6474 105.115 24.4721C105.115 24.3696 105.492 24.2971 105.842 24.2386C106.582 24.1073 107.671 23.5682 107.671 22.8095C107.671 21.9631 106.857 21.5993 106.322 21.249C106.045 21.0737 105.74 20.9275 105.74 20.8111C105.74 20.694 106.09 20.694 106.234 20.694C106.45 20.694 106.669 20.6798 106.669 20.5045C106.669 20.3732 106.639 20.1116 106.639 19.9075C106.639 19.7613 106.653 19.6449 106.712 19.6449C106.93 19.6449 107.236 20.359 107.381 20.359C107.613 20.359 107.933 19.7762 108.151 19.7762C108.223 19.7762 108.252 19.8199 108.252 19.9508C108.252 20.4909 107.975 21.1038 107.975 21.6294ZM101.048 17.3565C101.208 18.5954 102.864 17.968 102.864 19.4703C102.864 19.6892 102.806 20.0104 102.806 20.2869C102.806 20.608 102.834 20.8852 103.082 20.8852C103.329 20.8852 103.387 20.7102 103.387 20.4764C103.387 20.2426 103.329 19.9518 103.329 19.7914C103.329 19.2807 103.692 19.164 103.91 19.164C104.462 19.164 104.883 19.7332 105.711 19.7332C105.522 20.6662 103.605 20.4182 103.605 21.4398C103.605 21.9499 104.113 22.0669 104.447 22.0669C104.752 22.0669 104.854 22.0226 104.854 21.761C104.854 21.6148 104.825 21.4547 104.825 21.3522C104.825 21.294 104.868 21.2361 104.941 21.2361C105.261 21.2361 106.829 22.4314 106.829 22.7966C106.829 23.1319 105.174 23.4673 104.694 23.4673C104.549 23.4673 104.52 23.3654 104.52 23.3072C104.52 23.2047 104.767 22.8984 104.767 22.7231C104.767 22.5922 104.55 22.5045 103.968 22.5045C103.692 22.5045 103.489 22.5336 103.489 22.7526C103.489 23.1462 104.127 23.6277 104.127 23.9922C104.127 24.2836 103.954 24.4585 103.489 24.4585C103.097 24.4585 102.501 24.1523 102.501 23.6426C102.501 23.2338 102.923 22.8253 102.923 22.5776C102.923 22.5045 102.864 22.3878 102.69 22.3878C102.152 22.3878 102.007 23.8169 100.104 23.9776C100.409 23.7008 100.671 23.3942 100.671 22.7671C100.671 22.4605 100.598 22.2121 100.598 21.8774C100.598 21.4398 100.801 21.2209 101.092 21.2209C101.63 21.2209 101.891 21.979 102.239 21.979C102.428 21.979 102.631 21.8047 102.631 21.5424C102.631 20.4331 100.511 20.5935 100.511 19.0333C100.511 18.6097 100.655 18.0851 101.048 17.3565ZM103.808 26.8359C103.808 27.0403 103.953 27.2011 104.156 27.2011C104.389 27.2011 104.535 26.9967 104.535 26.7635C104.535 26.4569 104.258 26.0339 103.996 26.0339C103.88 26.0339 103.924 26.2085 103.894 26.398C103.881 26.5442 103.808 26.7195 103.808 26.8359ZM103.053 24.8965C104.578 25.1878 105.406 26.3402 105.406 27.4197C105.406 28.1639 104.941 28.8479 104.127 28.8479C103.387 28.8479 102.849 28.3375 102.849 27.5216C102.849 26.909 103.328 26.2671 103.328 25.6393C103.329 25.3922 103.256 25.1442 103.053 24.8965ZM101.121 27.3764C101.266 27.5216 101.31 27.6678 101.31 27.8136C101.31 28.0319 101.208 28.2657 101.208 28.5125C101.208 28.8627 101.469 29.1684 101.847 29.1684C102.254 29.1684 102.529 28.8475 102.529 28.4685C102.529 27.9158 101.963 27.3764 101.121 27.3764ZM105.929 26.4424C106.03 26.6024 106.074 26.7635 106.074 26.9094C106.074 27.3175 105.798 27.6972 105.798 28.1199C105.798 28.6001 106.162 28.9944 106.712 28.9944C107.308 28.9944 107.715 28.5128 107.715 27.9453C107.715 27.1723 107.018 26.5151 105.929 26.4424ZM101.469 25.6691C102.137 25.7567 102.297 25.9899 102.297 26.1794C102.297 26.5009 102.007 26.6028 101.731 26.6028C101.528 26.6028 101.296 26.5591 101.048 26.5591C100.728 26.5591 100.409 26.6322 100.148 26.9385C100.336 26.9676 100.613 27.0986 100.613 27.3906C100.613 28.237 98.2735 27.5361 98.2735 29.7094C98.2735 30.8621 99.4654 32.1153 101.266 32.1153C102.196 32.1153 102.791 31.8103 102.791 31.4601C102.791 31.1829 102.297 31.3724 102.297 31.1393C102.297 31.0364 102.472 30.8472 102.472 30.6868C102.472 30.614 102.414 30.4827 102.297 30.4827C102.035 30.4827 101.543 30.9054 100.54 30.9054C99.7556 30.9054 98.9856 30.4533 98.9856 29.8404C98.9856 29.7094 99.0442 29.636 99.1308 29.636C99.2174 29.636 99.334 29.6949 99.4358 29.6949C99.5234 29.6949 99.5376 29.636 99.5376 29.4756C99.5376 29.3155 99.5376 28.8627 99.8142 28.8627C100.089 28.8627 100.613 29.8841 102.617 29.8841C103.285 29.8841 104.578 29.7531 105.057 29.3152C105.043 30.9206 103.793 33.0341 101.179 33.0341C98.4629 33.0341 97.011 30.8472 97.011 28.8333C97.011 26.6024 98.8258 24.575 101.31 24.575C101.949 24.575 102.487 24.7943 102.487 25.0708C102.486 25.4508 101.543 25.2173 101.469 25.6691ZM90.9551 10.7346C90.9551 10.4866 90.8968 10.4284 90.8385 10.4284C90.6935 10.4284 90.5328 10.6033 90.3013 10.9966C90.3303 11.5215 90.4175 11.7553 90.5621 11.7553C90.7222 11.7556 90.9551 11.2446 90.9551 10.7346ZM88.9644 11.3323C89.1245 11.3323 89.3274 11.1573 89.7055 10.7346C89.7344 10.5451 89.7344 10.3695 89.7344 10.1509C89.7344 9.85916 89.6178 9.53768 89.4433 9.53768C89.0085 9.53768 88.7905 10.7052 88.7905 11.0111C88.7905 11.1868 88.8781 11.3323 88.9644 11.3323ZM91.3322 12.6305C91.6955 12.6305 92.1019 11.2301 92.1019 10.3553C92.1019 10.1658 92.0729 9.96169 91.986 9.96169C91.681 9.96169 91.1714 11.4051 91.1714 12.1936C91.1718 12.4995 91.2446 12.6305 91.3322 12.6305ZM87.7734 11.8284C88.2675 11.8284 88.8343 9.14508 88.8343 8.69263C88.8343 8.57587 88.7905 8.48823 88.6894 8.48823C88.2388 8.48823 87.6137 11.0406 87.6137 11.6091C87.6134 11.7113 87.6427 11.8284 87.7734 11.8284ZM89.3567 12.9367C88.7322 12.9367 88.7035 13.6958 88.7035 15.2268C88.2385 14.2207 87.4684 13.1411 86.5683 13.1411C85.958 13.1411 85.7254 13.5496 85.7254 14.2643C85.7254 14.4109 85.7399 14.6295 85.7686 14.7605C85.8417 14.5134 86.0739 14.4112 86.3651 14.4112C86.9895 14.4112 87.7444 14.8918 88.2385 15.5483C87.672 15.4461 87.12 15.3439 86.6552 15.3439C86.3651 15.3439 86.1032 15.373 85.8855 15.4752C85.4646 15.6647 84.8974 16.2921 84.8974 17.2401C84.8974 17.3859 84.9123 17.5453 84.9419 17.7206C85.4501 16.5829 86.8008 16.0732 87.6723 16.0732C87.8459 16.0732 87.977 16.0877 88.0787 16.1026C87.6282 16.5098 87.5267 17.2252 87.4977 17.7061C87.4833 17.9396 87.3956 17.9545 87.2369 17.9545C87.2369 18.4347 87.6137 19.1498 87.6137 19.5146C87.6137 19.6459 87.5412 19.7626 87.4688 19.7917C87.4688 20.4331 88.1074 20.8997 88.1074 21.3082C88.1074 21.4104 88.0787 21.4977 88.0349 21.542C88.0787 21.8043 88.776 22.2561 88.8633 22.4456C89.0085 22.7522 89.1103 22.781 89.1824 22.781C89.4291 22.781 89.8214 22.4896 89.8214 22.2264C89.8214 22.1394 89.7489 22.0372 89.691 21.9932C89.4146 21.7894 89.2697 21.3515 89.1538 21.0598C89.092 21.0605 89.0317 21.0409 88.9819 21.0041C88.9322 20.9673 88.8958 20.9152 88.8781 20.8558C88.8195 20.6659 88.7902 19.9806 88.6746 19.6456C88.4852 19.6016 88.3985 19.5288 88.3985 19.1346C88.3985 18.945 88.5145 18.2012 88.5145 17.9389C88.4269 17.9389 88.3109 17.8804 88.3109 17.7054C88.3109 17.2394 88.776 16.8742 88.9068 16.2769C89.7344 16.8891 89.9377 17.5159 89.9377 18.0702C89.9377 18.3613 89.8939 18.6384 89.8359 18.9014C90.4465 18.5951 91.3608 18.1433 91.3608 17.2248C91.3608 16.6854 91.1138 16.0877 89.4723 15.8539C89.9808 15.6644 90.6204 15.5622 91.1576 15.5622C92.0871 15.5622 92.6246 15.8539 92.7412 16.5098C92.9293 16.219 93.0745 15.8833 93.0745 15.5771C93.0745 14.862 92.48 14.3963 91.7238 14.3963C90.8381 14.3963 90.0533 14.8623 89.2104 15.4312C89.5885 14.644 89.85 14.1774 90.3151 14.1774C90.3876 14.1774 90.46 14.1913 90.5325 14.2061C90.3589 13.5642 89.7055 12.9367 89.3567 12.9367ZM80.0901 3.84987C80.0901 4.14125 78.986 5.11926 78.5941 5.11926C78.4489 5.11926 78.4054 4.94397 78.4054 4.78389C78.4054 4.49184 78.5358 4.08337 78.6955 3.95173C78.8843 3.77677 79.3203 3.69012 79.6543 3.69012C79.8582 3.69045 80.0901 3.73311 80.0901 3.84987ZM113.83 23.4521C114.556 23.4521 115.137 24.4003 115.137 25.5093C115.137 26.6898 114.585 27.9744 113.599 28.8482C113.584 26.8799 111.186 27.5074 111.186 26.0775C111.186 25.4653 111.622 25.0565 112.146 25.0565C112.61 25.0565 112.974 25.1882 113.235 25.4508C112.974 25.2031 112.842 24.8528 112.842 24.5171C112.842 23.9628 113.191 23.4521 113.83 23.4521ZM103.053 8.53221C102.937 8.34237 102.501 8.2405 102.297 8.2405C101.659 8.2405 101.223 8.69296 101.136 9.10109C101.071 8.94366 101.036 8.77553 101.033 8.60531C101.033 7.963 101.469 7.17583 102.529 7.17583C103.46 7.17583 103.823 7.67162 103.953 7.67162C104.098 7.67162 104.244 7.52576 104.359 7.52576C104.519 7.52576 104.519 7.77382 104.519 7.94878C104.519 8.53254 104.258 9.53834 103.605 9.90348C103.488 9.65509 103.256 9.37859 102.879 9.20296C102.835 9.18604 102.798 9.15603 102.772 9.11703C102.746 9.07802 102.732 9.03192 102.733 8.985C102.733 8.82426 102.879 8.61953 103.053 8.53221ZM100.86 9.59688C101.238 9.96136 101.571 10.1218 101.978 10.1218C102.137 10.1218 102.327 10.0778 102.429 10.0778C102.559 10.0778 102.646 10.1363 102.646 10.2382C102.646 10.3989 102.501 10.6615 102.326 10.8074C102.501 10.8805 102.69 10.9093 102.893 10.9093C103.72 10.9093 104.665 10.3841 104.665 9.07199C104.839 9.3045 104.941 9.78607 104.941 10.0047C104.941 11.5942 103.778 12.2071 102.705 12.2071C102.007 12.2071 101.659 11.9739 101.571 11.9739C101.296 11.9739 101.31 12.5279 101.121 12.5134C100.787 12.4555 100.483 11.711 100.483 10.9238C100.482 10.4571 100.598 9.96136 100.86 9.59688ZM90.766 5.35277C90.766 5.86278 92.5814 8.35725 92.9296 8.35725C93.2198 8.35725 93.4378 7.84658 93.4378 7.40868C93.4378 7.29258 93.4088 7.17583 93.3508 7.08851C93.089 6.7237 91.2442 5.26512 90.8385 5.26512C90.795 5.26545 90.766 5.30911 90.766 5.35277ZM111.723 4.15613C111.723 3.12124 109.255 2.85862 109.255 2.62479C109.255 2.43527 110.634 2.11412 111.347 2.09923C110.256 0.699855 108.703 0.845714 108.703 0.597656C108.703 0.451466 109.866 0.159088 110.939 0.159088C111.84 0.159088 112.683 0.363819 112.683 1.04945C112.683 1.42882 112.378 1.82306 112.378 2.40583C112.378 2.72666 112.537 3.00415 112.959 3.00415C113.41 3.00415 113.511 2.52259 113.511 2.01192C113.511 1.58989 113.439 1.2684 113.439 1.06434C113.439 0.451466 113.859 0.0433277 114.454 0.0433277C114.948 0.0433277 115.064 0.261619 115.791 0.261619C115.399 0.495125 115.253 0.918478 115.253 1.12255C115.253 1.73542 115.646 2.15811 115.646 3.41295C115.646 5.71692 113.497 6.53386 110.867 6.53386C110.14 6.53386 109.372 6.47531 108.616 6.35856C108.5 6.34401 108.471 6.31523 108.471 6.24214C108.471 6.05229 109.502 5.95042 109.502 5.01673C109.502 4.65225 109.385 4.30166 109.385 4.17069C109.385 4.15523 109.388 4.1399 109.394 4.12559C109.4 4.11129 109.408 4.09829 109.419 4.08738C109.43 4.07647 109.443 4.06786 109.457 4.06206C109.472 4.05626 109.487 4.05338 109.502 4.0536C109.72 4.0536 110.155 4.90031 110.968 4.90031C111.186 4.90064 111.723 4.82755 111.723 4.15613ZM114.177 2.68333C114.177 3.9815 113.235 4.9734 111.535 5.2509C111.723 5.26545 111.899 5.26545 112.073 5.26545C114.062 5.26545 114.788 4.36087 114.788 3.6028C114.788 3.17945 114.556 2.80041 114.177 2.68333ZM112.799 14.4105C112.799 14.1039 112.029 14.0748 111.956 13.2139C111.941 13.0829 111.898 12.8494 111.738 12.8494C111.477 12.8494 111.679 13.6515 111.389 13.6515C110.72 13.6515 110.503 12.3394 110.256 12.3394C110.198 12.3394 110.126 12.3831 110.126 12.558C110.126 12.7184 110.155 12.8206 110.155 13.0098C110.155 13.199 110.111 13.3307 109.938 13.3307C109.546 13.3307 109.197 12.4118 108.863 12.4118C108.79 12.4118 108.718 12.4562 108.718 12.5286C108.718 12.7042 109.008 13.0241 109.008 13.1845C109.008 13.5351 108.063 13.3445 108.063 13.6369C108.063 13.7686 108.195 13.8122 108.369 13.8122C108.675 13.8122 109.154 13.6806 109.4 13.6806C109.546 13.6806 109.764 13.7103 109.764 13.8995C109.764 14.1039 109.241 14.3669 109.241 14.5561C109.241 14.644 109.328 14.687 109.4 14.687C109.792 14.687 110.489 14.0021 110.983 14.0021C111.07 14.0021 111.289 14.0461 111.289 14.1774C111.289 14.3669 110.794 14.7016 110.794 14.9788C110.794 15.0518 110.838 15.1395 110.925 15.1395C111.186 15.1395 111.535 14.4539 112.029 14.4539C112.218 14.4539 112.494 14.5273 112.639 14.5273C112.756 14.5273 112.799 14.4539 112.799 14.4105ZM102.399 3.28165C102.399 3.12124 101.833 2.81464 101.833 2.64C101.833 2.61057 101.862 2.59601 101.905 2.59601C102.064 2.59601 102.34 2.65422 102.559 2.65422C102.747 2.65422 102.776 1.83828 102.922 1.83828C103.024 1.83828 103.198 2.61057 103.358 2.61057C103.546 2.61057 103.894 2.39161 104.04 2.39161C104.069 2.39161 104.098 2.40617 104.098 2.4356C104.098 2.53813 103.735 2.93139 103.735 3.04847C103.735 3.17978 104.549 3.34019 104.549 3.45727C104.549 3.6028 103.72 3.58858 103.72 3.71889C103.72 3.82109 104.025 4.22923 104.025 4.3612C104.025 4.3903 104.011 4.40485 103.982 4.40485C103.866 4.40485 103.416 4.20045 103.285 4.20045C103.126 4.20045 102.864 4.79877 102.733 4.79877C102.689 4.79877 102.66 4.7399 102.66 4.66713L102.631 4.0837C102.631 4.02516 102.602 3.96695 102.529 3.96695C102.355 3.96695 102.021 3.95207 101.919 3.95207C101.847 3.95207 101.818 3.93751 101.818 3.90808C101.819 3.79165 102.399 3.38352 102.399 3.28165ZM105.232 6.05262C104.214 6.05262 103.547 5.54195 103.547 5.28C103.547 5.1487 103.634 5.06105 103.749 5.06105C104.07 5.06105 104.767 5.55618 104.999 5.55618C105.057 5.55618 105.101 5.5274 105.101 5.44008C105.101 5.1778 104.854 4.7399 104.854 4.52128C104.854 4.46307 104.898 4.41908 104.985 4.41908C105.376 4.41908 105.958 4.57982 106.263 4.57982C106.366 4.57982 106.394 4.52095 106.394 4.46273C106.394 4.14125 105.45 3.51482 105.45 3.3253C105.45 3.15034 106.625 2.88773 106.625 2.61023C106.625 2.31852 105.028 2.52259 105.028 2.24509C105.028 2.04102 105.333 1.69143 105.333 1.53135C105.333 1.45792 105.275 1.42915 105.173 1.42915C105.043 1.42915 104.345 1.70631 104.055 1.70631C103.91 1.70631 103.735 1.67721 103.735 1.47281C103.735 1.13743 104.302 0.772289 105.188 0.772289C106.625 0.772289 107.483 1.76452 107.483 3.4275C107.483 5.5274 106.016 6.05262 105.232 6.05262ZM95.3991 31.2858C95.3991 31.4164 95.355 31.5626 95.2387 31.7081C95.0797 31.4161 94.6284 31.2702 94.4265 31.2702C92.9296 31.2702 93.4964 33.4432 91.8983 33.4432C91.2301 33.4432 91.1714 33.3556 90.9257 33.3556C90.8236 33.3556 90.7657 33.3996 90.7657 33.4865C90.7657 33.8656 91.3029 34.8003 92.7985 34.8003C94.2958 34.8003 95.7325 33.8808 95.7325 32.742C95.7295 32.5359 95.6849 32.3324 95.6014 32.1441C95.66 32.0564 95.8049 31.9982 95.9353 31.9982C96.1682 31.9982 96.299 32.2611 96.5167 32.2611C96.7492 32.2611 96.9231 32.0862 96.9231 31.8543C96.9231 31.6645 96.8213 31.5332 96.6468 31.4449C96.7634 31.3579 96.8503 31.212 96.8503 31.0519C96.8503 30.8035 96.6757 30.5704 96.3862 30.5704C96.2551 30.5704 96.1682 30.6144 96.0668 30.7159C96.0374 30.4533 95.8925 30.2052 95.6162 30.2052C95.3991 30.2052 95.2387 30.366 95.2387 30.614C95.2387 30.8472 95.3991 31.0367 95.3991 31.2858ZM91.4916 31.8394C91.0562 31.8394 90.403 31.3724 90.403 31.1098C90.403 30.8909 90.6066 30.7741 90.766 30.7741C91.1293 30.7741 91.7824 31.2266 91.7824 31.6059C91.7824 31.7081 91.7096 31.8394 91.4916 31.8394ZM87.4394 28.571C88.6021 28.8631 89.1824 29.4902 89.2987 30.2343C89.415 30.9494 89.5599 31.5335 89.8362 31.8249C90.1995 32.2317 90.9116 32.5965 91.5354 32.5965C92.0584 32.5965 92.4803 32.4222 92.4803 31.942C92.4803 31.4164 91.7683 30.2347 90.7222 30.2347C90.6208 30.2347 90.4897 30.2496 90.3448 30.2496C90.214 30.2496 90.0246 30.2201 89.9083 30.1182C89.6755 29.9145 89.6034 28.8197 89.1673 28.1645C88.6887 27.4349 88.1657 27.2308 87.4539 27.2308C86.9454 27.2308 86.3792 27.508 86.3792 27.9165C86.3796 28.1639 86.5103 28.3379 87.4394 28.571ZM94.7305 26.7926C94.7305 26.1364 93.3801 26.1215 93.3801 25.13C93.3801 24.8819 93.5392 24.4585 93.86 24.0061C93.9901 24.7648 94.2961 25.1587 94.9486 25.4068C96.241 25.8877 96.4155 26.6167 96.4155 27.3906C96.4155 28.7023 95.5006 30.3369 93.1479 30.3369C91.2594 30.3369 89.9087 28.6441 89.9087 27.2153C89.9087 26.8214 90.0104 26.3835 90.2578 26.3835C90.4752 26.3835 90.548 26.5584 90.7225 26.7337C91.3757 27.3903 92.0877 27.5652 93.1186 27.5652C94.0484 27.5656 94.7305 27.1865 94.7305 26.7926ZM94.7885 27.8431C94.281 28.0468 94.0922 28.0319 94.0922 28.5416C94.0922 28.7314 94.0488 28.9795 94.0488 29.1108C94.0488 29.2861 94.0777 29.3883 94.2813 29.3883C94.8033 29.3883 95.631 28.4986 95.631 27.7405C95.631 27.5365 95.5154 27.4491 95.385 27.4491C95.2681 27.4491 95.1373 27.6823 94.7885 27.8431ZM90.1557 20.4764C90.1557 19.5434 92.3637 19.0472 92.3637 17.8953C92.3637 17.7057 92.2909 17.371 92.1602 17.1226C92.9296 17.545 93.4964 18.2604 93.4964 18.8432C93.4964 19.85 92.451 20.316 92.451 20.9434C92.451 21.6734 93.5692 21.7898 93.5692 22.694C93.5692 23.4379 92.509 24.2981 92.509 25.2613C92.509 26.0044 93.0307 26.617 93.8304 26.7195C93.5692 26.7781 93.3363 26.8217 93.0893 26.8217C91.6227 26.8217 90.1119 25.6109 90.1119 24.1672C90.1119 23.4524 90.4175 22.8253 90.8823 22.3732C91.2884 22.7231 91.6955 22.957 91.9563 22.957C92.1892 22.957 92.2909 22.8399 92.2909 22.6653C92.2909 22.1245 90.1557 21.6294 90.1557 20.4764ZM93.1509 51.6798C93.5616 51.6798 94.2668 51.5459 94.8221 50.6522C94.5049 49.9454 94.2783 48.5133 94.246 47.9927C94.0827 45.3292 95.105 42.8235 96.2239 42.7547C97.0443 42.7054 97.7004 43.485 97.7758 44.7454C97.9784 48.0664 96.8757 49.4526 96.326 50.6462C96.4188 51.1113 97.2007 51.9001 97.9408 51.9001C98.2142 51.9001 98.5436 51.7632 98.6259 51.6517C98.5498 51.3933 98.5125 51.125 98.5152 50.8556C98.5152 48.9326 99.7484 47.3087 100.815 47.3087C101.665 47.3087 102.155 48.4355 102.155 49.1804C102.155 50.0582 101.416 50.7739 100.322 51.4612C100.515 51.6517 100.869 51.7906 101.172 51.7906C102.732 51.7906 103.552 49.8951 104.155 48.161C104.264 47.8313 104.457 47.3643 104.839 47.3643C105.496 47.3643 105.771 51.7069 106.864 51.7069C107.33 51.7069 107.712 50.7448 107.712 50.0049C107.712 49.4546 107.521 49.3997 107.521 48.6012C107.521 47.7228 107.986 46.9803 108.617 46.9803C108.999 46.9803 109.137 47.3646 109.137 47.8316C109.137 49.5915 107.878 52.8629 106.017 52.8629C104.62 52.8629 104.728 50.4418 104.238 50.4418C103.689 50.4418 102.922 52.891 100.213 52.891C99.7737 52.891 99.3093 52.6711 98.9273 52.2288C98.2699 52.6711 97.7211 52.8629 97.0914 52.8629C96.0796 52.8629 95.6412 51.8174 95.2318 51.8174C94.7381 51.8174 94.1927 52.891 92.5488 52.891C91.234 52.891 91.0153 51.1321 90.5513 51.1321C90.1402 51.1321 89.5108 52.891 88.8271 52.891C87.6749 52.891 87.4309 49.8399 86.4174 49.8399C85.623 49.8399 83.1156 52.938 82.4341 52.8672C82.1604 52.8381 82.0458 52.633 82.0745 52.3575C82.113 51.9775 82.4384 50.9598 82.5718 50.4769C82.7931 49.6428 82.9964 48.7246 83.1097 48.4326C83.222 48.1382 83.5273 47.9282 83.77 47.9507C83.8929 47.9626 83.9298 48.1928 83.968 48.382C84.1053 49.0639 84.2996 49.7562 84.5177 49.7562C84.9017 49.7562 86.1721 47.3087 86.9102 47.3087C87.8143 47.3087 87.9233 51.1582 89.1548 51.1582C89.5658 51.1582 89.8685 50.6631 90.1409 50.0585C90.1689 49.0401 90.4419 47.5852 91.263 47.5852C91.8391 47.5852 92.1124 48.8754 91.7007 50.0046C91.7004 51.3494 92.5758 51.6798 93.1509 51.6798ZM113.571 49.0967C113.571 48.4097 112.942 47.4466 112.011 47.4466C110.78 47.4466 109.577 48.7937 109.577 50.6628C109.577 52.338 110.614 52.8903 111.654 52.8903C113.461 52.8903 114.557 51.403 115.132 50.1676C115.406 50.9922 115.568 52.8903 116.254 52.8903C116.527 52.8903 116.719 52.7524 117.049 52.0099C117.868 50.1676 118.662 48.0512 119.758 48.0512C120.167 48.0512 119.922 48.7937 120.907 48.7937C121.373 48.7937 121.7 48.4097 121.7 47.9675C121.7 47.3355 121.126 46.8413 120.249 46.8413C117.678 46.8413 117.131 50.718 116.719 50.718C116.035 50.718 116.254 47.612 115.761 47.612C115.323 47.612 115.103 48.1349 115.049 48.381C114.692 49.8104 113.681 51.873 112.147 51.873C111.791 51.873 111.162 51.735 111.162 51.3775C111.162 50.9922 113.571 50.9389 113.571 49.0967ZM96.8892 45.4879C96.8421 44.7206 96.6563 44.374 96.2466 44.4014C95.7008 44.4352 95.4495 46.1567 95.5602 47.9662C95.631 49.148 95.8059 49.3289 95.9696 49.318C96.2713 49.3001 96.9939 47.19 96.8892 45.4879ZM92.4385 43.8749C92.4125 43.4337 92.0568 43.1321 91.5914 43.1321C91.071 43.1321 90.577 43.6814 90.6339 44.3684C90.6339 44.7801 90.934 45.1932 91.4557 45.1932C92.0571 45.1932 92.4948 44.5076 92.4385 43.8749ZM100.953 49.481C100.953 49.0153 100.706 48.6287 100.405 48.6287C100.158 48.6287 99.5847 48.9035 99.5847 49.783C99.5847 50.4703 99.8297 50.799 99.941 50.9389C100.733 50.6902 100.953 50.0301 100.953 49.481ZM111.654 48.5477C112.23 48.5477 112.395 49.233 112.258 49.6461C112.12 50.0578 111.629 50.5248 110.861 50.6624C110.697 50.2493 110.614 48.5477 111.654 48.5477ZM74.0058 48.9872C73.9784 47.8581 74.0334 46.7322 74.4995 45.1383C74.7452 44.2877 74.9652 43.9834 75.7303 43.82C76.3324 43.7095 76.2787 44.3406 76.142 45.0834C75.8413 46.7319 75.7023 47.529 75.8133 49.399C75.9207 51.3772 76.8258 52.1475 77.8102 52.1475C79.2884 52.1756 79.9458 50.9393 80.2192 49.1516C80.4372 47.7221 80.2729 47.0335 80.1358 46.5953C80.0545 46.3479 79.8355 45.7975 79.7531 45.3864C79.6444 44.3409 80.1358 43.8484 80.5476 43.7099C81.0406 43.5716 81.233 43.8203 81.423 44.3981C81.6703 45.2769 81.6977 46.4296 81.615 48.078C81.506 50.3314 80.3832 53.0554 77.5915 52.9991C75.1826 52.9456 74.1168 51.3775 74.0058 48.9872Z" fill="#646565"/>
</svg>
