<svg width="196" height="53" viewBox="0 0 196 53" fill="none" xmlns="http://www.w3.org/2000/svg">
<path d="M112.945 10.8368C113.136 12.2223 115.256 14.0894 115.83 14.0457C116.214 14.0457 116.361 12.2369 116.361 10.8368C116.361 10.0345 116.406 9.40703 115.978 9.26117C115.301 10.6182 113.519 10.8954 112.945 10.8368ZM113.063 10.224C114.593 10.224 115.993 9.01378 115.993 7.94878C115.993 7.45266 115.757 7.04486 115.153 6.97209C115.256 7.1034 115.301 7.2056 115.301 7.43811C115.301 8.24083 114.065 9.13086 112.724 9.13086C112.238 9.13086 112.091 9.46557 112.091 9.64054C112.091 10.049 112.488 10.224 113.063 10.224ZM112.739 8.5762C112.534 8.5762 112.238 8.5762 112.077 8.25538C111.944 7.99277 111.988 7.56975 111.738 7.3799C111.988 7.45266 112.253 7.45266 112.459 7.45266C113.122 7.45266 113.755 7.0012 114.241 7.0012C114.565 7.0012 114.667 7.2056 114.667 7.40901C114.667 8.05065 113.358 8.5762 112.739 8.5762ZM79.8059 20.0104C80.3057 20.0104 80.2019 16.9768 81.0121 16.9768C81.2041 16.9768 81.2629 17.1666 81.2629 17.3995C81.2629 18.0851 80.924 19.0916 80.924 19.6459C80.924 19.9227 80.9978 20.0104 81.13 20.0104C81.4839 20.0104 82.1019 16.6705 82.7058 16.6705C82.8971 16.6705 82.9852 16.86 82.9852 17.0499C82.9852 17.7494 82.0872 19.7623 82.0872 20.3305C82.0872 20.4182 82.1169 20.4909 82.19 20.4909C82.5586 20.4909 83.2951 18.9159 83.5304 18.1288C83.6626 17.7203 83.8392 17.5017 84.0008 17.5017C84.1481 17.5017 84.2806 17.6624 84.2806 17.9975C84.2806 18.785 83.5451 20.6375 82.8968 21.8771C82.396 22.8392 81.6161 24.2254 81.6161 24.9987C81.6161 25.3922 81.6902 25.8004 82.2634 26.2965C81.3213 26.2383 80.939 26.151 80.5851 25.4217C79.0097 28.5274 83.4857 28.2224 81.9546 30.9785C81.6755 30.4827 79.4667 29.9721 79.4667 27.0847C79.4667 24.5899 81.6755 23.1316 81.6755 22.096C81.6755 21.892 81.6014 21.717 81.4104 21.5569C80.924 21.1485 80.9097 20.8128 80.5267 20.8128C80.2473 20.8128 79.9088 21.4547 80.2616 22.0229C80.3795 22.2125 80.483 22.3295 80.483 22.5048C80.483 22.9133 79.8356 24.0068 79.3789 24.0068C78.9225 24.0068 78.569 22.8842 78.569 21.0757C78.569 19.4709 78.9369 17.8526 79.3936 17.8526C79.5258 17.8526 79.5702 17.9399 79.5702 18.0567C79.5702 18.2462 79.5111 18.6245 79.5111 19.2669C79.5108 19.9518 79.6731 20.0104 79.8059 20.0104ZM102.359 5.67293C102.595 5.67293 102.64 6.24247 102.683 6.57785C102.713 6.75281 102.742 6.76769 102.816 6.76769C102.993 6.76769 103.273 6.09628 103.463 6.09628C103.744 6.09628 104.495 6.86989 105.746 6.86989C107.527 6.86989 109.206 5.6296 109.206 3.44206C109.206 1.32695 107.704 0.0869859 105.628 0.0869859C104.641 0.0869859 103.92 0.568219 103.537 0.568219C103.302 0.582772 102.948 0 102.771 0C102.697 0 102.625 0.145197 102.625 0.393255C102.625 0.553667 102.625 1.06467 102.447 1.06467C102.094 1.06467 100.725 0.0575495 100.725 0.422691C100.725 0.758397 101.638 1.77974 101.638 2.04169C101.638 2.30463 100.74 2.55235 100.74 2.72732C100.74 3.04847 101.698 3.10668 101.698 3.51515C101.698 3.92296 100.695 4.24411 100.695 4.55071C100.695 4.79877 101.698 4.62348 101.698 4.93008C101.698 5.23635 100.961 6.25669 100.961 6.54874C100.961 6.62216 100.976 6.62216 101.035 6.62216C101.314 6.62183 102.154 5.67293 102.359 5.67293ZM83.4713 27.2302C83.4563 26.9385 83.6626 26.661 83.9714 26.6319C84.2806 26.5879 84.5607 26.8214 84.5898 27.1277C84.6198 27.4343 84.3985 27.6972 84.089 27.7405C83.7805 27.7557 83.501 27.5365 83.4713 27.2302ZM81.8374 27.6823C81.8965 28.1784 82.3669 28.5565 82.8971 28.4986C83.0884 28.4837 83.2657 28.4255 83.3829 28.3521C83.501 28.8194 83.8683 29.1111 84.4131 29.0526C84.958 29.0093 85.3413 28.5565 85.2822 28.018C85.2822 27.8725 85.2381 27.7848 85.194 27.6823L85.2972 27.6678C85.812 27.6096 86.2093 27.1425 86.1649 26.6319C86.1065 26.1063 85.621 25.7273 85.1202 25.7709C84.9286 25.8149 84.7667 25.8728 84.6492 25.975C84.5163 25.5381 84.1334 25.1878 83.5892 25.2464C83.0737 25.2755 82.6758 25.7709 82.7348 26.3104C82.7348 26.3838 82.7639 26.5006 82.8086 26.6024L82.7055 26.6167C82.19 26.6898 81.793 27.1134 81.8374 27.6823ZM114.638 0.933361C114.638 0.9814 114.647 1.02907 114.665 1.07357C114.683 1.11807 114.71 1.1585 114.745 1.19249C114.779 1.22647 114.82 1.25333 114.865 1.27148C114.909 1.28963 114.958 1.2987 115.006 1.29817C115.212 1.29817 115.375 1.13809 115.375 0.933361C115.375 0.728961 115.212 0.568219 115.006 0.568219C114.799 0.568219 114.638 0.728961 114.638 0.933361ZM106.424 14.7598C106.424 15.0955 106.703 15.3727 107.041 15.3727C107.205 15.3717 107.362 15.3068 107.477 15.1921C107.593 15.0774 107.659 14.922 107.66 14.7598C107.658 14.5977 107.593 14.4425 107.477 14.3279C107.361 14.2133 107.205 14.1484 107.041 14.1473C106.703 14.1473 106.424 14.4251 106.424 14.7598ZM106.467 16.5971C106.467 16.6871 106.485 16.7762 106.52 16.8594C106.554 16.9426 106.605 17.0182 106.669 17.0819C106.734 17.1456 106.81 17.1961 106.894 17.2306C106.978 17.2652 107.068 17.283 107.158 17.283C107.249 17.2831 107.339 17.2655 107.423 17.2311C107.507 17.1968 107.583 17.1464 107.648 17.0828C107.712 17.0192 107.763 16.9437 107.798 16.8606C107.833 16.7775 107.851 16.6884 107.851 16.5984C107.851 16.4167 107.778 16.2423 107.649 16.1136C107.519 15.985 107.343 15.9126 107.16 15.9124C106.976 15.9123 106.8 15.9843 106.67 16.1127C106.541 16.2411 106.468 16.4153 106.467 16.5971ZM104.347 17.837C104.348 18.1038 104.455 18.3596 104.645 18.5482C104.836 18.7369 105.094 18.8431 105.363 18.8435C105.632 18.8427 105.89 18.7364 106.081 18.5478C106.271 18.3592 106.378 18.1037 106.379 17.837C106.378 17.5705 106.271 17.315 106.08 17.1265C105.89 16.938 105.632 16.8319 105.363 16.8313C105.094 16.8315 104.836 16.9375 104.645 17.1261C104.455 17.3146 104.348 17.5703 104.347 17.837ZM104.892 15.7811C104.892 16.1026 105.157 16.3649 105.481 16.3649C105.805 16.3649 106.07 16.1026 106.07 15.7811C106.07 15.4603 105.805 15.1977 105.481 15.1977C105.157 15.1977 104.892 15.4603 104.892 15.7811ZM102.963 16.9477C102.963 17.1025 103.025 17.251 103.135 17.3605C103.246 17.4699 103.395 17.5314 103.552 17.5314C103.708 17.5314 103.858 17.4699 103.968 17.3605C104.079 17.251 104.141 17.1025 104.141 16.9477C104.136 16.7963 104.072 16.6527 103.962 16.5474C103.852 16.4421 103.705 16.3832 103.552 16.3832C103.399 16.3832 103.252 16.4421 103.142 16.5474C103.032 16.6527 102.968 16.7963 102.963 16.9477ZM104.48 13.5351C104.481 13.7821 104.581 14.0187 104.758 14.1934C104.934 14.3682 105.173 14.4671 105.422 14.4687C105.671 14.467 105.91 14.3681 106.086 14.1933C106.263 14.0186 106.363 13.7821 106.364 13.5351C106.363 13.288 106.263 13.0515 106.086 12.8768C105.91 12.7021 105.671 12.6033 105.422 12.6017C105.173 12.6033 104.934 12.7021 104.758 12.8768C104.581 13.0515 104.481 13.288 104.48 13.5351ZM105.584 11.7408C105.582 11.8147 105.595 11.8882 105.623 11.9571C105.65 12.0259 105.691 12.0886 105.743 12.1416C105.795 12.1946 105.857 12.2367 105.926 12.2654C105.995 12.2942 106.069 12.3091 106.143 12.3091C106.218 12.3092 106.292 12.2945 106.36 12.2658C106.429 12.2372 106.492 12.1952 106.544 12.1423C106.596 12.0894 106.637 12.0268 106.664 11.958C106.692 11.8892 106.705 11.8157 106.703 11.7418C106.7 11.5971 106.639 11.4596 106.535 11.3584C106.43 11.2573 106.29 11.2006 106.144 11.2005C105.998 11.2003 105.858 11.2568 105.753 11.3577C105.649 11.4587 105.588 11.5961 105.584 11.7408ZM102.919 13.1408C102.919 13.2879 102.978 13.429 103.083 13.533C103.188 13.637 103.33 13.6955 103.479 13.6955C103.627 13.6955 103.77 13.637 103.875 13.533C103.98 13.429 104.039 13.2879 104.039 13.1408C104.039 12.8342 103.788 12.5871 103.478 12.5871C103.169 12.5871 102.919 12.8342 102.919 13.1408ZM102.845 15.037C102.845 15.5331 103.243 15.9273 103.744 15.9273C103.862 15.9279 103.979 15.9053 104.089 15.8608C104.198 15.8162 104.297 15.7507 104.38 15.6678C104.464 15.585 104.53 15.4866 104.575 15.3783C104.62 15.27 104.642 15.154 104.641 15.037C104.642 14.92 104.62 14.804 104.575 14.6958C104.53 14.5875 104.464 14.4892 104.38 14.4064C104.297 14.3237 104.198 14.2581 104.088 14.2137C103.979 14.1692 103.862 14.1466 103.744 14.1473C103.626 14.1465 103.509 14.1689 103.399 14.2134C103.29 14.2578 103.191 14.3233 103.107 14.406C103.023 14.4888 102.957 14.5872 102.912 14.6955C102.867 14.8038 102.844 14.9199 102.845 15.037ZM100.991 15.971C100.991 16.4234 101.373 16.8021 101.83 16.8021C102.286 16.8021 102.669 16.4234 102.669 15.971C102.669 15.5189 102.286 15.1395 101.83 15.1395C101.373 15.1395 100.991 15.5189 100.991 15.971ZM101.491 13.9144C101.491 14.2352 101.756 14.4982 102.08 14.4982C102.236 14.4975 102.386 14.4357 102.496 14.3264C102.606 14.217 102.668 14.0689 102.669 13.9144C102.669 13.5933 102.404 13.3307 102.08 13.3307C101.924 13.331 101.775 13.3926 101.664 13.502C101.554 13.6114 101.491 13.7597 101.491 13.9144ZM99.5332 35.4135C99.5332 35.733 99.7979 35.9952 100.122 35.9952C100.445 35.9952 100.71 35.733 100.71 35.4135C100.71 35.2588 100.648 35.1106 100.538 35.0011C100.428 34.8916 100.278 34.8297 100.122 34.829C99.7979 34.829 99.5332 35.0913 99.5332 35.4135ZM83.6927 11.2446C83.6927 11.5658 83.9571 11.8284 84.2806 11.8284C84.4368 11.8281 84.5865 11.7665 84.697 11.6571C84.8075 11.5477 84.8697 11.3994 84.8702 11.2446C84.8695 11.0901 84.8071 10.942 84.6966 10.8329C84.5862 10.7237 84.4366 10.6622 84.2806 10.6619C83.9571 10.6619 83.6927 10.9245 83.6927 11.2446ZM82.9265 9.93225C82.9269 10.087 82.9892 10.2353 83.0997 10.3447C83.2102 10.4541 83.3599 10.5157 83.5161 10.516C83.8392 10.516 84.1037 10.2534 84.1037 9.93225C84.1037 9.61143 83.8392 9.34849 83.5161 9.34849C83.3599 9.34884 83.2102 9.41045 83.0997 9.51984C82.9892 9.62923 82.9269 9.77751 82.9265 9.93225ZM83.5598 24.2836C84.1778 24.2836 84.6936 23.8311 84.6936 22.8253V21.338C84.6936 20.7688 84.737 20.1265 85.1202 19.675C85.0762 19.8648 85.0762 20.0689 85.0762 20.2578C85.0762 21.5126 85.7826 22.3732 85.7826 23.5844C85.7826 24.0359 85.6504 24.2839 85.2972 24.2839C84.958 24.2839 84.9877 23.9776 84.9143 23.9776C84.8555 23.9776 84.767 24.1672 84.767 24.3709C84.767 24.6778 84.988 25.1591 85.6067 25.1591C86.1362 25.1591 86.5632 24.6778 86.5632 24.1377C86.5632 22.8257 85.5336 21.3674 85.5336 19.967C85.5336 19.3542 85.6941 18.946 85.827 18.6245C85.827 21.5278 88.3153 23.6429 88.3153 24.8531C88.3153 25.1303 88.1093 25.3492 87.7998 25.3492C87.4619 25.3492 87.2997 25.0866 87.2997 24.8822C87.2997 24.7797 87.285 24.7509 87.2409 24.7509C87.1524 24.7509 86.887 25.0426 86.887 25.422C86.887 25.9026 87.2846 26.4863 88.0208 26.4863C88.8601 26.4863 89.3172 25.7862 89.3172 25.1591C89.3172 23.628 86.2984 21.3082 86.2984 18.8289C86.2984 18.4056 86.3719 17.7206 86.6814 17.1957C84.7373 18.4347 84.134 20.0838 84.134 21.5275C84.134 22.7813 84.0896 23.4088 83.4423 23.4088C83.1038 23.4088 83.0156 23.1025 82.8978 23.1025C82.8093 23.1025 82.7649 23.3654 82.7649 23.4382C82.7639 23.9773 83.1618 24.2836 83.5598 24.2836ZM109.073 9.71363C109.721 9.71363 110.207 9.42159 110.207 9.24662C110.207 9.18808 110.118 9.14541 109.927 9.14541C109.736 9.14541 109.352 9.13086 108.631 9.01378C108.012 8.91191 107.541 8.67873 107.364 8.67873C107.305 8.67873 107.276 8.70751 107.276 8.75117C107.277 9.13053 107.983 9.71363 109.073 9.71363ZM105.864 7.86113C106.055 7.74438 106.879 7.9339 107.955 7.40868C108.071 7.34356 108.202 7.30864 108.336 7.30714C108.853 7.30714 108.72 7.89024 109.192 7.89024C109.56 7.89024 110.031 7.58397 110.311 7.58397C110.751 7.58397 111.385 8.95524 111.385 9.59688C111.385 10.3404 110.252 10.7929 108.912 10.7929C106.953 10.7929 105.776 9.10076 105.776 8.00666C105.776 7.91934 105.82 7.89024 105.864 7.86113ZM83.868 29.7822C83.3825 29.8993 82.6023 30.6577 82.6023 31.8547C82.6023 33.2825 84.1481 35.4859 86.6954 35.4859C88.8451 35.4859 89.3742 34.0121 89.3742 33.0199C89.3742 30.8184 88.0051 29.2715 86.224 29.2715C85.2521 29.2715 84.3834 29.9721 84.3834 31.0076C84.3834 31.9707 85.1196 33.4141 86.8717 33.4141C87.6956 33.4141 88.1817 32.83 88.1817 32.1589C88.1817 31.5041 87.5774 30.5992 86.6947 30.5992C86.4293 30.5992 86.238 30.7741 86.238 31.0516C86.238 31.4015 86.7244 31.7518 87.328 31.7518C87.4753 31.7518 87.5921 31.7227 87.6515 31.6933C87.6809 31.7372 87.6956 31.8103 87.6956 31.8685C87.6956 32.2029 87.3724 32.407 86.8717 32.407C86.1205 32.407 85.3994 31.854 85.3994 30.9782C85.3994 30.453 85.8551 30.0733 86.5184 30.0733C87.8278 30.0733 88.6087 31.2266 88.6087 32.3776C88.6087 33.4141 88.0341 34.0118 86.857 34.0118C84.5016 34.0121 83.3535 31.9122 83.868 29.7822ZM82.3963 13.929C82.0575 14.0166 81.3513 14.4251 81.3513 15.1537C81.3513 15.6793 81.7633 16.015 82.2785 16.015C82.5435 16.015 82.7352 15.9561 82.8527 15.8688C82.4404 15.4752 82.2932 15.0373 82.2932 14.6004C82.2932 14.2938 82.3372 14.1039 82.3963 13.929ZM78.7893 14.133C78.7746 14.2058 78.7746 14.2789 78.7746 14.3517C78.7746 15.037 79.1429 15.4163 79.6293 15.4163C79.9969 15.4163 80.4239 15.1974 80.8065 14.7158C80.6315 14.7454 80.4542 14.76 80.2767 14.7595C79.7315 14.7598 79.1429 14.6146 78.7893 14.133ZM78.2745 15.4312C78.2745 16.5395 78.6121 17.0644 79.2167 17.0644C79.6877 17.0644 80.3207 16.7291 81.0719 16.0877C80.4973 16.219 80.0563 16.3064 79.6587 16.3064C79.1282 16.3064 78.7156 16.1023 78.2745 15.4312ZM100.681 38.3296C101.388 38.3296 101.343 38.2711 101.565 38.2711C101.786 38.2711 101.8 38.4024 101.8 38.4897C101.8 38.8112 101.078 39.2045 99.7979 39.2045C99.0461 39.2045 98.5903 38.8112 98.4585 38.3733C97.7213 38.84 96.6032 39.263 95.4998 39.263C92.4814 39.263 91.7152 37.9645 90.7734 37.5411C90.052 37.2203 88.9479 37.8474 87.4025 36.1408C87.6078 36.1844 87.8876 36.199 88.1089 36.199C89.4634 36.199 90.1848 35.5438 90.1848 34.4937C90.1848 34.3624 90.1702 34.2158 90.1555 34.0852C90.5681 34.2453 91.5099 34.9461 91.7303 36.1848C91.76 36.3306 92.3636 36.4619 92.7469 36.4619C93.2764 36.4619 93.9537 36.243 94.0569 35.3834C95.8237 35.2382 97.0152 34.2016 97.2656 32.8886C97.8989 33.093 98.6194 33.6618 98.7967 33.9539C99.0464 33.8659 99.3412 33.8226 99.68 33.8226C100.151 33.8226 100.681 33.9102 101.314 34.1001C101.344 33.9102 101.374 33.6767 101.668 33.6767C102.11 33.6767 101.992 34.1583 102.139 34.4355C102.213 34.5813 102.581 34.6686 102.581 34.961C102.581 35.2385 102.345 35.34 102.198 35.34C102.139 35.34 102.065 35.3258 102.021 35.3113C101.727 35.4138 101.712 37.5127 100.475 37.5127C99.5622 37.5127 98.7229 36.7689 98.356 35.8352C98.2525 35.5587 98.0315 35.3837 97.8251 35.3837C97.5891 35.3837 97.4572 35.4284 97.1775 35.7333C96.3832 36.5939 95.0585 37.3377 93.4243 37.3377C92.9238 37.3377 92.5265 37.2944 92.4227 37.2944C92.3639 37.2944 92.3639 37.309 92.3639 37.3235C92.3639 37.4257 92.8647 37.8193 93.9541 37.8193C96.5448 37.8193 97.1775 36.3749 97.5894 36.3749C97.6492 36.3749 97.8255 36.3749 97.9286 36.6084C98.5322 38.0091 99.8426 38.3303 100.667 38.3303H100.681V38.3296ZM92.3192 9.01378C93.29 9.01378 93.7324 9.84494 93.7324 10.7786C93.7324 11.1868 93.6149 11.7848 93.4236 11.7848C93.2319 11.7848 93.2613 11.449 93.2319 11.1424C93.2026 10.7495 93.1288 10.6619 92.9972 10.6619C92.7469 10.6619 92.5849 11.2446 92.5849 11.7848C92.5849 12.1205 92.643 12.4995 92.9084 12.4995C93.055 12.4995 93.1879 12.4264 93.2764 12.3394C93.2173 13.0098 92.7171 13.5933 92.0104 13.5933C90.7143 13.5933 90.2286 12.091 90.0814 11.2159C89.3021 12.0328 88.58 12.6308 87.2843 12.6308C86.0771 12.6308 85.5329 11.7556 85.5329 10.9245C85.5329 10.6761 85.621 10.0345 85.9292 10.0345C86.2978 10.0345 85.9732 11.2304 86.6954 11.2304C86.872 11.2304 87.1958 11.0846 87.3728 10.6037C87.4759 10.3119 87.534 10.0053 87.534 9.74241C87.534 9.34849 87.4462 9.10109 87.1514 9.10109C86.9007 9.10109 86.5916 9.29061 86.4887 9.39215C86.8423 8.34237 87.6956 7.80259 88.6381 7.80259C89.8012 7.80259 90.4199 8.82393 90.4199 9.96136C90.4197 10.1276 90.4048 10.2935 90.3755 10.4571C90.8773 9.64021 91.5687 9.01378 92.3192 9.01378ZM88.6241 0.320491C88.6241 0.232844 88.1827 0.145197 87.5784 0.145197C86.6219 0.145197 86.7548 0.933361 86.0187 0.933361C85.2531 0.933361 85.4444 0.116422 84.4729 0.116422C83.8833 0.116422 83.3395 0.218622 83.3395 0.349928C83.3395 0.524892 84.0309 0.452128 84.0309 0.933691C84.0309 1.44436 82.5442 1.59055 82.5442 1.89583C82.5442 1.99803 82.6621 2.04169 82.8093 2.04169C83.1331 2.04169 83.6489 1.89583 84.0159 1.89583C84.2225 1.89583 84.4138 1.94015 84.4138 2.12966C84.4138 2.49447 83.6196 3.15067 83.6196 3.44272C83.6196 3.5307 83.6933 3.5598 83.7668 3.5598C84.0606 3.5598 84.5617 2.8153 85.0328 2.8153C85.813 2.8153 85.2982 4.46373 85.7242 4.46373C86.1659 4.46373 85.9746 2.84473 86.6079 2.84473C87.1234 2.84473 87.5066 3.96761 87.8595 3.96761C87.9473 3.96761 88.0211 3.89485 88.0211 3.79232C88.0211 3.48671 87.5791 2.85929 87.5791 2.45049C87.5791 2.20243 87.756 2.08567 87.9917 2.08567C88.3306 2.08567 88.7873 2.29007 89.0374 2.29007C89.1259 2.29007 89.214 2.26097 89.214 2.15877C89.214 1.80851 87.9033 1.42981 87.9033 0.97735C87.9026 0.524561 88.6241 0.524561 88.6241 0.320491ZM109.604 29.0384C109.294 29.0384 107.585 31.2997 106.482 31.2997C106.217 31.2997 105.996 30.8036 105.996 30.4245C105.996 30.2201 106.128 30.0736 106.601 29.9724C109.132 29.4032 108.572 27.5222 110.736 27.5222C111.929 27.5222 113.255 28.3253 113.255 30.1331C113.255 32.0574 110.487 34.4507 110.075 34.4507C109.736 34.4507 109.368 33.9688 109.368 33.648C109.368 33.5458 109.412 33.4148 109.707 33.2977C111.119 32.7427 111.929 31.4604 111.929 30.8039C111.929 30.6584 111.856 30.5122 111.664 30.5122C111.413 30.5122 110.34 32.9326 109.148 32.9326C108.322 32.9326 107.483 32.1887 107.483 31.8398C107.483 31.256 109.868 30.1761 109.868 29.3589C109.868 29.0526 109.721 29.0384 109.604 29.0384ZM111.193 28.1344C110.986 28.1344 110.765 28.2955 110.765 28.6878C110.765 29.1257 111.105 29.4028 111.296 29.4902C111.426 29.5633 111.573 29.6034 111.723 29.6069C112.15 29.6069 112.488 29.4902 112.488 29.1399C112.488 28.6878 111.826 28.1344 111.193 28.1344ZM92.0835 1.80818C92.0835 2.07079 93.0116 2.64 93.4379 2.64C93.6883 2.64 93.7621 2.3043 93.7621 1.95371C93.7621 1.51713 93.5701 1.50191 93.1875 1.50191C92.7028 1.50191 92.0835 1.63355 92.0835 1.80818ZM93.6152 4.69624C93.6152 3.82076 91.2014 2.20177 91.2014 1.54623C91.2014 1.51713 91.2014 1.50224 91.2155 1.47314C91.3924 0.991572 93.3942 0.655866 93.3942 0.26195C93.3942 0.0721022 93.0413 0.0721024 92.8647 0.0721024C91.4949 0.0721024 89.4931 0.568219 89.4931 1.05011C89.4931 1.54623 91.2892 2.75676 91.2892 3.35507C91.2892 3.51515 91.1867 3.57402 91.0248 3.57402C90.5244 3.57402 89.434 2.97571 88.9192 2.97571C88.6835 2.97571 88.5957 3.13579 88.5957 3.36929C88.5957 4.06882 89.434 5.39676 89.434 5.79001C89.434 5.83367 89.4193 5.89221 89.3612 5.89221C89.0961 5.89221 87.8445 4.43396 87.4032 4.43396C87.2412 4.43396 87.2262 4.65291 87.2262 4.9734V5.46952C87.2262 5.80456 87.2115 6.00863 87.0496 6.00863C86.6667 6.00863 86.4897 4.9443 86.1218 4.9443C85.7385 4.9443 85.6661 6.84079 85.2979 6.84079C84.8709 6.84079 85.2384 4.75445 84.8258 4.75445C84.3697 4.75445 83.8539 6.14027 83.5311 6.14027C83.4129 6.14027 83.3835 6.02352 83.3835 5.92099C83.3835 5.49896 83.6343 4.81299 83.6343 4.40452C83.6343 4.20012 83.5752 4.0837 83.3982 4.0837C82.9418 4.0837 81.9413 4.81332 81.558 4.81332C81.4992 4.81332 81.4258 4.78422 81.4258 4.72535C81.4258 4.37509 83.0306 3.26709 83.0306 2.77098C83.0306 2.28941 80.8219 2.61024 80.8219 2.05591C80.8219 1.58989 82.397 1.10799 82.397 0.62643C82.397 0.203739 80.5271 0.014553 79.8066 0.014553C78.9372 0.014553 78.4662 0.116091 78.4662 0.36415C78.4662 0.743183 80.4389 0.860266 80.4389 1.19564C80.4389 1.51712 78.3924 2.37706 78.3924 2.87318C78.3924 3.31042 81.2782 2.90162 81.2782 3.35474C81.2782 3.84986 78.7603 5.99375 78.7603 6.70915C78.7603 6.86989 78.8785 6.94266 79.0397 6.94266C79.8063 6.94266 81.7934 5.49896 82.3376 5.49896C82.5289 5.49896 82.5439 5.73147 82.5439 5.93554C82.5439 6.31523 82.4117 6.89834 82.4117 7.32169C82.4117 7.65673 82.4995 7.88991 82.7946 7.88991C83.3391 7.88991 83.8396 6.97143 84.2075 6.97143C84.6792 6.97143 84.3988 9.66898 85.1062 9.66898C85.7088 9.66898 85.9592 6.75248 86.3425 6.75248C86.7258 6.75248 87.0349 7.59786 87.3881 7.59786C87.8292 7.59786 87.6232 6.12473 88.0946 6.12473C88.6097 6.12473 90.0817 7.87502 90.7444 7.87502C90.9507 7.87502 91.0245 7.71428 91.0245 7.51021C91.0245 6.73793 89.9351 4.98763 89.9351 4.43297C89.9351 4.28678 89.9789 4.24312 90.1411 4.24312C90.715 4.24312 92.3936 5.03128 93.1882 5.03128C93.4526 5.03195 93.6152 4.88609 93.6152 4.69624ZM113.712 21.4835C113.947 20.7539 114.241 20.2426 114.726 19.4557C114.241 19.208 112.961 18.6828 112.961 17.8225C112.961 16.8164 114.227 16.0295 114.49 16.0295C114.608 16.0295 114.638 16.1317 114.638 16.3212C114.638 16.8458 114.387 17.6915 114.387 18.1433C114.387 18.5511 114.652 18.9454 114.887 18.9454C115.138 18.9454 115.83 18.0702 115.83 17.2103C115.83 15.6644 114.461 15.1977 114.036 15.1977C113.637 15.1977 112.915 15.8394 111.221 15.8394C108.056 15.8394 107.335 12.7323 107.335 11.376C107.335 11.3177 107.349 11.3032 107.364 11.3032C107.439 11.3032 107.747 11.6822 108.748 11.6822C109.264 11.6822 109.735 11.5512 110.487 11.5512C112.252 11.5512 113.034 12.7624 114.123 14.3083C114.784 14.7161 116.36 15.3727 116.36 17.2248C116.36 18.8577 114.608 19.7623 114.182 21.5123C114.858 21.4398 115.256 20.2429 115.949 20.2429C116.302 20.2429 116.464 20.5207 116.464 20.958C116.464 21.6006 116.096 22.5624 115.388 23.1607C115.403 23.1022 115.403 23.0291 115.403 22.9421C115.403 22.5333 115.241 21.9499 114.77 21.9499C114.036 21.9499 113.799 22.7374 113.387 23.3939C112.96 21.9062 112.385 20.564 111.355 19.7478C110.31 18.9159 108.513 19.3684 108.513 17.8519C108.513 17.4431 108.778 16.86 108.778 16.394C108.778 16.2339 108.748 16.0877 108.66 15.971C110.074 16.4952 109.573 17.4286 110.442 18.3907C110.985 19.0036 112.488 19.587 113.357 22.1099C113.371 22.0375 113.386 21.848 113.386 21.717C113.386 19.5586 110.501 17.4435 110.251 16.569C111.928 16.7585 112.223 17.167 113.018 19.3538C113.181 19.8063 113.712 20.9288 113.712 21.4835ZM82.0872 9.59688C82.1737 9.32301 82.2183 9.03782 82.2194 8.75084C82.2194 8.05032 81.8962 6.98631 80.8943 6.98631C80.3201 6.98631 79.9084 7.43778 79.9084 7.97755C79.9088 9.13053 81.0716 9.59688 82.0872 9.59688ZM80.8355 13.2724C80.3498 13.2724 79.8203 12.6748 79.8203 12.1353C79.8203 11.8433 80.0416 11.4782 80.2019 11.4782C80.2613 11.4782 80.2907 11.5218 80.3057 11.624C80.3938 12.3394 80.8653 12.7476 81.3073 12.951C81.3513 12.9804 81.3811 12.9953 81.3811 13.0241C81.3811 13.1263 81.1006 13.2724 80.8355 13.2724ZM82.5733 11.9015C82.5733 12.1056 82.4551 12.3685 82.2194 12.3685C81.7049 12.3685 81.2923 11.5949 81.2923 11.1573C81.2923 10.8808 81.4542 10.8514 81.6752 10.8514C81.778 10.8514 81.8217 10.8659 81.8962 10.9096C82.0281 10.9827 82.0281 11.2741 82.1897 11.4927C82.2785 11.6386 82.5733 11.7993 82.5733 11.9015ZM82.0575 10.3698C81.97 10.3553 81.8518 10.3553 81.7339 10.3553C81.2482 10.3553 80.5998 10.4429 80.0266 10.8223C78.7302 11.6538 78.9362 12.9655 78.7302 13.3015C78.7002 13.3499 78.6849 13.4058 78.6862 13.4626C78.6862 13.5936 78.8334 13.7391 78.9656 13.7391C79.0841 13.7391 79.1576 13.7107 79.2163 13.7107C79.5699 13.7107 79.9672 13.9587 80.5414 13.9587C80.8799 13.9587 81.2776 13.8562 81.7783 13.6081C82.8383 13.0833 83.251 11.7851 83.251 11.5661C83.251 11.289 83.03 11.3326 82.8387 11.07C82.6324 10.7644 82.7352 10.648 82.603 10.4724C82.5138 10.3993 82.3229 10.3993 82.0575 10.3698ZM83.6189 12.7184C83.2951 13.0968 82.9559 13.7388 82.9559 14.396C82.9559 15.1828 83.4416 15.8394 84.1925 15.8394C84.9143 15.8394 85.2528 15.2265 85.2528 14.6001C85.2528 13.6224 84.354 12.9367 83.6189 12.7184ZM80.4676 9.9177C80.4676 9.9177 80.0416 10.2385 79.5108 10.2385C78.8778 10.2385 78.377 9.77151 78.377 9.11565C78.377 8.66352 78.6121 8.19684 79.1576 7.96333C79.1429 8.05098 79.1429 8.12374 79.1429 8.21139C79.1429 9.04288 79.6143 9.66931 80.4676 9.9177ZM106.659 18.4053C106.659 18.1142 106.923 17.8658 107.218 17.8658C107.541 17.8658 107.792 18.1142 107.792 18.4053C107.792 18.7406 107.541 18.9741 107.218 18.9741C106.923 18.9741 106.659 18.7406 106.659 18.4053ZM107.041 35.1796C107.115 35.1796 107.203 35.2233 107.203 35.4859C107.203 35.8057 107.056 36.2284 106.527 36.5645C106.159 36.8125 105.658 37.0163 104.921 37.0311C105.039 36.6809 105.127 36.3167 105.127 35.9661C105.127 35.8494 105.112 35.7614 105.098 35.6321H105.289C106.453 35.6321 106.952 35.1796 107.041 35.1796ZM107.158 33.7349C107.277 33.6327 107.305 33.4727 107.305 33.3119V32.9762C107.305 32.5532 106.659 32.3048 105.775 32.3048C104.701 32.3048 104.126 32.7864 104.126 32.9908V33.6618C104.126 33.9393 104.774 34.2162 105.569 34.2162C106.203 34.2162 106.777 34.0561 107.158 33.7349ZM107.925 33.8957C107.541 34.1871 106.644 34.8439 105.157 34.8439C104.362 34.8439 104.009 34.5959 103.891 34.5959C103.744 34.5959 103.582 34.7414 103.42 34.9312C103.066 35.3397 102.61 36.0971 102.61 36.9283C102.61 37.5127 103.066 38.0961 103.92 38.0961C106.674 38.0961 108.735 36.3888 108.735 35.0043C108.735 34.2162 108.263 33.8957 107.925 33.8957ZM108.439 21.6294C108.439 21.9935 108.558 22.4162 108.926 22.4162C109.235 22.4162 109.501 21.9495 109.501 21.4395C109.501 20.8558 109.397 20.4036 109.397 20.1698C109.397 20.0686 109.441 20.0246 109.501 20.0246C109.721 20.0391 109.927 20.6375 110.163 20.6375C110.429 20.6375 110.825 20.1559 110.986 20.1559C111.03 20.1559 111.046 20.2141 111.046 20.2287C111.046 20.4476 110.706 20.9288 110.706 21.1187C110.706 21.2791 111.561 21.3082 111.561 21.4544C111.561 21.6734 110.663 21.6734 110.237 21.8625C109.825 22.0372 109.574 22.2558 109.574 22.5475C109.574 22.8392 109.868 22.8978 110.281 22.8978C111.267 22.8978 111.959 22.3725 112.18 22.3725C112.224 22.3725 112.253 22.4013 112.253 22.4453C112.253 22.5915 111.753 23.0731 111.753 23.292C111.753 23.5401 112.666 23.8308 112.651 23.977C112.637 24.0203 112.578 24.0349 112.474 24.0349C112.313 24.0349 112.062 23.9915 111.87 23.9915C111.752 23.9915 111.649 24.0054 111.606 24.064C111.502 24.1811 111.635 24.954 111.428 24.954C111.237 24.954 110.736 23.2328 109.604 23.2328C109.442 23.2328 109.323 23.3641 109.323 23.5831C109.323 24.1662 109.899 24.8369 110.443 25.1581C110.692 25.3191 111.105 25.4792 111.105 25.5669C111.105 25.7408 110.163 25.5811 110.163 25.8722C110.163 26.1351 110.281 26.529 110.281 26.7625C110.281 26.8353 110.267 26.9226 110.178 26.9226C110.002 26.9226 109.574 26.1205 109.368 26.1205C109.192 26.1205 108.808 26.6018 108.647 26.6018C108.602 26.6018 108.572 26.5581 108.572 26.5141C108.572 26.1784 109.117 25.4207 109.117 24.6765C109.117 24.3262 109.074 23.5682 108.647 23.5682C108.293 23.5682 107.896 24.1215 107.718 24.6765C107.615 24.9977 107.69 26.237 107.454 26.237C107.233 26.237 107.291 25.4058 106.997 25.4058C106.777 25.4058 106.307 25.7991 106.144 25.7991C106.115 25.7991 106.085 25.7845 106.085 25.7554C106.085 25.5808 106.512 25.0119 106.512 24.8955C106.512 24.6765 105.54 24.6474 105.54 24.4721C105.54 24.3696 105.922 24.2971 106.276 24.2386C107.027 24.1073 108.131 23.5682 108.131 22.8095C108.131 21.9631 107.305 21.5993 106.763 21.249C106.482 21.0737 106.173 20.9275 106.173 20.8111C106.173 20.694 106.527 20.694 106.674 20.694C106.893 20.694 107.115 20.6798 107.115 20.5045C107.115 20.3732 107.084 20.1116 107.084 19.9075C107.084 19.7613 107.099 19.6449 107.158 19.6449C107.379 19.6449 107.689 20.359 107.836 20.359C108.071 20.359 108.396 19.7762 108.617 19.7762C108.69 19.7762 108.72 19.8199 108.72 19.9508C108.72 20.4909 108.439 21.1038 108.439 21.6294ZM101.417 17.3565C101.579 18.5954 103.258 17.968 103.258 19.4703C103.258 19.6892 103.199 20.0104 103.199 20.2869C103.199 20.608 103.228 20.8852 103.478 20.8852C103.729 20.8852 103.788 20.7102 103.788 20.4764C103.788 20.2426 103.729 19.9518 103.729 19.7914C103.729 19.2807 104.097 19.164 104.318 19.164C104.877 19.164 105.304 19.7332 106.144 19.7332C105.953 20.6662 104.009 20.4182 104.009 21.4398C104.009 21.9499 104.524 22.0669 104.863 22.0669C105.172 22.0669 105.275 22.0226 105.275 21.761C105.275 21.6148 105.245 21.4547 105.245 21.3522C105.245 21.294 105.289 21.2361 105.364 21.2361C105.688 21.2361 107.277 22.4314 107.277 22.7966C107.277 23.1319 105.599 23.4673 105.113 23.4673C104.966 23.4673 104.937 23.3654 104.937 23.3072C104.937 23.2047 105.187 22.8984 105.187 22.7231C105.187 22.5922 104.967 22.5045 104.377 22.5045C104.097 22.5045 103.891 22.5336 103.891 22.7526C103.891 23.1462 104.538 23.6277 104.538 23.9922C104.538 24.2836 104.362 24.4585 103.891 24.4585C103.494 24.4585 102.89 24.1523 102.89 23.6426C102.89 23.2338 103.317 22.8253 103.317 22.5776C103.317 22.5045 103.258 22.3878 103.081 22.3878C102.536 22.3878 102.39 23.8169 100.46 23.9776C100.77 23.7008 101.035 23.3942 101.035 22.7671C101.035 22.4605 100.961 22.2121 100.961 21.8774C100.961 21.4398 101.167 21.2209 101.462 21.2209C102.007 21.2209 102.271 21.979 102.625 21.979C102.816 21.979 103.022 21.8047 103.022 21.5424C103.022 20.4331 100.872 20.5935 100.872 19.0333C100.873 18.6097 101.019 18.0851 101.417 17.3565ZM104.214 26.8359C104.214 27.0403 104.362 27.2011 104.567 27.2011C104.803 27.2011 104.951 26.9967 104.951 26.7635C104.951 26.4569 104.671 26.0339 104.405 26.0339C104.288 26.0339 104.332 26.2085 104.302 26.398C104.288 26.5442 104.214 26.7195 104.214 26.8359ZM103.449 24.8965C104.995 25.1878 105.835 26.3402 105.835 27.4197C105.835 28.1639 105.363 28.8479 104.538 28.8479C103.788 28.8479 103.243 28.3375 103.243 27.5216C103.243 26.909 103.728 26.2671 103.728 25.6393C103.729 25.3922 103.656 25.1442 103.449 24.8965ZM101.491 27.3764C101.638 27.5216 101.683 27.6678 101.683 27.8136C101.683 28.0319 101.579 28.2657 101.579 28.5125C101.579 28.8627 101.844 29.1684 102.227 29.1684C102.639 29.1684 102.918 28.8475 102.918 28.4685C102.919 27.9158 102.344 27.3764 101.491 27.3764ZM106.364 26.4424C106.467 26.6024 106.511 26.7635 106.511 26.9094C106.511 27.3175 106.232 27.6972 106.232 28.1199C106.232 28.6001 106.601 28.9944 107.158 28.9944C107.763 28.9944 108.175 28.5128 108.175 27.9453C108.175 27.1723 107.468 26.5151 106.364 26.4424ZM101.844 25.6691C102.521 25.7567 102.683 25.9899 102.683 26.1794C102.683 26.5009 102.389 26.6028 102.11 26.6028C101.904 26.6028 101.668 26.5591 101.417 26.5591C101.093 26.5591 100.77 26.6322 100.504 26.9385C100.695 26.9676 100.976 27.0986 100.976 27.3906C100.976 28.237 98.6047 27.5361 98.6047 29.7094C98.6047 30.8621 99.8129 32.1153 101.638 32.1153C102.58 32.1153 103.184 31.8103 103.184 31.4601C103.184 31.1829 102.683 31.3724 102.683 31.1393C102.683 31.0364 102.86 30.8472 102.86 30.6868C102.86 30.614 102.801 30.4827 102.683 30.4827C102.418 30.4827 101.919 30.9054 100.902 30.9054C100.107 30.9054 99.3265 30.4533 99.3265 29.8404C99.3265 29.7094 99.3859 29.636 99.4737 29.636C99.5615 29.636 99.6797 29.6949 99.7829 29.6949C99.8717 29.6949 99.886 29.636 99.886 29.4756C99.886 29.3155 99.886 28.8627 100.166 28.8627C100.445 28.8627 100.976 29.8841 103.008 29.8841C103.685 29.8841 104.995 29.7531 105.481 29.3152C105.466 30.9206 104.199 33.0341 101.55 33.0341C98.7967 33.0341 97.325 30.8472 97.325 28.8333C97.325 26.6024 99.1646 24.575 101.683 24.575C102.33 24.575 102.875 24.7943 102.875 25.0708C102.875 25.4508 101.919 25.2173 101.844 25.6691ZM91.1864 10.7346C91.1864 10.4866 91.1273 10.4284 91.0682 10.4284C90.9213 10.4284 90.7584 10.6033 90.5237 10.9966C90.5531 11.5215 90.6416 11.7553 90.7881 11.7553C90.9504 11.7556 91.1864 11.2446 91.1864 10.7346ZM89.1686 11.3323C89.3308 11.3323 89.5365 11.1573 89.9198 10.7346C89.9491 10.5451 89.9491 10.3695 89.9491 10.1509C89.9491 9.85916 89.831 9.53768 89.654 9.53768C89.2133 9.53768 88.9923 10.7052 88.9923 11.0111C88.9923 11.1868 89.0811 11.3323 89.1686 11.3323ZM91.5687 12.6305C91.9369 12.6305 92.3489 11.2301 92.3489 10.3553C92.3489 10.1658 92.3195 9.96169 92.2314 9.96169C91.9222 9.96169 91.4058 11.4051 91.4058 12.1936C91.4061 12.4995 91.4799 12.6305 91.5687 12.6305ZM87.9614 11.8284C88.4621 11.8284 89.0367 9.14508 89.0367 8.69263C89.0367 8.57587 88.9923 8.48823 88.8898 8.48823C88.4331 8.48823 87.7994 11.0406 87.7994 11.6091C87.7991 11.7113 87.8288 11.8284 87.9614 11.8284ZM89.5662 12.9367C88.9332 12.9367 88.9042 13.6958 88.9042 15.2268C88.4328 14.2207 87.6522 13.1411 86.7398 13.1411C86.1211 13.1411 85.8854 13.5496 85.8854 14.2643C85.8854 14.4109 85.9001 14.6295 85.9292 14.7605C86.0033 14.5134 86.2387 14.4112 86.5338 14.4112C87.1668 14.4112 87.932 14.8918 88.4328 15.5483C87.8585 15.4461 87.299 15.3439 86.8279 15.3439C86.5338 15.3439 86.2684 15.373 86.0477 15.4752C85.621 15.6647 85.0461 16.2921 85.0461 17.2401C85.0461 17.3859 85.0612 17.5453 85.0912 17.7206C85.6063 16.5829 86.9755 16.0732 87.8589 16.0732C88.0348 16.0732 88.1677 16.0877 88.2708 16.1026C87.8141 16.5098 87.7113 17.2252 87.6819 17.7061C87.6672 17.9396 87.5784 17.9545 87.4175 17.9545C87.4175 18.4347 87.7994 19.1498 87.7994 19.5146C87.7994 19.6459 87.726 19.7626 87.6525 19.7917C87.6525 20.4331 88.2999 20.8997 88.2999 21.3082C88.2999 21.4104 88.2708 21.4977 88.2264 21.542C88.2708 21.8043 88.9776 22.2561 89.0661 22.4456C89.2133 22.7522 89.3165 22.781 89.3896 22.781C89.6397 22.781 90.0373 22.4896 90.0373 22.2264C90.0373 22.1394 89.9638 22.0372 89.9051 21.9932C89.625 21.7894 89.4781 21.3515 89.3606 21.0598C89.2979 21.0605 89.2368 21.0409 89.1864 21.0041C89.136 20.9673 89.099 20.9152 89.0811 20.8558C89.0217 20.6659 88.992 19.9806 88.8748 19.6456C88.6828 19.6016 88.595 19.5288 88.595 19.1346C88.595 18.945 88.7125 18.2012 88.7125 17.9389C88.6237 17.9389 88.5062 17.8804 88.5062 17.7054C88.5062 17.2394 88.9776 16.8742 89.1102 16.2769C89.9491 16.8891 90.1551 17.5159 90.1551 18.0702C90.1551 18.3613 90.1107 18.6384 90.052 18.9014C90.6709 18.5951 91.5977 18.1433 91.5977 17.2248C91.5977 16.6854 91.3473 16.0877 89.6834 15.8539C90.1989 15.6644 90.8472 15.5622 91.3917 15.5622C92.3339 15.5622 92.8787 15.8539 92.9969 16.5098C93.1875 16.219 93.3348 15.8833 93.3348 15.5771C93.3348 14.862 92.7322 14.3963 91.9656 14.3963C91.0679 14.3963 90.2723 14.8623 89.418 15.4312C89.8012 14.644 90.0663 14.1774 90.5377 14.1774C90.6112 14.1774 90.6846 14.1913 90.7581 14.2061C90.5821 13.5642 89.9198 12.9367 89.5662 12.9367ZM80.1732 3.84987C80.1732 4.14125 79.0541 5.11926 78.6568 5.11926C78.5096 5.11926 78.4655 4.94397 78.4655 4.78389C78.4655 4.49184 78.5977 4.08337 78.7596 3.95173C78.9509 3.77677 79.3929 3.69012 79.7315 3.69012C79.9381 3.69045 80.1732 3.73311 80.1732 3.84987ZM114.373 23.4521C115.109 23.4521 115.698 24.4003 115.698 25.5093C115.698 26.6898 115.139 27.9744 114.139 28.8482C114.124 26.8799 111.694 27.5074 111.694 26.0775C111.694 25.4653 112.135 25.0565 112.666 25.0565C113.137 25.0565 113.506 25.1882 113.771 25.4508C113.506 25.2031 113.372 24.8528 113.372 24.5171C113.372 23.9628 113.726 23.4521 114.373 23.4521ZM103.449 8.53221C103.331 8.34237 102.889 8.2405 102.683 8.2405C102.036 8.2405 101.594 8.69296 101.506 9.10109C101.44 8.94366 101.405 8.77553 101.402 8.60531C101.402 7.963 101.844 7.17583 102.919 7.17583C103.862 7.17583 104.23 7.67162 104.362 7.67162C104.508 7.67162 104.657 7.52576 104.774 7.52576C104.936 7.52576 104.936 7.77382 104.936 7.94878C104.936 8.53254 104.671 9.53834 104.009 9.90348C103.891 9.65509 103.655 9.37859 103.273 9.20296C103.228 9.18604 103.191 9.15603 103.164 9.11703C103.138 9.07802 103.124 9.03192 103.125 8.985C103.125 8.82426 103.273 8.61953 103.449 8.53221ZM101.226 9.59688C101.609 9.96136 101.947 10.1218 102.36 10.1218C102.521 10.1218 102.713 10.0778 102.817 10.0778C102.949 10.0778 103.037 10.1363 103.037 10.2382C103.037 10.3989 102.89 10.6615 102.713 10.8074C102.889 10.8805 103.081 10.9093 103.287 10.9093C104.126 10.9093 105.083 10.3841 105.083 9.07199C105.26 9.3045 105.364 9.78607 105.364 10.0047C105.364 11.5942 104.185 12.2071 103.096 12.2071C102.39 12.2071 102.036 11.9739 101.948 11.9739C101.668 11.9739 101.683 12.5279 101.491 12.5134C101.153 12.4555 100.844 11.711 100.844 10.9238C100.843 10.4571 100.961 9.96136 101.226 9.59688ZM90.9948 5.35277C90.9948 5.86278 92.835 8.35725 93.1879 8.35725C93.482 8.35725 93.703 7.84658 93.703 7.40868C93.703 7.29258 93.6736 7.17583 93.6149 7.08851C93.3495 6.7237 91.4795 5.26512 91.0682 5.26512C91.0242 5.26545 90.9948 5.30911 90.9948 5.35277ZM112.238 4.15613C112.238 3.12124 109.736 2.85862 109.736 2.62479C109.736 2.43527 111.134 2.11412 111.856 2.09923C110.751 0.699855 109.177 0.845714 109.177 0.597656C109.177 0.451466 110.355 0.159088 111.443 0.159088C112.356 0.159088 113.211 0.363819 113.211 1.04945C113.211 1.42882 112.901 1.82306 112.901 2.40583C112.901 2.72666 113.063 3.00415 113.491 3.00415C113.947 3.00415 114.051 2.52259 114.051 2.01192C114.051 1.58989 113.977 1.2684 113.977 1.06434C113.977 0.451466 114.402 0.0433277 115.006 0.0433277C115.507 0.0433277 115.625 0.261619 116.361 0.261619C115.964 0.495125 115.816 0.918478 115.816 1.12255C115.816 1.73542 116.215 2.15811 116.215 3.41295C116.215 5.71692 114.036 6.53386 111.37 6.53386C110.634 6.53386 109.854 6.47531 109.089 6.35856C108.97 6.34401 108.941 6.31523 108.941 6.24214C108.941 6.05229 109.987 5.95042 109.987 5.01673C109.987 4.65225 109.868 4.30166 109.868 4.17069C109.868 4.15523 109.871 4.1399 109.877 4.12559C109.883 4.11129 109.892 4.09829 109.903 4.08738C109.914 4.07647 109.927 4.06786 109.941 4.06206C109.956 4.05626 109.971 4.05338 109.987 4.0536C110.208 4.0536 110.648 4.90031 111.472 4.90031C111.694 4.90064 112.238 4.82755 112.238 4.15613ZM114.726 2.68333C114.726 3.9815 113.77 4.9734 112.047 5.2509C112.238 5.26545 112.416 5.26545 112.592 5.26545C114.608 5.26545 115.345 4.36087 115.345 3.6028C115.345 3.17945 115.109 2.80041 114.726 2.68333ZM113.328 14.4105C113.328 14.1039 112.548 14.0748 112.474 13.2139C112.459 13.0829 112.415 12.8494 112.253 12.8494C111.988 12.8494 112.194 13.6515 111.9 13.6515C111.221 13.6515 111.001 12.3394 110.751 12.3394C110.692 12.3394 110.619 12.3831 110.619 12.558C110.619 12.7184 110.648 12.8206 110.648 13.0098C110.648 13.199 110.603 13.3307 110.429 13.3307C110.031 13.3307 109.678 12.4118 109.339 12.4118C109.265 12.4118 109.192 12.4562 109.192 12.5286C109.192 12.7042 109.486 13.0241 109.486 13.1845C109.486 13.5351 108.528 13.3445 108.528 13.6369C108.528 13.7686 108.661 13.8122 108.838 13.8122C109.148 13.8122 109.634 13.6806 109.883 13.6806C110.031 13.6806 110.252 13.7103 110.252 13.8995C110.252 14.1039 109.721 14.3669 109.721 14.5561C109.721 14.644 109.81 14.687 109.883 14.687C110.281 14.687 110.986 14.0021 111.487 14.0021C111.576 14.0021 111.798 14.0461 111.798 14.1774C111.798 14.3669 111.296 14.7016 111.296 14.9788C111.296 15.0518 111.341 15.1395 111.428 15.1395C111.694 15.1395 112.047 14.4539 112.548 14.4539C112.739 14.4539 113.02 14.5273 113.167 14.5273C113.285 14.5273 113.328 14.4539 113.328 14.4105ZM102.786 3.28165C102.786 3.12124 102.212 2.81464 102.212 2.64C102.212 2.61057 102.242 2.59601 102.285 2.59601C102.447 2.59601 102.727 2.65422 102.948 2.65422C103.139 2.65422 103.169 1.83828 103.317 1.83828C103.42 1.83828 103.597 2.61057 103.758 2.61057C103.949 2.61057 104.302 2.39161 104.45 2.39161C104.48 2.39161 104.508 2.40617 104.508 2.4356C104.508 2.53813 104.14 2.93139 104.14 3.04847C104.14 3.17978 104.966 3.34019 104.966 3.45727C104.966 3.6028 104.125 3.58858 104.125 3.71889C104.125 3.82109 104.435 4.22923 104.435 4.3612C104.435 4.3903 104.42 4.40485 104.391 4.40485C104.273 4.40485 103.818 4.20045 103.685 4.20045C103.523 4.20045 103.258 4.79877 103.125 4.79877C103.081 4.79877 103.051 4.7399 103.051 4.66713L103.021 4.0837C103.021 4.02516 102.993 3.96695 102.918 3.96695C102.742 3.96695 102.403 3.95207 102.3 3.95207C102.227 3.95207 102.197 3.93751 102.197 3.90808C102.198 3.79165 102.786 3.38352 102.786 3.28165ZM105.658 6.05262C104.626 6.05262 103.95 5.54195 103.95 5.28C103.95 5.1487 104.039 5.06105 104.155 5.06105C104.48 5.06105 105.187 5.55618 105.422 5.55618C105.481 5.55618 105.525 5.5274 105.525 5.44008C105.525 5.1778 105.275 4.7399 105.275 4.52128C105.275 4.46307 105.319 4.41908 105.408 4.41908C105.805 4.41908 106.394 4.57982 106.703 4.57982C106.807 4.57982 106.836 4.52095 106.836 4.46273C106.836 4.14125 105.879 3.51482 105.879 3.3253C105.879 3.15034 107.07 2.88773 107.07 2.61023C107.07 2.31852 105.451 2.52259 105.451 2.24509C105.451 2.04102 105.76 1.69143 105.76 1.53135C105.76 1.45792 105.701 1.42915 105.599 1.42915C105.466 1.42915 104.759 1.70631 104.465 1.70631C104.318 1.70631 104.141 1.67721 104.141 1.47281C104.141 1.13743 104.715 0.772289 105.614 0.772289C107.07 0.772289 107.94 1.76452 107.94 3.4275C107.94 5.5274 106.453 6.05262 105.658 6.05262ZM95.6911 31.2858C95.6911 31.4164 95.6464 31.5626 95.5285 31.7081C95.3673 31.4161 94.9099 31.2702 94.7053 31.2702C93.1879 31.2702 93.7624 33.4432 92.1426 33.4432C91.4652 33.4432 91.4058 33.3556 91.1567 33.3556C91.0532 33.3556 90.9944 33.3996 90.9944 33.4865C90.9944 33.8656 91.539 34.8003 93.055 34.8003C94.5727 34.8003 96.029 33.8808 96.029 32.742C96.026 32.5359 95.9808 32.3324 95.8961 32.1441C95.9555 32.0564 96.1024 31.9982 96.2347 31.9982C96.4707 31.9982 96.6032 32.2611 96.8239 32.2611C97.0596 32.2611 97.2359 32.0862 97.2359 31.8543C97.2359 31.6645 97.1327 31.5332 96.9558 31.4449C97.074 31.3579 97.1621 31.212 97.1621 31.0519C97.1621 30.8035 96.9852 30.5704 96.6917 30.5704C96.5588 30.5704 96.4707 30.6144 96.3679 30.7159C96.3381 30.4533 96.1913 30.2052 95.9111 30.2052C95.6911 30.2052 95.5285 30.366 95.5285 30.614C95.5285 30.8472 95.6911 31.0367 95.6911 31.2858ZM91.7303 31.8394C91.2889 31.8394 90.6269 31.3724 90.6269 31.1098C90.6269 30.8909 90.8332 30.7741 90.9948 30.7741C91.363 30.7741 92.0251 31.2266 92.0251 31.6059C92.0251 31.7081 91.9513 31.8394 91.7303 31.8394ZM87.6228 28.571C88.8013 28.8631 89.3896 29.4902 89.5075 30.2343C89.6253 30.9494 89.7722 31.5335 90.0523 31.8249C90.4205 32.2317 91.1423 32.5965 91.7747 32.5965C92.3048 32.5965 92.7325 32.4222 92.7325 31.942C92.7325 31.4164 92.0107 30.2347 90.9504 30.2347C90.8475 30.2347 90.7147 30.2496 90.5678 30.2496C90.4352 30.2496 90.2433 30.2201 90.1254 30.1182C89.8894 29.9145 89.8163 28.8197 89.3742 28.1645C88.8891 27.4349 88.359 27.2308 87.6375 27.2308C87.122 27.2308 86.5481 27.508 86.5481 27.9165C86.5485 28.1639 86.681 28.3379 87.6228 28.571ZM95.0134 26.7926C95.0134 26.1364 93.6446 26.1215 93.6446 25.13C93.6446 24.8819 93.8058 24.4585 94.131 24.0061C94.2629 24.7648 94.573 25.1587 95.2344 25.4068C96.5445 25.8877 96.7214 26.6167 96.7214 27.3906C96.7214 28.7023 95.794 30.3369 93.4092 30.3369C91.4949 30.3369 90.1258 28.6441 90.1258 27.2153C90.1258 26.8214 90.2289 26.3835 90.4796 26.3835C90.7 26.3835 90.7738 26.5584 90.9507 26.7337C91.6127 27.3903 92.3345 27.5652 93.3795 27.5652C94.322 27.5656 95.0134 27.1865 95.0134 26.7926ZM95.0722 27.8431C94.5577 28.0468 94.3664 28.0319 94.3664 28.5416C94.3664 28.7314 94.3223 28.9795 94.3223 29.1108C94.3223 29.2861 94.3517 29.3883 94.558 29.3883C95.0872 29.3883 95.9262 28.4986 95.9262 27.7405C95.9262 27.5365 95.809 27.4491 95.6768 27.4491C95.5583 27.4491 95.4257 27.6823 95.0722 27.8431ZM90.3761 20.4764C90.3761 19.5434 92.6143 19.0472 92.6143 17.8953C92.6143 17.7057 92.5405 17.371 92.408 17.1226C93.1879 17.545 93.7624 18.2604 93.7624 18.8432C93.7624 19.85 92.7028 20.316 92.7028 20.9434C92.7028 21.6734 93.8362 21.7898 93.8362 22.694C93.8362 23.4379 92.7615 24.2981 92.7615 25.2613C92.7615 26.0044 93.2904 26.617 94.101 26.7195C93.8362 26.7781 93.6002 26.8217 93.3498 26.8217C91.8631 26.8217 90.3317 25.6109 90.3317 24.1672C90.3317 23.4524 90.6416 22.8253 91.1126 22.3732C91.5243 22.7231 91.9369 22.957 92.2013 22.957C92.4374 22.957 92.5405 22.8399 92.5405 22.6653C92.5405 22.1245 90.3761 21.6294 90.3761 20.4764ZM93.4122 51.6798C93.8286 51.6798 94.5433 51.5459 95.1062 50.6522C94.7847 49.9454 94.555 48.5133 94.5223 47.9927C94.3567 45.3292 95.393 42.8235 96.5271 42.7547C97.3587 42.7054 98.0238 43.485 98.1002 44.7454C98.3056 48.0664 97.1878 49.4526 96.6306 50.6462C96.7248 51.1113 97.5173 51.9001 98.2675 51.9001C98.5446 51.9001 98.8785 51.7632 98.9619 51.6517C98.8848 51.3933 98.847 51.125 98.8497 50.8556C98.8497 48.9326 100.1 47.3087 101.181 47.3087C102.042 47.3087 102.539 48.4355 102.539 49.1804C102.539 50.0582 101.79 50.7739 100.681 51.4612C100.877 51.6517 101.235 51.7906 101.543 51.7906C103.124 51.7906 103.955 49.8951 104.566 48.161C104.677 47.8313 104.873 47.3643 105.259 47.3643C105.926 47.3643 106.204 51.7069 107.312 51.7069C107.785 51.7069 108.172 50.7448 108.172 50.0049C108.172 49.4546 107.978 49.3997 107.978 48.6012C107.978 47.7228 108.45 46.9803 109.089 46.9803C109.477 46.9803 109.616 47.3646 109.616 47.8316C109.616 49.5915 108.34 52.8629 106.454 52.8629C105.037 52.8629 105.148 50.4418 104.65 50.4418C104.094 50.4418 103.317 52.891 100.571 52.891C100.125 52.891 99.6547 52.6711 99.2674 52.2288C98.601 52.6711 98.0448 52.8629 97.4065 52.8629C96.3809 52.8629 95.9365 51.8174 95.5215 51.8174C95.0211 51.8174 94.4682 52.891 92.8019 52.891C91.4692 52.891 91.2475 51.1321 90.7771 51.1321C90.3605 51.1321 89.7225 52.891 89.0294 52.891C87.8615 52.891 87.6142 49.8399 86.5869 49.8399C85.7816 49.8399 83.24 52.938 82.5492 52.8672C82.2718 52.8381 82.1556 52.633 82.1847 52.3575C82.2237 51.9775 82.5536 50.9598 82.6888 50.4769C82.9131 49.6428 83.1191 48.7246 83.234 48.4326C83.3478 48.1382 83.6573 47.9282 83.9033 47.9507C84.0279 47.9626 84.0653 48.1928 84.104 48.382C84.2432 49.0639 84.4402 49.7562 84.6612 49.7562C85.0505 49.7562 86.3382 47.3087 87.0863 47.3087C88.0028 47.3087 88.1133 51.1582 89.3616 51.1582C89.7782 51.1582 90.085 50.6631 90.3611 50.0585C90.3895 49.0401 90.6663 47.5852 91.4986 47.5852C92.0825 47.5852 92.3596 48.8754 91.9423 50.0046C91.9419 51.3494 92.8293 51.6798 93.4122 51.6798ZM114.111 49.0967C114.111 48.4097 113.474 47.4466 112.53 47.4466C111.282 47.4466 110.062 48.7937 110.062 50.6628C110.062 52.338 111.114 52.8903 112.168 52.8903C114 52.8903 115.111 51.403 115.693 50.1676C115.971 50.9922 116.135 52.8903 116.831 52.8903C117.108 52.8903 117.302 52.7524 117.636 52.0099C118.466 50.1676 119.271 48.0512 120.382 48.0512C120.797 48.0512 120.549 48.7937 121.547 48.7937C122.019 48.7937 122.351 48.4097 122.351 47.9675C122.351 47.3355 121.769 46.8413 120.881 46.8413C118.274 46.8413 117.719 50.718 117.302 50.718C116.608 50.718 116.831 47.612 116.33 47.612C115.886 47.612 115.664 48.1349 115.609 48.381C115.247 49.8104 114.222 51.873 112.667 51.873C112.307 51.873 111.669 51.735 111.669 51.3775C111.669 50.9922 114.111 50.9389 114.111 49.0967ZM97.2015 45.4879C97.1538 44.7206 96.9655 44.374 96.5501 44.4014C95.9969 44.4352 95.7422 46.1567 95.8544 47.9662C95.9262 49.148 96.1034 49.3289 96.2694 49.318C96.5752 49.3001 97.3077 47.19 97.2015 45.4879ZM92.6901 43.8749C92.6637 43.4337 92.3032 43.1321 91.8314 43.1321C91.3039 43.1321 90.8031 43.6814 90.8609 44.3684C90.8609 44.7801 91.165 45.1932 91.6939 45.1932C92.3035 45.1932 92.7472 44.5076 92.6901 43.8749ZM101.321 49.481C101.321 49.0153 101.07 48.6287 100.766 48.6287C100.515 48.6287 99.9338 48.9035 99.9338 49.783C99.9338 50.4703 100.182 50.799 100.295 50.9389C101.098 50.6902 101.321 50.0301 101.321 49.481ZM112.168 48.5477C112.751 48.5477 112.919 49.233 112.78 49.6461C112.64 50.0578 112.142 50.5248 111.364 50.6624C111.198 50.2493 111.114 48.5477 112.168 48.5477ZM74.0058 48.9872C73.9781 47.8581 74.0339 46.7322 74.5063 45.1383C74.7554 44.2877 74.9784 43.9834 75.7539 43.82C76.3642 43.7095 76.3098 44.3406 76.1712 45.0834C75.8664 46.7319 75.7255 47.529 75.838 49.399C75.9469 51.3772 76.8643 52.1475 77.8622 52.1475C79.3606 52.1756 80.0269 50.9393 80.304 49.1516C80.5251 47.7221 80.3585 47.0335 80.2196 46.5953C80.1371 46.3479 79.9151 45.7975 79.8316 45.3864C79.7215 44.3409 80.2196 43.8484 80.6369 43.7099C81.1367 43.5716 81.3316 43.8203 81.5243 44.3981C81.775 45.2769 81.8027 46.4296 81.7189 48.078C81.6084 50.3314 80.4703 53.0554 77.6405 52.9991C75.1987 52.9456 74.1184 51.3775 74.0058 48.9872Z" fill="#245B94"/>
</svg>
