<svg width="196" height="53" viewBox="0 0 196 53" fill="none" xmlns="http://www.w3.org/2000/svg">
<path d="M170.955 27.8792V34.8339H149.232V10.1609H160.637V27.8792H170.955Z" fill="#646565"/>
<path d="M81.0615 6.37249C81.0615 4.52708 82.5858 3 84.4247 3C86.2834 3 87.7862 4.52708 87.7862 6.37249C87.7862 8.2149 86.2833 9.74355 84.4247 9.74355C82.586 9.74355 81.0615 8.2149 81.0615 6.37249Z" fill="#646565"/>
<path d="M67.6309 6.37249C67.6309 4.52708 69.1559 3 70.9924 3C72.8312 3 74.3555 4.52708 74.3555 6.37249C74.3555 8.2149 72.8312 9.74355 70.9924 9.74355C69.1559 9.74355 67.6309 8.2149 67.6309 6.37249Z" fill="#646565"/>
<path d="M50.9 10.1609L53.4061 16.6537L56.2879 10.1609H67.4003L58.5446 34.8339H50.0224L46.2209 26.2036L42.3358 34.8339H33.8558L25 10.1609H36.1108L38.9942 16.6537L41.4582 10.1609H50.9Z" fill="#646565"/>
<path d="M107.985 19.1677V10.1609H119.39V34.8339H107.985V25.8271H102.972V34.8339H91.5684V10.1609H102.972V19.1677H107.985Z" fill="#646565"/>
<path fill-rule="evenodd" clip-rule="evenodd" d="M134.611 10.1828C134.611 10.1828 143.76 9.82783 145.933 15.0611C147.979 20.0465 143.823 23.3978 143.823 23.3978C143.823 23.3978 146.036 26.1001 146.767 27.9639C147.771 30.5178 148.376 34.8344 148.376 34.8344H136.302C136.302 34.8344 136.031 30.7918 135.447 29.0733C134.716 27.0428 131.978 25.8277 131.978 25.8277V34.8344H120.574V10.1828H134.611ZM131.978 15.5447H133.574C134.68 15.5447 135.6 16.4659 135.6 17.5753C135.6 18.6633 134.68 19.5859 133.574 19.5859H131.978V15.5447Z" fill="#646565"/>
<path fill-rule="evenodd" clip-rule="evenodd" d="M64.7891 22.5388C64.7891 15.4187 70.5954 9.61621 77.6982 9.61621C84.8208 9.61621 90.6065 15.4187 90.6065 22.5388C90.6065 29.6588 84.8207 35.4813 77.6982 35.4813C70.5954 35.4813 64.7891 29.6588 64.7891 22.5388ZM74.3023 20.1852C74.3023 20.7806 74.7852 21.2641 75.3789 21.2641C75.9743 21.2641 76.4555 20.7806 76.4555 20.1852C76.4555 19.5885 75.9743 19.1065 75.3789 19.1065C74.7852 19.1065 74.3023 19.5885 74.3023 20.1852ZM80.043 21.2641C79.4468 21.2641 78.9664 20.7806 78.9664 20.1852C78.9664 19.5885 79.4468 19.1065 80.043 19.1065C80.6367 19.1065 81.1196 19.5885 81.1196 20.1852C81.1196 20.7806 80.6368 21.2641 80.043 21.2641ZM74.3023 24.8791C74.3023 25.4743 74.7852 25.9564 75.3789 25.9564C75.9743 25.9564 76.4555 25.4744 76.4555 24.8791C76.4555 24.2822 75.9743 23.7988 75.3789 23.7988C74.7852 23.7986 74.3023 24.2822 74.3023 24.8791ZM80.043 25.936C79.4468 25.936 78.9664 25.454 78.9664 24.8573C78.9664 24.2605 79.4468 23.7785 80.043 23.7785C80.6367 23.7785 81.1196 24.2604 81.1196 24.8573C81.1196 25.454 80.6368 25.936 80.043 25.936Z" fill="#646565"/>
<path fill-rule="evenodd" clip-rule="evenodd" d="M171 44.828V45.5456H169.491V44.828H171ZM167.335 44.8264L167.764 45.5456H165.688V44.8264H167.335ZM164.274 44.8264V45.5456H159.367V44.8264H164.274ZM158.165 44.8264L157.457 45.5456H155.526L156.173 44.8264H158.165ZM154.147 44.8264V45.5456H152.544V44.8264H154.147ZM149.024 44.8264C149.759 44.8264 150.486 45.0407 150.88 45.5456H145.885V44.8264H149.024ZM142.683 44.8264L142.966 45.5456H140.772L141.054 44.8264H142.683ZM137.834 44.8264V45.5456H135.275L135.471 44.8264H137.834ZM133.333 44.8264L133.532 45.5456H130.969V44.8264H133.333ZM126.285 44.828V45.5456H124.776V44.828H126.285ZM122.62 44.8264L123.047 45.5456H120.972V44.8264H122.62ZM119.557 44.8264V45.5456H114.652V44.8264H119.557ZM113.45 44.8264L112.742 45.5456H110.811L111.458 44.8264H113.45ZM109.432 44.8264V45.5456H107.827V44.8264H109.432ZM104.307 44.8264C105.042 44.8264 105.769 45.0407 106.165 45.5456H101.168V44.8264H104.307ZM97.9683 44.8264L98.2483 45.5456H96.0562L96.3385 44.8264H97.9683ZM94.3183 44.828V45.5456H89.0407V44.828H94.3183ZM85.5871 44.7041C86.4198 44.7041 87.2569 44.9671 87.7091 45.5456H83.3964C83.8655 44.9519 84.776 44.7041 85.5871 44.7041ZM78.9635 44.828V45.5456H73.6859V44.828H78.9635ZM72.5397 44.8264V45.5456H70.935V44.8264H72.5397ZM69.3877 44.8264V45.5456H66.8303L67.0262 44.8264H69.3877ZM64.8867 44.8264L65.0841 45.5456H62.5239V44.8264H64.8867ZM57.8415 44.8264V45.5456H52.9342V44.8264H57.8415ZM46.2815 45.5456L45.9554 45.5458V50.6904H48.6031C50.474 50.6904 51.6211 49.6575 51.6211 47.7341C51.6211 46.7908 51.3158 46.0432 50.7579 45.5428L50.7548 45.5428C50.2391 45.078 49.5081 44.8264 48.6031 44.8264H45.9554V45.5456H46.2815ZM41.6168 44.7041C42.558 44.7041 43.3009 45.0223 43.8152 45.5456H39.4175C39.9332 45.0223 40.6763 44.7041 41.6168 44.7041ZM37.2673 44.8264V45.5456H34.7099L34.9042 44.8264H37.2673ZM32.7647 44.8264L32.9644 45.5456H30.4033V44.8264H32.7647ZM41.6167 46.0178C40.5821 46.0178 40.1857 46.8893 40.1857 47.7592C40.1857 48.6299 40.5821 49.4998 41.6167 49.4998C42.6505 49.4998 43.0491 48.6298 43.0491 47.7592C43.0491 46.8893 42.6503 46.0178 41.6167 46.0178ZM48.3192 46.1417H47.5593V49.3758H48.3192C49.5337 49.3528 50.0181 48.9013 50.0181 47.7262C50.0181 46.6589 49.4127 46.1417 48.3192 46.1417ZM97.8383 48.506L97.1389 46.4539L96.4417 48.506H97.8383ZM104.049 46.0508H102.773V47.3736H104.118C104.601 47.3736 104.859 47.1272 104.859 46.6843C104.859 46.2482 104.497 46.0508 104.049 46.0508ZM142.553 48.506L141.856 46.4539L141.157 48.506H142.553ZM148.764 46.0508H147.488L147.488 47.3736H148.833C149.317 47.3736 149.576 47.1272 149.576 46.6843C149.576 46.2482 149.214 46.0508 148.764 46.0508ZM165.688 50.6904V45.5458H167.764L169.491 48.4402V45.5458H171V50.6904H169.353L167.197 47.0363V50.6904H165.688ZM159.367 50.6904V45.5458H164.274V46.0508H160.971V47.0776H163.989V48.2604H160.971V49.3759H164.36V50.6904H159.367ZM152.544 50.6904V45.546H154.147V47.0777L155.526 45.546H157.457L155.889 47.1351L158.451 50.6904H156.459L154.802 48.2276L154.147 48.884V50.6904H152.544ZM145.885 50.6904V45.5458H150.88C151.068 45.7876 151.179 46.0967 151.179 46.4784C151.179 47.1105 150.861 47.7103 150.214 47.9643C150.869 48.1113 151.059 48.8105 151.11 49.3684C151.112 49.3953 151.114 49.4295 151.116 49.4694C151.136 49.7953 151.178 50.501 151.368 50.6904H149.783C149.665 50.5228 149.629 50.0832 149.61 49.8535C149.606 49.8129 149.604 49.7788 149.601 49.754C149.559 49.1634 149.456 48.5551 148.705 48.5551H147.488V50.6904H145.885ZM138.752 50.6904L140.772 45.5458H142.966L144.986 50.6904H143.313L142.933 49.6391H140.786L140.399 50.6904H138.752ZM130.969 50.6904V45.5458H133.532L134.411 48.7371L135.275 45.5458H137.834V50.6904H136.324L136.307 46.2405L135.014 50.6904H133.79L132.479 46.2405V50.6904H130.969ZM120.972 50.6904V45.5458H123.047L124.776 48.4402V45.5458H126.285V50.6904H124.637L122.481 47.0363V50.6904H120.972ZM114.652 50.6904V45.5458H119.557V46.0508H116.256V47.0776H119.273V48.2604H116.256V49.3759H119.645V50.6904H114.652ZM107.827 50.6904V45.546H109.432V47.0777L110.811 45.546H112.742L111.173 47.1351L113.733 50.6904H111.741L110.087 48.2276L109.432 48.884V50.6904H107.827ZM101.168 50.6904V45.5458H106.165C106.352 45.7876 106.464 46.0967 106.464 46.4784C106.464 47.1105 106.144 47.7103 105.498 47.9643C106.153 48.1113 106.343 48.8105 106.395 49.3684C106.397 49.3942 106.399 49.4268 106.401 49.4647C106.419 49.7885 106.46 50.5001 106.653 50.6904H105.066C104.949 50.5232 104.913 50.0856 104.894 49.8554C104.891 49.8139 104.888 49.7792 104.885 49.754C104.841 49.1634 104.738 48.5551 103.989 48.5551H102.773V50.6904H101.168ZM94.0343 50.6904L96.0561 45.5458H98.2482L100.27 50.6904H98.5965L98.217 49.6391H96.0697L95.6818 50.6904H94.0343ZM89.0414 46.1419V45.5458H94.3183V46.1419H92.4818V50.6904H90.8779V46.1419H89.0414ZM83.0788 46.487C83.0788 46.1059 83.1974 45.7937 83.3964 45.5458L87.7094 45.5491C87.9228 45.8244 88.0514 46.1704 88.0544 46.5935H86.4513C86.4765 46.0586 85.95 45.8857 85.4588 45.8857C85.1145 45.8857 84.6836 46.0027 84.6836 46.3883C84.6836 46.7448 85.2385 46.8715 85.9147 47.0258C86.0934 47.0666 86.2805 47.1093 86.4681 47.1587C87.355 47.3967 88.2518 47.7922 88.2518 48.8512C88.2518 50.3383 86.9241 50.8143 85.5704 50.8143C84.1571 50.8143 82.906 50.2221 82.8983 48.7194H84.5013C84.5358 49.4096 84.9842 49.6314 85.666 49.6314C86.1487 49.6314 86.6485 49.4677 86.6485 49.0316C86.6485 48.6073 86.0566 48.4647 85.3534 48.2953C85.1995 48.2582 85.0403 48.2199 84.8808 48.177C84.0017 47.9392 83.0788 47.5619 83.0788 46.487ZM73.6867 46.1419V45.5458H78.9637V46.1419H77.1264V50.6904H75.5233V46.1419H73.6867ZM70.935 50.6904V45.5458H72.5397V50.6904H70.935ZM62.5239 50.6904V45.5458H65.0841L65.9648 48.7371L66.8303 45.5458H69.3877V50.6904H67.8787L67.8611 46.2405L66.5687 50.6904H65.3443L64.0328 46.2405V50.6904H62.5239ZM52.9342 50.6904V45.5458H57.8415V46.0508H54.5374V47.0776H57.556V48.2604H54.5374V49.3759H57.9271V50.6904H52.9342ZM38.5812 47.7592C38.5812 46.8849 38.8727 46.1012 39.4175 45.5458H43.8153C44.3624 46.1012 44.6524 46.8847 44.6524 47.7592C44.6524 49.46 43.5566 50.8143 41.6168 50.8143C39.6762 50.8143 38.5812 49.46 38.5812 47.7592ZM30.4033 50.6904V45.5458H32.9644L33.8437 48.7371L34.7099 45.5458H37.2672V50.6904H35.7583L35.7414 46.2405L34.4483 50.6904H33.2224L31.9124 46.2405V50.6904H30.4033Z" fill="#646565"/>
</svg>
