<svg width="196" height="53" viewBox="0 0 196 53" fill="none" xmlns="http://www.w3.org/2000/svg">
<path d="M170.941 27.8769V34.831H149.221V10.1602H160.624V27.8769H170.941Z" fill="#A3292A"/>
<path d="M81.0566 6.37218C81.0566 4.52694 82.5808 3 84.4195 3C86.2781 3 87.7807 4.52694 87.7807 6.37218C87.7807 8.21443 86.2779 9.74294 84.4195 9.74294C82.5809 9.74294 81.0566 8.21443 81.0566 6.37218Z" fill="#A3292A"/>
<path d="M67.627 6.37218C67.627 4.52694 69.1518 3 70.9882 3C72.8269 3 74.351 4.52694 74.351 6.37218C74.351 8.21443 72.8269 9.74294 70.9882 9.74294C69.1518 9.74294 67.627 8.21443 67.627 6.37218Z" fill="#A3292A"/>
<path d="M50.8976 10.1602L53.4035 16.6524L56.285 10.1602H67.3964L58.5416 34.831H50.0202L46.219 26.2014L42.3342 34.831H33.855L25 10.1602H36.1098L38.9929 16.6524L41.4567 10.1602H50.8976Z" fill="#A3292A"/>
<path d="M107.978 19.1661V10.1602H119.381V34.831H107.978V25.825H102.965V34.831H91.5625V10.1602H102.965V19.1661H107.978Z" fill="#A3292A"/>
<path fill-rule="evenodd" clip-rule="evenodd" d="M134.602 10.1818C134.602 10.1818 143.75 9.82689 145.922 15.0597C147.969 20.0446 143.813 23.3956 143.813 23.3956C143.813 23.3956 146.026 26.0977 146.757 27.9613C147.76 30.515 148.365 34.8312 148.365 34.8312H136.293C136.293 34.8312 136.021 30.7889 135.438 29.0706C134.707 27.0403 131.969 25.8253 131.969 25.8253V34.8312H120.566V10.1818H134.602ZM131.969 15.5432H133.565C134.671 15.5432 135.591 16.4643 135.591 17.5736C135.591 18.6615 134.671 19.5841 133.565 19.5841H131.969V15.5432Z" fill="#A3292A"/>
<path fill-rule="evenodd" clip-rule="evenodd" d="M64.7852 22.5371C64.7852 15.4177 70.591 9.61572 77.6931 9.61572C84.8151 9.61572 90.6003 15.4177 90.6003 22.5371C90.6003 29.6565 84.815 35.4785 77.6931 35.4785C70.591 35.4785 64.7852 29.6565 64.7852 22.5371ZM74.2976 20.1844C74.2976 20.7796 74.7804 21.2632 75.3741 21.2632C75.9694 21.2632 76.4506 20.7796 76.4506 20.1844C76.4506 19.5877 75.9694 19.1057 75.3741 19.1057C74.7804 19.1057 74.2976 19.5877 74.2976 20.1844ZM80.0374 21.2632C79.4413 21.2632 78.9609 20.7796 78.9609 20.1844C78.9609 19.5877 79.4413 19.1057 80.0374 19.1057C80.631 19.1057 81.1139 19.5877 81.1139 20.1844C81.1139 20.7796 80.6312 21.2632 80.0374 21.2632ZM74.2976 24.877C74.2976 25.4721 74.7804 25.9542 75.3741 25.9542C75.9694 25.9542 76.4506 25.4723 76.4506 24.877C76.4506 24.2802 75.9694 23.7968 75.3741 23.7968C74.7804 23.7967 74.2976 24.2802 74.2976 24.877ZM80.0374 25.9342C79.4413 25.9342 78.9609 25.4522 78.9609 24.8555C78.9609 24.2589 79.4413 23.7769 80.0374 23.7769C80.631 23.7769 81.1139 24.2587 81.1139 24.8555C81.1139 25.4522 80.6312 25.9342 80.0374 25.9342Z" fill="#125AA3"/>
<path fill-rule="evenodd" clip-rule="evenodd" d="M40.1839 47.7545C40.1839 46.8847 40.5802 46.0133 41.6147 46.0133C42.6483 46.0133 43.047 46.8847 43.047 47.7545C43.047 48.625 42.6484 49.4949 41.6147 49.4949C40.5802 49.4949 40.1839 48.6251 40.1839 47.7545ZM47.5568 46.1372H48.3166C49.41 46.1372 50.0153 46.6543 50.0153 47.7215C50.0153 48.8965 49.531 49.348 48.3166 49.3709H47.5568V46.1372ZM97.1319 46.4493L97.8312 48.5013H96.4348L97.1319 46.4493ZM102.766 46.0462H104.041C104.49 46.0462 104.851 46.2436 104.851 46.6797C104.851 47.1226 104.593 47.3689 104.11 47.3689H102.766V46.0462ZM141.845 46.4493L142.542 48.5013H141.146L141.845 46.4493ZM147.477 46.0462H148.752C149.202 46.0462 149.564 46.2436 149.564 46.6797C149.564 47.1226 149.305 47.3689 148.822 47.3689H147.476L147.477 46.0462ZM165.675 45.5413V50.6855H167.184V47.0316L169.34 50.6855H170.986V45.5413H169.477V48.4354L167.75 45.5413H165.675ZM159.355 45.5413V50.6855H164.347V49.3711H160.958V48.2557H163.976V47.073H160.958V46.0462H164.261V45.5413H159.355ZM152.532 45.5413V50.6855H154.135V48.8792L154.79 48.2229L156.446 50.6855H158.438L155.876 47.1304L157.445 45.5415H155.514L154.135 47.0731V45.5415H152.532V45.5413ZM145.874 45.5413V50.6855H147.477V48.5503H148.693C149.444 48.5503 149.547 49.1585 149.589 49.7491C149.607 49.9143 149.633 50.4882 149.771 50.6855H151.357C151.142 50.4728 151.116 49.6097 151.098 49.3635C151.047 48.8057 150.857 48.1066 150.202 47.9596C150.849 47.7056 151.167 47.1059 151.167 46.4739C151.167 46.0921 151.056 45.7831 150.868 45.5413H145.874ZM140.761 45.5413L138.741 50.6855H140.388L140.775 49.6342H142.922L143.302 50.6855H144.975L142.955 45.5413H140.761ZM130.959 45.5413V50.6855H132.468V46.2359L133.78 50.6855H135.003L136.296 46.2359L136.313 50.6855H137.823V45.5413H135.265L134.4 48.7323L133.521 45.5413H130.959ZM120.963 45.5413V50.6855H122.472V47.0316L124.628 50.6855H126.275V45.5413H124.766V48.4354L123.038 45.5413H120.963ZM114.644 45.5413V50.6855H119.636V49.3711H116.247V48.2557H119.264V47.073H116.247V46.0462H119.548V45.5413H114.644ZM107.819 45.5413V50.6855H109.424V48.8792L110.079 48.2229L111.733 50.6855H113.725L111.165 47.1304L112.733 45.5415H110.803L109.424 47.0731V45.5415H107.819V45.5413ZM101.161 45.5413V50.6855H102.766V48.5503H103.981C104.73 48.5503 104.834 49.1585 104.877 49.7491C104.895 49.9143 104.92 50.4882 105.058 50.6855H106.646C106.429 50.4728 106.404 49.6097 106.387 49.3635C106.335 48.8057 106.145 48.1066 105.49 47.9596C106.136 47.7056 106.456 47.1059 106.456 46.4739C106.456 46.0921 106.344 45.7831 106.157 45.5413H101.161ZM96.0491 45.5413L94.0275 50.6855H95.6749L96.0628 49.6342H98.2098L98.5893 50.6855H100.263L98.2411 45.5413H96.0491ZM89.0351 45.5413V46.1373H90.8714V50.6855H92.4752V46.1373H94.3115V45.5413H89.0351ZM83.3906 45.5413C83.1916 45.7892 83.073 46.1014 83.073 46.4824C83.073 47.5572 83.9958 47.9345 84.8749 48.1723C85.7632 48.411 86.6424 48.5097 86.6424 49.0268C86.6424 49.4629 86.1427 49.6265 85.66 49.6265C84.9782 49.6265 84.5299 49.4047 84.4954 48.7147H82.8925C82.9002 50.2172 84.1512 50.8094 85.5645 50.8094C86.918 50.8094 88.2455 50.3334 88.2455 48.8464C88.2455 47.7875 87.3488 47.392 86.462 47.1541C85.5646 46.9177 84.6777 46.8343 84.6777 46.3838C84.6777 45.9982 85.1085 45.8812 85.4528 45.8812C85.944 45.8812 86.4705 46.0541 86.4452 46.5889H88.0482C88.0452 46.1658 87.9166 45.8199 87.7032 45.5446L83.3906 45.5413ZM73.6818 45.5413V46.1373H75.5182V50.6855H77.1212V46.1373H78.9583V45.5413H73.6818ZM70.9303 45.5413V50.6855H72.5349V45.5413H70.9303ZM62.52 45.5413V50.6855H64.0287V46.2359L65.3402 50.6855H66.5644L67.8567 46.2359L67.8743 50.6855H69.3832V45.5413H66.826L65.9606 48.7323L65.08 45.5413H62.52ZM52.9312 45.5413V50.6855H57.9237V49.3711H54.5342V48.2557H57.5526V47.073H54.5342V46.0462H57.838V45.5413H52.9312ZM45.9531 45.5413V50.6855H48.6005C50.4712 50.6855 51.6182 49.6526 51.6182 47.7294C51.6182 46.7862 51.3129 46.0387 50.7551 45.5383L45.9531 45.5413ZM39.4157 45.5413C38.871 46.0967 38.5794 46.8802 38.5794 47.7545C38.5794 49.4552 39.6743 50.8094 41.6148 50.8094C43.5544 50.8094 44.6501 49.4552 44.6501 47.7545C44.6501 46.8801 44.3602 46.0967 43.8132 45.5413H39.4157ZM30.4023 45.5413V50.6855H31.9113V46.2359L33.2211 50.6855H34.4469L35.74 46.2359L35.7568 50.6855H37.2656V45.5413H34.7085L33.8424 48.7323L32.9632 45.5413H30.4023Z" fill="#A5A5A5"/>
<path fill-rule="evenodd" clip-rule="evenodd" d="M170.986 45.5419V44.8243H169.477V45.5419H170.986ZM167.75 45.5419L167.321 44.8227H165.675V45.5419H167.75ZM164.261 45.5419V44.8227H159.355V45.5419H164.261ZM157.445 45.5419L158.153 44.8227H156.161L155.514 45.5419H157.445ZM154.135 45.5419V44.8227H152.532V45.5419H154.135ZM150.868 45.5419C150.474 45.037 149.748 44.8227 149.012 44.8227H145.873V45.5419H150.868ZM142.955 45.5419L142.672 44.8227H141.042L140.761 45.5419H142.955ZM137.823 45.5419V44.8227H135.461L135.265 45.5419H137.823ZM133.521 45.5419L133.322 44.8227H130.959V45.5419H133.521ZM126.275 45.5419V44.8243H124.766V45.5419H126.275ZM123.038 45.5419L122.61 44.8227H120.963V45.5419H123.038ZM119.548 45.5419V44.8227H114.644V45.5419H119.548ZM112.733 45.5419L113.442 44.8227H111.45L110.803 45.5419H112.733ZM109.424 45.5419V44.8227H107.819V45.5419H109.424ZM106.157 45.5419C105.761 45.037 105.034 44.8227 104.3 44.8227H101.161V45.5419H106.157ZM98.2412 45.5419L97.9612 44.8227H96.3315L96.0493 45.5419H98.2412ZM94.3115 45.5419V44.8243H89.0343V45.5419H94.3115ZM87.7029 45.5419C87.2507 44.9634 86.4137 44.7004 85.5811 44.7004C84.7701 44.7004 83.8597 44.9482 83.3906 45.5419H87.7029ZM78.9581 45.5419V44.8243H73.6809V45.5419H78.9581ZM72.5349 45.5419V44.8227H70.9303V45.5419H72.5349ZM69.3832 45.5419V44.8227H67.0219L66.826 45.5419H69.3832ZM65.08 45.5419L64.8826 44.8227H62.52V45.5419H65.08ZM57.838 45.5419V44.8227H52.9312V45.5419H57.838ZM50.7551 45.5419C50.2393 45.0753 49.5072 44.8227 48.6005 44.8227H45.9531V45.5419H50.7551ZM43.813 45.5419C43.2988 45.0186 42.5559 44.7004 41.6148 44.7004C40.6744 44.7004 39.9314 45.0186 39.4157 45.5419H43.813ZM37.2657 45.5419V44.8227H34.9028L34.7085 45.5419H37.2657ZM32.9632 45.5419L32.7635 44.8227H30.4023V45.5419H32.9632Z" fill="#A5A5A5"/>
</svg>
