<svg width="81" height="24" viewBox="0 0 81 24" fill="none" xmlns="http://www.w3.org/2000/svg">
<path d="M20.9492 0.988281H24.6557V23.8718H20.9492V0.988281Z" fill="#17313B"/>
<path d="M37.549 16.6211C37.549 20.1664 34.6483 20.4887 33.6814 20.4887C31.4253 20.4887 31.103 18.3937 31.103 17.2657V8.40234H27.3965V17.1045C27.3965 19.1995 28.0411 21.1333 29.3303 22.2614C30.4584 23.3894 31.9087 23.8729 33.6814 23.8729C34.9706 23.8729 36.5821 23.5506 37.549 22.5837V23.8729H41.2555V8.40234H37.549V16.6211Z" fill="#17313B"/>
<path d="M48.5066 2.76172H44.8001V8.40201H42.0605V11.9473H44.8001V23.8725H48.5066V11.9473H51.2462V8.40201H48.5066V2.76172Z" fill="#17313B"/>
<path d="M62.8489 19.1976C62.0432 19.8422 60.9151 20.3256 59.787 20.3256C57.2086 20.3256 55.436 18.3918 55.436 15.8134C55.436 13.235 57.2086 11.4623 59.787 11.4623C60.9151 11.4623 62.0432 11.7846 62.8489 12.5904L63.3324 13.0738L65.9108 10.6565L65.2662 10.1731C63.8158 8.88388 61.882 8.07812 59.787 8.07812C55.2748 8.07812 51.8906 11.4623 51.8906 15.9745C51.8906 20.4868 55.2748 23.8709 59.787 23.8709C61.882 23.8709 63.8158 23.0652 65.2662 21.776L65.9108 21.2925L63.3324 18.7141L62.8489 19.1976Z" fill="#17313B"/>
<path d="M78.9642 9.69045C77.8361 8.5624 76.7081 8.07894 74.9354 8.07894C73.6462 8.07894 72.357 8.40124 71.3901 9.36815V0.988281H67.6836V23.8718H71.3901V15.3308C71.3901 11.7854 73.8073 11.4631 74.7742 11.4631C77.0304 11.4631 76.8692 13.5581 76.8692 14.6861V23.7106H80.5757V14.8473C80.5757 12.7523 80.0922 10.8185 78.9642 9.69045Z" fill="#17313B"/>
<path d="M59.6253 18.5533C61.0493 18.5533 62.2037 17.3989 62.2037 15.9749C62.2037 14.5509 61.0493 13.3965 59.6253 13.3965C58.2013 13.3965 57.0469 14.5509 57.0469 15.9749C57.0469 17.3989 58.2013 18.5533 59.6253 18.5533Z" fill="#EF4335"/>
<path d="M15.7928 18.2324C14.5036 19.5216 12.5698 20.3273 10.4748 20.3273C6.44605 20.3273 3.54533 17.1043 3.54533 12.7532C3.54533 8.40213 6.44605 5.17911 10.636 5.17911C12.5698 5.17911 14.5036 5.98486 15.954 7.43523L16.4374 7.91868L18.8547 5.50141L18.3713 5.01796C16.2763 2.92299 13.5367 1.79493 10.636 1.79493C4.51224 1.63378 0 6.46832 0 12.7532C0 19.0381 4.51224 23.8727 10.4748 23.8727C13.3756 23.8727 16.2763 22.7446 18.2101 20.6496L18.6936 20.1662L16.2763 17.7489L15.7928 18.2324Z" fill="#17313B"/>
</svg>
