<svg width="112" height="18" viewBox="0 0 112 18" fill="none" xmlns="http://www.w3.org/2000/svg">
<path d="M9.17109 0.414833C9.42709 -0.138278 10.2133 -0.138278 10.4693 0.414833L12.6285 5.08001C12.7327 5.30516 12.9461 5.46023 13.1925 5.48976L18.2965 6.10164C18.9017 6.17418 19.1446 6.92192 18.6977 7.33631L14.9281 10.8314C14.7461 11.0001 14.6646 11.251 14.7126 11.4944L15.708 16.5378C15.826 17.1357 15.1899 17.5978 14.6577 17.3008L10.1688 14.7957C9.95211 14.6748 9.68829 14.6748 9.47165 14.7957L4.98271 17.3008C4.4505 17.5978 3.81443 17.1357 3.93244 16.5378L4.92775 11.4944C4.97578 11.251 4.89426 11.0001 4.71233 10.8314L0.942708 7.33631C0.495775 6.92192 0.738732 6.17418 1.34388 6.10164L6.44795 5.48976C6.69428 5.46023 6.90771 5.30516 7.01192 5.08001L9.17109 0.414833Z" fill="#F04E36"/>
<path d="M32.4387 0.414833C32.6947 -0.138278 33.4809 -0.138278 33.7369 0.414833L35.8961 5.08001C36.0003 5.30516 36.2137 5.46023 36.46 5.48976L41.5641 6.10164C42.1692 6.17418 42.4122 6.92192 41.9653 7.33631L38.1956 10.8314C38.0137 11.0001 37.9322 11.251 37.9802 11.4944L38.9755 16.5378C39.0935 17.1357 38.4575 17.5978 37.9253 17.3008L33.4363 14.7957C33.2197 14.6748 32.9559 14.6748 32.7392 14.7957L28.2503 17.3008C27.7181 17.5978 27.082 17.1357 27.2 16.5378L28.1953 11.4944C28.2434 11.251 28.1618 11.0001 27.9799 10.8314L24.2103 7.33631C23.7634 6.92192 24.0063 6.17418 24.6115 6.10164L29.7155 5.48976C29.9619 5.46023 30.1753 5.30516 30.2795 5.08001L32.4387 0.414833Z" fill="#F04E36"/>
<path d="M55.7062 0.414833C55.9622 -0.138278 56.7485 -0.138278 57.0045 0.414833L59.1636 5.08001C59.2678 5.30516 59.4813 5.46023 59.7276 5.48976L64.8317 6.10164C65.4368 6.17418 65.6798 6.92192 65.2328 7.33631L61.4632 10.8314C61.2813 11.0001 61.1998 11.251 61.2478 11.4944L62.2431 16.5378C62.3611 17.1357 61.7251 17.5978 61.1928 17.3008L56.7039 14.7957C56.4873 14.6748 56.2234 14.6748 56.0068 14.7957L51.5179 17.3008C50.9857 17.5978 50.3496 17.1357 50.4676 16.5378L51.4629 11.4944C51.5109 11.251 51.4294 11.0001 51.2475 10.8314L47.4779 7.33631C47.0309 6.92192 47.2739 6.17418 47.879 6.10164L52.9831 5.48976C53.2294 5.46023 53.4429 5.30516 53.5471 5.08001L55.7062 0.414833Z" fill="#F04E36"/>
<path d="M78.9738 0.414833C79.2298 -0.138278 80.016 -0.138278 80.272 0.414833L82.4312 5.08001C82.5354 5.30516 82.7489 5.46023 82.9952 5.48976L88.0993 6.10164C88.7044 6.17418 88.9474 6.92192 88.5004 7.33631L84.7308 10.8314C84.5489 11.0001 84.4673 11.251 84.5154 11.4944L85.5107 16.5378C85.6287 17.1357 84.9926 17.5978 84.4604 17.3008L79.9715 14.7957C79.7548 14.6748 79.491 14.6748 79.2744 14.7957L74.7854 17.3008C74.2532 17.5978 73.6172 17.1357 73.7352 16.5378L74.7305 11.4944C74.7785 11.251 74.697 11.0001 74.5151 10.8314L70.7454 7.33631C70.2985 6.92192 70.5415 6.17418 71.1466 6.10164L76.2507 5.48976C76.497 5.46023 76.7104 5.30516 76.8146 5.08001L78.9738 0.414833Z" fill="#F04E36"/>
<path d="M102.241 0.414833C102.497 -0.138278 103.284 -0.138278 103.54 0.414833L105.699 5.08001C105.803 5.30516 106.016 5.46023 106.263 5.48976L111.367 6.10164C111.972 6.17418 112.215 6.92192 111.768 7.33631L107.998 10.8314C107.816 11.0001 107.735 11.251 107.783 11.4944L108.778 16.5378C108.896 17.1357 108.26 17.5978 107.728 17.3008L103.239 14.7957C103.022 14.6748 102.759 14.6748 102.542 14.7957L98.053 17.3008C97.5208 17.5978 96.8847 17.1357 97.0028 16.5378L97.9981 11.4944C98.0461 11.251 97.9646 11.0001 97.7826 10.8314L94.013 7.33631C93.5661 6.92192 93.809 6.17418 94.4142 6.10164L99.5183 5.48976C99.7646 5.46023 99.978 5.30516 100.082 5.08001L102.241 0.414833Z" fill="#F04E36"/>
</svg>
