<svg width="33" height="23" viewBox="0 0 33 23" fill="none" xmlns="http://www.w3.org/2000/svg">
<rect width="32.6842" height="23" fill="#314199"/>
<g clip-path="url(#clip0_147_2953)">
<path d="M15.9929 17.9004L16.2644 18.7005L17.0913 18.6997L16.5044 19.142L16.6657 20.0009L15.9929 19.5137L15.3179 19.988L15.4812 19.142L14.9004 18.6968H15.7266L15.9929 17.9004Z" fill="#F8EC26"/>
<path d="M15.9929 4L16.2644 4.80011L17.0913 4.79932L16.5044 5.24165L16.6657 6.10048L15.9929 5.61333L15.3179 6.08756L15.4812 5.24165L14.9004 4.79658H15.7266L15.9929 4Z" fill="#F8EC26"/>
<path d="M19.355 4.89453L19.6265 5.69464L20.4536 5.69386L19.8667 6.13619L20.0278 6.99501L19.355 6.50786L18.68 6.98209L18.8435 6.13619L18.2627 5.69112H19.0887L19.355 4.89453Z" fill="#F8EC26"/>
<path d="M12.4673 4.89453L12.7388 5.69464L13.5659 5.69386L12.979 6.13619L13.1402 6.99501L12.4673 6.50786L11.7923 6.98209L11.9558 6.13619L11.375 5.69112H12.201L12.4673 4.89453Z" fill="#F8EC26"/>
<path d="M19.355 16.9609L19.6265 17.7612L20.4536 17.7603L19.8667 18.2028L20.0278 19.0616L19.355 18.5745L18.68 19.0487L18.8435 18.2028L18.2627 17.7575H19.0887L19.355 16.9609Z" fill="#F8EC26"/>
<path d="M12.4673 16.9609L12.7388 17.7612L13.5659 17.7603L12.979 18.2028L13.1402 19.0616L12.4673 18.5745L11.7923 19.0487L11.9558 18.2028L11.375 17.7575H12.201L12.4673 16.9609Z" fill="#F8EC26"/>
<path d="M9.89231 7.51758L10.1638 8.31788L10.9907 8.3169L10.4038 8.75923L10.565 9.61825L9.89231 9.13091L9.21731 9.60514L9.38065 8.75923L8.7998 8.31416H9.62597L9.89231 7.51758Z" fill="#F8EC26"/>
<path d="M22.0144 7.51758L22.2858 8.31788L23.1128 8.3169L22.5258 8.75923L22.6872 9.61825L22.0144 9.13091L21.3394 9.60514L21.5027 8.75923L20.9219 8.31416H21.748L22.0144 7.51758Z" fill="#F8EC26"/>
<path d="M9.89231 14.4551L10.1638 15.2554L10.9907 15.2544L10.4038 15.6967L10.565 16.5558L9.89231 16.0684L9.21731 16.5426L9.38065 15.6967L8.7998 15.2517H9.62597L9.89231 14.4551Z" fill="#F8EC26"/>
<path d="M22.0144 14.4551L22.2858 15.2554L23.1128 15.2544L22.5258 15.6967L22.6872 16.5558L22.0144 16.0684L21.3394 16.5426L21.5027 15.6967L20.9219 15.2517H21.748L22.0144 14.4551Z" fill="#F8EC26"/>
<path d="M9.09251 10.959L9.36396 11.7593L10.1909 11.7583L9.60397 12.2006L9.76515 13.0597L9.09251 12.5723L8.4175 13.0465L8.58085 12.2006L8 11.7556H8.82616L9.09251 10.959Z" fill="#F8EC26"/>
<path d="M22.9019 10.959L23.1733 11.7593L24.0005 11.7583L23.4135 12.2006L23.5747 13.0597L22.9019 12.5723L22.2269 13.0465L22.3902 12.2006L21.8096 11.7556H22.6355L22.9019 10.959Z" fill="#F8EC26"/>
</g>
<defs>
<clipPath id="clip0_147_2953">
<rect width="16" height="16" fill="white" transform="translate(8 4)"/>
</clipPath>
</defs>
</svg>
