<svg width="34" height="23" viewBox="0 0 34 23" fill="none" xmlns="http://www.w3.org/2000/svg">
<g clip-path="url(#clip0_72_3298)">
<path d="M8.39551 0H25.1919V23.4347H8.39551V0Z" fill="white"/>
<path d="M0 0H8.39589V23.4347H0V0ZM25.1923 0H33.5882V23.4347H25.197L25.1923 0ZM10.9133 11.3237L10.255 11.5434L13.2916 14.1753C13.5234 14.8481 13.2128 15.0449 13.0134 15.4019L16.305 14.99L16.2262 18.2626L16.9123 18.2443L16.7593 14.9945L20.0602 15.3836C19.8562 14.9579 19.6754 14.7337 19.8609 14.0562L22.8928 11.5617L22.3643 11.3695C21.9285 11.0399 22.5498 9.78124 22.6425 8.98483C22.6425 8.98483 20.8762 9.58443 20.7603 9.26861L20.3059 8.41269L18.6972 10.1611C18.521 10.2023 18.4469 10.1337 18.4051 9.98721L19.1469 6.33469L17.9693 6.98922C17.872 7.03499 17.7746 6.99837 17.7097 6.88394L16.5739 4.64117L15.4056 6.97091C15.3175 7.0533 15.2294 7.06245 15.1553 7.00753L14.0333 6.38504L14.7102 10.0055C14.6546 10.152 14.5248 10.1886 14.3764 10.1108L12.8326 8.38523C12.6332 8.70563 12.4988 9.22284 12.2299 9.34184C11.9657 9.45169 11.0709 9.12214 10.4728 8.99398C10.6768 9.72174 11.3166 10.9301 10.9133 11.3283V11.3237Z" fill="#D52B1E"/>
</g>
<defs>
<clipPath id="clip0_72_3298">
<rect width="34" height="23" fill="white"/>
</clipPath>
</defs>
</svg>
