<svg width="1000" height="169" viewBox="0 0 1000 169" fill="none" xmlns="http://www.w3.org/2000/svg">
<path d="M996.664 48.651C991.313 38.9533 979.777 31.5982 967.248 31.5982C956.229 31.5982 946.537 36.1112 946.537 47.8128C946.537 57.6662 958.738 64.3497 971.439 72.5428C985.3 81.2304 999.677 91.9165 999.677 110.474C999.677 134.704 976.119 149.57 948.879 149.57C937.683 149.57 925.992 147.399 912.792 142.387L914.957 110.135C921.313 123.008 933.181 133.194 950.712 133.194C964.251 133.194 974.271 126.683 974.271 115.314C974.271 105.622 966.077 99.6101 956.063 93.5982C935.002 80.9027 921.646 70.7 921.646 52.3258C921.646 24.7483 944.7 15.561 968.592 15.561C982.453 15.561 991.151 18.07 1000 18.07L996.664 48.651ZM879.874 77.5502C876.854 82.5682 873.029 89.4075 870.676 94.4309C868.677 103.951 867.672 116.658 867.672 130.685C867.672 136.536 868.677 144.385 871.348 147.061H836.431C842.604 141.216 845.118 105.3 844.791 93.9313C840.111 77.7274 833.75 62.1846 824.063 43.2999C817.895 31.4425 810.701 20.2351 806.189 18.07C814.038 17.4091 824.063 16.9042 828.914 16.9042C837.597 16.9042 839.945 18.07 845.296 29.7715C853.634 48.6562 859.818 62.8453 863.498 73.381C872.357 59.509 878.536 49.9885 886.557 36.9547C888.561 33.7796 890.232 29.7715 890.232 25.9247C890.232 22.9109 889.727 19.5743 888.395 18.07H922.984C916.3 19.5743 886.219 66.8641 879.874 77.5502ZM758.399 48.3231L737.688 93.2597H771.433L758.399 48.3231ZM799.005 148.227C787.97 148.227 787.143 147.899 778.283 117.49L775.113 106.293C769.773 108.797 760.237 109.969 745.037 109.969H729.666L726.991 115.647C723.149 124.179 717.97 134.188 717.97 141.221C717.97 142.892 718.137 144.724 718.808 147.066H627.576C632.761 141.221 634.432 122.342 636.935 88.0804L637.435 79.898C638.773 60.347 639.788 45.309 639.611 34.7895C639.444 26.1021 638.606 20.5844 636.269 18.0809H671.529C666.511 21.9274 664.669 42.6391 662.337 76.9001L661.665 85.0826C660.827 97.7835 659.162 110.812 659.162 123.513C659.162 129.353 661.499 130.691 667.521 130.691C688.899 130.691 694.255 130.191 703.937 123.674C709.949 112.644 716.81 98.7719 723.483 84.4058L732.519 65.193C741.035 47.1466 749.384 28.7616 749.384 25.2585C749.384 22.7443 748.718 20.4125 747.724 18.07H775.79C775.79 18.07 787.148 60.1804 789.657 69.1957L795.164 89.5847C804.684 123.841 810.707 140.544 818.728 147.061C812.034 147.899 802.514 148.227 799.005 148.227ZM571.609 149.57C538.358 149.57 519.141 122.17 519.141 91.4275C519.141 48.6562 542.361 15.561 586.642 15.561C600.509 15.561 607.031 18.07 618.217 18.07L614.88 50.988C608.53 39.4583 598.166 31.6037 584.305 31.6037C556.738 31.6037 545.542 61.3517 545.542 86.9146C545.542 114.648 561.085 129.847 581.796 129.847C592.993 129.847 602.846 126.838 619.394 115.314C612.71 136.708 597.167 149.57 571.609 149.57ZM456.324 33.7796C453.149 33.7796 449.297 33.7796 446.299 34.1127C445.294 39.6249 444.456 49.1506 443.285 64.5162L442.613 73.5477C444.295 73.886 446.46 74.058 448.469 74.058C464.501 74.058 475.537 64.3551 475.537 49.6609C475.537 39.6249 468.52 33.7796 456.324 33.7796ZM502.931 152.579C493.411 152.579 491.069 151.069 487.899 146.722L451.806 96.596C448.964 92.7547 446.793 89.5795 442.286 89.5795H441.447L440.786 99.2716C439.943 112.472 439.443 123.008 439.443 130.857C439.61 139.545 440.615 144.885 442.957 147.061H408.035C413.042 142.548 414.874 127.51 417.722 88.0752L418.227 79.8924C419.565 60.5135 420.569 45.4704 420.397 34.9508C420.225 25.7582 419.232 20.074 416.717 18.07H464.335C479.872 18.07 501.261 20.7508 501.261 45.9752C501.261 66.6869 487.389 78.0552 470.186 83.3955C471.856 84.9052 474.86 88.7468 476.702 91.0892L502.931 125.845C519.307 147.399 520.64 148.399 526.496 151.408C519.141 152.24 509.287 152.579 502.931 152.579ZM340.206 48.3231L319.306 93.2597H353.224L340.206 48.3231ZM380.796 148.227C369.777 148.227 368.939 147.899 360.085 117.49L356.909 106.293C351.553 108.797 342.033 109.969 326.828 109.969H311.457L308.787 115.647C306.111 121.67 299.594 134.038 299.761 141.221C299.761 142.892 299.927 144.563 300.599 147.066H269.69C278.545 138.212 289.741 117.662 305.279 84.411L314.305 65.1986C322.487 47.8234 331.18 28.106 331.18 25.2639C331.18 22.7497 330.519 20.4179 329.509 18.0755H357.586C357.586 18.0755 364.925 45.9806 371.448 69.2011L376.96 89.5901C386.486 123.846 392.497 140.549 400.519 147.066C393.336 147.899 384.31 148.227 380.796 148.227ZM221.729 33.613C219.22 33.613 215.884 33.613 212.709 33.9515C211.371 42.972 210.533 51.6594 209.872 61.1799C209.872 61.1799 209.367 69.3622 209.367 69.0291H212.709C229.084 69.0291 244.127 63.3504 244.127 48.3231C244.127 39.6249 236.939 33.613 221.729 33.613ZM217.56 84.7387H208.373L207.035 103.785C206.369 112.144 206.03 119.156 205.864 127.51C205.864 128.687 209.539 131.19 218.221 131.19C236.267 131.19 248.136 122.17 248.136 107.293C248.136 90.7507 234.597 84.7387 217.56 84.7387ZM219.564 147.061H174.45C180.134 142.043 181.639 122.497 184.142 88.0752L184.642 80.059C185.985 60.5083 186.985 45.4704 186.818 34.9508C186.651 25.9247 185.647 20.074 183.138 18.07H233.597C245.627 18.07 269.69 18.7416 269.69 43.7995C269.69 60.5081 254.148 70.8665 239.948 74.5522C259.998 76.5561 275.036 86.243 275.036 106.96C275.031 129.347 253.981 147.061 219.564 147.061Z" fill="#117B9E"/>
<path d="M72.9099 0.0108213C68.4399 0.0108213 67.5158 0.789927 66.0652 2.40708C65.4695 2.37144 64.8729 2.3553 64.2761 2.35871C60.8377 2.35871 56.4214 2.86368 52.6552 5.38343C49.0179 7.78499 47.2879 12.0346 49.2274 15.1454C49.2274 15.1454 50.5276 13.2382 54.8042 13.2382C55.4059 13.2382 56.0722 13.3026 56.7813 13.3617C62.6912 14.0601 67.0645 17.1709 66.5326 25.3856C66.0598 33.595 62.9813 42.75 50.3879 42.8574C50.3879 42.8574 48.7654 42.8574 47.0354 42.6962C41.1739 42.0569 39.3311 38.3766 39.3311 38.3766C39.3311 38.3766 44.3975 37.0012 44.4405 30.5702C44.3975 26.1969 40.5883 22.1943 35.0921 20.5772C33.1941 20.0412 31.2296 19.7772 29.2575 19.7928C22.7781 19.7928 15.5036 22.5059 10.5984 28.9101C-0.522912 43.5934 -1.42551 64.9979 1.28766 84.9034C4.01694 104.852 16.6694 123.328 17.0401 123.833C17.3088 124.188 17.5505 124.381 17.8245 124.381C17.9871 124.371 18.141 124.305 18.2597 124.193C23.7237 118.89 28.9351 111.643 31.1647 106.797C33.5502 108.699 32.3037 112.744 30.9928 117.064C29.7464 121.48 26.7162 127.341 25.6202 129.233C24.5618 131.081 23.1434 133.23 25.0507 134.353C25.2745 134.48 25.5293 134.544 25.7868 134.535C28.2367 134.535 34.0015 130.264 40.4325 121.69C47.6318 112.041 51.2852 103.476 51.2852 103.476C51.8117 103.595 52.6928 104.487 52.5477 106.915C52.451 109.381 49.9151 118.557 44.9777 127.1C39.9866 135.637 35.3769 140.977 34.4474 142.192C33.8725 142.895 34.3614 143.336 34.7321 143.621C35.0975 143.868 43.9247 152.109 56.7491 159.072C71.9428 167.169 78.6801 168.625 78.6801 168.625C78.6801 168.625 85.4012 167.206 100.595 159.115C113.414 152.142 122.279 143.862 122.607 143.583C122.977 143.33 123.45 142.933 122.891 142.159C122.016 140.999 117.39 135.632 112.409 127.095C107.488 118.611 104.855 109.376 104.818 106.942C104.716 104.486 105.543 103.675 106.048 103.471C106.048 103.471 109.739 112.089 116.938 121.684C123.402 130.27 129.113 134.53 131.573 134.53C131.84 134.539 132.103 134.476 132.336 134.348C134.185 133.225 132.809 131.043 131.724 129.217C130.714 127.336 127.641 121.512 126.335 117.059C125.083 112.691 123.783 108.65 126.212 106.791C128.447 111.638 133.62 118.923 139.1 124.15C139.16 124.218 139.232 124.273 139.314 124.312C139.395 124.35 139.483 124.372 139.573 124.376C139.815 124.376 140.073 124.188 140.299 123.86C140.701 123.323 153.375 104.879 156.083 84.898C158.802 64.9495 157.905 43.5934 146.773 28.9047C141.9 22.4844 134.571 19.7551 128.049 19.7551C126.013 19.7551 124.068 20.0184 122.29 20.5288C116.75 22.1943 112.957 26.2346 112.99 30.5649C112.99 36.9959 118.083 38.3712 118.083 38.3712C118.083 38.3712 116.38 41.9602 110.309 42.6908C109.218 42.8259 108.12 42.8941 107.021 42.895C102.454 42.895 98.6071 41.4444 95.0612 36.4371C91.6227 31.6179 91.7355 21.6947 91.5367 18.3852C91.3809 15.0273 90.661 7.49494 87.1312 4.42181C83.6122 1.26809 79.3248 0.209532 73.9791 0C73.5869 0.0107452 73.2376 0.0108213 72.9099 0.0108213Z" fill="#117B9E"/>
</svg>
