<svg width="1000" height="313" viewBox="0 0 1000 313" fill="none" xmlns="http://www.w3.org/2000/svg">
<path fill-rule="evenodd" clip-rule="evenodd" d="M0 16.6552H121.6L134.93 17.211L147.7 18.3228L159.919 21.0969L171.581 23.8763L182.127 28.3181L192.122 32.7598L201.562 38.3133L210.445 44.4227L218.222 51.088L225.994 58.3038L232.659 66.0808L238.763 74.4084L243.761 83.2919L248.759 92.1807L252.644 101.62L255.98 111.059L428.652 0L491.392 42.1991L357.023 128.816L378.675 143.253L514.156 57.192L572.449 96.0558L438.641 184.34L461.406 198.221L597.432 111.605V16.6552H697.379V205.993H786.219V294.828H597.432V203.769L429.202 312.044L257.631 195.998L254.296 205.993L250.966 215.432L245.968 224.872L240.971 234.316L234.861 242.644L228.196 250.977L220.98 258.748L212.653 265.408L204.325 272.074L194.33 277.627L184.335 282.625L173.228 287.066L161.565 290.396L149.351 292.615L136.582 294.282L122.701 294.838H0V16.6552ZM95.5053 103.828H121.6L133.263 104.939L142.702 108.269L151.03 113.267L158.246 119.932L163.249 127.704L167.134 136.037L169.353 145.476L169.908 154.916L169.353 164.355L167.134 173.8L163.249 182.127L157.695 189.904L151.03 196.564L142.702 201.567L132.707 204.897L121.6 206.009H95.5053V103.828ZM811.207 16.6552H911.71V205.993H1000V294.828H811.213L811.207 16.6552Z" fill="#0B71A8"/>
</svg>
