<svg width="1000" height="178" viewBox="0 0 1000 178" fill="none" xmlns="http://www.w3.org/2000/svg">
<path d="M105.132 89.3901L107.814 89.7009C118.804 90.2896 122.353 92.3665 123.547 93.266C124.446 94.1491 126.523 97.1092 126.523 108.688V147.921C126.673 149.407 126.245 150.894 125.329 152.074C124.74 152.663 122.958 153.857 115.517 156.228C111.966 157.473 108.275 158.275 104.527 158.616C101.185 159.165 97.8068 159.46 94.4204 159.499C86.5174 159.606 78.6805 158.048 71.4195 154.926C64.1585 151.804 57.6361 147.188 52.2766 141.379C40.9761 129.195 35.105 111.942 35.105 90.2896C35.105 63.8618 40.7471 44.4988 52.342 33.0511C63.8551 21.9959 77.2162 16.0431 92.0655 16.0431C106.915 16.0431 118.493 20.7857 127.701 30.5981C132.748 36.2456 137.796 44.8586 142.844 56.4371L143.744 58.2197H154.488L152.362 0.588739H141.961L141.078 2.37131C140.489 4.16897 139.48 5.80036 138.134 7.13028C137.546 7.71902 136.352 8.32411 132.509 8.32411C132.198 8.32411 129.532 8.01339 117.349 4.4646C107.883 1.74532 98.0874 0.342075 88.2387 0.294369C61.2712 0.294369 38.9155 9.81231 22.578 28.5375C7.73029 45.2978 -0.318862 67.0014 0.00967477 89.3901C0.00967477 116.129 9.51126 138.108 28.5635 154.135C45.5061 168.69 66.5862 175.82 91.5258 175.82C105.804 175.713 119.963 173.203 133.408 168.396C152.706 161.854 156.565 157.995 156.565 154.135V105.728C156.565 98.8917 158.053 94.1491 160.425 92.0722C161.308 91.4671 163.695 90.2733 170.809 89.6845L173.491 89.3901V79.2344H105.132V89.3901ZM349.557 13.6555L352.239 13.9662C360.252 14.8493 365.894 16.6319 368.593 19.6083C370.081 21.0801 372.452 26.4278 372.452 42.7653V106.921C372.452 122.065 370.67 133.349 367.105 140.48C360.563 152.958 348.396 159.188 329.098 159.188C311.878 159.188 300.283 153.252 294.346 141.068C291.075 134.232 289.293 124.436 289.293 112.269V32.9694C289.293 22.2739 291.37 19.0032 292.564 17.8257C293.758 16.6482 297.617 14.5549 309.196 13.9662L311.861 13.6718V3.27077H236.405V13.6555L239.07 13.9662C250.371 14.8493 254.23 16.9262 255.424 18.1201C256.618 19.3139 258.695 22.5683 258.695 33.2637V110.127C258.695 125.859 261.361 138.632 267.019 148.428C277.109 166.548 296.456 176.066 324.028 176.066C351.944 176.066 371.258 166.548 381.643 148.15C386.991 138.337 389.967 124.387 389.967 106.872V42.4709C389.967 26.4442 392.339 21.3908 393.827 19.5756C395.609 17.4986 399.763 14.8166 410.459 13.6391L413.124 13.3447V3.27077H350.162V13.6718L349.557 13.6555ZM612.69 126.513C606.754 139.874 599.918 148.199 592.804 151.469C585.379 155.035 573.179 156.817 557.153 156.817C538.444 156.817 532.213 156.228 530.136 155.623C529.547 155.329 527.765 155.035 527.765 149.687V91.7778H562.811C575.289 91.7778 579.443 94.1491 580.62 95.3429C582.403 97.1255 584.791 101.574 586.868 112.858L587.456 115.229H598.74V52.5613H587.456L586.868 54.9489C584.791 65.9387 582.403 70.6813 580.62 72.4639C579.443 73.9521 575.289 76.3234 562.811 76.3234H527.765V23.9911C527.765 20.1316 528.353 19.2321 528.353 19.2321C529.774 18.6834 531.304 18.4816 532.818 18.6434H566.376C583.597 18.6434 590.138 21.0147 592.542 22.7973C594.946 24.5798 598.479 29.6332 600.85 42.1112L601.439 44.4825H613.328L611.84 3.20535H474.893V13.6555L477.575 13.9662C488.548 14.8493 492.113 16.9262 493.307 18.1201C494.501 19.3139 496.267 22.8627 496.267 33.2637V142.835C496.267 154.119 494.19 157.095 493.307 157.978C492.113 159.172 488.254 160.955 477.264 162.148L474.598 162.443V172.533H612.985L625.757 125.107H612.985L612.69 126.513ZM774.855 76.6178L753.17 63.2567C746.786 59.5813 740.983 54.9795 735.949 49.6012C732.586 45.6205 730.79 40.5506 730.896 35.3407C730.749 32.6115 731.267 29.8874 732.407 27.4032C733.546 24.9189 735.273 22.7489 737.437 21.0801C741.909 17.5265 747.475 15.6363 753.186 15.7324C761.2 15.7324 769.54 18.7088 777.831 24.6453C786.123 30.5817 792.092 40.9991 795.951 56.1264L796.54 58.4977H808.119L802.101 0H791.994L791.405 2.07694C791.001 3.86593 790.299 5.57421 789.328 7.13028C788.224 7.95896 786.864 8.37547 785.485 8.30776C785.174 8.30776 783.097 8.01339 772.696 4.44825C765.896 1.7908 758.699 0.287383 751.404 0C737.143 0 725.237 4.44825 716.357 13.3611C711.969 17.6939 708.519 22.8825 706.221 28.6048C703.922 34.327 702.825 40.4606 702.996 46.6248C702.996 56.7152 706.839 65.9224 714.264 74.5409C718.961 79.4376 724.252 83.7283 730.013 87.3132L751.093 100.396C762.982 107.821 770.717 113.479 774.266 117.028C776.797 119.49 778.79 122.45 780.118 125.72C781.447 128.991 782.083 132.502 781.985 136.031C781.985 144.061 779.614 150.292 774.561 154.74C769.467 159.197 762.914 161.629 756.146 161.576C742.491 161.576 731.207 156.228 721.999 145.533C716.652 139.302 711.893 130.684 707.739 120.005L707.15 118.222H696.16L704.468 176.72H714.869L715.163 174.348C715.453 172.664 716.058 171.05 716.946 169.589C717.257 168.706 718.434 168.396 720.217 168.396C720.511 168.396 722.899 168.706 733.578 172.566C741.592 175.422 750.026 176.925 758.534 177.014C774.266 177.014 787.644 172.271 797.783 163.359C802.785 159.131 806.79 153.85 809.51 147.892C812.23 141.935 813.598 135.45 813.516 128.901C813.712 119.145 810.573 109.615 804.619 101.884C798.601 93.266 788.805 85.2363 774.855 76.6178ZM991.364 100.38C985.721 93.266 975.615 85.2363 961.927 76.6178L940.241 63.2567C933.895 59.569 928.126 54.9679 923.119 49.6012C919.756 45.6205 917.96 40.5506 918.066 35.3407C917.919 32.6115 918.437 29.8874 919.577 27.4032C920.716 24.9189 922.443 22.7489 924.607 21.0801C929.078 17.5265 934.645 15.6363 940.356 15.7324C948.369 15.7324 956.71 18.7088 965.001 24.6453C973.293 30.5817 979.262 40.9991 983.121 56.1264L983.71 58.4977H995.289L989.27 0H979.164L978.575 2.07694C978.171 3.86593 977.469 5.57421 976.498 7.13028C975.388 7.96138 974.023 8.37795 972.638 8.30776C972.344 8.30776 970.267 8.01339 959.866 4.44825C953.034 1.78158 945.804 0.278034 938.475 0C924.231 0 912.309 4.44825 903.429 13.3611C899.044 17.6963 895.596 22.8853 893.298 28.607C891 34.3286 889.9 40.4611 890.068 46.6248C890.068 56.7152 893.927 65.9224 901.352 74.5409C906.043 79.4377 911.328 83.7284 917.084 87.3132L938.181 100.396C950.054 107.821 957.806 113.479 961.354 117.028C963.883 119.492 965.874 122.452 967.202 125.722C968.531 128.993 969.168 132.503 969.073 136.031C969.073 144.061 966.686 150.292 961.354 154.74C956.248 159.187 949.695 161.618 942.924 161.576C929.268 161.576 917.984 156.228 908.777 145.533C903.429 139.302 898.67 130.684 894.516 120.005L893.927 118.222H882.938L891.245 176.72H901.646L901.941 174.348C902.252 172.71 902.751 171.113 903.429 169.589C903.723 168.706 904.901 168.396 906.7 168.396C907.01 168.396 909.382 168.706 920.077 172.566C928.086 175.423 936.514 176.927 945.017 177.014C960.766 177.014 974.127 172.271 984.266 163.359C989.266 159.127 993.269 153.842 995.986 147.882C998.703 141.922 1000.07 135.434 999.982 128.885C1000.26 117.012 997.3 108.099 991.364 100.38Z" fill="#A5A5A5"/>
</svg>
