<svg width="1000" height="122" viewBox="0 0 1000 122" fill="none" xmlns="http://www.w3.org/2000/svg">
<path fill-rule="evenodd" clip-rule="evenodd" d="M302.748 121.607C238.849 121.607 210.251 96.9234 210.251 60.3595C210.251 24.9279 238.843 0 302.748 0C366.396 0 394.994 24.8027 394.994 60.3595C394.994 96.9291 366.521 121.607 302.748 121.607ZM721.162 117.117L607.783 117.026L607.828 102.147C607.828 102.147 619.322 100.804 623.999 100.189C628.665 99.5693 630.503 95.5976 630.48 91.1993C630.469 86.8009 630.537 36.0461 630.537 30.8967C630.526 25.7472 628.181 22.7714 623.134 22.0431C618.087 21.3204 607.663 20.2734 607.663 20.2734V4.3699H721.162C772.662 4.3699 794.932 29.423 794.932 59.2898C794.932 92.4454 772.662 117.117 721.162 117.117ZM400.035 117.521V102.061C400.035 102.061 413.595 100.559 415.717 100.195C420.832 99.2961 422.676 95.8935 422.67 90.562V31.5055C422.67 25.7472 420.138 22.5552 414.647 21.9463C412.872 21.7529 400.035 20.2621 400.035 20.2621V4.35284C400.035 4.35284 478.739 4.29024 479.946 4.29593C484.224 4.31869 487.155 6.3671 489.408 9.25193C489.863 9.83231 549.085 88.0982 549.085 88.0982C549.085 88.0982 549.107 37.4857 549.085 32.1485C549.073 26.8113 547.207 22.8453 541.784 22.1796C540.095 21.969 526.45 20.3702 526.45 20.3702V4.35284H598.884V20.2336C598.884 20.2336 586.184 21.6049 583.538 22.0203C577.313 22.9876 576.283 27.1982 576.249 31.6876C576.226 36.1827 576.249 117.527 576.249 117.527L519.451 117.516C515.684 117.516 511.94 115.803 509.903 113.191C508.561 111.467 449.84 33.7758 449.84 33.7758C449.84 33.7758 449.811 86.1636 449.84 91.3529C449.868 96.5422 452.395 99.7456 456.998 100.298C461.595 100.855 472.475 102.067 472.475 102.067V117.527L400.035 117.521ZM0.0455221 117.498L0 102.397C0 102.397 9.26332 101.31 14.9931 100.611C20.723 99.8993 22.6746 96.2122 22.6803 89.754V32.3192C22.6917 26.5495 21.2521 22.5267 15.1638 21.6049C13.0415 21.2806 0.051209 19.841 0.051209 19.841L0.0455221 4.32441H90.5848L90.4994 19.75C90.4994 19.75 76.997 21.2692 75.2104 21.5309C70.5844 22.1739 67.9841 25.1668 67.9499 31.6477V49.594H137.738V32.046C137.738 26.43 136.076 22.208 130.824 21.5082C125.573 20.8083 115.063 19.6134 115.063 19.6134L115.097 4.31868H205.636L205.557 19.7557C205.557 19.7557 194.746 21.0245 189.972 21.6163C185.198 22.208 182.985 25.8952 182.996 31.955C183.002 33.019 182.962 84.377 182.996 90.8693C183.03 97.3729 186.655 99.7912 189.631 100.184C192.612 100.559 205.671 102.027 205.671 102.027L205.631 117.498H115.103L115.183 101.97C115.183 101.97 128.969 100.446 130.728 100.104C136.907 98.858 137.761 94.6588 137.738 89.515C137.715 84.3713 137.738 72.2231 137.738 72.2231H67.9499C67.9499 72.2231 67.8987 82.7269 67.9499 90.3514C68.0012 97.976 71.5859 100.133 75.0511 100.622C79.4324 101.191 90.5734 102.42 90.5734 102.42L90.5848 117.498H0.0455221ZM742.92 60.809C742.92 32.3419 731.409 26.0033 703.824 26.0033H674.851V95.2448H703.824C731.409 95.2505 742.92 89.5378 742.92 60.809ZM342.993 60.7407C342.993 31.386 328.313 21.7358 302.628 21.7358C276.938 21.7358 262.263 31.386 262.263 60.7407C262.263 90.4823 276.944 99.9505 302.628 99.9505C328.313 99.9505 342.993 90.4823 342.993 60.7407ZM858.444 117.544H786.016V102.096C786.016 102.096 796.008 100.753 801.408 100.053C806.807 99.353 808.964 95.0514 809.579 94.0727C810.199 93.1168 844.908 36.8882 847.929 31.8526C850.95 26.817 847.764 22.9705 843.804 22.265C841.039 21.7699 823.758 19.9946 823.758 19.9946L823.747 4.34716H912.129C917.666 4.50079 921.074 10.7199 921.074 10.7199L971.852 88.3941C975.965 94.6531 979.083 99.2506 984.108 99.996C989.143 100.73 999.932 101.987 999.932 101.987L1000 117.521H902.138L902.229 102.175C902.229 102.175 908.675 101.322 914.565 100.554C920.465 99.7855 925.421 97.2306 920.533 90.0499C915.646 82.8805 915.765 82.9487 915.765 82.9487L846.398 83.1024C846.398 83.1024 844.242 86.3457 840.874 91.5577C837.516 96.7584 841.061 100.047 846.04 100.662L858.456 102.204L858.444 117.544ZM859.036 62.6526L902.724 62.8744L880.63 27.9379L859.036 62.6526Z" fill="#A5A5A5"/>
</svg>
