<svg width="1000" height="1001" viewBox="0 0 1000 1001" fill="none" xmlns="http://www.w3.org/2000/svg">
<path fill-rule="evenodd" clip-rule="evenodd" d="M393.198 301.7L472.442 302.132C472.528 302.175 472.614 302.218 472.744 302.261L474.125 302.563C476.801 302.779 478.484 302.261 481.117 303.081L488.627 304.721C488.757 304.765 488.843 304.808 488.929 304.851C489.059 304.894 489.145 304.894 489.275 304.937C493.245 305.844 493.677 306.491 496.741 307.484L499.461 308.52C499.547 308.563 499.633 308.606 499.72 308.649L505.244 311.886C505.33 311.929 505.46 311.973 505.546 312.016C507.834 313.095 508.222 314.001 510.294 315.21L511.718 316.289C511.718 316.289 512.15 316.72 512.323 316.936L521.516 327.77C521.689 327.986 522.077 328.417 522.077 328.46L526.177 336.445C526.523 337.222 526.22 336.445 526.523 337.352L528.767 345.078C529.889 348.617 529.846 349.998 529.975 353.883C530.062 356.386 531.184 356.127 530.882 363.076C530.709 366.702 530.148 363.594 529.975 367.176C529.889 369.248 530.105 371.018 529.458 372.917L529.155 376.327C528.983 377.535 529.026 376.931 528.896 377.319L526.868 384.053C526.652 384.916 526.695 385.304 526.479 386.168C526.436 386.297 526.436 386.383 526.393 386.47C526.35 386.599 526.22 386.944 526.177 387.074L521.991 398.728C521.818 399.246 521.559 400.109 521.386 400.627L510.553 430.667C510.51 430.754 510.467 430.84 510.423 430.969L500.626 458.722C500.583 458.809 500.54 458.938 500.496 459.024L498.727 464.333C498.684 464.42 498.641 464.549 498.597 464.635L486.21 499.381C486.167 499.467 486.124 499.596 486.081 499.683L483.836 505.769C483.793 505.898 483.664 506.243 483.62 506.373L476.11 527.22C475.851 527.867 475.722 528.472 475.506 529.119C475.463 529.205 475.42 529.335 475.377 529.421L472.873 536.931C472.83 537.018 472.787 537.104 472.744 537.233L462.644 565.073C462.515 565.461 462.471 565.634 462.342 566.022C462.299 566.152 462.299 566.238 462.256 566.324C462.212 566.411 462.169 566.54 462.169 566.627L459.407 573.878C459.191 574.525 459.278 574.266 459.105 574.827L458.069 577.978C458.026 578.064 457.983 578.194 457.94 578.28L457.724 578.884C457.681 578.971 457.637 579.1 457.637 579.187L456.213 583.589C456.17 583.675 456.127 583.805 456.084 583.891L454.659 587.474C454.616 587.56 454.573 587.689 454.53 587.776L452.156 594.984C452.113 595.07 452.07 595.2 452.026 595.286L451.336 596.667C451.293 596.753 451.25 596.84 451.206 596.969C451.163 597.056 451.12 597.185 451.077 597.271L450.257 599.775C450.127 600.077 450.084 600.293 449.955 600.724L448.703 604.479C448.66 604.566 448.617 604.695 448.574 604.781L444.603 615.831C444.473 616.176 444.516 616.09 444.387 616.435C444.257 616.78 444.214 616.91 444.085 617.385L443.653 618.636C443.61 618.723 443.567 618.852 443.524 618.938C443.481 619.025 443.437 619.111 443.394 619.197L442.099 622.478C442.056 622.564 442.013 622.694 441.97 622.78L439.467 630.29C439.423 630.376 439.38 630.506 439.337 630.592L436.834 637.282C436.661 637.8 436.402 638.663 436.229 639.181L435.884 640.088C435.755 640.476 435.712 640.649 435.582 641.037L425.008 670.085C424.964 670.171 424.964 670.301 424.921 670.387L423.583 674.488C423.54 674.574 423.497 674.703 423.454 674.79L419.612 685.537C419.569 685.623 419.526 685.753 419.483 685.839C418.965 687.436 419.44 688.127 418.102 688.645L311.364 689.465C311.364 687.22 311.71 686.745 312.487 684.76L314.774 678.717C314.817 678.631 314.86 678.502 314.86 678.415L315.896 675.308C315.939 675.221 315.983 675.092 316.026 675.005L318.529 668.359C318.572 668.272 318.615 668.143 318.659 668.057L322.025 658.906C322.068 658.82 322.068 658.69 322.112 658.604L329.276 637.843C329.319 637.757 329.363 637.628 329.406 637.541L331.046 633.354C331.089 633.268 331.132 633.139 331.175 633.052L337.002 616.349C337.045 616.262 337.088 616.133 337.088 616.047L339.29 610.306C339.333 610.22 339.376 610.09 339.419 610.004L349.519 581.345C349.691 580.87 349.735 580.568 349.907 580.05L356.684 561.404C356.813 561.059 356.77 561.145 356.899 560.8L359.273 553.592C359.316 553.505 359.36 553.419 359.403 553.29L360.827 549.707C360.956 549.362 360.913 549.448 361.043 549.103C361.172 548.714 361.259 548.369 361.431 547.851C361.474 547.765 361.518 547.635 361.518 547.549L363.417 541.938C363.46 541.852 363.503 541.765 363.546 541.636L370.193 523.292C370.322 522.861 370.409 522.558 370.581 522.04L371.401 519.537C371.445 519.451 371.445 519.321 371.488 519.235C371.531 519.149 371.574 519.019 371.574 518.933L375.761 507.279C375.89 506.934 375.847 507.02 375.977 506.675L377.271 503.395C377.315 503.308 377.358 503.222 377.401 503.136L388.364 471.973C388.407 471.887 388.45 471.757 388.493 471.671L390.306 467.225C390.349 467.139 390.349 467.009 390.392 466.923L394.838 454.277C394.881 454.19 394.924 454.061 394.967 453.975L395.788 451.471C395.917 451.083 395.874 451.255 396.003 450.867C396.046 450.781 396.09 450.651 396.133 450.565L397.557 446.162C397.6 446.076 397.643 445.946 397.687 445.86L404.463 427.171C404.506 427.085 404.549 426.955 404.549 426.869L413.397 401.965C413.44 401.878 413.484 401.749 413.527 401.663L416.85 392.469C417.023 391.994 417.152 391.476 417.368 390.872C417.411 390.786 417.454 390.656 417.498 390.57C417.541 390.484 417.584 390.354 417.627 390.268L422.85 375.463C423.022 374.945 423.065 374.687 423.238 374.169L426.907 364.069C426.95 363.982 426.993 363.853 426.993 363.767C427.511 362.256 428.029 360.961 428.029 359.364H372.998C372.394 361.047 373.128 359.191 372.437 360.486C372.351 360.616 371.919 361.522 371.876 361.565C371.833 361.695 371.66 362.04 371.617 362.17L358.281 399.72C358.237 399.807 358.194 399.936 358.151 400.022L353.964 411.676C353.792 412.151 353.749 412.496 353.576 412.971L349.907 423.071C349.864 423.157 349.821 423.287 349.778 423.373C349.605 423.848 349.562 424.193 349.389 424.668L342.397 443.918C342.268 444.349 342.181 444.652 342.009 445.17C341.966 445.256 341.922 445.385 341.922 445.472L340.153 450.781C340.11 450.867 340.066 450.996 340.023 451.083C339.98 451.169 339.937 451.299 339.894 451.385C339.851 451.471 339.808 451.557 339.764 451.644L339.333 452.464C339.29 452.55 339.246 452.637 339.203 452.766L337.434 458.075C337.304 458.507 337.218 458.809 337.045 459.327L331.218 476.03C331.175 476.16 331.175 476.246 331.132 476.332L329.751 479.526C329.708 479.613 329.708 479.742 329.665 479.872L327.895 485.18C327.852 485.267 327.809 485.396 327.809 485.483L325.78 490.576C325.737 490.662 325.694 490.791 325.651 490.878C325.608 490.964 325.608 491.094 325.564 491.18L324.831 493.381C324.787 493.467 324.744 493.597 324.744 493.683L317.234 514.53C317.191 514.617 317.191 514.746 317.148 514.876L316.846 515.825C316.803 515.912 316.76 516.041 316.716 516.127L316.501 516.732C316.457 516.818 316.414 516.947 316.414 517.034L315.81 518.933C315.68 519.364 315.594 519.667 315.422 520.185C315.378 520.271 315.378 520.4 315.335 520.487L313.22 525.882C313.177 525.968 313.177 526.098 313.134 526.184C313.091 526.27 313.091 526.4 313.048 526.529L308.991 537.881C308.947 538.01 308.861 538.399 308.818 538.528L304.847 549.534C304.674 550.052 304.631 550.355 304.459 550.829L302.991 555.232C302.948 555.318 302.948 555.448 302.905 555.534L302.171 557.735C302.128 557.822 302.128 557.951 302.085 558.037C302.042 558.124 301.998 558.253 301.955 558.339C301.912 558.426 301.869 558.555 301.826 558.642L296.819 572.799C296.776 572.885 296.733 573.015 296.69 573.101L293.064 583.244C293.021 583.33 293.021 583.46 292.978 583.589C292.935 583.675 292.935 583.805 292.891 583.891L289.956 591.79C289.913 591.876 289.87 592.006 289.87 592.092C289.697 592.61 289.611 592.955 289.482 593.344C289.352 593.689 289.395 593.603 289.266 593.948L288.877 595.243C288.834 595.329 288.834 595.459 288.791 595.545L286.978 599.991C286.935 600.077 286.892 600.206 286.849 600.293L284.346 607.803C284.302 607.889 284.259 608.019 284.216 608.105L276.965 628.348C276.835 628.693 276.879 628.607 276.749 628.952L274.591 634.693C274.548 634.779 274.505 634.908 274.462 634.995L273.383 638.102C273.339 638.189 273.296 638.318 273.253 638.404L272.649 640.304C272.606 640.39 272.563 640.519 272.519 640.606C272.476 640.692 272.433 640.821 272.39 640.908L270.232 646.648C270.189 646.735 270.145 646.864 270.102 646.95L269.066 650.058C268.894 650.533 268.851 650.878 268.678 651.353L268.333 652.259C268.29 652.346 268.246 652.475 268.203 652.561C268.031 653.079 267.987 653.338 267.815 653.856L265.398 660.201C265.355 660.287 265.311 660.417 265.311 660.503C265.268 660.59 265.225 660.719 265.182 660.805C265.052 661.194 265.096 661.021 264.966 661.41L264.017 664.215C263.844 664.733 263.801 664.992 263.628 665.51L261.125 672.157C261.082 672.243 261.038 672.373 260.995 672.459L260.046 675.265C260.003 675.351 259.959 675.48 259.916 675.567L259.312 677.466C259.269 677.552 259.226 677.682 259.183 677.768L256.679 684.415C256.636 684.501 256.593 684.631 256.55 684.717C256.507 684.803 256.463 684.933 256.42 685.019L255.384 689.422H146.964C147.007 688.127 147.266 688.127 147.611 687.134L148.129 685.58C148.172 685.451 148.302 685.062 148.345 684.976L149.079 682.775C149.122 682.688 149.165 682.559 149.208 682.472L152.834 672.373C152.877 672.243 152.877 672.157 152.92 672.07C152.963 671.941 152.963 671.855 153.006 671.768L153.654 669.912C153.697 669.826 153.697 669.697 153.74 669.61L157.409 659.51C157.452 659.424 157.495 659.295 157.538 659.208L160.646 650.662C160.689 650.533 160.818 650.188 160.862 650.058L161.595 647.857C161.638 647.771 161.682 647.641 161.725 647.555L163.408 643.411C163.451 643.325 163.494 643.195 163.538 643.109L164.746 639.311C164.789 639.224 164.832 639.095 164.876 639.009L174.975 610.349C175.018 610.263 175.062 610.134 175.105 610.047L183.219 587.301C183.348 586.956 183.305 587.042 183.435 586.697C183.564 586.265 183.651 585.963 183.823 585.402L186.327 578.755C186.37 578.669 186.37 578.539 186.413 578.453C186.456 578.367 186.499 578.237 186.542 578.151L190.6 566.799C190.643 566.713 190.686 566.583 190.729 566.497L191.679 563.692C191.722 563.605 191.765 563.476 191.808 563.389L198.153 545.952C198.196 545.866 198.239 545.736 198.282 545.65C198.325 545.564 198.369 545.434 198.412 545.348L200.095 540.341C200.138 540.255 200.181 540.125 200.224 540.039L204.282 528.687C204.325 528.601 204.368 528.472 204.411 528.385L204.713 527.436C204.756 527.306 204.756 527.22 204.8 527.09C204.843 527.004 204.843 526.875 204.886 526.788C205.188 525.882 204.886 526.659 205.231 525.882L207.303 520.444C207.346 520.357 207.346 520.228 207.389 520.141L212.31 506.286C212.353 506.2 212.396 506.071 212.396 505.984L212.741 505.078C212.784 504.992 212.827 504.862 212.871 504.776C213.043 504.258 213.086 503.999 213.259 503.481L215.288 498.431C215.417 497.999 215.504 497.697 215.676 497.179C215.719 497.093 215.762 496.964 215.762 496.877L226.51 466.319C226.553 466.189 226.553 466.103 226.596 466.017L231.689 452.378C231.732 452.291 231.775 452.162 231.818 452.075L235.142 442.062C235.185 441.976 235.228 441.889 235.271 441.76L240.753 426.826C240.796 426.74 240.839 426.61 240.839 426.524L242.004 423.114C242.177 422.639 242.22 422.337 242.393 421.819L243.558 418.409C243.558 418.366 243.904 417.805 243.99 417.589L246.882 409.216C246.925 409.13 246.968 409 246.968 408.914L247.356 407.619C247.4 407.533 247.443 407.403 247.443 407.317L248.522 405.072C248.565 404.986 248.608 404.857 248.651 404.77C248.694 404.684 248.694 404.554 248.738 404.468C248.91 403.95 248.997 403.648 249.126 403.173L250.594 398.771C250.637 398.684 250.68 398.555 250.68 398.469L252.32 394.239C252.363 394.152 252.406 394.066 252.449 393.98L252.708 393.419C252.752 393.332 252.795 393.203 252.838 393.117L255.687 384.312C255.73 384.225 255.773 384.096 255.816 384.009L256.895 381.765C256.938 381.679 256.981 381.549 257.025 381.463C257.068 381.377 257.068 381.247 257.111 381.161L259.183 374.859C259.226 374.773 259.269 374.643 259.312 374.557L260.262 371.752C260.305 371.665 260.348 371.536 260.348 371.449L262.42 366.011C262.463 365.925 262.506 365.795 262.506 365.709L263.585 362.601C263.628 362.515 263.671 362.385 263.714 362.299L265.743 356.818C265.786 356.731 265.829 356.645 265.873 356.559L266.132 355.997C266.175 355.911 266.218 355.782 266.261 355.695C266.477 355.134 266.563 354.616 266.736 354.098L268.505 348.79C268.549 348.703 268.592 348.574 268.635 348.487L268.937 347.538C268.98 347.408 268.98 347.322 269.023 347.193L270.448 343.999C270.491 343.912 270.491 343.783 270.534 343.696L271.656 340.2C271.699 340.114 271.742 339.985 271.786 339.898C271.829 339.812 271.872 339.682 271.915 339.596L272.433 338.042C272.476 337.956 272.519 337.826 272.519 337.74L279.641 318.188C279.684 318.102 279.727 317.972 279.727 317.886L281.195 313.483C281.367 312.965 281.497 312.447 281.67 311.886C281.713 311.8 281.756 311.671 281.756 311.584L284.518 304.333C284.561 304.247 284.604 304.117 284.648 304.031L285.468 301.527C285.64 301.01 285.684 300.751 285.856 300.233C285.899 300.146 285.942 300.017 285.986 299.93C286.029 299.844 286.072 299.715 286.115 299.628L289.956 288.881C290 288.795 290 288.665 290.043 288.579L290.259 287.975C290.302 287.888 290.345 287.759 290.388 287.673L291.208 285.989C291.251 285.903 291.294 285.773 291.338 285.687L294.186 276.882C294.229 276.796 294.273 276.666 294.316 276.58L294.575 275.976C294.618 275.889 294.661 275.803 294.704 275.717L295.524 273.99C295.74 273.429 295.826 272.911 295.999 272.393L297.078 269.286C297.121 269.199 297.164 269.07 297.208 268.984L301.178 257.934C301.221 257.848 301.265 257.718 301.308 257.632C301.351 257.546 301.394 257.416 301.437 257.33L301.955 255.733L302.171 255.129L307.048 241.274C307.091 241.187 307.135 241.058 307.178 240.972L307.911 238.77C307.955 238.684 307.998 238.598 308.041 238.468L319.608 206.226C319.651 206.14 319.694 206.011 319.738 205.924L338.47 153.785C338.513 153.699 338.513 153.569 338.556 153.483C338.599 153.397 338.642 153.267 338.685 153.181C338.815 152.835 338.772 152.922 338.901 152.577L340.239 148.476C340.282 148.39 340.325 148.26 340.369 148.174L343.908 138.376C343.951 138.29 343.994 138.161 344.037 138.074L345.505 133.672C345.548 133.585 345.591 133.456 345.634 133.37L348.871 124.521C348.915 124.435 348.958 124.306 349.001 124.219C349.044 124.133 349.087 124.003 349.13 123.917L352.152 115.673C352.195 115.587 352.238 115.457 352.281 115.371L355.346 106.782C355.389 106.696 355.432 106.609 355.475 106.523C355.518 106.437 355.561 106.35 355.605 106.221L357.504 100.61C357.676 100.135 357.719 99.7898 357.892 99.315L360.482 92.3228C360.525 92.2365 360.568 92.107 360.611 92.0207L367.56 72.2526C367.646 72.0368 367.992 71.4757 367.992 71.4326L369.071 68.3249C369.114 68.2386 369.157 68.1091 369.2 68.0228C369.243 67.9365 369.287 67.807 369.287 67.7207L369.589 66.7711C369.632 66.6848 369.675 66.5553 369.718 66.469L369.934 65.8647C369.977 65.7784 370.02 65.6489 370.063 65.5626C370.107 65.4763 370.15 65.3468 370.15 65.2605L371.056 62.4118C371.099 62.2823 371.099 62.196 371.143 62.0665L376.71 47.2189C376.753 47.1325 376.753 47.0031 376.797 46.9167C376.84 46.8304 376.84 46.7009 376.883 46.5714L377.056 45.924C377.099 45.8377 377.142 45.7082 377.142 45.6219L381.631 33.0187C381.803 32.5439 381.846 32.1986 382.019 31.7238L387.846 15.0634C387.889 14.9771 387.932 14.8476 387.975 14.7613L388.493 12.7759C385.688 12.7759 384.134 13.8981 381.717 14.3297C381.026 14.4592 380.767 14.3728 380.163 14.4592L377.53 15.1497C376.926 15.2792 376.667 15.2361 376.106 15.3656L368.38 17.6531C367.646 17.8258 367.388 17.7394 366.611 17.9553L357.374 20.8039C357.288 20.8471 357.158 20.8903 357.072 20.9334L337.132 27.2782C336.182 27.6235 337.477 27.1919 336.527 27.494C336.441 27.5371 336.311 27.5803 336.225 27.6235L333.722 28.4435C333.635 28.4867 333.506 28.5299 333.42 28.5299L320.73 33.3208C320.644 33.364 320.514 33.4071 320.428 33.4503L308.214 38.3276C308.127 38.3707 307.998 38.4139 307.911 38.4571L302.948 40.6151C302.818 40.6583 302.473 40.8309 302.344 40.8741C302.257 40.9173 302.128 40.9604 302.042 41.0036L292.935 44.8018C292.805 44.845 292.46 44.9745 292.33 45.0608L290.69 45.924C290.604 45.9672 290.518 46.0103 290.388 46.0535L283.741 49.377C283.569 49.4633 283.353 49.5496 283.18 49.6359C283.094 49.6791 283.008 49.7223 282.921 49.7654L282.101 50.197C281.972 50.2402 281.67 50.4128 281.54 50.4992C281.454 50.5423 281.367 50.5855 281.281 50.6287C281.195 50.6718 281.108 50.715 280.979 50.7581C280.893 50.8013 280.763 50.8445 280.677 50.8876L273.728 54.3837L273.167 54.6858C273.08 54.729 272.994 54.7722 272.908 54.8153L270.966 55.7649C270.879 55.8081 270.793 55.8512 270.707 55.8944C270.62 55.9375 270.534 55.9807 270.448 56.0239L265.182 58.6567C265.096 58.6999 265.009 58.743 264.88 58.7862L264.06 59.2178C263.758 59.3905 263.283 59.6063 262.938 59.7789L254.866 64.2246C254.737 64.2677 254.435 64.4404 254.305 64.4835L217.662 87.4887C217.575 87.5319 217.489 87.6182 217.446 87.6614L210.41 92.3228C209.375 92.9703 209.504 93.2292 208.641 93.9198C207.476 94.8262 209.461 93.445 208.166 94.2651L201.519 98.8834C200.224 99.6603 199.404 100.998 198.153 101.775L193.75 104.84C193.664 104.883 193.578 104.969 193.491 105.012L192.197 106.221C192.11 106.307 191.851 106.523 191.722 106.609L190.643 107.214C189.046 108.163 187.88 109.674 186.197 110.71C186.197 110.71 185.291 111.443 185.248 111.443L180.672 115.199C179.248 116.321 177.867 117.961 176.184 119.04C175.407 119.515 175.062 119.946 174.414 120.637C171.609 123.486 171.652 122.838 169.623 124.608C169.105 125.039 169.278 124.953 168.803 125.428L163.926 130.132C163.84 130.176 163.753 130.219 163.667 130.262L162.847 130.694C162.761 130.737 162.674 130.823 162.588 130.866L144.633 148.778C142.389 151.023 140.187 153.224 137.986 155.468L132.159 161.295C132.073 161.382 131.814 161.64 131.728 161.727L130.347 163.281C129.958 163.885 130.174 163.755 129.786 164.36C128.75 166 126.16 168.158 125.297 169.021C125.081 169.237 124.649 169.625 124.649 169.625L118.391 177.136C118.348 177.222 118.305 177.308 118.261 177.394C117.744 178.301 115.24 180.588 113.945 182.66C112.478 184.948 111.183 185.293 109.931 187.408C109.888 187.494 109.845 187.581 109.802 187.667L102.206 197.163C102.162 197.249 102.076 197.335 102.033 197.422L97.1989 203.853C97.1557 203.939 97.0694 204.025 97.0262 204.112L96.2925 205.45C95.6451 206.356 95.1703 206.399 94.5229 207.435L71.0864 243.216C70.7842 243.648 70.4821 243.95 70.3526 244.166C70.1368 244.468 69.921 244.943 69.7915 245.245C69.6189 245.59 69.7052 245.46 69.5326 245.806C69.4894 245.935 69.3168 246.237 69.2736 246.367C68.9283 247.014 69.0146 246.842 68.6262 247.36C68.3241 247.791 68.0219 248.093 67.8924 248.309C67.6766 248.611 67.4608 249.086 67.2882 249.388L63.1447 256.898C63.1016 256.985 63.0584 257.114 63.0152 257.2C62.9721 257.287 62.9289 257.416 62.8858 257.503L61.3751 259.747C61.332 259.833 61.2456 259.92 61.2025 260.006L58.5696 265.272C58.397 265.617 58.4833 265.487 58.3107 265.833L45.6645 291.126C45.0602 292.377 46.0098 290.435 45.3623 291.687L44.1538 294.665C44.1107 294.751 44.1107 294.881 44.0675 294.967C44.0243 295.053 43.9812 295.183 43.938 295.269C43.8949 295.355 43.8517 295.485 43.8085 295.571C43.7654 295.657 43.7222 295.744 43.6791 295.873C43.6359 295.96 43.5927 296.046 43.5496 296.175L36.169 313.397C36.1259 313.483 36.0827 313.57 36.0395 313.656L30.6876 327.511C30.6444 327.597 30.6012 327.727 30.5581 327.813L26.8894 337.913C26.8462 337.999 26.8462 338.129 26.8031 338.215L24.5155 345.078C24.4724 345.164 24.4292 345.293 24.386 345.38L23.6523 347.581C23.6091 347.667 23.566 347.797 23.5228 347.883L17.7824 366.745C17.7392 366.831 17.6961 366.961 17.6961 367.047L15.279 375.895C14.9769 376.931 15.0201 377.578 14.6748 378.657L14.3295 379.564C14.2863 379.693 14.2863 379.78 14.2432 379.909L11.4377 392.512C11.3945 392.642 11.3514 392.728 11.3514 392.814C11.3082 392.944 11.1356 393.289 11.1356 393.419L8.5459 406.238C8.24377 407.403 8.50274 408.007 8.20061 409.216L5.35198 425.099C5.04985 425.963 5.13617 425.229 5.04985 426.481C4.96353 427.516 5.17934 428.725 4.96353 429.761C4.61824 431.444 4.35927 430.495 4.18663 432.351C4.05715 433.818 4.35927 435.803 3.92766 437.098C3.53921 438.221 3.8845 436.321 3.45289 438.307C3.23708 439.386 3.45289 440.897 3.40973 442.019C3.36657 442.796 3.40973 442.796 3.19392 443.486L2.54651 447.846C2.63283 452.637 2.07173 451.428 1.72645 453.716C1.46748 455.572 1.94225 458.463 1.68328 460.362C1.33799 462.823 0.863223 461.053 0.863223 466.621C0.863223 468.563 1.03587 471.498 0.863223 473.311C0.690578 475.512 0 474.994 0 479.526C0 480.044 0 480.735 0 481.512V522.472C0.0863222 524.63 0.215806 526.098 0.431611 526.659C0.863223 527.91 0.863223 531.148 0.863223 532.917C0.863223 535.032 0.517934 537.794 1.16535 539.737L1.72645 542.068C1.81277 544.226 1.33799 546.902 1.98541 548.887C2.71915 551.131 2.07173 554.066 2.63283 556.613C3.06444 558.555 2.71915 556.699 3.1076 557.822C3.79818 559.807 3.02128 561.922 3.71186 563.907C4.40243 565.936 3.8845 568.655 4.53192 570.554C4.57508 570.641 4.61824 570.77 4.6614 570.856C5.30882 572.669 4.74772 574.568 5.35198 576.381L7.38055 587.301C7.68268 588.466 7.42371 589.071 7.72584 590.279L8.20061 591.488C8.45958 592.394 8.3301 592.437 8.37326 593.387C8.37326 594.034 8.3301 594.336 8.45958 594.984C8.84803 596.969 8.5459 595.07 8.89119 596.192L16.2717 628.391C16.3149 628.477 16.3581 628.607 16.4012 628.693L22.3143 649.842C22.3575 649.929 22.3575 650.058 22.4006 650.144L24.9903 657.957C25.0335 658.086 25.0335 658.172 25.0766 658.302L25.8967 660.805C25.9398 660.892 25.9398 661.021 25.983 661.107C26.0262 661.194 26.0693 661.323 26.1125 661.41L29.3064 671.121C29.3496 671.207 29.3927 671.337 29.4359 671.423L33.7088 682.559C33.752 682.645 33.7952 682.731 33.8383 682.861C33.8815 682.947 33.9246 683.034 33.9678 683.12C34.011 683.249 34.2268 683.552 34.2699 683.638L34.9605 685.451C35.0037 685.58 35.0037 685.666 35.0468 685.796L36.0827 688.084C36.1259 688.17 36.169 688.256 36.2122 688.386L38.7155 695.076C38.7587 695.162 38.8019 695.292 38.845 695.378C38.8882 695.464 38.9313 695.55 38.9745 695.637C39.0177 695.766 39.1903 696.068 39.2766 696.198L42.2116 702.845C42.2547 702.931 42.2979 703.017 42.3411 703.104L45.535 710.312C45.7076 710.657 45.9234 711.089 46.0961 711.434L48.7289 716.7C48.7721 716.786 48.8152 716.872 48.8584 716.959C48.9016 717.045 48.9447 717.131 48.9879 717.218L49.549 718.34C49.5921 718.426 49.6353 718.513 49.6785 718.599C49.7216 718.685 49.7648 718.771 49.8079 718.858L50.369 719.98C50.4122 720.066 50.4554 720.153 50.4985 720.239C50.5417 720.325 50.5848 720.412 50.628 720.541L51.1891 721.663C51.2323 721.75 51.2754 721.836 51.3186 721.922C51.3617 722.009 51.4049 722.095 51.4481 722.224L52.0092 723.347C52.0523 723.433 52.0955 723.519 52.1386 723.649L52.8292 725.03C52.8724 725.116 52.9155 725.203 52.9587 725.332C53.0019 725.418 53.045 725.505 53.0882 725.591L62.9721 744.496C63.0152 744.582 63.0584 744.669 63.1016 744.798L67.1155 752.049C67.1587 752.135 67.2019 752.265 67.245 752.351L68.9283 754.811C68.9715 754.941 69.1441 755.243 69.2304 755.373L77.949 769.573C78.3374 770.177 78.1648 770.048 78.5532 770.652L86.8833 783.169C86.9265 783.255 87.0128 783.341 87.056 783.428C87.0992 783.514 87.1855 783.6 87.2286 783.643L90.2067 788.175C90.2499 788.262 90.3362 788.348 90.3794 788.434L101.903 804.016C102.723 805.311 101.342 803.368 102.249 804.491L105.356 808.461C105.874 808.979 106.522 809.497 106.996 810.145L107.299 810.663C107.342 810.792 107.514 811.094 107.601 811.224C108.421 812.605 109.845 813.468 110.665 814.849L113.125 817.828C114.291 819.079 114.765 820.417 116.017 821.583L118.607 824.82C119.427 826.158 118.046 824.129 118.952 825.294L131.814 839.538C132.677 841.005 159.826 868.499 162.804 870.269L163.322 870.571C165.609 872.168 167.077 875.017 169.494 876.484C170.098 876.873 169.969 876.657 170.573 877.089C172.645 878.383 174.673 881.103 175.579 881.664C175.666 881.707 175.752 881.75 175.838 881.793C175.925 881.836 176.011 881.879 176.097 881.923L178.73 884.297C178.989 884.555 179.291 884.858 179.55 885.117L188.7 892.627C188.787 892.713 189.046 892.929 189.175 893.015C189.262 893.058 189.348 893.145 189.434 893.188C191.938 894.785 194.096 896.813 196.469 898.669C197.635 899.576 195.649 898.195 196.944 899.015L197.764 899.446C197.851 899.489 197.937 899.533 198.023 899.576L221.373 916.279C221.632 916.452 221.848 916.668 222.323 917.013L239.717 927.933C239.803 927.976 239.89 928.062 239.976 928.106L240.882 928.839C240.969 928.883 241.055 928.969 241.141 929.012L256.118 937.817C256.204 937.86 256.291 937.903 256.42 937.946C258.751 939.112 254.651 937.083 256.981 938.249C257.283 938.421 257.758 938.637 258.104 938.81C258.233 938.853 258.535 939.026 258.665 939.069L259.744 939.63C259.83 939.673 259.916 939.759 260.003 939.802L264.491 942.392C264.578 942.435 264.664 942.478 264.75 942.522L267.513 943.903C267.599 943.946 267.685 943.989 267.772 944.032L269.153 944.723C269.239 944.766 269.325 944.809 269.455 944.852L270.836 945.543C270.922 945.586 271.009 945.629 271.138 945.672L272.519 946.363C272.606 946.406 272.735 946.449 272.821 946.492L274.203 947.183C274.289 947.226 274.375 947.269 274.462 947.313L275.843 948.003C275.929 948.046 276.015 948.089 276.102 948.133C276.188 948.176 276.274 948.219 276.361 948.262C276.706 948.435 276.965 948.564 277.181 948.694L278.303 949.255C278.389 949.298 278.476 949.341 278.562 949.384L281.626 950.895C281.713 950.938 281.799 950.981 281.928 951.024L283.871 952.017C284.259 952.19 284.043 952.103 284.432 952.276L288.316 954.218C288.403 954.262 288.489 954.305 288.575 954.348C288.662 954.391 288.748 954.434 288.877 954.477L297.769 958.491C297.855 958.535 297.941 958.578 298.028 958.621L300.574 959.829C300.704 959.873 300.79 959.873 300.919 959.916C301.006 959.959 301.135 959.959 301.265 960.002L302.818 960.563C302.905 960.606 302.991 960.649 303.077 960.693C303.207 960.736 303.509 960.909 303.595 960.995C303.682 961.038 303.768 961.081 303.854 961.124L310.587 963.973C311.149 964.146 311.321 964.146 311.882 964.318C311.969 964.361 312.098 964.405 312.184 964.448L313.868 965.268C313.997 965.311 314.342 965.484 314.429 965.527L318.615 967.21C318.702 967.253 318.831 967.296 318.918 967.296L321.421 968.116C321.507 968.16 321.637 968.16 321.723 968.203C322.457 968.419 322.327 968.332 323.018 968.591L336.355 973.598C336.441 973.641 336.57 973.684 336.657 973.727L337.606 974.03C337.693 974.073 337.822 974.073 337.908 974.116L341.966 975.497C342.052 975.54 342.181 975.583 342.268 975.627C342.354 975.67 342.484 975.67 342.57 975.713L346.627 977.051C346.713 977.094 346.843 977.137 346.929 977.18C347.015 977.224 347.145 977.267 347.231 977.31C347.318 977.353 347.447 977.396 347.533 977.396L355.863 979.9C356.381 980.072 356.77 980.202 357.115 980.331C358.453 980.806 356.468 980.331 358.367 980.763C358.971 980.892 359.23 980.849 359.834 980.979L362.338 981.799C362.424 981.842 362.553 981.842 362.64 981.885L368.769 983.655C368.855 983.698 368.984 983.741 369.071 983.784C369.157 983.827 369.287 983.87 369.373 983.914L371.79 984.432C371.876 984.475 372.006 984.518 372.092 984.518L374.466 985.079C375.761 985.424 375.243 984.734 375.761 985.899H378.264C378.307 984.647 378.307 985.252 378.566 984.518L380.077 980.633C380.12 980.547 380.163 980.461 380.206 980.374C380.25 980.288 380.293 980.202 380.336 980.072C380.379 979.986 380.422 979.856 380.465 979.77L381.156 977.569C381.199 977.483 381.242 977.353 381.285 977.267L382.235 974.461C382.278 974.375 382.321 974.245 382.321 974.159L384.393 968.721C384.436 968.634 384.479 968.548 384.522 968.419L386.422 962.808C386.465 962.721 386.465 962.592 386.508 962.505L387.026 960.952C387.069 960.865 387.112 960.736 387.155 960.65L388.58 957.067C388.623 956.981 388.666 956.894 388.709 956.765L390.263 952.06C390.306 951.931 390.436 951.586 390.479 951.456C390.608 951.024 390.695 950.722 390.867 950.204L393.716 942.608C393.759 942.522 393.802 942.392 393.845 942.306L394.536 940.105C394.579 940.018 394.622 939.889 394.665 939.802L396.823 933.199C396.867 933.112 396.91 932.983 396.953 932.896C396.996 932.81 397.039 932.681 397.082 932.594C397.126 932.508 397.169 932.379 397.212 932.292L398.766 928.408C398.809 928.321 398.852 928.192 398.895 928.106C398.938 928.019 398.981 927.89 399.025 927.803L402.995 916.754C403.039 916.668 403.082 916.538 403.125 916.452C403.168 916.366 403.211 916.236 403.254 916.15L406.233 907.906C406.276 907.82 406.319 907.733 406.362 907.604L410.505 895.087C410.549 895.001 410.592 894.914 410.635 894.785L413.225 887.793C413.268 887.706 413.311 887.577 413.311 887.49L414.433 883.994C414.476 883.908 414.519 883.779 414.563 883.692C414.606 883.606 414.649 883.476 414.692 883.39C414.735 883.304 414.778 883.217 414.822 883.088L416.246 879.506C416.289 879.419 416.332 879.29 416.375 879.203C416.419 879.117 416.462 878.988 416.505 878.901L419.138 871.132C419.915 869.578 418.663 872.125 419.44 870.614L419.699 870.053C419.742 869.967 419.785 869.837 419.828 869.751L428.288 846.098C428.331 846.012 428.331 845.883 428.374 845.796L431.266 836.991C431.309 836.905 431.352 836.776 431.395 836.689C431.439 836.603 431.482 836.473 431.525 836.387C431.568 836.301 431.611 836.171 431.654 836.085L446.329 795.297C446.372 795.211 446.416 795.081 446.459 794.995L446.977 793.398C447.02 793.312 447.02 793.182 447.063 793.096C447.106 793.01 447.149 792.88 447.192 792.794C447.322 792.405 447.279 792.578 447.408 792.189L449.653 786.104C449.696 785.974 449.868 785.629 449.912 785.499L451.552 780.493C451.595 780.406 451.638 780.277 451.681 780.191C451.854 779.716 451.897 779.414 452.07 778.939C452.113 778.852 452.156 778.723 452.199 778.637L453.969 773.328C454.012 773.242 454.055 773.112 454.098 773.026L455.134 770.738C455.307 770.22 455.393 769.918 455.523 769.443L456.127 767.544C456.17 767.458 456.213 767.328 456.213 767.242L457.163 764.436C457.206 764.35 457.249 764.221 457.292 764.134C457.335 764.048 457.378 763.919 457.422 763.832L460.313 755.891C460.357 755.804 460.357 755.675 460.4 755.588C460.443 755.502 460.486 755.373 460.529 755.286C460.572 755.2 460.616 755.07 460.659 754.984C460.702 754.898 460.745 754.768 460.788 754.682L467.478 736.338C467.737 735.648 467.737 735.475 467.953 734.741L470.672 726.627C470.715 726.541 470.758 726.454 470.802 726.325L471.233 725.505C471.276 725.418 471.319 725.332 471.363 725.246L476.844 709.88C476.887 709.751 476.887 709.664 476.93 709.535L478.873 703.579C478.916 703.492 478.959 703.363 479.002 703.276C479.045 703.19 479.089 703.061 479.132 702.974L483.707 690.026C483.75 689.939 483.75 689.81 483.793 689.724L484.009 689.119C484.052 689.033 484.095 688.904 484.138 688.817C484.181 688.731 484.225 688.645 484.268 688.558L484.958 687.177C485.002 687.091 485.045 686.961 485.088 686.875C485.131 686.789 485.131 686.659 485.174 686.573L487.03 680.919C487.073 680.832 487.116 680.703 487.116 680.617L487.937 678.113C487.98 678.027 488.023 677.897 488.066 677.811L489.749 673.667C489.792 673.581 489.836 673.452 489.879 673.365C489.922 673.279 489.965 673.15 490.008 673.063L490.397 671.812C490.44 671.725 490.44 671.596 490.483 671.509L496.957 652.95C497 652.82 497 652.734 497.044 652.605C497.087 652.518 497.087 652.389 497.13 652.302L497.346 651.698C497.389 651.612 497.432 651.482 497.475 651.396C497.518 651.31 497.561 651.223 497.605 651.137L504.51 631.801C504.554 631.714 504.554 631.585 504.597 631.499L507.445 623.902C507.618 623.427 507.747 622.866 507.963 622.305L511.416 612.81C511.459 612.723 511.503 612.594 511.546 612.507L513.617 606.249C513.661 606.12 513.661 606.033 513.704 605.904L513.919 605.256C513.963 605.17 514.006 605.04 514.049 604.954C514.092 604.868 514.135 604.738 514.179 604.652L518.106 593.559C518.236 593.214 518.193 593.3 518.322 592.955C518.495 592.524 518.538 592.221 518.71 591.66L518.926 591.013C518.969 590.927 519.013 590.797 519.056 590.711L519.789 589.33C519.833 589.243 519.876 589.114 519.919 589.027L520.135 588.423C520.178 588.337 520.178 588.207 520.221 588.121C520.264 588.035 520.264 587.905 520.307 587.776L520.609 586.826C520.653 586.74 520.696 586.61 520.739 586.524L522.422 581.517C522.465 581.431 522.509 581.302 522.552 581.215L524.839 575.173C524.882 575.086 524.926 574.957 524.969 574.87L525.918 572.065C525.961 571.979 526.005 571.849 526.048 571.763L526.782 569.562C526.911 569.216 526.954 569.087 527.084 568.612L527.515 567.36C527.558 567.274 527.602 567.188 527.645 567.058L528.335 565.677C528.379 565.591 528.422 565.461 528.465 565.375L530.537 559.073C530.58 558.944 530.623 558.857 530.623 558.771L535.112 546.168C535.241 545.736 535.327 545.434 535.5 544.873L536.665 542.283C536.709 542.197 536.752 542.068 536.795 541.981L538.953 535.377C538.996 535.291 539.039 535.162 539.082 535.075L542.837 524.673C543.01 524.155 543.096 523.81 543.226 523.422C543.355 523.033 543.312 523.206 543.442 522.817C543.485 522.731 543.528 522.602 543.571 522.515L546.592 514.271C546.636 514.185 546.679 514.056 546.722 513.969L554.361 492.82C554.405 492.734 554.448 492.604 554.491 492.518C554.664 492 554.707 491.741 554.879 491.223C554.923 491.137 554.966 491.007 555.009 490.921C555.052 490.835 555.095 490.705 555.138 490.619L562.648 468.908C562.692 468.822 562.735 468.693 562.778 468.606L568.389 453.37C568.432 453.284 568.475 453.154 568.518 453.068L569.684 449.658C569.856 449.14 569.943 448.795 570.072 448.407L573.18 439.861C573.223 439.774 573.223 439.645 573.266 439.559L574.302 436.451C574.345 436.365 574.388 436.235 574.431 436.149L579.611 421.69C579.654 421.56 579.87 421.258 579.913 421.172L580.906 418.409C581.035 418.064 580.992 418.15 581.121 417.805C581.251 417.373 581.337 417.071 581.51 416.553C581.553 416.467 581.553 416.338 581.596 416.251C581.639 416.165 581.682 416.035 581.726 415.949C581.769 415.82 581.898 415.474 581.941 415.345L585.308 406.195C585.351 406.108 585.394 405.979 585.438 405.892L586.258 403.389C586.301 403.303 586.344 403.173 586.344 403.087L590.315 392.038C590.358 391.951 590.401 391.822 590.444 391.735L592.991 384.268C593.034 384.139 593.206 383.837 593.293 383.75L596.659 373.78C596.703 373.694 596.746 373.564 596.789 373.478C596.832 373.392 596.875 373.262 596.918 373.176L597.177 372.615C597.221 372.485 597.393 372.183 597.479 372.097L602.055 359.58C602.098 359.494 602.141 359.364 602.184 359.278L603.306 355.782C603.349 355.695 603.392 355.566 603.392 355.48L604.126 353.278C604.169 353.192 604.169 353.063 604.213 352.976C604.256 352.89 604.299 352.76 604.342 352.674L605.076 350.473C605.119 350.387 605.162 350.257 605.205 350.171L606.155 347.365C606.198 347.279 606.241 347.149 606.284 347.063L607.104 345.38C607.148 345.293 607.191 345.164 607.234 345.078L612.241 330.877C612.413 330.403 612.456 330.057 612.629 329.583L614.528 323.972C614.571 323.885 614.614 323.756 614.658 323.669C614.701 323.583 614.744 323.497 614.787 323.41L618.672 312.275C618.715 312.188 618.758 312.059 618.801 311.973C618.844 311.886 618.887 311.8 618.93 311.714C618.974 311.584 619.146 311.282 619.233 311.196C619.276 311.109 619.319 311.023 619.362 310.937L621.261 305.326C621.779 303.772 622.383 302.304 622.383 300.621H804.998C805.516 301.959 804.48 301.484 809.616 301.441C810.954 301.441 811.127 301.398 812.206 301.743L818.119 302.909C818.896 303.124 818.853 303.038 819.543 303.168C820.32 303.34 819.975 303.254 820.536 303.427L821.14 303.642L836.419 309.21C836.506 309.253 836.592 309.297 836.678 309.34L837.24 309.599C837.326 309.642 837.412 309.685 837.498 309.728L839.441 310.678C839.527 310.721 839.613 310.807 839.7 310.85C839.786 310.894 839.872 310.98 839.959 311.023L856.23 324.748C856.273 324.835 856.36 324.921 856.403 325.007L858.906 328.331C858.95 328.417 859.036 328.504 859.079 328.59L860.331 331.093C860.374 331.18 860.417 331.266 860.46 331.395C862.23 334.891 863.266 336.532 864.431 339.941L865.165 342.963C865.208 343.092 865.208 343.178 865.251 343.308L866.416 349.221C867.15 351.466 867.021 360.055 866.157 362.558C866.114 362.644 866.071 362.731 866.028 362.86C865.64 364.155 866.028 365.45 865.812 366.831C865.553 368.644 865.208 368.471 864.992 370.586C864.906 371.277 864.992 370.975 864.819 371.665C864.776 371.795 864.733 371.881 864.733 371.967C864.69 372.054 864.647 372.183 864.604 372.269L862.316 379.995C862.273 380.082 862.23 380.211 862.187 380.298C862.143 380.384 862.1 380.513 862.057 380.6C862.014 380.686 861.971 380.815 861.928 380.902L860.374 385.606C860.331 385.693 860.288 385.822 860.244 385.909L852.864 406.454C852.821 406.54 852.777 406.669 852.734 406.756C852.691 406.842 852.648 406.971 852.605 407.058L848.418 418.711C848.375 418.798 848.332 418.927 848.332 419.014L844.232 430.365C844.188 430.451 844.188 430.581 844.145 430.667L838.534 446.723C838.491 446.81 838.448 446.939 838.405 447.026L835.168 455.874C835.125 455.96 835.081 456.089 835.038 456.176L831.931 465.585C831.888 465.671 831.844 465.801 831.801 465.887L831.197 467.786C831.154 467.873 831.111 468.002 831.067 468.088C831.024 468.175 830.981 468.261 830.938 468.391L830.334 469.47C830.291 469.556 830.247 469.685 830.204 469.772C830.161 469.858 830.118 469.987 830.075 470.074C830.032 470.16 829.988 470.29 829.945 470.376L827.658 477.282C827.615 477.368 827.571 477.498 827.528 477.584L826.104 481.166C826.061 481.253 826.018 481.382 825.974 481.469L824.205 486.777C824.162 486.864 824.118 486.993 824.075 487.08L819.414 500.33C819.371 500.46 819.241 500.805 819.198 500.934L814.623 513.883C814.58 513.969 814.58 514.099 814.537 514.185L813.156 518.242C812.94 518.976 813.026 518.847 812.767 519.537C812.724 519.623 812.681 519.753 812.638 519.839L811.947 521.22C811.904 521.307 811.861 521.393 811.818 521.523C811.774 521.609 811.731 521.738 811.688 521.825C811.645 521.911 811.602 522.041 811.559 522.127L806.077 537.881C806.034 537.967 805.991 538.097 805.948 538.183L805.343 540.082C805.3 540.168 805.257 540.298 805.214 540.384L803.444 545.693C803.401 545.779 803.358 545.909 803.315 545.995C803.272 546.082 803.229 546.211 803.185 546.297L800.596 553.29C800.552 553.376 800.553 553.505 800.509 553.592L799.258 557.347C799.215 557.433 799.171 557.563 799.128 557.649L798.74 558.944C798.697 559.03 798.697 559.16 798.653 559.246L794.122 571.849C793.992 572.281 793.906 572.583 793.733 573.144C793.69 573.23 793.69 573.36 793.647 573.446L791.877 577.892C791.834 577.978 791.791 578.108 791.748 578.194L786.87 592.049C786.827 592.135 786.784 592.265 786.741 592.351L782.684 603.702C782.641 603.789 782.598 603.918 782.554 604.005L779.36 613.716C779.317 613.802 779.274 613.932 779.231 614.018L777.677 617.859C777.634 617.946 777.591 618.075 777.548 618.162L773.232 630.117C773.188 630.204 773.145 630.333 773.102 630.42C773.059 630.506 773.059 630.635 773.016 630.722L772.627 632.016C772.584 632.103 772.541 632.232 772.498 632.319L767.621 646.174C767.577 646.303 767.448 646.648 767.405 646.778C767.275 647.209 767.189 647.511 767.016 648.029L765.16 653.684C765.117 653.77 765.074 653.899 765.031 653.986L762.398 660.935C762.269 661.28 762.269 661.41 762.096 661.884L761.794 662.834C761.751 662.92 761.708 663.05 761.664 663.136L755.406 675.653C755.363 675.739 755.32 675.826 755.276 675.912L748.543 684.587C746.946 686.184 745.349 688.299 743.45 689.508C741.033 691.062 739.134 693.004 736.501 694.256C733.998 695.464 732.962 696.543 730.157 697.493C730.07 697.536 729.941 697.579 729.855 697.622L727.61 698.701C726.963 698.917 727.222 698.831 726.661 699.003L725.711 699.306C725.625 699.349 725.495 699.392 725.409 699.435C725.323 699.478 725.193 699.521 725.107 699.565L722.301 700.514C721.827 700.687 721.525 700.773 721.05 700.902L713.842 702.456C712.547 702.715 713.324 702.629 712.892 702.758C712.245 702.974 713.669 702.888 711.597 703.147C710.346 703.32 708.835 703.017 707.627 703.363L707.022 703.579C704.131 704.614 684.665 704.01 680.349 704.01C649.23 704.01 618.067 704.01 586.948 704.01V704.83C585.351 705.478 586.646 704.442 585.912 706.686C585.869 706.773 585.826 706.902 585.826 706.988L582.977 714.585C582.805 715.103 582.761 715.362 582.589 715.88L581.423 719.289C581.294 719.721 581.208 720.023 581.035 720.541L580.215 723.044C580.172 723.131 580.172 723.26 580.129 723.347L579.783 724.253C579.74 724.339 579.697 724.426 579.654 724.512L576.589 733.101C576.546 733.187 576.503 733.317 576.46 733.403L575.726 735.604C575.683 735.691 575.64 735.82 575.597 735.907L573.007 742.899C572.964 742.985 572.921 743.115 572.921 743.201L565.842 762.84C565.799 762.926 565.756 763.055 565.713 763.142C565.67 763.228 565.627 763.357 565.583 763.444L563.209 770.652C563.166 770.738 563.123 770.868 563.08 770.954L559.023 782.305C558.98 782.392 558.937 782.521 558.893 782.608L558.419 784.205C558.375 784.291 558.332 784.42 558.289 784.507L553.153 798.146C553.11 798.232 553.067 798.362 553.023 798.448L552.203 800.951C552.16 801.038 552.117 801.167 552.074 801.253L550.52 805.958C550.391 806.303 550.348 806.433 550.218 806.908C550.175 806.994 550.175 807.123 550.132 807.21L549.225 809.238C549.182 809.325 549.139 809.411 549.096 809.497C549.053 809.584 549.01 809.713 548.966 809.799L546.247 817.914C546.204 818 546.204 818.13 546.161 818.216L545.643 819.813C545.6 819.899 545.557 820.029 545.513 820.115L540.507 834.272C540.464 834.358 540.42 834.445 540.377 834.531L539.946 835.351C539.903 835.438 539.859 835.524 539.816 835.653L537.442 842.861C537.399 842.948 537.356 843.077 537.313 843.163C537.27 843.25 537.227 843.379 537.183 843.466L535.759 847.048C535.716 847.134 535.673 847.221 535.63 847.35L532.824 855.81C532.608 856.544 532.695 856.414 532.436 857.105L529.587 864.658C529.544 864.744 529.501 864.874 529.501 864.96L528.983 866.514C528.94 866.6 528.896 866.73 528.853 866.816C528.81 866.902 528.767 867.032 528.724 867.118L522.034 885.462C521.861 885.98 521.818 886.239 521.645 886.757C521.602 886.843 521.559 886.973 521.559 887.059C521.516 887.145 521.473 887.275 521.43 887.361L518.236 896.252C518.192 896.339 518.149 896.425 518.106 896.554L515.603 904.065C515.56 904.151 515.516 904.28 515.473 904.367L512.366 912.913C512.323 912.999 512.279 913.128 512.236 913.215L512.02 913.819C511.977 913.905 511.977 914.035 511.934 914.121L511.416 915.675C511.373 915.761 511.33 915.891 511.287 915.977L508.05 924.825C508.006 924.912 507.963 925.041 507.92 925.127C507.877 925.214 507.834 925.343 507.791 925.43C507.747 925.516 507.704 925.645 507.704 925.732L505.633 931.17C505.589 931.256 505.546 931.343 505.503 931.472L503.949 936.177C503.906 936.306 503.777 936.652 503.733 936.781L502.784 939.587C502.741 939.673 502.698 939.802 502.698 939.889C502.568 940.277 502.525 940.45 502.396 940.838L502.18 941.443C502.137 941.529 502.093 941.658 502.05 941.745L499.029 949.989C498.986 950.075 498.943 950.204 498.899 950.291C498.856 950.377 498.813 950.507 498.77 950.593L497.95 953.096C497.907 953.183 497.864 953.312 497.82 953.398L494.799 961.642C494.756 961.729 494.713 961.858 494.67 961.944C494.626 962.031 494.583 962.16 494.54 962.246C494.497 962.333 494.454 962.462 494.411 962.549L489.404 976.706C489.275 977.051 489.231 977.18 489.102 977.655L487.98 980.288C487.937 980.374 487.893 980.461 487.85 980.59L485.692 987.194C485.649 987.28 485.649 987.41 485.606 987.496L485.39 988.1C485.347 988.187 485.304 988.316 485.261 988.402L483.577 992.546C483.318 993.237 483.405 993.107 483.189 993.841L481.894 997.553C481.506 998.804 481.635 999.15 481.635 1000.62H520.955C526.825 1000.57 524.796 1000.14 527.084 999.797C532.349 999.02 533.299 1000.7 538.91 999.107C541.586 998.33 544.693 999.452 547.413 998.848L556.131 997.553C558.246 996.819 560.922 997.682 563.037 996.948L573.352 995.567C576.848 995.308 573.309 995.179 576.287 994.747C577.841 994.531 579.352 994.834 580.862 994.316C582.459 993.755 583.97 994.143 585.567 993.625C585.653 993.582 585.74 993.539 585.869 993.496C585.955 993.452 586.085 993.409 586.171 993.366C586.258 993.323 586.387 993.28 586.473 993.237C588.631 992.675 588.631 993.107 590.056 992.632C590.746 992.417 589.236 992.503 591.351 992.244C591.998 992.157 592.775 992.287 593.422 992.201C596.789 991.942 593.336 991.726 596.789 991.381L599.896 990.733C601.234 990.388 601.796 990.69 603.177 990.258L609.694 988.834C611.377 988.618 610.644 988.575 610.989 988.489L624.93 984.906C625.664 984.734 625.707 984.777 626.354 984.647C626.484 984.647 626.57 984.604 626.7 984.604L649.1 978.216C649.186 978.173 649.316 978.173 649.402 978.13C649.92 977.957 650.266 977.871 650.654 977.742L652.208 977.224C652.294 977.18 652.424 977.18 652.51 977.137L666.58 972.433C666.667 972.389 666.796 972.346 666.883 972.346L668.436 971.828C668.523 971.785 668.652 971.742 668.738 971.699L670.335 971.224C670.422 971.181 670.551 971.138 670.638 971.095L673.529 969.8C673.616 969.757 673.745 969.757 673.875 969.714C673.961 969.67 674.09 969.67 674.22 969.627C674.306 969.584 674.436 969.541 674.522 969.541L677.63 968.505C677.716 968.462 677.845 968.419 677.932 968.375L697.958 960.045C698.045 960.002 698.174 959.959 698.261 959.959C698.347 959.916 698.476 959.916 698.563 959.873L701.8 958.535C701.886 958.491 701.972 958.448 702.059 958.405L714.835 952.449C715.007 952.362 715.223 952.233 715.396 952.19C715.482 952.147 715.568 952.103 715.655 952.06L719.841 949.989C720.014 949.902 720.23 949.773 720.402 949.73C720.489 949.686 720.575 949.643 720.704 949.6L726.531 946.665C726.704 946.579 726.92 946.449 727.092 946.363C727.179 946.32 727.265 946.277 727.351 946.234L729.855 944.982C730.027 944.895 730.243 944.766 730.416 944.723L733.178 943.342C733.351 943.255 733.566 943.126 733.739 943.083L748.716 934.709C748.802 934.666 748.932 934.623 749.018 934.58L753.291 932.163C755.406 930.566 751.392 933.328 753.766 931.817L758.211 929.141C758.298 929.098 758.384 929.055 758.47 929.012L767.103 923.876C767.707 923.53 767.275 923.789 767.836 923.358L768.527 922.797C768.613 922.754 768.7 922.667 768.786 922.624C768.872 922.581 768.959 922.495 769.045 922.451C769.088 922.408 769.52 922.192 769.563 922.149C769.649 922.106 769.736 922.02 769.822 921.977L786.525 910.755C786.612 910.711 786.698 910.668 786.784 910.625L790.108 908.122C790.194 908.079 790.28 908.035 790.367 907.992L790.884 907.69C791.014 907.604 791.92 906.913 792.05 906.784L802.322 899.101C805.257 897.375 807.156 895.216 809.055 893.749L817.169 887.275C818.119 886.455 817.429 887.016 818.421 886.455C819.673 885.764 821.399 883.476 823.687 882.138L825.931 880.196C826.32 879.808 826.492 879.635 826.967 879.16L833.01 873.938C834.348 872.6 835.643 870.916 837.326 869.924C837.412 869.88 837.542 869.837 837.585 869.794C839.829 868.542 841.685 866.125 843.411 864.356C846.174 861.593 867.539 841.092 869.265 838.07C870.344 836.128 872.416 834.445 874.056 832.848C875.437 831.467 875.998 829.999 877.379 828.661C878.717 827.366 880.271 826.201 881.307 824.69C881.35 824.604 881.436 824.518 881.48 824.431L893.047 809.756C893.996 808.375 895.248 807.555 896.068 806.131L904.053 795.34C904.916 794.261 904.355 795.125 905.089 794.304C905.175 794.218 905.391 793.959 905.477 793.83L907.463 790.808C907.506 790.722 907.549 790.636 907.592 790.549L908.24 789.513C909.06 788.521 908.455 789.341 909.06 788.693L910.095 787.226C910.139 787.14 910.182 787.053 910.225 786.967L917.044 776.694C917.303 776.263 917.217 776.479 917.562 775.961L925.418 763.832C925.461 763.746 925.547 763.66 925.59 763.573C925.936 763.055 925.763 763.228 926.022 762.753C926.065 762.667 926.108 762.581 926.195 762.494L930.597 755.243C932.194 751.92 931.59 754.207 933.1 751.1C933.143 751.013 933.187 750.927 933.23 750.797L937.114 743.848C937.157 743.762 937.201 743.676 937.244 743.589L940.999 736.899C941.042 736.813 941.085 736.727 941.128 736.64L944.883 729.13C945.056 728.742 944.97 728.958 945.185 728.569C945.229 728.483 945.272 728.396 945.315 728.31C945.488 727.922 945.401 728.138 945.617 727.749L946.567 725.807C946.739 725.418 946.653 725.634 946.869 725.246L948.25 722.483C948.466 722.095 948.336 722.311 948.552 721.922C948.595 721.836 948.638 721.75 948.681 721.62C948.854 721.232 948.768 721.448 948.94 721.059C949.113 720.757 949.329 720.282 949.502 719.937L950.753 717.433C950.926 717.045 950.84 717.261 951.012 716.872C951.055 716.786 951.099 716.7 951.142 716.613C951.314 716.225 951.228 716.441 951.401 716.052C951.573 715.75 951.789 715.275 951.962 714.93L955.328 708.283C955.371 708.154 955.544 707.808 955.587 707.679C955.63 707.593 955.674 707.463 955.674 707.377L957.4 703.233C957.443 703.147 957.486 703.061 957.53 702.931L957.788 702.37C957.832 702.284 957.875 702.197 957.918 702.111L963.615 688.213C963.658 688.127 963.702 687.997 963.745 687.911L966.68 680.832C966.723 680.746 966.723 680.617 966.766 680.487L968.19 677.293C968.233 677.207 968.234 677.077 968.277 676.991L968.449 676.344C968.492 676.257 968.536 676.128 968.536 676.041L969.442 673.193C969.485 673.106 969.528 672.977 969.572 672.891L978.981 644.749C979.024 644.663 979.067 644.533 979.11 644.447C979.585 643.023 978.808 645.224 979.283 643.8C979.326 643.713 979.326 643.584 979.369 643.497C979.412 643.411 979.455 643.282 979.499 643.195L982.218 634.261C982.261 634.175 982.304 634.045 982.304 633.959L982.692 631.844C982.736 631.714 982.779 631.628 982.779 631.542L986.102 618.205C986.145 618.075 986.275 617.73 986.318 617.601L986.491 616.953C986.663 616.176 986.577 615.96 986.793 615.183L989.944 601.242C990.159 599.257 989.728 602.062 990.03 600.508L991.325 595.113C991.799 593.646 991.411 592.178 991.886 590.711L992.145 590.106C992.835 587.948 992.404 587.56 992.835 586.222L993.267 582.898C993.526 579.402 993.828 583.071 994.13 579.575L994.95 571.202C995.037 570.338 994.907 571.245 995.037 570.468C995.296 569.173 995.209 569.95 995.382 569.562C995.986 567.878 995.511 565.979 995.986 564.296C996.029 564.209 996.072 564.08 996.116 563.994C996.159 563.907 996.202 563.821 996.245 563.692C996.849 562.008 996.331 559.03 996.763 557.088C996.806 556.958 996.806 556.872 996.849 556.786C996.892 556.699 996.936 556.57 996.979 556.484L997.324 555.62C997.669 554.412 997.497 552.901 997.497 551.606C997.497 551.218 997.497 550.311 997.54 549.966C997.885 547.592 997.669 549.578 998.058 548.412C998.748 546.297 998.144 543.449 998.317 541.161C998.619 537.708 998.878 541.291 999.18 537.838C999.353 535.68 999.18 532.183 999.137 529.896C999.094 527.134 999.871 526.227 1000 523.637V521.307C999.914 511.509 1000 501.711 1000 491.957V491.137V476.03C999.827 474.045 999.137 474.131 999.18 469.426C999.18 466.923 999.525 463.254 998.748 461.096C998.705 461.01 998.662 460.924 998.619 460.794L998.317 458.593C998.317 457.341 998.36 456.046 998.36 454.795L997.799 451.601C997.108 449.572 997.799 446.378 997.108 444.393C996.504 442.709 996.979 438.911 996.288 436.883L995.857 432.307C995.511 429.89 995.036 430.063 995.08 427.257C995.08 426.869 995.08 425.963 995.037 425.617C994.691 423.243 994.907 425.186 994.519 424.063L993.699 419.057C993.267 417.762 993.569 416.035 993.137 414.654C993.094 414.568 993.051 414.482 993.008 414.352L992.792 413.748C992.447 412.41 992.749 411.892 992.317 410.468L990.418 400.713C989.987 399.332 990.289 398.814 989.944 397.433L988.433 391.002C988.303 389.707 988.476 390.613 988.174 389.62C988.131 389.491 987.958 389.146 987.958 389.016C987.785 388.412 987.872 388.844 987.699 388.023L987.224 385.995C987.181 385.909 987.138 385.779 987.095 385.693L985.843 380.254C985.8 380.125 985.8 380.039 985.757 379.909L985.412 379.003C985.368 378.916 985.325 378.787 985.282 378.701L983.426 370.975C983.383 370.845 983.383 370.759 983.383 370.629L982.779 368.73C982.736 368.601 982.736 368.514 982.692 368.385L980.275 359.537C980.146 359.148 980.103 358.976 979.973 358.587C979.93 358.501 979.93 358.371 979.887 358.285L979.067 355.782C979.024 355.695 978.981 355.566 978.938 355.48L977.772 351.207C977.599 350.732 977.556 350.43 977.384 349.955L976.564 347.452C976.52 347.365 976.477 347.236 976.434 347.149C976.391 347.063 976.348 346.934 976.305 346.847C976.261 346.761 976.218 346.631 976.175 346.545L975.571 344.646C975.096 343.222 975.83 345.466 975.355 344.042L972.247 334.632C972.204 334.546 972.161 334.417 972.118 334.33L970.305 329.021C970.262 328.935 970.219 328.849 970.176 328.762L969.097 326.086C969.054 325.957 969.01 325.871 969.01 325.784C968.967 325.698 968.924 325.569 968.881 325.482L966.291 318.49C966.248 318.404 966.205 318.274 966.162 318.188C966.119 318.102 966.075 318.015 966.032 317.929L964.867 314.908C964.824 314.821 964.781 314.692 964.737 314.605C964.694 314.519 964.651 314.39 964.608 314.303C964.565 314.217 964.522 314.088 964.478 314.001C964.435 313.915 964.392 313.829 964.349 313.742C964.176 313.354 964.22 313.613 964.047 313.224C964.004 313.138 963.961 313.052 963.917 312.965L963.184 310.764C963.14 310.678 963.097 310.548 963.054 310.462L962.795 309.858C962.752 309.771 962.709 309.685 962.666 309.599L957.227 297.082C957.184 296.996 957.141 296.909 957.098 296.823L954.724 291.255C954.077 290.046 955.069 291.946 954.422 290.694C954.379 290.608 954.336 290.521 954.292 290.392C954.249 290.305 954.206 290.219 954.163 290.133L950.969 283.745C950.883 283.572 950.796 283.4 950.71 283.184L950.408 282.623C950.365 282.536 950.322 282.45 950.279 282.364L946.869 275.371C946.826 275.285 946.826 275.156 946.782 275.026L945.488 272.566C945.444 272.48 945.358 272.393 945.315 272.307L942.639 267.041C942.596 266.955 942.553 266.869 942.509 266.782L942.207 266.221C942.164 266.135 942.121 266.049 942.078 265.962L928.612 242.31C928.568 242.223 928.482 242.137 928.439 242.051C928.396 242.008 928.05 241.231 928.007 241.231L926.108 238.123C926.065 238.037 926.022 237.95 925.936 237.864L923.821 234.541C923.778 234.454 923.734 234.325 923.691 234.238C923.648 234.152 923.605 234.023 923.562 233.936L916.311 222.844C915.404 220.988 914.109 219.822 913.117 218.139L905.909 207.823C905.866 207.694 905.693 207.392 905.607 207.262L904.7 206.054C904.053 205.406 904.657 206.227 903.88 205.234L893.522 191.379C893.478 191.293 893.435 191.206 893.349 191.12L889.162 186.113C888.17 184.387 886.529 183.092 885.537 181.409L881.782 177.222C881.436 176.704 881.652 176.877 881.35 176.402L880.487 175.193C880.401 175.107 879.839 174.589 879.624 174.373L874.833 168.719C872.329 166.259 870.474 164.791 868.704 161.943C868.402 161.468 868.1 161.123 867.754 160.82L838.577 131.643C837.11 130.132 835.729 129.658 834.175 128.104L828.953 123.313C826.924 122.148 824.421 119.083 823.644 118.608C823.557 118.565 823.471 118.522 823.385 118.479C823.298 118.436 823.212 118.392 823.126 118.349C822.133 117.788 822.781 118.349 821.874 117.529C820.752 116.537 819.759 115.112 818.421 114.335C816.263 113.084 814.709 111.055 812.594 109.717C812.12 109.415 811.774 109.113 811.472 108.767L810.005 107.3C809.401 106.825 809.875 107.17 809.228 106.825L808.408 106.394C808.321 106.35 808.235 106.264 808.149 106.221C807.631 105.876 807.458 105.573 807.07 105.228L795.891 96.8116C795.762 96.7253 795.459 96.5958 795.33 96.5095C795.244 96.4663 795.157 96.4232 795.071 96.38L789.201 91.8049C789.115 91.7617 789.029 91.7186 788.942 91.6754L781.95 86.9708C781.864 86.9276 781.777 86.8845 781.691 86.7981L779.965 85.6328C779.317 85.0285 780.094 85.5896 779.145 84.8127C778.238 84.0789 779.663 85.1148 778.67 84.4674C778.195 84.1653 778.411 84.3379 777.85 84.0358L776.728 83.5178C776.598 83.4747 776.296 83.302 776.166 83.2157L774.958 82.3093C774.872 82.2662 774.785 82.1798 774.742 82.1367L771.721 80.1512C771.635 80.1081 771.548 80.0649 771.462 80.0217C771.376 79.9786 771.289 79.9354 771.203 79.8923L769.261 78.5111C769.174 78.4679 769.088 78.4248 769.002 78.3816C768.915 78.3384 768.829 78.2953 768.743 78.2521L743.709 63.275C743.623 63.2319 743.494 63.1887 743.407 63.1455L741.292 61.937C740.861 61.6349 740.559 61.3327 740.343 61.2033C740.256 61.1601 740.17 61.0738 740.084 61.0306C739.997 60.9875 739.911 60.9443 739.825 60.9011L737.321 59.6494C737.235 59.6063 737.106 59.5631 737.019 59.52L735.897 58.9589C735.811 58.9157 735.724 58.8725 735.595 58.8294L731.149 56.585C731.063 56.5418 730.977 56.4986 730.891 56.4555L722.172 51.8372C720.704 51.3624 720.402 50.7581 719.151 50.2402L716.388 49.2475C716.302 49.2043 716.216 49.1612 716.129 49.118C716.043 49.0748 715.957 49.0317 715.87 48.9885C715.784 48.9453 715.698 48.9022 715.611 48.859L715.05 48.5569C714.748 48.3842 714.446 48.2548 714.23 48.1253L712.547 47.3052C712.461 47.262 712.374 47.2189 712.245 47.1757L706.936 44.5429C706.85 44.4997 706.72 44.4565 706.634 44.4134L704.433 43.6796C704.433 43.6796 703.656 43.2912 703.613 43.248L703.052 42.9459C702.965 42.9027 702.879 42.8595 702.793 42.8164C702.706 42.7732 702.62 42.7301 702.534 42.6869C702.447 42.6437 702.361 42.6006 702.232 42.5574L700.289 41.5647C700.203 41.5215 700.117 41.4784 700.03 41.4352L693.901 38.8023C693.815 38.7592 693.686 38.716 693.599 38.6729C693.513 38.6297 693.383 38.5865 693.297 38.5434C693.211 38.5002 693.081 38.5002 692.995 38.4571L680.133 33.364C680.047 33.3208 679.917 33.3208 679.788 33.2777L679.14 33.0618C679.054 33.0187 678.924 32.9755 678.838 32.9324L671.889 30.2995C671.76 30.2563 671.458 30.0837 671.371 29.9974C671.285 29.9542 671.199 29.8679 671.112 29.8679L668.35 28.8752C668.005 28.7457 668.091 28.7888 667.746 28.6594L646.467 21.5808C646.381 21.5377 646.251 21.4945 646.165 21.4945L640.641 19.9407C640.554 19.8975 640.425 19.8975 640.338 19.8544C640.252 19.8112 640.123 19.768 640.036 19.7249L627.217 16.3151C627.131 16.272 627.002 16.2288 626.915 16.1856C626.829 16.1425 626.7 16.0993 626.613 16.0561L625.362 15.6677C625.275 15.6245 625.146 15.5814 625.059 15.5382L610.255 11.9989C609.262 11.6968 609.521 11.8695 608.529 11.6537L603.349 10.5746C603.263 10.5314 603.177 10.4883 603.047 10.4451L590.833 8.07123C588.89 7.46697 587.25 7.72594 585.826 7.25116C584.661 6.86271 586.689 7.03535 584.272 6.73322C583.625 6.6469 582.848 6.77638 582.2 6.69006C578.704 6.43109 582.244 6.25844 579.265 5.86999C577.712 5.65418 577.41 6.0858 575.856 5.56786C574.734 5.1794 576.633 5.52469 574.647 5.09308C573.223 4.79095 571.712 5.22256 570.331 4.83411L569.166 4.35933C567.871 4.01404 566.878 4.31617 565.583 4.18668C562.087 3.92771 565.756 3.62558 562.26 3.32345C561.138 3.23713 559.627 3.40977 558.462 3.36661C555.527 3.23713 557.469 2.5897 551.383 2.54654C550.865 2.54654 550.348 2.54654 549.83 2.41705L548.319 1.85595C546.031 1.20853 543.01 1.89911 540.55 1.68331C537.097 1.38117 540.55 1.29485 537.615 0.863234C534.421 0.388455 530.796 1.51066 527.602 0.863234C526.35 0.604263 526.825 1.1222 526.35 0H500.496C500.453 1.51066 499.633 3.06448 499.115 4.48881L498.597 6.0858C498.554 6.17212 498.511 6.30161 498.468 6.38793L497.389 9.49557C497.259 9.84086 497.216 9.97035 497.087 10.4451L485.606 42.3416C485.476 42.7301 485.433 42.9027 485.304 43.2912C485.261 43.3775 485.261 43.507 485.217 43.5933L483.448 48.0821C483.405 48.1684 483.361 48.2979 483.318 48.3842C483.275 48.4706 483.232 48.6 483.189 48.6864L482.369 51.1898C482.326 51.2761 482.282 51.4056 482.239 51.4919L481.506 53.6931C481.462 53.7794 481.419 53.9089 481.376 53.9953L475.851 69.7493C475.808 69.8356 475.765 69.9651 475.722 70.0514L472.916 77.6479C472.744 78.1658 472.658 78.5111 472.528 78.8995L472.096 80.1512C471.967 80.5397 471.924 80.7123 471.794 81.1008L469.679 86.496C468.557 89.7763 467.867 93.4019 466.313 96.4663C466.27 96.5958 466.054 96.898 466.011 96.9843L459.925 114.206C459.882 114.292 459.839 114.422 459.795 114.508L459.278 116.105C459.234 116.191 459.191 116.321 459.148 116.407L458.716 117.659C458.673 117.788 458.673 117.875 458.63 118.004L456.558 123.399C456.515 123.486 456.472 123.615 456.429 123.701C456.386 123.788 456.343 123.917 456.299 124.004L452.588 134.449C452.544 134.535 452.501 134.664 452.501 134.751C452.372 135.096 452.415 135.01 452.285 135.355L449.178 143.944C449.135 144.031 449.092 144.117 449.048 144.246L448.315 146.448C448.271 146.534 448.228 146.663 448.185 146.75C448.142 146.836 448.099 146.966 448.056 147.052L447.106 149.857C446.933 150.332 446.89 150.677 446.718 151.152C446.674 151.239 446.631 151.368 446.588 151.454L443.999 158.447C443.955 158.533 443.912 158.662 443.869 158.749L442.445 163.151C442.315 163.496 442.358 163.41 442.229 163.755L439.941 169.798C439.898 169.884 439.855 170.014 439.812 170.1L438.042 175.409C437.87 175.841 437.826 176.143 437.654 176.704L434.935 183.998C434.892 184.085 434.848 184.214 434.805 184.3L430.748 195.652C430.705 195.738 430.662 195.868 430.619 195.954C430.575 196.04 430.532 196.17 430.489 196.256L422.979 217.103C422.936 217.19 422.893 217.319 422.85 217.405C422.806 217.492 422.806 217.621 422.763 217.708L422.159 219.607C422.116 219.693 422.073 219.822 422.029 219.909L412.75 246.065C412.577 246.583 412.491 246.928 412.361 247.316L403.513 272.221C403.47 272.35 403.47 272.436 403.427 272.566L400.924 279.213C400.881 279.299 400.837 279.429 400.837 279.515L399.37 283.874C399.327 284.004 399.327 284.09 399.284 284.22L395.011 296.219C394.967 296.305 394.924 296.434 394.881 296.521L392.68 301.83L393.198 301.7Z" fill="#094A80"/>
<path fill-rule="evenodd" clip-rule="evenodd" d="M606.672 646.95L661.703 646.13C663.3 645.483 662.005 646.519 662.739 644.274L665.199 637.584C665.242 637.498 665.285 637.369 665.328 637.282L671.371 619.974C671.414 619.888 671.457 619.759 671.5 619.672C671.63 619.284 671.673 619.068 671.802 618.723L681.168 593.085C681.212 592.998 681.255 592.912 681.298 592.783C681.341 592.696 681.384 592.567 681.427 592.48L684.405 583.373C684.449 583.287 684.492 583.157 684.535 583.071L684.794 582.467C684.837 582.381 684.88 582.294 684.923 582.208L686.952 576.726C686.995 576.64 687.038 576.511 687.081 576.424L689.671 568.612C689.714 568.526 689.757 568.396 689.801 568.31L692.692 560.368C692.736 560.282 692.779 560.152 692.779 560.066L703.137 531.622C703.181 531.536 703.224 531.407 703.267 531.32L703.742 529.723C703.785 529.637 703.828 529.508 703.871 529.421L704.821 526.616C704.95 526.184 705.036 525.882 705.209 525.364L706.115 522.515C706.159 522.429 706.202 522.3 706.245 522.213L706.504 521.609C706.547 521.523 706.59 521.436 706.633 521.35L711.079 509.135C711.122 509.049 711.165 508.963 711.209 508.876C711.252 508.79 711.295 508.66 711.338 508.574L712.288 505.769C712.331 505.682 712.374 505.553 712.417 505.466C712.46 505.38 712.46 505.251 712.503 505.164C712.676 504.646 712.762 504.301 712.892 503.913L714.359 499.553C714.402 499.467 714.446 499.338 714.446 499.251L716.215 494.762C716.258 494.676 716.302 494.59 716.345 494.46L723.509 473.699C723.553 473.613 723.553 473.484 723.596 473.397L726.833 464.549C726.876 464.463 726.919 464.333 726.919 464.247L727.567 462.391C727.739 461.787 727.61 462.046 727.869 461.442L732.271 449.184C732.314 449.097 732.357 449.011 732.401 448.925L733.091 447.544C733.134 447.457 733.177 447.328 733.221 447.241L734.774 442.537C734.904 442.105 734.99 441.803 735.163 441.285C735.206 441.199 735.249 441.069 735.249 440.983L735.595 440.077C735.724 439.731 735.767 439.602 735.897 439.127L738.616 431.833C738.659 431.746 738.702 431.617 738.745 431.531C738.788 431.401 738.918 431.056 738.961 430.926L742.069 422.337C742.112 422.251 742.155 422.164 742.198 422.035L743.234 418.927C743.407 418.453 743.45 418.107 743.622 417.632C743.666 417.546 743.709 417.417 743.752 417.33L744.788 414.223C744.961 413.791 745.004 413.489 745.176 412.928L750.399 398.943C750.442 398.857 750.485 398.771 750.528 398.641L751.694 395.188C751.737 395.102 751.737 394.973 751.78 394.886C751.909 394.455 751.953 394.282 752.082 393.937L756.139 382.585C756.182 382.499 756.226 382.369 756.269 382.283C756.312 382.154 756.441 381.808 756.484 381.679L757.693 377.924C757.736 377.837 757.736 377.708 757.779 377.622C757.822 377.535 757.866 377.406 757.909 377.319L762.095 365.666C762.139 365.58 762.182 365.45 762.225 365.364C763.347 362.774 764.297 361.35 764.297 358.717H709.266C709.266 359.494 709.223 359.235 709.094 359.796L698.044 391.261C698.001 391.347 697.958 391.477 697.915 391.563L697.44 393.16C697.397 393.246 697.354 393.376 697.311 393.462L692.779 406.022C692.649 406.454 692.606 406.626 692.477 406.972C692.433 407.058 692.433 407.187 692.39 407.274L691.441 409.259C691.398 409.345 691.354 409.432 691.311 409.561L679.96 442.019C679.917 442.105 679.917 442.235 679.874 442.321C679.83 442.407 679.787 442.537 679.744 442.623C679.701 442.709 679.658 442.839 679.615 442.925C679.571 443.012 679.528 443.141 679.485 443.227L675.687 454.018C675.644 454.104 675.601 454.234 675.557 454.32C675.514 454.406 675.471 454.536 675.428 454.622L673.529 459.413C673.486 459.499 673.443 459.629 673.443 459.715C673.27 460.233 673.184 460.578 673.054 460.967C673.011 461.096 672.881 461.442 672.838 461.571C672.795 461.657 672.752 461.787 672.752 461.873C672.709 461.96 672.666 462.089 672.666 462.175L671.543 465.671C671.5 465.758 671.457 465.887 671.414 465.974C671.371 466.06 671.328 466.189 671.284 466.276L669.083 472.016C669.04 472.103 668.997 472.232 668.997 472.318C668.954 472.405 668.911 472.534 668.867 472.62C668.824 472.75 668.695 473.095 668.652 473.225L667.098 477.929C667.055 478.016 667.012 478.145 666.968 478.231L666.666 479.181C666.623 479.267 666.623 479.397 666.58 479.526C666.537 479.613 666.537 479.742 666.494 479.828C666.45 479.915 666.407 480.044 666.364 480.131L663.645 487.382C663.602 487.468 663.559 487.598 663.515 487.684L662.998 489.281C662.954 489.367 662.911 489.497 662.868 489.583L662.048 492.086C662.005 492.173 661.962 492.259 661.919 492.388L661.314 493.468C661.271 493.554 661.228 493.64 661.185 493.77L660.839 494.676C660.667 495.194 660.58 495.496 660.451 495.971C660.322 496.316 660.365 496.23 660.235 496.575C660.192 496.661 660.149 496.791 660.106 496.877L654.495 512.933C654.452 513.02 654.408 513.149 654.365 513.236L652.466 518.027C652.423 518.156 652.423 518.242 652.38 518.372C652.337 518.501 652.337 518.588 652.294 518.717L646.251 536.025L646.035 536.629L642.28 547.074C642.237 547.161 642.237 547.29 642.194 547.376L630.195 580.827C630.152 580.913 630.109 581.043 630.066 581.129C630.022 581.215 629.979 581.345 629.979 581.431L624.8 596.235C624.757 596.322 624.714 596.451 624.714 596.538L614.614 625.197C614.571 625.283 614.528 625.413 614.484 625.499C614.441 625.585 614.398 625.672 614.355 625.801L612.931 629.384C612.801 629.729 612.844 629.643 612.715 629.988L606.586 647.209L606.672 646.95Z" fill="#094A80"/>
</svg>
