<svg width="1000" height="497" viewBox="0 0 1000 497" fill="none" xmlns="http://www.w3.org/2000/svg">
<path d="M538.958 1.6891C535.687 2.19351 532.542 14.2348 526.22 20.5077C521.595 25.035 515.823 24.7517 512.757 30.3486C511.594 32.4397 511.97 36.0088 510.65 39.4359C508.07 46.2899 498.981 46.9025 498.981 54.3705C498.948 62.4352 506.56 63.9756 513.15 69.6977C518.294 74.304 518.797 77.4794 525.024 79.7114C530.341 81.5202 538.25 75.6085 545.376 77.731C551.226 79.4766 556.824 80.7337 558.147 86.7392C559.309 92.2728 558.068 100.856 550.975 99.8661C548.583 99.5986 538.219 96.1083 525.48 97.4602C510.114 99.2059 492.578 104.219 490.864 121.341C489.92 130.914 501.763 142.202 513.197 139.907C521.107 138.349 517.365 129.029 521.674 124.501C527.32 118.7 559.309 144.749 589.05 144.749C601.569 144.749 610.879 141.589 620.128 131.905C620.992 131.166 622.046 129.578 623.383 129.483C624.641 129.578 626.842 130.82 627.567 131.355C651.519 150.597 669.621 189.191 757.647 189.648C770.024 189.709 784.13 195.621 795.643 206.123C805.914 215.619 811.921 230.379 817.755 245.361C826.564 267.842 842.354 289.71 866.29 314.046C867.596 315.35 887.302 330.663 888.874 331.81C889.127 331.967 890.573 335.425 890.071 337.358C889.489 351.948 887.366 394.377 919.008 396.297C926.747 396.689 924.717 391.25 924.717 387.508C924.702 380.119 923.349 372.777 927.25 365.216C932.581 354.809 915.942 350.014 916.429 327.518C916.776 310.744 902.683 313.604 895.528 300.823C891.407 293.419 887.742 289.49 888.01 280.434C889.615 229.468 877.159 195.983 870.946 187.761C866.103 181.551 862.092 179.084 866.526 176.206C892.933 158.772 898.925 142.547 898.925 142.547C912.968 109.55 925.599 79.4123 943.008 66.1456C946.516 63.4091 955.512 56.6972 961.032 54.0556C977.278 46.3993 985.834 41.7626 990.553 37.1711C998.023 29.8928 1003.92 14.7224 996.764 5.52572C987.862 -5.82505 972.466 3.18312 965.672 7.20706C917.122 36.0088 909.965 86.8169 893.152 115.996C879.737 139.309 857.923 156.43 838.422 157.828C823.795 158.913 808.037 155.958 792.341 149.071C754.171 132.346 733.284 110.745 728.363 106.925C718.107 99.0175 638.497 20.9004 573.999 17.7093C573.999 17.7093 565.995 1.69023 563.981 1.42279C559.261 0.824732 554.435 10.9963 550.975 12.1766C547.719 13.2599 542.246 1.15423 538.958 1.6891ZM255.018 467.92C248.947 467.777 243.789 462.795 243.789 456.632L243.804 255.533H177.498V477.21C177.498 488.073 186.305 496.94 197.11 496.94H313.005C323.887 496.94 332.585 488.073 332.585 477.21V255.533H266.342L266.278 456.632C266.278 462.795 261.12 467.777 255.018 467.92ZM477.024 255.533H376.668C364.794 255.533 355.123 265.185 355.123 277.18V496.939H421.489V295.354C421.537 289.177 426.538 284.287 432.704 284.287C438.901 284.287 443.871 289.066 444.011 295.181V496.94H510.113V295.18C510.192 289.065 515.161 284.286 521.342 284.286C527.477 284.286 532.541 289.175 532.588 295.353V496.94H598.957V277.18C598.957 265.185 589.268 255.533 577.396 255.533H477.024ZM88.7646 295.777C88.8119 289.065 83.3391 284.286 77.5355 284.286H66.2748V406.388H77.5355C83.3865 406.388 88.813 401.734 88.7646 395.055V295.777ZM133.258 436.274H66.2748V496.94H0V255.533H133.683C145.65 255.533 154.991 265.248 154.991 277.275V414.533C154.991 426.575 145.289 436.274 133.258 436.274Z" fill="#A5A5A5"/>
<path d="M710.229 406.436V295.275C710.071 289.128 705.118 284.412 698.936 284.412C692.819 284.412 687.754 289.316 687.708 295.448V406.436H710.229ZM710.229 496.94V436.336H687.708V496.94H621.464V277.18C621.464 265.185 631.135 255.533 643.011 255.533H754.925C766.831 255.533 776.504 265.185 776.504 277.18V496.939L710.229 496.94Z" fill="#A5A5A5"/>
</svg>
